<svg id="Layer_1" data-name="Layer 1" xmlns="http://www.w3.org/2000/svg" xmlns:xlink="http://www.w3.org/1999/xlink" viewBox="0 0 383.14 383.31"><defs><style>.cls-1{fill:url(#linear-gradient);}.cls-2{fill:url(#linear-gradient-2);}.cls-3{fill:url(#linear-gradient-3);}.cls-4{fill:url(#linear-gradient-4);}.cls-5{fill:url(#linear-gradient-5);}.cls-6{fill:url(#linear-gradient-6);}.cls-7{fill:url(#linear-gradient-7);}</style><linearGradient id="linear-gradient" x1="237.17" y1="318.14" x2="409.64" y2="318.14" gradientUnits="userSpaceOnUse"><stop offset="0" stop-color="#00adee"/><stop offset="1" stop-color="#2e3191"/></linearGradient><linearGradient id="linear-gradient-2" x1="115.67" y1="170.53" x2="320.28" y2="170.53" xlink:href="#linear-gradient"/><linearGradient id="linear-gradient-3" x1="26.5" y1="318.28" x2="198.75" y2="318.28" xlink:href="#linear-gradient"/><linearGradient id="linear-gradient-4" x1="262.79" y1="387.63" x2="281.74" y2="387.63" xlink:href="#linear-gradient"/><linearGradient id="linear-gradient-5" x1="141.29" y1="169.49" x2="294.63" y2="169.49" xlink:href="#linear-gradient"/><linearGradient id="linear-gradient-6" x1="154.19" y1="387.62" x2="173.13" y2="387.62" xlink:href="#linear-gradient"/><linearGradient id="linear-gradient-7" x1="173.22" y1="164.16" x2="262.66" y2="164.16" xlink:href="#linear-gradient"/></defs><path class="cls-1" d="M409.64,234.4q-13.17,29.26-26.33,58.52a72.92,72.92,0,0,1-15.24,22c-11.85,11.78-23.63,23.64-35.49,35.42a22.74,22.74,0,0,1-3.39,2.36l1.69.6c.71,4.17,2,8.33,2,12.52.25,15,.11,29.93.09,44.9,0,10.53-4.8,15.3-15.31,15.3H252.21c-10.17,0-15-4.73-15-14.75q0-23.58,0-47.15c0-8.58,2.72-12,10.88-14.67.89-.29,1.73-2.09,1.83-3.25.67-8.06.13-16.35,1.85-24.15,4.38-19.8,14.92-35,34.76-42.65A98.87,98.87,0,0,0,317.81,260c11.78-10.81,24.4-13.2,39-5.49l9.89-22.92c1.28-3,2.5-6,3.85-8.91,3.93-8.51,11.27-13,20.29-12.38,8.47.55,15.18,6,18,14.56.23.71.53,1.39.8,2.08ZM263.06,349.27c.88.07,1.48.16,2.09.16,16,0,31.93.07,47.89-.09a7.8,7.8,0,0,0,4.73-2.3c13.92-13.77,27.89-27.49,41.47-41.59a60,60,0,0,0,10.88-15c8.93-18.5,17.24-37.3,25.66-56a9.57,9.57,0,0,0,.74-5.39,6.82,6.82,0,0,0-6.41-5.85c-3.84-.41-6.52,1.37-8,4.82-4.6,10.63-8.88,21.4-13.79,31.88-2.83,6.05-5.75,12.44-10.15,17.31-11.43,12.67-23.69,24.59-35.62,36.81a4.58,4.58,0,0,1-.9.67c-2.83,1.61-5.57,1.44-7.87-.87a5.86,5.86,0,0,1-.84-7.84,18.3,18.3,0,0,1,2.72-3.07c8.89-8.91,17.86-17.76,26.68-26.75,3-3.06,5.63-6.46,8.45-9.74-7.22-5.34-15-5-21.68.93A141.35,141.35,0,0,1,288,292.77a34,34,0,0,0-14.52,11.4C263.35,317.55,261.67,332.86,263.06,349.27ZM320,362.47H250.21v50.61H320Z" transform="translate(-26.5 -42.76)"/><path class="cls-2" d="M220.21,42.76c10,4.49,19.88,9.06,29.88,13.45,21.32,9.38,42.64,18.76,64,27.95,4.41,1.89,6.16,4.68,6.15,9.45-.13,31.93,0,63.87-.08,95.8q0,37.85-30.75,60.05Q257.88,272.2,226.34,295c-6.17,4.44-10.56,4.43-16.75,0q-31.71-22.84-63.4-45.74c-20-14.45-30.28-34-30.42-58.69-.19-32.56,0-65.12-.09-97.68,0-4.12,1.59-6.64,5.47-8.32q45.93-20,91.74-40.14a27.5,27.5,0,0,0,2.83-1.62Zm87.18,104.81c0-16.22-.05-32.44.05-48.66,0-2.54-.58-4-3.11-5.11-28-12.14-55.93-24.42-83.93-36.57a6.27,6.27,0,0,0-4.49-.1C187.68,69.37,159.51,81.75,131.3,94c-2,.87-2.81,1.9-2.81,4.14.08,31.07-.09,62.13.11,93.2.13,19.81,8.62,35.55,24.64,47.16,20.6,14.93,41.29,29.73,61.86,44.71,2.2,1.6,3.55,1.62,5.75,0q30.41-22.14,61-44c17.05-12.23,25.64-28.73,25.58-49.74C307.35,175.51,307.39,161.54,307.39,147.57Z" transform="translate(-26.5 -42.76)"/><path class="cls-3" d="M79.2,254.63c14.87-7.41,25.71-6,37.89,4.59,9.85,8.59,20.7,15.74,32.85,20.47,19.45,7.56,29.64,22.6,34.13,41.87,1.81,7.77,1.44,16.07,1.82,24.13.11,2.44.39,3.68,3.24,4.2a11.71,11.71,0,0,1,9.5,11.48c.15,17.58.19,35.17,0,52.75A12,12,0,0,1,186.5,426q-35.55.19-71.1,0a12.11,12.11,0,0,1-12.33-12.09c-.28-17.45-.2-34.91,0-52.37,0-2.69,1.61-5.35,2.47-8l1.51-.91a16.26,16.26,0,0,1-3.58-2.12c-11.69-11.59-23.27-23.29-35-34.87A76.07,76.07,0,0,1,52.4,292.42c-7.94-17.72-16.19-35.31-24-53.09-6.33-14.34,4.07-29.65,19.45-28.81,8.67.48,14.61,5.18,18,13.07,3.81,8.8,7.54,17.63,11.31,26.44C77.8,251.5,78.46,253,79.2,254.63ZM174,349.44c-.89-9.34-.79-18.31-2.79-26.8-2.89-12.32-9-23.44-21.21-28.81-16.23-7.15-31.23-15.91-44.56-27.66a15.12,15.12,0,0,0-20,.4c2.22,2.65,4.36,5.39,6.71,7.95,2.62,2.84,5.42,5.51,8.15,8.25,7.22,7.23,14.52,14.41,21.66,21.72,4,4.07,2.56,10.31-2.64,11-2.16.28-5.17-1-6.82-2.61-9.8-9.42-19.34-19.11-28.91-28.76a76.29,76.29,0,0,1-16-24.18q-6.78-16-13.68-31.93c-1.49-3.45-4.14-5.25-8-4.86a6.79,6.79,0,0,0-6.44,5.81,10.35,10.35,0,0,0,.89,5.72c8.09,18.07,16.09,36.19,24.65,54a60.93,60.93,0,0,0,10.68,15.63c14.06,14.68,28.6,28.9,43.07,43.18a7.74,7.74,0,0,0,4.9,1.86c15.34.14,30.68.08,46,.08Zm11.76,63.71V362.47H116v50.68Z" transform="translate(-26.5 -42.76)"/><path class="cls-4" d="M272.06,394H270.2c-4.82-.12-7.47-2.43-7.41-6.45.06-3.8,2.76-6.17,7.26-6.31a43.39,43.39,0,0,1,5.59.06c3.87.38,6.24,3.06,6.09,6.67s-2.52,5.75-6.31,6c-1.12.07-2.24,0-3.36,0Z" transform="translate(-26.5 -42.76)"/><path class="cls-5" d="M294.58,152.06c0,12.6-.06,25.2,0,37.8.09,16.31-6.54,29.13-19.73,38.63q-25.65,18.48-51.29,37c-4.86,3.5-6.34,3.48-11.32-.11q-25.81-18.59-51.6-37.19c-12.68-9.18-19.27-21.6-19.3-37.32,0-27.07,0-54.15-.07-81.22,0-4.37,1.74-6.81,5.71-8.52q33.45-14.44,66.75-29.21a9.81,9.81,0,0,1,8.56,0q33.51,14.77,67.1,29.35c3.68,1.6,5.25,4.1,5.22,8.12C294.51,123.61,294.58,137.83,294.58,152.06Zm-140.44,2.2c0,12.09,0,24.19,0,36.29C154.09,202,158.8,211,168,217.7c15.85,11.49,31.77,22.87,47.59,34.41,1.89,1.37,3.09,1.2,4.87-.1,15.93-11.59,32-23,47.89-34.63,8.71-6.36,13.36-15,13.4-25.87.1-25.57,0-51.14.09-76.71,0-2.24-.81-3.25-2.79-4.11-19.53-8.47-39-17.08-58.57-25.5a6.79,6.79,0,0,0-4.82-.06c-19.56,8.43-39,17.06-58.58,25.49-2.38,1-3,2.28-3,4.72C154.2,128.31,154.14,141.28,154.14,154.26Z" transform="translate(-26.5 -42.76)"/><path class="cls-6" d="M163.62,394c-1.12,0-2.24.07-3.35,0-3.59-.28-5.88-2.53-6.07-5.85a6.14,6.14,0,0,1,5.59-6.72,36.3,36.3,0,0,1,7.07-.09c3.9.29,6.33,2.93,6.27,6.5s-2.51,6-6.52,6.18c-1,.06-2,0-3,0Z" transform="translate(-26.5 -42.76)"/><path class="cls-7" d="M203.59,193.25c1-1.4,1.8-2.62,2.62-3.84q21.66-32.49,43.34-65a15.94,15.94,0,0,1,2.49-3.24,5.91,5.91,0,0,1,7.88-.51,5.78,5.78,0,0,1,2.28,7.23,17.59,17.59,0,0,1-2,3.55q-24.13,36.24-48.28,72.46c-4,6-6.79,6.45-12.52,2.16-7.58-5.67-15.18-11.33-22.72-17.05-3.67-2.78-4.42-6.23-2.23-9.37s6-3.64,9.83-.85C190.67,183.52,197,188.32,203.59,193.25Z" transform="translate(-26.5 -42.76)"/></svg>