<?xml version="1.0" encoding="utf-8"?>
<!-- Generator: Adobe Illustrator 26.0.1, SVG Export Plug-In . SVG Version: 6.00 Build 0)  -->
<svg version="1.1" id="Layer_1" xmlns="http://www.w3.org/2000/svg" xmlns:xlink="http://www.w3.org/1999/xlink" x="0px" y="0px"
	 viewBox="0 0 424 466" style="enable-background:new 0 0 424 466;" xml:space="preserve">
<style type="text/css">
	.st0{fill:url(#SVGID_1_);}
	.st1{fill:url(#SVGID_00000111880080469932248140000005444921854195691956_);}
	.st2{fill:url(#SVGID_00000155124748152042225170000008487209914706774432_);}
	.st3{fill:url(#SVGID_00000129204643197176607280000007454085992086743977_);}
	.st4{fill:url(#SVGID_00000179610088985056966620000012575763520797056161_);}
</style>
<g>
	<linearGradient id="SVGID_1_" gradientUnits="userSpaceOnUse" x1="111.6719" y1="177.6269" x2="320.0599" y2="177.6269">
		<stop  offset="0" style="stop-color:#00ADEE"/>
		<stop  offset="1" style="stop-color:#2E3191"/>
	</linearGradient>
	<path class="st0" d="M241.84,279.14c-2.36,15.99-11.94,25.62-25.53,25.98c-13.55,0.36-23.01-8.85-26.36-25.19
		c-3.61-1.52-7.29-2.36-10.11-4.39c-9.47-6.8-9.14-24.25,0.31-31.18c3.29-2.42,2.72-7.24-1-9.05c-2.92-1.42-6.05-2.61-8.57-4.57
		c-3.03-2.36-4.97-1.61-7.61,0.59c-8.91,7.43-9,7.33-17.27-0.94c-3.27-3.27-6.57-6.51-9.81-9.81c-3.27-3.33-3.92-6.02-0.75-9.14
		c5.65-5.56,5.45-10.37,1.34-17.02c-3.66-5.92-5.4-13.08-7.62-19.81c-0.79-2.39-1.75-3.5-4.28-3.64c-2.61-0.15-5.19-0.71-7.77-1.17
		c-3.33-0.59-5.02-2.76-5.06-6.02c-0.1-6.87-0.08-13.75-0.02-20.62c0.03-3.45,1.79-5.66,5.26-6.26c2.83-0.49,5.73-0.64,8.5-1.36
		c1.14-0.29,2.63-1.52,2.88-2.58c2.5-10.42,6.42-20.2,12.57-29.33c-2.01-2.54-4.06-5.04-5.99-7.62c-2.47-3.3-2.34-5.68,0.55-8.65
		c4.71-4.83,9.49-9.6,14.31-14.33c2.88-2.82,5.93-3.38,8.57-0.46c5.31,5.87,9.84,4.93,16.15,1.09c6.04-3.68,13.32-5.42,20.19-7.6
		c2.24-0.71,3.38-1.52,3.59-3.84c0.21-2.23,0.67-4.44,1.02-6.66c0.55-3.44,2.48-5.4,6.04-5.42c7-0.04,14-0.04,21,0
		c3.57,0.02,5.99,2.02,5.91,5.44c-0.18,7.81,3.69,10.86,10.98,12.75c6.88,1.78,13.26,5.64,19.72,8.84c1.96,0.97,3.25,1.22,4.9-0.39
		c1.6-1.57,3.46-2.88,5.26-4.22c3.28-2.45,5.83-2.39,8.68,0.4c4.92,4.8,9.75,9.69,14.59,14.58c2.46,2.49,2.73,5.21,0.66,8.09
		c-0.07,0.1-0.12,0.23-0.21,0.31c-6.41,5.4-5.55,10.78-1.4,17.55c3.51,5.73,5.2,12.63,7.35,19.12c0.8,2.42,1.6,3.88,4.39,3.97
		c2.48,0.08,4.95,0.65,7.41,1.06c3.46,0.58,5.33,2.7,5.37,6.16c0.09,6.87,0.08,13.75,0.01,20.62c-0.04,3.45-1.85,5.62-5.32,6.21
		c-2.71,0.46-5.42,0.94-8.16,1.16c-2.09,0.17-3.03,1.12-3.48,3.11c-2.19,9.57-6.08,18.45-11.07,26.89c-0.6,1.01-0.38,3.04,0.25,4.14
		c1.42,2.48,3.39,4.63,5.03,6.98c1.81,2.6,1.66,5.25-0.55,7.51c-5.06,5.19-10.18,10.33-15.39,15.37c-2.42,2.34-5.19,2.18-7.84,0.23
		c-3.1-2.3-6.16-4.66-9.16-6.95c-4.25,2.26-8.34,4.39-12.39,6.6c-3.04,1.65-3.29,6.04-0.52,8.2c8.34,6.51,9.9,21.38,3.12,29.38
		C251.23,277.14,246.84,278.62,241.84,279.14z M221.69,240.65c5.12,0,9.61,0.13,14.08-0.11c0.87-0.05,2.18-1.45,2.4-2.43
		c0.8-3.52,1.39-7.11,1.74-10.7c1.41-14.47,6.34-27.04,16.81-37.79c8.7-8.93,12.3-20.65,12.69-33.22
		c1.1-35.8-32.85-63.1-66.91-53.84c-36.62,9.95-55.01,56.29-25.08,89.33c7.23,7.98,11.68,16.9,13,27.58
		c0.87,7.03,2.36,13.98,3.58,20.98c5.4,0,10.48,0,15.74,0c0.11-0.88,0.29-1.59,0.29-2.31c0.02-16.5-0.03-32.99,0.07-49.49
		c0.01-2.25-1.05-2.87-2.84-3.63c-10.16-4.31-15.79-14.85-13.65-25.25c2.2-10.68,11.32-18.18,22.16-18.22
		c10.9-0.04,19.95,7.29,22.29,18.04c2.25,10.35-3.31,21.16-13.44,25.31c-2.51,1.03-2.99,2.31-2.97,4.69
		c0.09,12.37,0.04,24.74,0.04,37.11C221.69,231.21,221.69,235.69,221.69,240.65z M285.01,215.77c-1.7-2.28-3.18-4.28-4.68-6.28
		c-3.38-4.52-3.42-5.92-0.22-10.69c6.12-9.13,10.38-19.03,12.5-29.85c1.22-6.23,1.96-6.86,8.17-7.8c1.61-0.24,3.2-0.56,4.82-0.71
		c1.89-0.18,2.77-0.87,2.86-3.02c0.37-9.11,0.45-9.11-8.65-10.37c-0.37-0.05-0.75-0.06-1.12-0.12c-3.02-0.5-5-2.09-5.57-5.23
		c-2.19-12.23-6.82-23.44-13.98-33.61c-1.88-2.67-1.81-5.32,0.2-7.94c1.89-2.46,3.72-4.98,5.59-7.51c-2.73-2.76-5.34-5.4-8.12-8.22
		c-2.34,1.86-4.6,3.61-6.82,5.41c-2.55,2.06-5.15,2.3-7.9,0.38c-10.18-7.11-21.34-11.87-33.61-14c-3.02-0.52-4.87-2.29-5.31-5.47
		c-0.41-2.95-1-5.87-1.53-8.92c-3.95,0-7.75,0-11.58,0c-0.53,3.07-1.1,5.89-1.47,8.73c-0.46,3.54-2.56,5.33-5.91,5.73
		c-12.1,1.44-22.84,6.13-32.45,13.5c-3.04,2.33-5.89,2.27-8.81-0.2c-2.08-1.77-4.28-3.39-6.28-4.96c-2.87,2.75-5.54,5.3-8.24,7.89
		c1.77,2.21,3.35,4.31,5.05,6.3c2.58,3.03,2.6,5.97,0.17,9.14c-6.27,8.17-10.23,17.42-12.33,27.45
		c-2.22,10.63-1.52,10.09-13.02,11.59c-2.65,0.35-3.53,1.27-3.5,3.99c0.07,8.27-0.05,8.27,8.02,9.44c0.62,0.09,1.25,0.1,1.86,0.21
		c3.03,0.52,4.92,2.18,5.48,5.31c2.18,12.23,6.86,23.43,14.01,33.6c1.89,2.69,1.69,5.34-0.32,7.94c-1.89,2.45-3.69,4.97-5.3,7.14
		c2.73,2.93,5.25,5.63,7.91,8.47c2.3-1.86,4.41-3.6,6.55-5.31c4.31-3.45,5.87-3.42,10.24-0.17c2.19,1.63,4.53,3.05,7.14,4.79
		c-0.3-9.92-4.8-16.92-10.67-23.61c-15.19-17.3-20.67-37.39-15.21-59.93c8.03-33.19,42.1-55.19,74.79-48.61
		c34.96,7.04,58.22,40.32,52.45,75.03c-2.39,14.39-8.98,26.63-19.04,37.07c-5.24,5.43-8.04,11.87-8.3,19.88
		c2.17-1.34,4.1-2.45,5.94-3.7c5.25-3.55,6.11-3.54,11.24,0.36c2.24,1.7,4.52,3.37,6.67,4.97
		C279.64,221.02,282.22,218.5,285.01,215.77z M216.22,252.83c-8.24,0-16.48-0.02-24.72,0.01c-5.37,0.02-6.69,1.43-6.73,7.02
		c-0.04,6.11,1.16,7.59,6.52,7.61c16.35,0.04,32.7,0.03,49.05,0c5.25-0.01,6.56-1.39,6.63-6.75c0.01-1.12,0.02-2.25-0.1-3.37
		c-0.33-3.06-1.84-4.62-5.16-4.57C233.21,252.91,224.71,252.82,216.22,252.83z M216.01,175.09c6.1-0.05,10.95-4.82,11.01-10.84
		c0.07-6.11-4.99-11.2-11.13-11.22c-6.16-0.02-11.22,5.03-11.19,11.15C204.73,170.35,209.7,175.14,216.01,175.09z M201.75,279.22
		c0.56,8.57,6.79,14.49,14.61,14.25c7.45-0.23,13.43-6.46,13.53-14.25C220.58,279.22,211.26,279.22,201.75,279.22z"/>
	
		<linearGradient id="SVGID_00000003784927617447941740000004828104227146396082_" gradientUnits="userSpaceOnUse" x1="256.2379" y1="290.0764" x2="399.8359" y2="290.0764">
		<stop  offset="0" style="stop-color:#00ADEE"/>
		<stop  offset="1" style="stop-color:#2E3191"/>
	</linearGradient>
	<path style="fill:url(#SVGID_00000003784927617447941740000004828104227146396082_);" d="M268.45,361.64
		c0-7.74-0.16-15.6,0.04-23.45c0.24-9.34,0.14-18.77,1.4-27.99c1.35-9.85,6.36-18.38,13.3-25.52
		c14.72-15.15,29.53-30.21,44.42-45.21c6.53-6.58,14.31-8.23,23.05-4.87c0.67,0.26,1.37,0.45,2.4,0.78c0-9.15,0-17.99,0-26.84
		c0-8-0.09-16,0.04-24c0.22-13.06,10.23-22.99,23.15-23.12c13.02-0.13,23.42,9.87,23.49,23.12c0.15,27.87,0.06,55.74,0.04,83.62
		c-0.01,7.67-2.66,14.41-7.47,20.33c-15.05,18.53-29.99,37.15-45.25,55.5c-4.24,5.1-4.26,10.7-3.93,16.58
		c0.04,0.65,1.38,1.5,2.27,1.79c6.17,2,9.73,6.14,9.86,12.62c0.21,10.24,0.27,20.5-0.02,30.74c-0.21,7.54-5.8,12.9-13.33,12.93
		c-24.25,0.11-48.51,0.11-72.76-0.02c-7.54-0.04-12.68-5.28-12.82-12.82c-0.18-9.25-0.08-18.5-0.07-27.75
		C256.27,368.1,258.79,364.64,268.45,361.64z M331.46,361.45c0-1.1,0.08-1.96-0.01-2.8c-0.99-9.62,2.74-17.31,8.83-24.57
		c14.37-17.14,28.28-34.66,42.45-51.97c3.9-4.76,5.73-10.06,5.7-16.22c-0.1-17.5-0.03-34.99-0.03-52.49
		c0-9.37,0.08-18.75-0.03-28.12c-0.09-7.78-5.43-12.7-12.97-12.19c-6.64,0.45-10.87,5.34-10.89,12.79
		c-0.04,21.25,0.08,42.49-0.07,63.74c-0.06,7.96-2.42,15.06-8.48,20.85c-9.3,8.89-18.26,18.15-27.37,27.25
		c-0.71,0.71-1.39,1.46-2.17,2.07c-2.55,2-5.7,1.87-7.82-0.26c-2.07-2.08-2.19-5.39-0.21-7.83c0.71-0.87,1.55-1.63,2.35-2.42
		c9.37-9.37,18.78-18.69,28.09-28.12c5.18-5.24,4.18-12.41-2.02-15.67c-3.94-2.08-7.85-1.21-11.77,2.78
		c-14.3,14.51-28.62,29-42.83,43.6c-8.02,8.23-12.16,18.17-12.18,29.72c-0.02,9.62-0.01,19.25-0.01,28.87c0,3.59,0,7.19,0,11
		C297.25,361.45,314.07,361.45,331.46,361.45z M305.9,373.52c-11.49,0-22.97,0.1-34.46-0.06c-3.03-0.04-3.86,0.98-3.81,3.89
		c0.15,8.74,0.16,17.48,0,26.21c-0.06,3.05,1.12,3.81,3.96,3.79c22.72-0.08,45.45-0.1,68.17,0.01c3.21,0.02,4.11-1.23,4.07-4.2
		c-0.11-8.61-0.12-17.23,0-25.84c0.04-2.85-0.8-3.91-3.84-3.87C328.63,373.63,317.27,373.52,305.9,373.52z"/>
	
		<linearGradient id="SVGID_00000122703654788183922150000009341857875950072720_" gradientUnits="userSpaceOnUse" x1="31.8523" y1="290.0869" x2="175.4854" y2="290.0869">
		<stop  offset="0" style="stop-color:#00ADEE"/>
		<stop  offset="1" style="stop-color:#2E3191"/>
	</linearGradient>
	<path style="fill:url(#SVGID_00000122703654788183922150000009341857875950072720_);" d="M78.66,235.54
		c11.46-5.19,20.17-1.86,28.13,6.38c13.11,13.57,26.56,26.81,39.99,40.08c11.64,11.49,17.47,25.25,17.29,41.64
		c-0.14,12.73-0.03,25.46-0.03,38.08c9.2,3.41,11.41,6.61,11.42,16.3c0.01,8.75,0.05,17.5-0.01,26.24
		c-0.07,9.39-5,14.41-14.33,14.43c-23.37,0.06-46.75,0.06-70.12,0c-9.07-0.02-14.53-5.43-14.61-14.41c-0.08-9.37-0.08-18.75,0-28.12
		c0.06-7.41,3.23-11.52,10.21-13.9c0.83-0.28,1.96-1.28,2.01-2.01c0.43-6.06-0.04-11.66-4.36-16.82
		c-14.75-17.63-29.05-35.64-43.66-53.39c-5.9-7.16-8.8-15.09-8.74-24.43c0.18-26.87,0-53.74,0.1-80.6
		c0.05-12.41,7.91-21.37,20.05-23.3c13.6-2.16,26.31,8.12,26.55,21.94c0.28,15.62,0.09,31.24,0.11,46.86
		C78.66,232.02,78.66,233.52,78.66,235.54z M100.64,361.49c17.25,0,34.34,0,51.53,0c0.12-0.77,0.3-1.37,0.3-1.97
		c0.01-13.13,0.14-26.26-0.07-39.38c-0.17-10.84-4.28-20.28-11.84-27.97c-14.64-14.89-29.47-29.59-44.27-44.31
		c-4.48-4.46-9.89-4.54-13.91-0.46c-4.09,4.15-3.89,9.29,0.66,13.9c6.59,6.67,13.25,13.27,19.88,19.9
		c3.36,3.36,6.78,6.66,10.05,10.11c2.36,2.49,2.37,5.88,0.27,8.11c-2.25,2.4-5.58,2.41-8.38-0.01c-0.75-0.65-1.43-1.39-2.14-2.1
		c-8.66-8.66-17.11-17.56-26.06-25.92c-6.74-6.29-9.38-13.9-9.4-22.75c-0.04-21,0.03-42.01-0.04-63.01
		c-0.03-8.36-5.73-13.42-13.76-12.46c-6.19,0.74-10.09,5.58-10.1,12.75c-0.03,26.75,0.03,53.51-0.04,80.26
		c-0.01,6.02,1.84,11.21,5.65,15.86c13.39,16.34,26.44,32.97,40.13,49.05c7.36,8.65,12.7,17.59,11.24,29.39
		C100.31,360.7,100.46,360.94,100.64,361.49z M125.81,407.3c11.49,0,22.97-0.05,34.46,0.04c2.62,0.02,3.87-0.62,3.83-3.54
		c-0.14-8.99-0.13-17.98-0.01-26.96c0.04-2.7-1.04-3.36-3.56-3.35c-22.97,0.07-45.95,0.08-68.92-0.02
		c-2.77-0.01-3.74,0.83-3.71,3.61c0.12,8.74,0.13,17.48,0,26.21c-0.05,3.12,1.13,4.11,4.2,4.07
		C103.33,407.22,114.57,407.3,125.81,407.3z"/>
	
		<linearGradient id="SVGID_00000078014698775349213120000015081577617594938244_" gradientUnits="userSpaceOnUse" x1="317.7869" y1="389.9784" x2="337.5356" y2="389.9784">
		<stop  offset="0" style="stop-color:#00ADEE"/>
		<stop  offset="1" style="stop-color:#2E3191"/>
	</linearGradient>
	<path style="fill:url(#SVGID_00000078014698775349213120000015081577617594938244_);" d="M327.73,384.22c1.5,0,3.01-0.14,4.49,0.03
		c3.26,0.36,5.3,2.64,5.31,5.71c0.01,3.12-1.94,5.41-5.28,5.67c-2.98,0.23-6,0.23-8.98,0.03c-3.28-0.22-5.31-2.04-5.48-5.48
		c-0.16-3.22,2.01-5.61,5.44-5.95c1.48-0.15,2.99-0.03,4.49-0.03C327.73,384.21,327.73,384.21,327.73,384.22z"/>
	
		<linearGradient id="SVGID_00000121241183847720346080000008333272685153289636_" gradientUnits="userSpaceOnUse" x1="93.4296" y1="389.9791" x2="113.9465" y2="389.9791">
		<stop  offset="0" style="stop-color:#00ADEE"/>
		<stop  offset="1" style="stop-color:#2E3191"/>
	</linearGradient>
	<path style="fill:url(#SVGID_00000121241183847720346080000008333272685153289636_);" d="M103.66,384.25
		c1.75,0,3.52-0.18,5.24,0.04c3.21,0.41,5.2,2.85,5.04,5.93c-0.17,3.24-2.03,5.14-5.16,5.39c-3.23,0.26-6.5,0.25-9.74,0.06
		c-3.57-0.2-5.65-2.5-5.61-5.76c0.03-3.21,2.21-5.43,5.73-5.7c1.49-0.12,3-0.02,4.5-0.02C103.66,384.21,103.66,384.23,103.66,384.25
		z"/>
</g>
</svg>
