<?xml version="1.0" encoding="utf-8"?>
<!-- Generator: Adobe Illustrator 26.0.1, SVG Export Plug-In . SVG Version: 6.00 Build 0)  -->
<svg version="1.1" id="Layer_1" xmlns="http://www.w3.org/2000/svg" xmlns:xlink="http://www.w3.org/1999/xlink" x="0px" y="0px"
	 viewBox="0 0 424 466" style="enable-background:new 0 0 424 466;" xml:space="preserve">
<style type="text/css">
	.st0{fill:url(#SVGID_1_);}
	.st1{fill:url(#SVGID_00000091720865506453931650000014485320206721380500_);}
	.st2{fill:url(#SVGID_00000062905947130952461200000006323738565244533386_);}
	.st3{fill:url(#SVGID_00000139976778293612685210000007795126438266386616_);}
	.st4{fill:url(#SVGID_00000142892180273745383400000006299351944963705239_);}
	.st5{fill:url(#SVGID_00000178204151034155307350000002545868644625154737_);}
	.st6{fill:url(#SVGID_00000008141416795533841380000018243472357920561802_);}
	.st7{fill:url(#SVGID_00000083068078439976723770000014723181181105413285_);}
</style>
<g>
	<linearGradient id="SVGID_1_" gradientUnits="userSpaceOnUse" x1="42.8959" y1="234.4359" x2="385.1712" y2="234.4359">
		<stop  offset="0" style="stop-color:#00ADEE"/>
		<stop  offset="1" style="stop-color:#2E3191"/>
	</linearGradient>
	<path class="st0" d="M314.43,42.44c4.35,0.95,8.8,1.59,13.04,2.91c32.39,10.08,52.34,31.93,56.86,65.49
		c4.48,33.28-8.98,59.42-37.12,77.75c-2.12,1.38-3.08,2.68-3.04,5.28c0.16,10.12,0.07,20.24,0.06,30.36c0,1.12,0.06,2.26-0.07,3.37
		c-0.5,4.4-3.57,7.21-7.7,7.1c-4.13-0.11-7.1-3.08-7.16-7.55c-0.11-8.62-0.04-17.24-0.05-25.87c0-1.35,0-2.7,0-4.52
		c-11.92,3.28-23.63,4.09-36.04,2.16c0,1.91,0,3.49,0,5.06c0,50.86,0.01,101.72-0.01,152.58c-0.01,13.98-7.06,24.53-19.12,28.13
		c-3.28,0.98-6.87,1.26-10.32,1.27c-49.89,0.08-99.78,0.05-149.67,0.05c-1.49,0-2.98,0-5.48,0c0.39,5.97,0.07,11.87,1.33,17.41
		c1.18,5.17,5.64,7.73,11.03,7.96c3.24,0.14,6.48,0.03,9.73,0.03c61.24,0,122.48,0,183.72,0c10.25,0,14.82-4.58,14.82-14.87
		c0.01-32.61,0-65.23,0.01-97.84c0-1.37-0.04-2.75,0.07-4.12c0.31-3.81,3.02-6.58,6.65-6.9c3.81-0.34,7.09,2.03,7.93,5.9
		c0.31,1.44,0.31,2.97,0.31,4.47c0.02,32.74,0.02,65.48,0.01,98.22c0,16.07-7.02,25.34-22.47,29.73c-0.22,0.06-0.4,0.28-0.59,0.43
		c-68.12,0-136.24,0-204.36,0c-0.19-0.15-0.36-0.39-0.57-0.45c-15.47-4.51-22.27-13.61-22.29-29.83c0-3.22,0-6.44,0-10.12
		c-7.61,0-14.81,0.01-22.01,0c-17.57-0.04-29.02-11.44-29.02-29.11c-0.03-89.71-0.02-179.42,0.03-269.13c0-2.85,0.25-5.78,0.94-8.53
		c3.19-12.7,13.77-20.49,27.73-20.5c61.11-0.02,122.22,0.01,183.32-0.1c2.28,0,4.88-0.88,6.8-2.17c8.7-5.84,18.07-10.01,28.28-12.3
		c2.89-0.65,5.8-1.18,8.7-1.76C303.95,42.44,309.19,42.44,314.43,42.44z M243.85,73.75c-2.11,0-3.43,0-4.75,0
		c-12.47,0-24.95,0-37.42,0c-43.28,0-86.57,0-129.85,0c-6.69,0-11.35,2.69-13.04,7.92c-0.71,2.2-0.88,4.66-0.88,7.01
		c-0.04,89.11-0.04,178.22-0.03,267.32c0,1-0.03,2,0.04,3c0.52,7.24,5.44,12,12.7,12.01c64.99,0.03,129.98,0.03,194.97,0
		c7.12,0,11.95-4.62,12.59-11.71c0.11-1.24,0.08-2.5,0.08-3.75c0-52.11,0-104.23,0-156.34c0-0.87,0.2-1.82-0.06-2.61
		c-0.31-0.94-0.83-2.21-1.6-2.54c-15.27-6.47-27.28-16.81-36.22-30.4c-2.42,0.35-4.6,0.92-6.77,0.93
		c-43.66,0.05-87.32,0.05-130.98,0.03c-6.79,0-9.5-2.73-9.53-9.56c-0.04-8.75-0.01-17.5-0.01-26.24c0-8.73,2.12-10.88,10.78-10.88
		c39.79,0,79.58,0,119.38,0c1.57,0,3.14,0,4.85,0C228.9,101.52,234.23,87.24,243.85,73.75z M243.06,121.26
		c0.02,35.16,28.39,63.66,63.44,63.72c35.17,0.06,63.86-28.6,63.85-63.79c-0.01-35.15-28.75-63.82-63.92-63.75
		C271.44,57.5,243.04,86.11,243.06,121.26z M227.88,133.24c-40.12,0-79.8,0-119.53,0c0,5.6,0,10.89,0,16.12
		c39.99,0,79.67,0,119.53,0C227.88,143.89,227.88,138.69,227.88,133.24z"/>
	
		<linearGradient id="SVGID_00000060719534271966158190000004330157677045778868_" gradientUnits="userSpaceOnUse" x1="329.2986" y1="261.0822" x2="344.1733" y2="261.0822">
		<stop  offset="0" style="stop-color:#00ADEE"/>
		<stop  offset="1" style="stop-color:#2E3191"/>
	</linearGradient>
	<path style="fill:url(#SVGID_00000060719534271966158190000004330157677045778868_);" d="M329.3,261.11
		c-0.02-4.16,3.13-7.39,7.25-7.46c4.22-0.07,7.7,3.39,7.62,7.56c-0.08,3.99-3.51,7.31-7.54,7.3
		C332.56,268.49,329.32,265.22,329.3,261.11z"/>
	
		<linearGradient id="SVGID_00000091705525370969058260000001319484693080358322_" gradientUnits="userSpaceOnUse" x1="93.1534" y1="269.263" x2="242.949" y2="269.263">
		<stop  offset="0" style="stop-color:#00ADEE"/>
		<stop  offset="1" style="stop-color:#2E3191"/>
	</linearGradient>
	<path style="fill:url(#SVGID_00000091705525370969058260000001319484693080358322_);" d="M168.02,276.76
		c-21.45,0-42.9,0-64.35-0.01c-1.37,0-2.76,0.03-4.11-0.16c-3.7-0.51-6.33-3.51-6.41-7.15c-0.08-3.62,2.45-6.75,6.13-7.39
		c1.46-0.26,2.98-0.27,4.47-0.28c42.9-0.01,85.8-0.01,128.7-0.01c6.91,0,10.39,2.47,10.49,7.39c0.1,5.07-3.42,7.6-10.58,7.61
		C210.92,276.76,189.47,276.76,168.02,276.76z"/>
	
		<linearGradient id="SVGID_00000092430323126891368990000012707634143842321573_" gradientUnits="userSpaceOnUse" x1="93.1484" y1="198.1871" x2="242.9459" y2="198.1871">
		<stop  offset="0" style="stop-color:#00ADEE"/>
		<stop  offset="1" style="stop-color:#2E3191"/>
	</linearGradient>
	<path style="fill:url(#SVGID_00000092430323126891368990000012707634143842321573_);" d="M168.1,205.69c-21.45,0-42.9,0-64.35-0.01
		c-1.49,0-3.01,0.02-4.47-0.25c-3.71-0.69-6.2-3.79-6.13-7.41c0.08-3.77,2.88-6.78,6.78-7.2c1.36-0.15,2.74-0.12,4.11-0.12
		c42.65-0.01,85.31-0.01,127.96,0c1.49,0,3-0.03,4.48,0.16c3.71,0.46,6.35,3.43,6.46,7.09c0.11,3.54-2.14,6.59-5.67,7.37
		c-1.56,0.35-3.21,0.36-4.83,0.36C211,205.69,189.55,205.69,168.1,205.69z"/>
	
		<linearGradient id="SVGID_00000140728902459227234060000011428737814236990652_" gradientUnits="userSpaceOnUse" x1="93.1574" y1="304.902" x2="242.9569" y2="304.902">
		<stop  offset="0" style="stop-color:#00ADEE"/>
		<stop  offset="1" style="stop-color:#2E3191"/>
	</linearGradient>
	<path style="fill:url(#SVGID_00000140728902459227234060000011428737814236990652_);" d="M168.04,297.41
		c22.08,0,44.15,0.03,66.23-0.03c3.4-0.01,6.16,0.94,7.81,4.05c2.41,4.53-0.36,9.96-5.52,10.83c-1.34,0.22-2.74,0.14-4.11,0.14
		c-42.91,0.01-85.81,0-128.72,0c-1,0-2,0.04-2.99-0.03c-4.49-0.29-7.68-3.53-7.58-7.66c0.1-4.14,3.34-7.27,7.9-7.28
		c15.09-0.06,30.18-0.02,45.28-0.03C153.57,297.41,160.8,297.41,168.04,297.41z"/>
	
		<linearGradient id="SVGID_00000058576836418435951010000006166574862889595305_" gradientUnits="userSpaceOnUse" x1="93.1584" y1="233.715" x2="242.9429" y2="233.715">
		<stop  offset="0" style="stop-color:#00ADEE"/>
		<stop  offset="1" style="stop-color:#2E3191"/>
	</linearGradient>
	<path style="fill:url(#SVGID_00000058576836418435951010000006166574862889595305_);" d="M168.04,241.21c-21.45,0-42.91,0-64.36,0
		c-1.25,0-2.5,0.06-3.74-0.07c-3.83-0.41-6.69-3.51-6.78-7.25c-0.09-3.56,2.48-6.81,6.09-7.5c1.33-0.25,2.73-0.18,4.1-0.18
		c43.15-0.01,86.31-0.01,129.46,0c1.25,0,2.51-0.07,3.73,0.12c3.84,0.6,6.5,3.83,6.39,7.6c-0.11,3.79-2.93,6.81-6.8,7.21
		c-1.11,0.12-2.24,0.06-3.36,0.06C211.19,241.21,189.62,241.21,168.04,241.21z"/>
	
		<linearGradient id="SVGID_00000007419799957401368700000014007114594786407871_" gradientUnits="userSpaceOnUse" x1="299.2498" y1="137.0119" x2="314.2571" y2="137.0119">
		<stop  offset="0" style="stop-color:#00ADEE"/>
		<stop  offset="1" style="stop-color:#2E3191"/>
	</linearGradient>
	<path style="fill:url(#SVGID_00000007419799957401368700000014007114594786407871_);" d="M299.27,136.95
		c0-8.11-0.04-16.23,0.01-24.34c0.03-5.35,2.77-8.55,7.22-8.66c4.55-0.12,7.69,3.26,7.71,8.65c0.07,16.35,0.07,32.7,0,49.05
		c-0.02,5.24-3.02,8.42-7.5,8.43c-4.52,0.01-7.37-3.14-7.41-8.42C299.22,153.42,299.27,145.18,299.27,136.95z"/>
	
		<linearGradient id="SVGID_00000078737568159829049980000014665180428081574564_" gradientUnits="userSpaceOnUse" x1="299.2848" y1="87.322" x2="314.116" y2="87.322">
		<stop  offset="0" style="stop-color:#00ADEE"/>
		<stop  offset="1" style="stop-color:#2E3191"/>
	</linearGradient>
	<path style="fill:url(#SVGID_00000078737568159829049980000014665180428081574564_);" d="M299.28,87.26c0-4.17,3.14-7.36,7.3-7.4
		c4.09-0.04,7.44,3.19,7.53,7.24c0.09,4.13-3.47,7.75-7.56,7.68C302.52,94.72,299.29,91.37,299.28,87.26z"/>
</g>
</svg>
