<?xml version="1.0" encoding="UTF-8"?>
<svg xmlns="http://www.w3.org/2000/svg" xmlns:xlink="http://www.w3.org/1999/xlink" viewBox="0 0 1080 1080">
  <defs>
    <style>
      .cls-1 {
        fill: url(#linear-gradient-2);
      }

      .cls-2 {
        fill: url(#radial-gradient-3);
      }

      .cls-2, .cls-3 {
        opacity: .4;
      }

      .cls-2, .cls-3, .cls-4, .cls-5 {
        mix-blend-mode: multiply;
      }

      .cls-6 {
        fill: #fff;
      }

      .cls-7 {
        fill: #f7d300;
      }

      .cls-8 {
        fill: #d8d8d8;
      }

      .cls-9 {
        fill: #bfbfbf;
      }

      .cls-3 {
        fill: url(#radial-gradient-2);
      }

      .cls-10 {
        fill: #103856;
      }

      .cls-11 {
        fill: #1fccb7;
      }

      .cls-12 {
        fill: url(#linear-gradient-15);
      }

      .cls-13 {
        fill: #e2e2e2;
      }

      .cls-14 {
        fill: url(#linear-gradient-14);
      }

      .cls-15 {
        fill: url(#linear-gradient-6);
      }

      .cls-16 {
        fill: #b2b2b2;
      }

      .cls-17 {
        fill: #22b4d6;
      }

      .cls-18 {
        fill: #8c8c8c;
      }

      .cls-19 {
        isolation: isolate;
      }

      .cls-20 {
        fill: #f9ac00;
      }

      .cls-4 {
        fill: url(#radial-gradient-4);
      }

      .cls-21 {
        fill: #17253d;
      }

      .cls-22 {
        fill: #1c1c1c;
      }

      .cls-23 {
        fill: url(#linear-gradient-11);
      }

      .cls-24 {
        fill: #2760c4;
      }

      .cls-25 {
        fill: #39e5d4;
      }

      .cls-5 {
        fill: url(#radial-gradient);
      }

      .cls-26 {
        fill: #cc75db;
      }

      .cls-27 {
        fill: url(#linear-gradient-10);
      }

      .cls-28 {
        fill: #2e4759;
      }

      .cls-29 {
        fill: #282828;
      }

      .cls-30 {
        fill: #b26abf;
      }

      .cls-31 {
        fill: #57a0f7;
      }

      .cls-32 {
        fill: #0d2c3f;
      }

      .cls-33 {
        fill: #ffeb31;
      }

      .cls-34 {
        fill: #49a3db;
      }

      .cls-35 {
        fill: #1b2a49;
      }

      .cls-36 {
        fill: #27365b;
      }

      .cls-37 {
        fill: #e5e5e5;
      }

      .cls-38 {
        fill: url(#linear-gradient-5);
      }

      .cls-39 {
        fill: #ea977a;
      }

      .cls-40 {
        fill: #da8ce5;
      }

      .cls-41 {
        fill: #134875;
      }

      .cls-42 {
        fill: #c1c1c1;
      }

      .cls-43 {
        fill: url(#linear-gradient-7);
      }

      .cls-44 {
        fill: #7a5df4;
      }

      .cls-45 {
        fill: #f7f7f7;
      }

      .cls-46 {
        fill: #fcaf90;
      }

      .cls-47 {
        fill: #efefef;
      }

      .cls-48 {
        fill: #2c4370;
      }

      .cls-49 {
        fill: #4721a5;
      }

      .cls-50 {
        fill: #24c1d1;
      }

      .cls-51 {
        fill: url(#linear-gradient-9);
      }

      .cls-52 {
        fill: #2f96c9;
      }

      .cls-53 {
        fill: #3e82e5;
      }

      .cls-54 {
        fill: url(#linear-gradient-3);
      }

      .cls-55 {
        fill: #cecece;
      }

      .cls-56 {
        fill: url(#linear-gradient);
      }

      .cls-57 {
        fill: #62f9e6;
      }

      .cls-58 {
        fill: #7dd6f9;
      }

      .cls-59 {
        fill: url(#linear-gradient-4);
      }

      .cls-60 {
        fill: #195189;
      }

      .cls-61 {
        fill: #5a34d1;
      }

      .cls-62 {
        fill: url(#linear-gradient-8);
      }

      .cls-63 {
        fill: #bc610f;
      }

      .cls-64 {
        fill: url(#linear-gradient-12);
      }

      .cls-65 {
        fill: url(#linear-gradient-13);
      }

      .cls-66 {
        fill: #40b5b5;
      }
    </style>
    <linearGradient id="linear-gradient" x1="732.13" y1="264.77" x2="871.44" y2="264.77" gradientUnits="userSpaceOnUse">
      <stop offset="0" stop-color="#00adee"/>
      <stop offset="1" stop-color="#2e3191"/>
    </linearGradient>
    <linearGradient id="linear-gradient-2" x1="603.42" y1="151.1" x2="742.73" y2="151.1" xlink:href="#linear-gradient"/>
    <radialGradient id="radial-gradient" cx="-2718.02" cy="1128.34" fx="-2718.02" fy="1128.34" r="72.59" gradientTransform="translate(-2325.5 76.97) rotate(-180) scale(.97 -.58)" gradientUnits="userSpaceOnUse">
      <stop offset="0" stop-color="#7c969e"/>
      <stop offset="1" stop-color="#fff" stop-opacity="0"/>
    </radialGradient>
    <linearGradient id="linear-gradient-3" x1="348.6" y1="535.18" x2="711.7" y2="535.18" xlink:href="#linear-gradient"/>
    <linearGradient id="linear-gradient-4" x1="360.81" y1="535.18" x2="699.5" y2="535.18" xlink:href="#linear-gradient"/>
    <linearGradient id="linear-gradient-5" x1="355.67" y1="706.22" x2="910.59" y2="706.22" xlink:href="#linear-gradient"/>
    <linearGradient id="linear-gradient-6" x1="388.23" y1="574.8" x2="520.69" y2="574.8" xlink:href="#linear-gradient"/>
    <linearGradient id="linear-gradient-7" x1="397.83" y1="582.76" x2="530.28" y2="582.76" xlink:href="#linear-gradient"/>
    <linearGradient id="linear-gradient-8" x1="433.83" y1="582.76" x2="494.28" y2="582.76" xlink:href="#linear-gradient"/>
    <linearGradient id="linear-gradient-9" x1="537.53" y1="627.61" x2="583.32" y2="627.61" xlink:href="#linear-gradient"/>
    <linearGradient id="linear-gradient-10" x1="537.53" y1="650.41" x2="583.32" y2="650.41" xlink:href="#linear-gradient"/>
    <radialGradient id="radial-gradient-2" cx="-2933.36" cy="1254.18" fx="-2933.36" fy="1254.18" r="104.96" gradientTransform="translate(-2325.5 92.53) rotate(-180) scale(.97 -.58)" gradientUnits="userSpaceOnUse">
      <stop offset="0" stop-color="#7c969e"/>
      <stop offset=".13" stop-color="#8099a1" stop-opacity=".97"/>
      <stop offset=".3" stop-color="#8ca3aa" stop-opacity=".87"/>
      <stop offset=".48" stop-color="#a0b3b9" stop-opacity=".72"/>
      <stop offset=".67" stop-color="#bdcace" stop-opacity=".5"/>
      <stop offset=".86" stop-color="#e1e7e9" stop-opacity=".23"/>
      <stop offset="1" stop-color="#fff" stop-opacity="0"/>
    </radialGradient>
    <radialGradient id="radial-gradient-3" cx="-2972.52" cy="1278.1" fx="-2972.52" fy="1278.1" r="104.96" gradientTransform="translate(-2325.5 95.48) rotate(-180) scale(.97 -.58)" xlink:href="#radial-gradient-2"/>
    <radialGradient id="radial-gradient-4" cx="-3179.06" cy="1343.29" fx="-3179.06" fy="1343.29" r="72.59" gradientTransform="translate(-2325.5 103.54) rotate(-180) scale(.97 -.58)" xlink:href="#radial-gradient"/>
    <linearGradient id="linear-gradient-11" x1="682.41" y1="765.51" x2="850.7" y2="765.51" xlink:href="#linear-gradient"/>
    <linearGradient id="linear-gradient-12" x1="699.17" y1="775.42" x2="867.45" y2="775.42" xlink:href="#linear-gradient"/>
    <linearGradient id="linear-gradient-13" x1="644.73" y1="848.75" x2="699.17" y2="848.75" xlink:href="#linear-gradient"/>
    <linearGradient id="linear-gradient-14" x1="556.96" y1="876.3" x2="681.19" y2="876.3" xlink:href="#linear-gradient"/>
    <linearGradient id="linear-gradient-15" x1="554" y1="906.6" x2="577.56" y2="906.6" xlink:href="#linear-gradient"/>
  </defs>
  <g class="cls-19">
    <g id="Layer_1" data-name="Layer 1">
      <g>
        <g>
          <path class="cls-31" d="m763,214c5.92-14.77,21.11-18.94,38.93-8.65,17.24,9.96,32.03,30.61,38.33,51.5,1.96.7,3.97,1.62,6.04,2.81,17.69,10.21,32.03,35.05,32.03,55.48,0,1.29-.06,2.52-.17,3.71l-6.89,5.5-56.83-42.3-26.45-15.27-23.24-13.41-24.36-14.06c-.87-3.45-5.42-7.66-5.42-10.95,0-15.59,14.69-21.35,28.03-14.37Z"/>
          <path class="cls-56" d="m756.11,219.51c5.92-14.77,21.11-18.94,38.93-8.65,17.24,9.95,32.03,30.61,38.33,51.5,1.96.7,3.98,1.62,6.04,2.81,17.69,10.21,32.03,35.05,32.03,55.48,0,1.29-.06,2.53-.17,3.71l-39.05-22.54-24.68-14.25-26.45-15.27-23.24-13.42-24.36-14.06c-.87-3.45-1.37-6.88-1.37-10.17,0-15.58,10.63-22.12,23.98-15.14Z"/>
        </g>
        <g>
          <path class="cls-31" d="m634.29,100.33c5.92-14.77,21.11-18.94,38.93-8.65,17.24,9.96,32.03,30.61,38.33,51.5,1.96.7,3.97,1.62,6.04,2.81,17.69,10.21,32.03,35.05,32.03,55.48,0,1.29-.06,2.52-.17,3.71l-6.89,5.5-56.83-42.3-26.45-15.27-23.24-13.41-24.36-14.06c-.87-3.45-5.42-7.67-5.42-10.95,0-15.58,14.69-21.35,28.03-14.37Z"/>
          <path class="cls-1" d="m627.4,105.84c5.92-14.77,21.11-18.94,38.93-8.65,17.24,9.95,32.03,30.61,38.33,51.5,1.96.7,3.97,1.62,6.04,2.81,17.69,10.21,32.03,35.05,32.03,55.48,0,1.29-.06,2.53-.17,3.71l-39.05-22.54-24.68-14.25-26.45-15.27-23.24-13.42-24.36-14.06c-.87-3.45-1.37-6.88-1.37-10.17,0-15.58,10.63-22.12,23.98-15.14Z"/>
        </g>
        <g>
          <g>
            <g>
              <g>
                <polygon class="cls-25" points="554.64 596.46 589.96 576.06 589.96 291.48 554.64 311.87 554.64 596.46"/>
                <polygon class="cls-50" points="519.33 576.06 554.65 596.46 554.65 311.87 519.33 291.48 519.33 576.06"/>
              </g>
              <polygon class="cls-57" points="554.64 311.87 589.96 291.48 554.64 271.07 519.3 291.48 554.64 311.87"/>
            </g>
            <g>
              <g>
                <polygon class="cls-34" points="473.06 643.75 508.37 623.34 508.37 280.2 473.06 300.59 473.06 643.75"/>
                <polygon class="cls-52" points="437.74 623.34 473.08 643.75 473.08 300.59 437.74 280.2 437.74 623.34"/>
              </g>
              <polygon class="cls-58" points="473.06 300.59 508.38 280.2 473.06 259.82 437.73 280.2 473.06 300.59"/>
            </g>
            <g>
              <g>
                <polygon class="cls-30" points="391.47 690.32 426.82 669.92 426.82 266.6 391.47 287 391.47 690.32"/>
                <polygon class="cls-26" points="356.17 669.92 391.5 690.32 391.5 287 356.17 266.6 356.17 669.92"/>
              </g>
              <polygon class="cls-40" points="391.48 287.01 426.82 266.6 391.5 246.21 356.14 266.6 391.48 287.01"/>
            </g>
            <g>
              <g>
                <polygon class="cls-53" points="391.57 690.88 426.89 670.48 426.89 267.15 391.57 287.54 391.57 690.88"/>
                <polygon class="cls-24" points="356.27 670.48 391.58 690.88 391.58 287.54 356.27 267.15 356.27 670.48"/>
              </g>
              <polygon class="cls-31" points="391.58 287.54 426.92 267.15 391.58 246.74 356.25 267.15 391.58 287.54"/>
            </g>
            <g>
              <g>
                <path class="cls-5" d="m237.27,726.08c0,23.44,32.51,42.45,72.62,42.45s72.62-19.01,72.62-42.45-32.51-42.46-72.62-42.46-72.62,19.01-72.62,42.46Z"/>
                <polygon class="cls-61" points="309.89 738.07 345.21 717.66 345.21 252.99 309.89 273.38 309.89 738.07"/>
                <polygon class="cls-49" points="274.59 717.66 309.9 738.07 309.9 273.38 274.59 252.99 274.59 717.66"/>
              </g>
              <polygon class="cls-44" points="309.9 273.39 345.22 252.99 309.9 232.58 274.58 252.99 309.9 273.39"/>
            </g>
          </g>
          <g>
            <g>
              <polygon class="cls-6" points="699.02 311.79 710.05 318.66 699.57 323.5 699.02 311.79"/>
              <polygon class="cls-47" points="350.6 751.88 339.33 744.85 349.13 738.07 350.6 751.88"/>
              <g>
                <path class="cls-6" d="m700.55,531.4c0,4.05-3.28,9.22-7.32,11.55l-348.46,201.18c-4.04,2.33-7.32.94-7.32-3.1v-216.03c0-4.04,3.27-9.21,7.32-11.55l348.45-201.18c4.04-2.34,7.32-.95,7.32,3.09v216.03Z"/>
                <path class="cls-47" d="m337.45,525.01v216.03c0,4.04,3.27,5.44,7.32,3.1l187.62-108.32-192.69-117.36c-1.38,2.13-2.25,4.49-2.25,6.56Z"/>
                <path class="cls-6" d="m693.23,312.28l-348.45,201.18c-1.98,1.14-3.76,2.96-5.07,4.99l192.69,117.36,160.84-92.86c4.04-2.33,7.32-7.5,7.32-11.55v-216.03c0-4.04-3.28-5.43-7.32-3.09Z"/>
                <path class="cls-54" d="m711.7,538.37c0,4.05-3.28,9.22-7.33,11.56l-348.45,201.18c-4.05,2.33-7.32.94-7.32-3.1v-216.03c0-4.04,3.28-9.21,7.32-11.55l348.45-201.18c4.05-2.34,7.32-.95,7.32,3.09v216.02Z"/>
                <polygon class="cls-59" points="699.5 527.42 360.81 722.96 360.81 542.93 699.5 347.39 699.5 527.42"/>
                <polygon class="cls-6" points="693.12 351.07 693.12 523.68 360.81 715.54 360.81 722.96 699.5 527.42 699.5 347.39 693.12 351.07"/>
                <path class="cls-6" d="m536.1,429.64c0,3.28-2.66,7.48-5.95,9.38-3.28,1.9-5.95.77-5.95-2.51s2.66-7.48,5.95-9.39c3.28-1.89,5.95-.77,5.95,2.52Z"/>
              </g>
            </g>
            <g>
              <polygon class="cls-8" points="899.91 665.05 910.59 671.32 910.59 658.78 899.91 665.05"/>
              <polygon class="cls-13" points="355.68 766.13 355.68 753.76 372.5 754.17 355.68 766.13"/>
              <g>
                <path class="cls-47" d="m545.12,877.59c3.51,2.02,9.62,1.76,13.67-.57l348.44-201.18c4.05-2.33,4.49-5.87.99-7.89l-187.09-108.01c-3.5-2.02-9.62-1.77-13.66.57l-348.46,201.18c-4.04,2.33-4.48,5.87-.98,7.89l187.09,108.02Z"/>
                <path class="cls-8" d="m908.22,667.95l-187.09-108.01c-3.5-2.02-9.62-1.77-13.66.57l-156.22,90.19v228.23c2.63-.03,5.37-.66,7.54-1.91l348.44-201.18c4.05-2.33,4.49-5.87.99-7.89Z"/>
                <path class="cls-13" d="m359.02,761.69c-4.04,2.33-4.48,5.87-.98,7.89l187.09,108.02c1.63.94,3.84,1.37,6.13,1.34v-228.23l-192.24,110.99Z"/>
                <path class="cls-38" d="m545.12,865.04c3.51,2.02,9.62,1.77,13.67-.57l348.44-201.18c4.05-2.34,4.49-5.87.99-7.89l-187.09-108.01c-3.5-2.02-9.62-1.77-13.66.57l-348.46,201.17c-4.04,2.33-4.48,5.87-.98,7.9l187.09,108.01Z"/>
                <g>
                  <path class="cls-31" d="m764.65,720.17l7.31,4.22c2.15,1.24,1.88,3.41-.6,4.84l-98.37,56.79c-2.48,1.44-6.24,1.59-8.39.35l-7.31-4.22,107.36-61.99Z"/>
                  <path class="cls-31" d="m654.21,780.37l-38.46-22.2c-2.15-1.24-1.88-3.42.6-4.86l98.37-56.78c2.48-1.44,6.24-1.59,8.39-.35l38.46,22.21-107.36,61.98Z"/>
                  <g>
                    <polygon class="cls-9" points="712.21 600.15 740.22 583.98 720.19 572.42 692.19 588.59 712.21 600.15"/>
                    <polygon class="cls-31" points="719.59 626.23 766.5 599.15 746.48 587.59 699.57 614.68 719.59 626.23"/>
                    <polygon class="cls-9" points="683.25 647.23 712.7 630.22 692.68 618.65 663.22 635.66 683.25 647.23"/>
                    <polygon class="cls-31" points="646.56 668.4 676.01 651.4 655.99 639.83 626.54 656.84 646.56 668.4"/>
                    <polygon class="cls-31" points="609.88 689.58 639.33 672.57 619.31 661.01 589.86 678.02 609.88 689.58"/>
                    <polygon class="cls-31" points="573.19 710.76 602.65 693.75 582.63 682.19 553.17 699.2 573.19 710.76"/>
                    <polygon class="cls-31" points="536.51 731.94 565.97 714.93 545.95 703.37 516.49 720.38 536.51 731.94"/>
                    <polygon class="cls-9" points="499.83 753.12 529.28 736.11 509.26 724.55 479.8 741.56 499.83 753.12"/>
                    <polygon class="cls-31" points="447.69 783.22 492.6 757.29 472.58 745.73 427.67 771.66 447.69 783.22"/>
                    <polygon class="cls-31" points="726.79 652.15 792.53 614.18 772.51 602.62 706.76 640.59 726.79 652.15"/>
                    <polygon class="cls-9" points="690.38 673.17 719.84 656.16 699.81 644.59 670.35 661.6 690.38 673.17"/>
                    <polygon class="cls-31" points="653.7 694.34 683.15 677.34 663.13 665.78 633.67 682.78 653.7 694.34"/>
                    <polygon class="cls-31" points="617.02 715.52 646.47 698.51 626.45 686.95 596.99 703.96 617.02 715.52"/>
                    <polygon class="cls-31" points="580.33 736.7 609.79 719.69 589.76 708.13 560.31 725.14 580.33 736.7"/>
                    <polygon class="cls-9" points="543.65 757.88 573.11 740.87 553.08 729.31 523.62 746.32 543.65 757.88"/>
                    <polygon class="cls-9" points="473.72 798.25 536.37 762.08 516.34 750.53 453.7 786.69 473.72 798.25"/>
                    <polygon class="cls-31" points="606.52 751.82 746.02 671.28 725.99 659.71 586.49 740.26 606.52 751.82"/>
                    <polygon class="cls-9" points="675.86 621.14 703.87 604.96 683.85 593.41 655.84 609.59 675.86 621.14"/>
                    <polygon class="cls-31" points="790.71 645.48 818.72 629.3 798.7 617.74 770.67 633.91 790.71 645.48"/>
                    <polygon class="cls-31" points="754.36 666.46 782.37 650.29 762.35 638.73 734.33 654.9 754.36 666.46"/>
                    <polygon class="cls-9" points="639.51 642.13 667.52 625.95 647.5 614.39 619.49 630.57 639.51 642.13"/>
                    <polygon class="cls-31" points="603.16 663.11 631.17 646.94 611.15 635.38 583.14 651.55 603.16 663.11"/>
                    <polygon class="cls-31" points="566.81 684.1 594.82 667.93 574.8 656.37 546.79 672.54 566.81 684.1"/>
                    <polygon class="cls-31" points="530.47 705.09 558.47 688.91 538.45 677.35 510.44 693.53 530.47 705.09"/>
                    <polygon class="cls-31" points="494.11 726.07 522.12 709.9 502.1 698.34 474.09 714.52 494.11 726.07"/>
                    <polygon class="cls-31" points="457.76 747.06 485.78 730.89 465.75 719.33 437.74 735.5 457.76 747.06"/>
                    <polygon class="cls-31" points="421.41 768.05 449.42 751.88 429.41 740.32 401.39 756.49 421.41 768.05"/>
                    <polygon class="cls-9" points="569.83 773 599.28 755.99 579.26 744.43 549.81 761.43 569.83 773"/>
                    <polygon class="cls-9" points="534.93 793.15 562.94 776.97 542.91 765.42 514.9 781.59 534.93 793.15"/>
                    <polygon class="cls-9" points="499.91 813.37 527.92 797.2 507.9 785.63 479.88 801.81 499.91 813.37"/>
                  </g>
                </g>
              </g>
              <g>
                <polygon class="cls-18" points="515.68 851.2 536.6 863.25 536.6 870.22 515.68 858.08 515.68 851.2"/>
                <polygon class="cls-16" points="521.49 854.55 536.6 863.25 536.6 870.22 515.68 858.08 521.49 854.55"/>
              </g>
              <g>
                <polygon class="cls-18" points="364.09 763.49 384.99 775.54 384.99 782.51 364.09 770.37 364.09 763.49"/>
                <polygon class="cls-16" points="369.9 766.83 384.99 775.54 384.99 782.51 364.09 770.37 369.9 766.83"/>
              </g>
              <g>
                <polygon class="cls-18" points="388.48 777.54 409.39 789.6 409.39 796.57 388.48 784.42 388.48 777.54"/>
                <polygon class="cls-16" points="394.29 780.89 409.39 789.6 409.39 796.57 388.48 784.42 394.29 780.89"/>
              </g>
            </g>
            <polygon class="cls-6" points="572.14 559.83 569.47 559.23 586.67 482.78 587.09 482.48 620.87 457.89 642.5 410.55 673.42 377.43 675.42 379.3 644.66 412.26 623.06 459.68 589.12 484.39 572.14 559.83"/>
            <polygon class="cls-6" points="572 559.24 569.61 557.91 593.93 514.21 630.7 506.95 645.33 463.76 674.88 419.94 677.15 421.47 647.71 465.14 632.78 509.33 595.71 516.65 572 559.24"/>
            <path class="cls-33" d="m574.55,556.41c0,2.39-1.68,5.3-3.75,6.49-2.07,1.2-3.75.23-3.75-2.16s1.68-5.3,3.75-6.49c2.07-1.19,3.75-.22,3.75,2.16Z"/>
            <path class="cls-33" d="m598.36,513.06c0,2.39-1.68,5.29-3.75,6.49-2.07,1.2-3.75.22-3.75-2.17s1.68-5.29,3.75-6.49c2.07-1.19,3.75-.22,3.75,2.16Z"/>
            <path class="cls-33" d="m592.85,480.28c0,2.39-1.68,5.3-3.75,6.49-2.07,1.19-3.75.22-3.75-2.17s1.68-5.29,3.75-6.49c2.07-1.19,3.75-.22,3.75,2.16Z"/>
            <path class="cls-33" d="m627.16,454.8c0,2.39-1.68,5.3-3.75,6.49-2.07,1.2-3.75.22-3.75-2.17s1.68-5.3,3.75-6.49c2.07-1.19,3.75-.23,3.75,2.16Z"/>
            <path class="cls-33" d="m647.25,409.32c0,2.39-1.68,5.3-3.75,6.49-2.07,1.19-3.75.22-3.75-2.17s1.68-5.29,3.75-6.49c2.07-1.2,3.75-.22,3.75,2.16Z"/>
            <path class="cls-33" d="m678.17,376.2c0,2.39-1.68,5.29-3.75,6.49-2.07,1.19-3.75.22-3.75-2.17s1.68-5.3,3.75-6.49c2.07-1.19,3.75-.22,3.75,2.16Z"/>
            <path class="cls-33" d="m635.49,505.98c0,2.39-1.68,5.29-3.75,6.49-2.07,1.2-3.75.22-3.75-2.17s1.68-5.29,3.75-6.49c2.07-1.19,3.75-.22,3.75,2.16Z"/>
            <path class="cls-33" d="m651,462.36c0,2.39-1.68,5.3-3.75,6.49-2.07,1.19-3.75.22-3.75-2.17s1.68-5.3,3.75-6.49c2.07-1.19,3.75-.23,3.75,2.16Z"/>
            <path class="cls-33" d="m678.17,421.23c0,2.39-1.68,5.3-3.75,6.49-2.07,1.19-3.75.23-3.75-2.17s1.68-5.29,3.75-6.49c2.07-1.19,3.75-.22,3.75,2.16Z"/>
          </g>
          <g>
            <g>
              <g>
                <path class="cls-15" d="m516.8,514.75l-.38-2.76-14.98-9.65c-13.17-7.8-27.38-3.67-42.12,3.94-22.88,11.82-46.88,35.91-58.88,59.73-7.68,15.26-12.21,31.07-12.21,45.35s.84,20.7,8.65,29.74c1.19,1.37,12.21,10.36,12.21,10.36l13.81-1.88c9.38-.33,20.13-3.63,31.55-10.24,11.11-6.41,21.58-15.21,30.77-25.35,21.07-23.25,35.45-53.65,35.45-79.11,0-7.86-1.37-14.59-3.88-20.13Z"/>
                <path class="cls-28" d="m474.76,554.47c0,16.69-13.53,38.04-30.23,47.68-16.69,9.63-30.22,3.91-30.22-12.78s13.53-38.04,30.22-47.67c16.69-9.63,30.23-3.92,30.23,12.77Z"/>
                <path class="cls-66" d="m456.81,564.83c0,6.78-5.49,15.44-12.27,19.35-6.77,3.91-12.26,1.58-12.27-5.19,0-6.77,5.49-15.44,12.27-19.34,6.78-3.91,12.27-1.59,12.27,5.18Z"/>
              </g>
              <g>
                <path class="cls-43" d="m530.28,544.52c0,36.58-29.65,83.35-66.23,104.47-36.58,21.11-66.23,8.58-66.23-28s29.65-83.34,66.23-104.47c36.58-21.11,66.23-8.58,66.23,27.99Z"/>
                <path class="cls-6" d="m512.53,554.78c0,26.77-21.7,61.01-48.48,76.46-26.77,15.46-48.48,6.29-48.48-20.48s21.71-61.01,48.48-76.46c26.77-15.46,48.48-6.29,48.48,20.49Z"/>
                <path class="cls-62" d="m494.28,565.31c0,16.69-13.53,38.04-30.22,47.67-16.69,9.64-30.22,3.92-30.22-12.77s13.53-38.04,30.22-47.67c16.69-9.64,30.22-3.92,30.22,12.77Z"/>
                <path class="cls-6" d="m476.32,575.68c0,6.77-5.49,15.44-12.27,19.35-6.77,3.91-12.27,1.59-12.27-5.18s5.49-15.44,12.27-19.35c6.77-3.91,12.27-1.59,12.27,5.18Z"/>
              </g>
            </g>
            <g>
              <g>
                <polygon class="cls-51" points="551.63 615.47 583.32 633.76 570.07 639.75 537.53 620.97 551.63 615.47"/>
                <polygon class="cls-27" points="551.63 652.14 583.32 670.44 570.07 649.15 537.53 630.37 551.63 652.14"/>
              </g>
              <path class="cls-24" d="m539.82,622.29l-75.47-43.57c-.06-.04-.11-.08-.18-.1l-.08-.05v.02c-.51-.21-1.16-.14-1.87.27-1.6.92-2.9,3.17-2.9,5.02,0,1.01.39,1.67,1,1.93h0s109.76,63.33,109.76,63.33l4.14-7.01-34.39-19.84Z"/>
              <path class="cls-7" d="m574.93,643.96c0,1.85-1.3,4.1-2.9,5.02-1.6.93-2.9.18-2.9-1.67,0-1.85,1.3-4.1,2.9-5.03,1.6-.92,2.9-.17,2.9,1.68Z"/>
            </g>
          </g>
          <g>
            <path class="cls-46" d="m628.37,458.37s-4.39-1.93-5.3-4.18c-.91-2.25-.81-2.57-1.98-4.07-1.18-1.5-2.89-4.4-4.6-5.25-1.71-.86-1.61,2.09-.73,2.97.89.89,1.29,2.9,1.29,2.9,0,0-8.91-5.06-11.17-5.06s-.43,2.25,0,2.41c-2.41-.96-3.16-.43-3.37-.32-.21.11-.32,1.5,1.29,2.2-.85-.56-2.76.43,1.13,3.27-2.01-1.2-2.17.72-.78,1.95,1.16,1.03,6.45,6.13,11.97,6.62,5.51.48,9.11,2.73,9.11,2.73l3.16-6.16Z"/>
            <path class="cls-48" d="m627.75,454.86s40.38,12.74,43.78,17.08c3.13,3.76,25.76-43.45,30.93-45.54,5.17-2.09,13.48,9.21,7.94,23.39-11.1,28.38-35.07,43.93-40.25,41.35-5.18-2.58-48.17-24.09-48.17-24.09,0,0,.79-6.61,5.78-12.19Z"/>
            <g>
              <g>
                <path class="cls-29" d="m700.84,669.39s-1.38,2.61-3.3,5.48c-1.91,2.86-7.13,2.93-8.36,4.49-1.23,1.56-1.07,6.58-1.07,6.58,0,0,6.99,1.35,13.15-2.22,6.16-3.57,11.43-6.15,11.43-6.15,0,0,.01-6.74-.5-7.95-.5-1.2-11.36-.25-11.36-.25Z"/>
                <path class="cls-22" d="m701.26,682.08c6.08-3.52,11.28-6.07,11.42-6.14.02.97.02,1.64.02,1.64,0,0-5.27,2.58-11.43,6.15-6.16,3.57-13.15,2.22-13.15,2.22,0,0-.02-.7.02-1.65.16.03,7.05,1.31,13.13-2.22Z"/>
                <path class="cls-21" d="m730.57,535.99s-13.24,44.65-14.57,56.25c-1.34,11.6,2.6,49.74-3.31,77.18-8.05,4.12-11.03,2.22-11.03,2.22l-1.39-3.57s-5.56-61.85-5.28-76.27c.28-14.42,2.78-55.2,2.78-55.2l32.8-.61Z"/>
              </g>
              <g>
                <path class="cls-29" d="m723.53,677.92s-1.32,2.64-3.16,5.55c-1.86,2.91-7.3,5.02-8.49,6.61-1.19,1.58-.93,6.61-.93,6.61,0,0,8.35,1.07,14.43-2.64,6.08-3.7,10.18-8.2,10.18-8.2,0,0-.14-6.75-.66-7.93-.53-1.19-11.37,0-11.37,0Z"/>
                <path class="cls-22" d="m710.95,694.58s8.35,1.06,14.43-2.64c5.66-3.44,9.59-7.57,10.11-8.13.05,1.17.07,2.04.07,2.04,0,0-4.1,4.5-10.18,8.2-6.08,3.7-14.43,2.64-14.43,2.64,0,0-.05-1,0-2.23,0,.08,0,.13,0,.13Z"/>
                <path class="cls-35" d="m750.36,543.9s-12.3,45.09-13.39,56.72c-1.08,11.62,4.69,50.6-.62,78.16-7.96,4.29-11.3,3.34-11.3,3.34l-2.78-3.34s-6.24-63.89-6.28-78.31c-.04-14.42,1.58-55.25,1.58-55.25l32.78-1.31Z"/>
              </g>
              <path class="cls-36" d="m728.03,417.96s23.94,7.16,32.06,24.12c8.12,16.96-2.38,38.93-2.15,44.43.24,5.49-.96,62.02-.96,62.02l-43.02.79-4.56-10.31-5.75,7.71-9.24-8.71s3.54-50.75,2.83-61.26c-.71-10.51-5.29-38.33,4.1-51.5,7.17-4.67,24.53-8.04,26.7-7.3Z"/>
              <path class="cls-47" d="m737.16,420.71s9.24,7.52,8.32,12.54c-.92,5.02-31.73,31.29-32.93,38.69-5.49-10.51,1.51-42.02,4.7-48,3.18-5.98,19.91-3.23,19.91-3.23Z"/>
              <polygon class="cls-39" points="737.88 406.86 739.43 424.53 724.26 434.56 721.27 430.5 720.08 420.71 737.88 406.86"/>
              <path class="cls-46" d="m709.93,391.69s-4.48,27,9.38,33.45c5.73,1.2,17.86-6.7,17.61-15.53,4.78-.96,4.78-10.03,2.39-11.94-2.39-1.91-3.35,3.11-3.35,3.11,0,0,2.27-12.18-4.89-12.3-7.17-.12-21.14,3.23-21.14,3.23Z"/>
              <path class="cls-63" d="m732.02,392.64s-11.23,5.97-17.19,5.02c-5.97-.95-7.88-4.06-8.84-7.28-.96-3.23,18.78-28.9,34.89-9.91,7.27,2.39,5.05,26.97-2.59,31.02-.13-.7-.36-2.24-.36-2.24,0,0,2.63-3.05,2.27-6.45-.36-3.41-1.2-4.42-1.91-4.48-.72-.06-2.21,2.45-2.45,3.76-.24,1.31-.12,2.92-.12,2.92l-1.79.3s-.06-3.17-.48-4.18c-.41-1.02-3.46-6.15-1.43-8.48Z"/>
              <path class="cls-50" d="m724.26,434.56l2.7,5.48-3.34,2.15-3.53,19.01-7.53,10.74s-2.72-3.88-2.04-13.15c5.46-9.2,9.57-17.2,9.57-17.2l-.88-4.42,5.06-2.61Z"/>
              <path class="cls-46" d="m734.88,548.07l9.33,3.09s-4.53,5.64-3.86,8.24c.58,2.25,0,4.59-1.05,6.59l-9.55-12.21c3.85-2.85,5.13-5.71,5.13-5.71Z"/>
              <path class="cls-48" d="m731.86,550.11s16.71-43.7,21.63-47.37c4.27-3.39-5.83-38.3-8.03-44.11-2.19-5.81,5.37-27.8,15.59-14.25,10.22,13.55,14.96,59.37,11.95,65.08-3.01,5.71-30.04,48.72-30.04,48.72,0,0-5.02-2.36-11.11-8.06Z"/>
            </g>
          </g>
          <g>
            <path class="cls-10" d="m644.53,753.59s.97,10.04.22,11.92c-.73,1.88-5.14,1.49-6.78,1.02-5.43-1.54-20.2-11.51-19.87-16.86.14-2.19,3.43-5.03,8.16-1.49,4.69,3.52,10.74,5.74,11.43,4.2.68-1.54,6.85,1.2,6.85,1.2Z"/>
            <path class="cls-32" d="m618.61,748.26c1.02,5.4,14.64,14.54,19.79,16,1.56.45,5.6.8,6.62-.8-.03.92-.11,1.67-.27,2.06-.73,1.88-5.14,1.49-6.78,1.02-5.43-1.54-20.2-11.51-19.87-16.86.03-.47.21-.97.52-1.42Z"/>
            <path class="cls-10" d="m693.85,744.46s.4,9.95-.35,11.83c-.73,1.88-5.15,1.49-6.8,1.02-5.41-1.53-20.73-11.41-20.41-16.77.14-2.19,4.49-4.26,11.17-.54,5.12,2.86,7.03,4.98,7.72,3.44.69-1.54,8.66,1.02,8.66,1.02Z"/>
            <path class="cls-32" d="m667.15,739.03c.77,5.47,15.13,14.67,20.34,16.14,1.42.4,4.88.75,6.29-.37-.07.66-.16,1.19-.28,1.5-.73,1.88-5.15,1.49-6.8,1.02-5.41-1.53-20.73-11.41-20.41-16.77.03-.55.33-1.08.85-1.52Z"/>
            <g>
              <path class="cls-55" d="m715.37,502.3s12.73,23.53,14.09,65.34c-2.28,8.01-22.12,3.42-24.64-.01-2.51-3.42-1.22-22.12-1.22-22.12h10.07l-3.05-20.1,4.75-23.11Z"/>
              <g>
                <path class="cls-41" d="m694.71,744.99c.5-7.26,4.38-74.57,4.62-76.8,2.23-20.84,7.57-39.3,8.71-43.72,4.12-16.13,3.59-36.7,3.59-36.7l-37.65,1.58s2.67,32.37,2.27,72.63c-.07,7.54,6.6,75.34,6.66,82.69l11.81.32Z"/>
                <path class="cls-60" d="m660.34,673.68c3.21-7.51,17.32-35.54,20.55-42.61,15.12-28.55,12.84-41.44,12.84-41.44l-47.05-1.86s-4.54,68.78-8.2,83.58c-.59,2.36-2.48,80.72-2.98,82.67l9.59.91,15.25-81.25Z"/>
                <path class="cls-46" d="m670.55,451.77s-7.53-.32-10.65,8.26c-.45,1.2-.6,2.54-.25,3.79.66,2.38-.27,6-1.26,8.67-1.82,4.99,1.69,13.57,5,17.74,4.06,1.47,7.08-1.59,7.08-1.59l2.55,8.99,20.03-5.1s-2.41-7.15,0-18.19c2.41-11.04,1.51-16.57-5.69-20.25-7.2-3.68-16.81-2.32-16.81-2.32"/>
                <path class="cls-63" d="m663.02,438.33s5.28,3.55,21.49,4.69c16.2,1.14,16.74,12.36,14.55,18.08,4.79,1.79-5.55,19.35-5.54,26.18-9.2,3.26-16.27-.99-16.27-.99,0,0-3.3-5.4-1.25-11.45,2.05-6.05-1.75-11.95-4.15-10.3-.52.35-1.27,9.95-1.67,10.04-.24.06-.99.05-1.2,0-.72-.16.2-2.61-.56-6.75-.37-1.98-2.96-6.14-2.84-7.25.18-1.52,1.86-5.86,1.86-5.86l-3.48-.57s-3.83.38-3.8-3.28c.07-6.6,2.86-12.54,2.86-12.54"/>
                <path class="cls-37" d="m645.14,513.83s8.88-10.48,27.46-17.4c8.77-3.28,18.56-4.39,18.56-4.39,0,0,15.12-2.36,25.79,11.63,3.06,4.02,7.32,14.81,1.27,29.89-6.06,15.08-4.41,33.69-5.45,41.26-1.33,9.59-1.12,48.4-1.12,48.4,0,0-.56,2-14.07,4.63l-3.93.76-2.3-15.57c-1.56.2-3.94,16.56-5.5,16.73-12.42,1.33-25.06,1.22-42.89-7.77,1.98-11.15,7.36-47.75,9.5-58.17,2.13-10.42-7.32-49.99-7.32-49.99"/>
                <polygon class="cls-33" points="617.95 622.74 673.27 658.43 676.78 656.71 676.78 604.36 617.95 570.4 614.44 572.12 617.95 622.74"/>
                <polygon class="cls-20" points="614.44 624.46 673.27 658.43 673.27 606.08 614.44 572.12 614.44 624.46"/>
                <path class="cls-46" d="m645.12,545.04s.9,24.25,0,30.53c-.89,6.28-17.67,48.89-19.11,55.97-1.43,7.09,5.19,14.01,11.75,11.29,3.58-1.49,3.22-2.85,2.54-3.74-.93-1.22-4.66-3.98-4.66-3.98,0,0,1.85-9.42,6.11-13.3,4.26-3.88,14.23-34.8,15.09-47.22.85-12.42,3.32-28.55,3.32-28.55l-15.04-.99Z"/>
                <path class="cls-55" d="m640.65,575.86c.66-4.56,1.1-21.81,1.29-30.87-.03-4.67.42-9.87.1-13.49-.93-10.74.37-14.12,3.68-18.25.96-1.2,2.39-2,3.85-2.71,8.71-4.29,14.71,3.06,15.04,18.89.05,2.24.04,4.64,0,7.13h.02s0,27.49-4.47,40.57c-4.03,11.78-12.66,37.13-15.32,42.25-2.31,4.46-4.43,8.15-5.43,10.85-4.37.88-11.12-2.1-13.6-4.61,4.48-13.6,14.07-44.38,14.83-49.75Z"/>
              </g>
            </g>
          </g>
          <g>
            <path class="cls-3" d="m413.68,814.02c0,33.89,47.01,61.38,105,61.38s105-27.49,105-61.38-47-61.39-105-61.39-105,27.49-105,61.39Z"/>
            <path class="cls-2" d="m451.65,830.73c0,33.89,47.01,61.38,105,61.38s104.99-27.49,104.99-61.38-47-61.38-104.99-61.38-105,27.48-105,61.38Z"/>
            <g>
              <g>
                <path class="cls-33" d="m540.79,710.93l1.24-1.88-6.91-6.51h0c-7.89-7.51-20.42-8.07-34.52.08-23.88,13.79-43.24,47.32-43.24,74.9,0,10.49,2.8,18.6,7.58,23.86h0s.08.09.08.09c.75.82,1.56,1.57,2.4,2.26l7.51,7.07,1.85-2.81c6.83,1.27,15.01-.41,23.81-5.49,23.89-13.79,43.25-47.32,43.25-74.91,0-6.51-1.09-12.09-3.05-16.65Z"/>
                <path class="cls-20" d="m551.42,734.7c0,27.59-19.37,61.12-43.25,74.91-23.88,13.79-43.24,2.61-43.24-24.98s19.36-61.1,43.24-74.9c23.88-13.79,43.25-2.61,43.25,24.96Z"/>
                <path class="cls-33" d="m490.97,810.32c-13.5,0-22.23-11.15-22.23-28.41,0-24.82,17.49-55.1,38.97-67.5,6.19-3.58,12.13-5.39,17.66-5.39,13.5,0,22.23,11.16,22.23,28.41,0,24.81-17.48,55.09-38.98,67.5-6.18,3.57-12.13,5.39-17.66,5.39Zm34.41-99.48c-5.21,0-10.84,1.73-16.75,5.14-20.98,12.12-38.06,41.69-38.06,65.93,0,16.39,7.82,26.59,20.4,26.59,5.2,0,10.84-1.73,16.75-5.14,21-12.11,38.07-41.7,38.07-65.93,0-16.39-7.82-26.59-20.41-26.59Z"/>
              </g>
              <g>
                <path class="cls-33" d="m573,729.2l1.24-1.88-6.91-6.51h0c-7.89-7.51-20.42-8.07-34.52.08-23.88,13.78-43.24,47.32-43.24,74.9,0,10.49,2.8,18.6,7.58,23.86h0s.08.09.08.09c.75.82,1.56,1.57,2.4,2.25l7.51,7.07,1.85-2.81c6.83,1.27,15.01-.41,23.81-5.49,23.89-13.79,43.25-47.32,43.25-74.91,0-6.51-1.09-12.09-3.05-16.65Z"/>
                <path class="cls-20" d="m583.63,752.97c0,27.59-19.37,61.12-43.25,74.91-23.88,13.79-43.24,2.61-43.24-24.98s19.36-61.1,43.24-74.9c23.88-13.79,43.25-2.61,43.25,24.96Z"/>
                <path class="cls-33" d="m523.18,828.59c-13.5,0-22.23-11.15-22.23-28.41,0-24.82,17.49-55.1,38.97-67.5,6.19-3.58,12.14-5.39,17.66-5.39,13.5,0,22.23,11.16,22.23,28.41,0,24.81-17.48,55.09-38.98,67.5-6.18,3.57-12.13,5.39-17.66,5.39Zm34.41-99.48c-5.21,0-10.84,1.73-16.75,5.14-20.98,12.11-38.06,41.69-38.06,65.93,0,16.39,7.82,26.59,20.4,26.59,5.2,0,10.84-1.73,16.74-5.14,21-12.12,38.07-41.7,38.07-65.93,0-16.39-7.82-26.59-20.41-26.59Z"/>
              </g>
              <g>
                <path class="cls-33" d="m605.21,747.48l1.24-1.88-6.91-6.51h0c-7.89-7.5-20.42-8.07-34.52.08-23.88,13.79-43.24,47.32-43.24,74.9,0,10.49,2.8,18.6,7.58,23.86h0s.08.09.08.09c.75.81,1.56,1.57,2.4,2.25l7.51,7.07,1.85-2.81c6.83,1.27,15.01-.41,23.81-5.49,23.89-13.79,43.25-47.32,43.25-74.91,0-6.51-1.09-12.09-3.05-16.65Z"/>
                <path class="cls-20" d="m615.84,771.25c0,27.59-19.37,61.12-43.25,74.91-23.88,13.79-43.24,2.61-43.24-24.97s19.36-61.11,43.24-74.9c23.88-13.79,43.25-2.61,43.25,24.96Z"/>
                <path class="cls-33" d="m555.39,846.87c-13.5,0-22.23-11.15-22.23-28.41,0-24.82,17.49-55.1,38.97-67.5,6.19-3.58,12.13-5.39,17.66-5.39,13.5,0,22.23,11.16,22.23,28.41,0,24.81-17.48,55.09-38.98,67.5-6.18,3.57-12.13,5.39-17.66,5.39Zm34.41-99.47c-5.21,0-10.84,1.73-16.75,5.14-20.98,12.12-38.06,41.69-38.06,65.93,0,16.39,7.82,26.59,20.4,26.59,5.2,0,10.84-1.74,16.74-5.14,21-12.12,38.07-41.7,38.07-65.93,0-16.39-7.82-26.59-20.41-26.59Z"/>
              </g>
            </g>
          </g>
          <g>
            <g>
              <polygon class="cls-42" points="249.91 742.41 261.62 735.65 533.69 892.43 521.97 899.19 249.91 742.41"/>
              <polygon class="cls-57" points="249.91 734.65 261.62 727.89 355.32 781.98 343.61 788.74 249.91 734.65"/>
              <polygon class="cls-25" points="249.91 734.65 249.91 742.41 343.61 796.51 343.61 788.74 249.91 734.65"/>
              <polygon class="cls-11" points="355.32 781.98 355.32 789.74 343.61 796.51 343.61 788.74 355.32 781.98"/>
            </g>
            <g>
              <polygon class="cls-42" points="226.54 755.91 238.25 749.15 510.31 905.93 498.6 912.69 226.54 755.91"/>
              <polygon class="cls-58" points="226.54 748.14 238.25 741.39 285.09 768.43 273.38 775.19 226.54 748.14"/>
              <polygon class="cls-52" points="226.54 748.14 226.49 755.84 273.33 782.89 273.38 775.19 226.54 748.14"/>
              <polygon class="cls-34" points="285.09 768.43 285.04 776.13 273.33 782.89 273.38 775.19 285.09 768.43"/>
            </g>
            <g>
              <polygon class="cls-42" points="203.16 769.41 214.87 762.64 486.93 919.43 475.23 926.18 203.16 769.41"/>
              <polygon class="cls-31" points="203.16 761.64 214.87 754.88 355.12 835.85 343.41 842.61 203.16 761.64"/>
              <polygon class="cls-24" points="203.16 761.64 203.16 769.41 343.41 850.37 343.41 842.61 203.16 761.64"/>
              <polygon class="cls-53" points="355.12 835.85 355.12 843.62 343.41 850.37 343.41 842.61 355.12 835.85"/>
            </g>
            <g>
              <polygon class="cls-42" points="179.78 782.9 191.49 776.13 463.56 932.92 451.85 939.68 179.78 782.9"/>
              <polygon class="cls-44" points="191.49 768.37 179.78 775.13 343.66 869.75 355.37 862.99 191.49 768.37"/>
              <polygon class="cls-49" points="179.78 775.13 179.78 782.9 343.66 877.51 343.66 869.75 179.78 775.13"/>
              <polygon class="cls-61" points="343.66 869.75 343.66 877.51 355.37 870.75 355.37 862.99 343.66 869.75"/>
            </g>
          </g>
          <g>
            <path class="cls-24" d="m812.12,562.19c1.04,4.29-4.95,8.66-10.04,12.99,2.13,5.48,4.64,10.86,7.47,16.11,7.55,1.03,15.84,1.64,18.52,5.43,2.64,3.76,1.74,13.65,1.33,22.75,3.8,4.15,7.81,8.04,11.99,11.47,4.4-5.3,9.04-11.65,12.44-9.68,3.42,1.97,8.05,13.68,12.45,24.05,3.15,1.06,1.82,10.34,4.75,10.71.97.13,6.9-8.15,7.25-8.32-.41-9.58-1.31-20.51,1.33-21.22,2.69-.69,11.18,9.1,18.73,16.79,2.83-1.98,5.13-5.29,7.25-8.33-5.09-10.2-11.07-21.49-10.03-24.58.93-2.76,3.04,8.33,10.45,10.35.52.14,6.73-8.46,7.25-8.33.22-2.32.36-4.71.36-7.23,0-2.52-.14-5.09-.36-7.66-7.84-6.97-16.7-14.3-17.7-18.41-.87-3.61-1.59-1,2.78-4.66.81-.67,6.46-7.66,7.25-8.33-2.12-5.5-4.63-10.88-7.46-16.11-7.56-1.04-15.84-1.66-18.51-5.45-2.66-3.75-1.76-13.63-1.34-22.74-3.81-4.18-7.81-8.03-12-11.46-4.41,5.28-9.03,11.63-12.45,9.66-3.4-1.97-8.02-13.65-12.44-24.03-4.17-1.41-8.19-2.16-11.99-2.38.02.49-7.25,8.33-7.25,8.33.43,9.19,8.43,12.21,5.92,12.86-2.66.71-10.95-8.24-18.52-15.93-2.83,1.97-5.34,4.45-7.47,7.48.07.13-5.02,5.46-4.95,5.59,5.04,10.1,16.03,15.96,15,18.99-1,2.96-9.87.05-17.69-2.02-.83,1.05-7.26,7.18-7.26,8.33,0,2.52,7.02,3.99,7.26,6.57,7.82,6.96,16.68,14.3,17.68,18.41Zm12.26-8.55c0-18.78,13.18-26.41,29.45-17.01,16.26,9.39,29.46,32.24,29.46,51.02s-13.19,26.38-29.46,16.99c-16.27-9.4-29.45-32.21-29.45-50.99Z"/>
            <path class="cls-31" d="m804.87,570.51c1.04,4.29-4.95,8.66-10.04,12.99,2.12,5.49,4.63,10.86,7.47,16.12,7.55,1.03,15.84,1.63,18.51,5.42,2.65,3.77,1.75,13.66,1.34,22.76,3.8,4.15,7.81,8.04,11.99,11.46,4.4-5.28,9.03-11.64,12.44-9.68,3.41,1.97,8.04,13.68,12.44,24.05,4.2,1.42,8.19,2.15,12,2.38-.42-9.58-1.32-20.5,1.32-21.22,2.69-.69,10.98,8.27,18.53,15.95,2.83-1.98,5.34-4.46,7.46-7.49-5.09-10.2-11.06-21.49-10.03-24.58,1-2.95,9.87-.06,17.7,2.02.22-2.32.36-4.71.36-7.23s-.14-5.09-.36-7.66c-7.83-6.97-16.7-14.29-17.7-18.41-1.03-4.27,4.95-8.67,10.03-12.98-2.12-5.5-4.63-10.88-7.46-16.11-7.55-1.05-15.84-1.66-18.51-5.45-2.66-3.75-1.76-13.63-1.34-22.74-3.81-4.18-7.81-8.03-12-11.47-4.41,5.29-9.03,11.63-12.44,9.66-3.41-1.96-8.03-13.65-12.44-24.03-4.17-1.41-8.18-2.16-11.99-2.38.41,9.58,1.31,20.5-1.34,21.19-2.66.71-10.95-8.24-18.51-15.93-2.83,1.97-5.34,4.45-7.47,7.47,5.09,10.2,11.08,21.52,10.04,24.59-1,2.97-9.87.05-17.69-2.02-.23,2.31-.36,4.73-.36,7.25s.13,5.07.36,7.65c7.83,6.96,16.69,14.3,17.69,18.41Zm12.27-8.55c0-18.78,13.17-26.41,29.45-17.01,16.26,9.39,29.45,32.24,29.45,51.02s-13.19,26.38-29.45,16.99c-16.28-9.4-29.45-32.22-29.45-51Z"/>
          </g>
          <g>
            <path class="cls-4" d="m684.29,876.3c0,23.44,32.51,42.45,72.62,42.45s72.62-19,72.62-42.45-32.51-42.46-72.62-42.46-72.62,19.01-72.62,42.46Z"/>
            <g>
              <g>
                <path class="cls-23" d="m682.41,814.09c0,53.66,37.67,75.4,84.14,48.58,46.47-26.83,84.15-92.07,84.15-145.74s-37.68-75.4-84.15-48.58c-46.47,26.82-84.14,92.08-84.14,145.74Z"/>
                <polygon class="cls-17" points="705.26 867.46 723.89 878.51 720.46 867.46 705.26 867.46"/>
                <polygon class="cls-31" points="845.14 673.83 824.49 661.61 819.38 672.98 845.14 673.83"/>
                <path class="cls-64" d="m699.17,824c0,53.66,37.67,75.4,84.15,48.58,46.46-26.84,84.14-92.08,84.14-145.75s-37.68-75.4-84.14-48.58c-46.47,26.82-84.15,92.08-84.15,145.74Z"/>
                <path class="cls-45" d="m712.76,816.14c0,44.99,31.59,63.22,70.55,40.73,38.96-22.49,70.55-77.21,70.55-122.19s-31.58-63.23-70.55-40.73c-38.96,22.5-70.55,77.19-70.55,122.19Z"/>
                <path class="cls-31" d="m777.6,853.83c38.96-22.5,70.54-77.21,70.54-122.19,0-21.4-7.16-36.73-18.84-44.52,15.03,6.26,24.55,22.87,24.55,47.56,0,44.98-31.58,99.69-70.55,122.19-20.43,11.79-38.82,12.37-51.71,3.79,12.36,5.15,28.42,3.31,46-6.83Z"/>
              </g>
              <path class="cls-65" d="m685.68,824.65h0c1.43-.9,3.43-.84,5.67.45,4.32,2.49,7.82,8.56,7.82,13.55,0,2.5-.9,4.27-2.33,5.08h0s-52.12,29.73-52.12,29.73v-25.17l40.95-23.63Z"/>
              <path class="cls-14" d="m573.8,920.99l-16.84-28.54,104.56-60.37.05.09c2.08-.95,4.81-.73,7.83,1.01,6.5,3.76,11.78,12.89,11.79,20.4,0,3.73-1.3,6.35-3.4,7.59h0s-.03.02-.03.02c-.02,0-.03.02-.04.02l-103.91,59.77Z"/>
              <path class="cls-12" d="m554,899.79c0,7.52,5.28,16.65,11.78,20.41,6.51,3.75,11.78.71,11.78-6.8,0-7.51-5.27-16.64-11.78-20.4-6.5-3.76-11.78-.71-11.78,6.8Z"/>
            </g>
          </g>
        </g>
      </g>
    </g>
  </g>
</svg>