<?xml version="1.0" encoding="UTF-8"?>
<svg xmlns="http://www.w3.org/2000/svg" xmlns:xlink="http://www.w3.org/1999/xlink" viewBox="0 0 1080 1080">
  <defs>
    <style>
      .cls-1 {
        fill: url(#linear-gradient-2);
      }

      .cls-2 {
        fill: #3b77d9;
      }

      .cls-3 {
        fill: url(#_Безымянный_градиент_37-2);
      }

      .cls-4 {
        fill: #fff;
      }

      .cls-5, .cls-6 {
        fill: #79c3f0;
      }

      .cls-7 {
        fill: url(#_Безымянный_градиент_94);
      }

      .cls-6, .cls-8 {
        opacity: .3;
      }

      .cls-9 {
        fill: url(#linear-gradient-14);
      }

      .cls-10 {
        fill: url(#linear-gradient-6);
      }

      .cls-11 {
        isolation: isolate;
      }

      .cls-12 {
        fill: #3973cf;
      }

      .cls-13 {
        fill: url(#_Безымянный_градиент_37-3);
      }

      .cls-14 {
        fill: url(#_Безымянный_градиент_8);
      }

      .cls-15 {
        fill: url(#_Безымянный_градиент_37);
      }

      .cls-16 {
        fill: url(#linear-gradient-11);
      }

      .cls-17 {
        fill: #f09959;
      }

      .cls-18 {
        fill: #ffc34e;
      }

      .cls-19 {
        opacity: .8;
      }

      .cls-20 {
        fill: url(#linear-gradient-10);
      }

      .cls-21 {
        fill: #3aa1e0;
      }

      .cls-22 {
        opacity: .5;
      }

      .cls-22, .cls-8 {
        fill: #99a8c2;
        mix-blend-mode: multiply;
      }

      .cls-23 {
        fill: #fb8627;
      }

      .cls-24 {
        fill: #153f9c;
      }

      .cls-25 {
        fill: #65ace4;
      }

      .cls-26 {
        fill: url(#_Безымянный_градиент_37-5);
      }

      .cls-27 {
        fill: url(#linear-gradient-5);
      }

      .cls-28 {
        clip-path: url(#clippath);
      }

      .cls-29 {
        fill: #e38540;
      }

      .cls-30 {
        fill: none;
      }

      .cls-31 {
        fill: url(#linear-gradient-7);
      }

      .cls-32 {
        fill: #0f2d5c;
      }

      .cls-33 {
        fill: url(#_Безымянный_градиент_8-2);
      }

      .cls-34 {
        mix-blend-mode: overlay;
      }

      .cls-35 {
        fill: url(#linear-gradient-9);
      }

      .cls-36 {
        fill: url(#linear-gradient-3);
      }

      .cls-37 {
        fill: url(#_Безымянный_градиент_37-4);
      }

      .cls-38 {
        fill: url(#linear-gradient);
      }

      .cls-39 {
        fill: #0e3a82;
      }

      .cls-40 {
        fill: #1b45a1;
      }

      .cls-41 {
        fill: url(#linear-gradient-4);
      }

      .cls-42 {
        fill: url(#linear-gradient-8);
      }

      .cls-43 {
        fill: #2a66c6;
      }

      .cls-44 {
        fill: #316ccc;
      }

      .cls-45 {
        fill: url(#linear-gradient-12);
      }

      .cls-46 {
        fill: url(#linear-gradient-13);
      }

      .cls-47 {
        fill: #1f57b5;
      }
    </style>
    <linearGradient id="linear-gradient" x1="86.57" y1="505.03" x2="993.91" y2="505.03" gradientUnits="userSpaceOnUse">
      <stop offset="0" stop-color="#00adee"/>
      <stop offset="1" stop-color="#2e3191"/>
    </linearGradient>
    <linearGradient id="linear-gradient-2" x1="261.53" y1="665.16" x2="253.43" y2="419.46" xlink:href="#linear-gradient"/>
    <linearGradient id="linear-gradient-3" x1="334.54" y1="765.44" x2="80.56" y2="608.45" xlink:href="#linear-gradient"/>
    <linearGradient id="linear-gradient-4" x1="210.88" y1="406.47" x2="426.63" y2="276.81" xlink:href="#linear-gradient"/>
    <linearGradient id="linear-gradient-5" x1="895.36" y1="576.93" x2="705.94" y2="789.64" xlink:href="#linear-gradient"/>
    <linearGradient id="linear-gradient-6" x1="707.81" y1="220.7" x2="697.68" y2="413.17" gradientTransform="translate(83.85 316.39) rotate(-8.49)" xlink:href="#linear-gradient"/>
    <linearGradient id="_Безымянный_градиент_94" data-name="Безымянный градиент 94" x1="707.66" y1="220.7" x2="697.53" y2="413.16" gradientTransform="translate(83.85 316.39) rotate(-8.49)" gradientUnits="userSpaceOnUse">
      <stop offset="0" stop-color="#6bbeff"/>
      <stop offset="1" stop-color="#0c3aa1"/>
    </linearGradient>
    <linearGradient id="linear-gradient-7" x1="281.5" y1="496.95" x2="798.25" y2="496.95" xlink:href="#linear-gradient"/>
    <linearGradient id="linear-gradient-8" x1="516.9" y1="658.71" x2="562.84" y2="658.71" xlink:href="#linear-gradient"/>
    <linearGradient id="linear-gradient-9" x1="476.1" y1="450.08" x2="603.64" y2="450.08" xlink:href="#linear-gradient"/>
    <clipPath id="clippath">
      <path class="cls-30" d="m538.74,374.2c26.03,0,60.24-9.79,70.8-13.02,1.6-.49,3.25.6,3.25,2.15v72.41c0,55.95-72.92,101.32-72.92,101.32,0,0-72.92-45.36-72.92-101.32v-69.06c0-1.48,1.53-2.57,3.09-2.19,10.05,2.41,42.67,9.71,68.69,9.71Z"/>
    </clipPath>
    <linearGradient id="_Безымянный_градиент_8" data-name="Безымянный градиент 8" x1="1027.49" y1="326.66" x2="860.48" y2="593.36" gradientTransform="translate(1426.17) rotate(-180) scale(1 -1)" gradientUnits="userSpaceOnUse">
      <stop offset="0" stop-color="#fff"/>
      <stop offset="1" stop-color="#000"/>
    </linearGradient>
    <linearGradient id="_Безымянный_градиент_8-2" data-name="Безымянный градиент 8" x1="997.38" y1="307.8" x2="830.36" y2="574.5" xlink:href="#_Безымянный_градиент_8"/>
    <linearGradient id="linear-gradient-10" x1="598.76" y1="578.63" x2="736.25" y2="578.63" xlink:href="#linear-gradient"/>
    <linearGradient id="linear-gradient-11" x1="450.21" y1="578.63" x2="526.25" y2="578.63" xlink:href="#linear-gradient"/>
    <linearGradient id="linear-gradient-12" x1="422.95" y1="597.25" x2="499" y2="597.25" xlink:href="#linear-gradient"/>
    <linearGradient id="linear-gradient-13" x1="695.27" y1="269.67" x2="850.51" y2="269.67" xlink:href="#linear-gradient"/>
    <linearGradient id="_Безымянный_градиент_37" data-name="Безымянный градиент 37" x1="286.13" y1="632.52" x2="218.36" y2="754.74" gradientUnits="userSpaceOnUse">
      <stop offset="0" stop-color="#ffc34e"/>
      <stop offset="1" stop-color="#fb8627"/>
    </linearGradient>
    <linearGradient id="_Безымянный_градиент_37-2" data-name="Безымянный градиент 37" x1="297.23" y1="637.37" x2="222.84" y2="771.53" xlink:href="#_Безымянный_градиент_37"/>
    <linearGradient id="linear-gradient-14" x1="294.11" y1="674.02" x2="225.94" y2="758.07" xlink:href="#linear-gradient"/>
    <linearGradient id="_Безымянный_градиент_37-3" data-name="Безымянный градиент 37" x1="715.62" y1="456.63" x2="853.58" y2="617.33" xlink:href="#_Безымянный_градиент_37"/>
    <linearGradient id="_Безымянный_градиент_37-4" data-name="Безымянный градиент 37" x1="764.32" y1="444.45" x2="780.37" y2="463.15" xlink:href="#_Безымянный_градиент_37"/>
    <linearGradient id="_Безымянный_градиент_37-5" data-name="Безымянный градиент 37" x1="685.37" y1="544.84" x2="832.21" y2="465.69" xlink:href="#_Безымянный_градиент_37"/>
  </defs>
  <g class="cls-11">
    <g id="Layer_1" data-name="Layer 1">
      <g>
        <g>
          <path class="cls-38" d="m158.38,630.44s-105.28-132.88-60.89-126.54c44.38,6.33,80.81,67.34,80.81,67.34,0,0-42.11-163.29-28.49-170.86,13.62-7.57,10.51-22.27-3.43-60.23-13.95-37.96,38.91-13.32,45.51,13.29,6.6,26.61,27.22,96.82,51.15,114.68,23.93,17.86,36.06,30.73,36.06,30.73l149.88-131.94s46.64-51.75,74.09-60c27.45-8.25-19.92,47.16-16.07,51.22,3.84,4.06,92.85-111.21,117.69-88.46,24.84,22.75-52.79,86.87-52.79,86.87l204.63,10.36s90.65-1.15,103.29-22.73c12.64-21.57,32.94-21.57,45.03-21.57s48.25,10.2,19.39,26.8c-28.86,16.6-30.21,19.58-24.82,42.34,5.39,22.76-22.55,65.82-54.62,80.79-32.07,14.97-75.35,68.56-75.35,68.56l1.56,51.23s150.01-103.55,168.86-80.7c18.85,22.85-80.05,88.48-80.05,88.48,0,0,.9,31.51-7.39,54.41-8.28,22.9-43.06,23.82-64.22,34.84-21.17,11.02,92.22-4.84,105.75-37.11,13.54-32.27,110.59-63.89,97.11-28.29-13.48,35.59-25.39,54.8-25.39,54.8,0,0,36.04,4.18,26.67,26.95-9.37,22.77-95.95,37.18-126.12,37.63-30.17.45-555.78-3.47-555.78-3.47l-152.08-109.43Z"/>
          <polygon class="cls-40" points="344.59 658.71 355.22 731.66 762.11 742.19 772.16 656.64 344.59 658.71"/>
          <g>
            <path class="cls-1" d="m374.79,736.94s-19.13-194.32-122.8-253.81c-103.67-59.49-108.97-67.1-108.97-67.1,0,0-5.87,137.95,63.49,222.74,69.36,84.79,143.05,101.84,143.05,101.84l25.23-3.68Z"/>
            <path class="cls-36" d="m334.73,743.06s-28.76-106.25-114.49-125.07c-85.73-18.83-134.15,5.47-134.15,5.47,0,0,45.38,127.86,111.92,135.28,74.98,8.36,136.72-15.68,136.72-15.68Z"/>
            <path class="cls-25" d="m340.01,743.82c-.38,0-.76-.14-1.05-.42-.27-.26-27.94-26.18-70.48-52.21-39.19-23.99-99.39-52.97-163.61-54.86-.85-.02-1.51-.73-1.49-1.58.02-.85.72-1.51,1.58-1.49,28.68.84,58.95,7.05,89.96,18.44,24.78,9.1,50.09,21.52,75.23,36.91,42.79,26.19,70.64,52.3,70.92,52.56.62.58.64,1.55.06,2.17-.3.32-.71.48-1.12.48Z"/>
            <path class="cls-25" d="m350.33,733.19c-.63,0-1.22-.39-1.44-1.02-.2-.56-20.2-56.58-54.91-124.43-19.6-38.31-48.8-65.32-77.05-91.44-21.8-20.16-42.39-39.2-55.85-61.48-.44-.72-.21-1.67.52-2.1.72-.44,1.67-.21,2.1.52,13.23,21.9,33.67,40.8,55.31,60.81,28.44,26.3,57.85,53.49,77.7,92.29,34.81,68.05,54.87,124.24,55.07,124.8.28.8-.13,1.67-.93,1.96-.17.06-.34.09-.51.09Z"/>
            <path class="cls-25" d="m136.64,687.16c-.53,0-1.04-.27-1.32-.76-.43-.73-.19-1.67.54-2.1,22.75-13.38,44.62-18.61,58.96-20.64,15.57-2.2,25.63-1.25,26.05-1.21.84.08,1.46.83,1.37,1.68-.08.84-.84,1.46-1.68,1.38-.1,0-10.19-.96-25.42,1.21-14.04,2-35.45,7.13-57.73,20.23-.24.14-.51.21-.78.21Z"/>
            <path class="cls-25" d="m177.38,727.97c-.4,0-.8-.15-1.1-.46-.59-.61-.58-1.58.03-2.17.34-.33,8.47-8.19,23.6-17,13.94-8.11,36.66-18.52,65.74-22.07.84-.11,1.6.5,1.71,1.34.1.84-.5,1.6-1.34,1.71-28.57,3.49-50.88,13.71-64.57,21.68-14.8,8.62-22.93,16.46-23.01,16.54-.3.29-.68.44-1.07.44Z"/>
            <path class="cls-25" d="m232.14,549.86c-2.19,0-4.54-.05-7.03-.16-14.49-.64-36.67-3.67-60.11-14.46-.77-.35-1.11-1.26-.75-2.03.35-.77,1.27-1.1,2.03-.75,22.98,10.59,44.75,13.56,58.96,14.18,15.37.68,25.39-1.15,25.49-1.17.83-.15,1.63.39,1.79,1.22.16.83-.39,1.63-1.22,1.79-.35.07-7.52,1.38-19.16,1.38Z"/>
            <path class="cls-25" d="m256.44,604.27c-14.29,0-34.17-1.68-59.26-7.77-.82-.2-1.33-1.03-1.13-1.85.2-.82,1.03-1.33,1.85-1.13,32.02,7.77,55.37,8.28,69.33,7.34,15.11-1.02,22.75-3.91,22.83-3.94.79-.3,1.68.09,1.98.88.31.79-.09,1.68-.87,1.98-.32.12-8.02,3.06-23.52,4.13-3.24.22-6.98.37-11.2.37Z"/>
          </g>
          <path class="cls-40" d="m893.07,751.1c-8.75-3.46-19.09-7.21-29.96-11.24-51.81-19.21-208.13-40.68-332.79-32.26-34.34,2.32-132.37,14.49-179.99,15.06-52.47.63-25.92,23.87-154.58,28.75-128.67,4.88-69.71,17.9-17.07,30.66,34.7,8.41,133.86,5.74,234.79,2.93-3.01.39-2.66.4,1.77-.05,16.01-.44,32.06-.89,47.9-1.3,58.93.7,144.48,6.37,207.79,6.89,84.21.69,249.72,5.11,264.3-14.36,7.36-9.83-12.63-18.68-42.17-25.09Z"/>
          <path class="cls-41" d="m357.69,382.84c.38-3.36.57-6.77.57-10.22,0-1.82-.06-3.63-.17-5.43l-16.89-5.47c-1.04-7.12-3.08-13.92-5.98-20.24l11.2-13.78c-2.59-4.56-5.56-8.87-8.87-12.9l-16.89,5.51c-4.92-5.03-10.55-9.37-16.72-12.86l.96-17.75c-4.71-2.15-9.64-3.9-14.75-5.23l-10.43,14.4c-4.07-.68-8.24-1.05-12.5-1.05-2.9,0-5.77.17-8.59.49l-9.66-14.93c-5.17,1.05-10.19,2.54-15.01,4.43l.02,17.78c-6.36,3.16-12.21,7.2-17.38,11.96l-16.57-6.4c-3.52,3.85-6.72,8-9.54,12.41l10.46,14.36c-3.24,6.17-5.64,12.85-7.05,19.89l-17.16,4.57c-.38,3.36-.57,6.77-.57,10.22,0,1.82.06,3.63.17,5.43l16.89,5.47c1.04,7.12,3.08,13.92,5.98,20.24l-11.2,13.78c2.59,4.56,5.56,8.87,8.87,12.9l16.89-5.51c4.92,5.03,10.55,9.37,16.72,12.86l-.96,17.75c4.71,2.15,9.64,3.9,14.75,5.23l10.43-14.4c4.07.68,8.24,1.05,12.5,1.05,2.9,0,5.77-.17,8.59-.49l9.66,14.93c5.17-1.05,10.19-2.54,15.01-4.43l-.02-17.78c6.36-3.16,12.21-7.2,17.38-11.96l16.57,6.4c3.52-3.85,6.72-8,9.54-12.41l-10.46-14.36c3.24-6.17,5.64-12.85,7.05-19.89l17.16-4.57Zm-90.48,25.49c-19.72,0-35.71-15.99-35.71-35.71s15.99-35.71,35.71-35.71,35.71,15.99,35.71,35.71-15.99,35.71-35.71,35.71Z"/>
          <g>
            <path class="cls-27" d="m925.11,709.98c2.26-3.49,4.36-7.12,6.26-10.93,1-2.01,1.93-4.03,2.81-6.06l-15.57-15.31c2.78-8.4,4.27-17,4.56-25.55l19.9-8.99c-.34-6.44-1.23-12.82-2.66-19.07l-21.61-3.24c-2.65-8.24-6.45-16.11-11.32-23.34l10.83-18.99c-4-4.96-8.46-9.6-13.34-13.87l-19.4,10.09c-4.1-2.99-8.49-5.69-13.17-8.03-3.19-1.6-6.44-2.99-9.71-4.18l-2.4-21.73c-6.27-1.69-12.61-2.81-18.94-3.38l-9.76,19.56c-8.73-.03-17.39,1.2-25.7,3.58l-14.71-16.16c-5.99,2.29-11.79,5.1-17.33,8.39l3.6,21.55c-6.96,5.01-13.28,11.03-18.7,18l-21.38-4.42c-2.26,3.48-4.36,7.12-6.26,10.93-1,2.01-1.93,4.03-2.81,6.06l15.57,15.31c-2.78,8.4-4.27,17-4.56,25.55l-19.9,8.99c.34,6.44,1.23,12.82,2.66,19.07l21.61,3.24c2.65,8.24,6.45,16.11,11.32,23.34l-10.83,18.99c4,4.96,8.46,9.6,13.34,13.87l19.4-10.09c4.09,2.99,8.49,5.69,13.17,8.03,3.19,1.6,6.44,2.99,9.71,4.18l2.4,21.73c6.27,1.69,12.61,2.81,18.94,3.38l9.76-19.56c8.73.03,17.39-1.2,25.7-3.58l14.71,16.16c5.99-2.29,11.79-5.1,17.33-8.39l-3.6-21.55c6.96-5.01,13.28-11.03,18.7-18l21.38,4.42Zm-113.53-21.77c-21.69-10.86-30.47-37.24-19.62-58.93,10.86-21.69,37.24-30.47,58.93-19.62,21.69,10.86,30.47,37.24,19.62,58.93-10.86,21.69-37.24,30.47-58.93,19.62Z"/>
            <path class="cls-4" d="m863.12,720.88c-.7,0-1.36-.4-1.66-1.08-.4-.91.02-1.98.93-2.38,15.78-6.91,28.72-19.22,36.44-34.65,3.7-7.39,6.12-15.25,7.2-23.36.13-.99,1.03-1.69,2.03-1.55.99.13,1.68,1.04,1.55,2.03-1.13,8.51-3.67,16.75-7.55,24.5-8.1,16.18-21.67,29.09-38.22,36.34-.24.1-.48.15-.72.15Z"/>
            <path class="cls-4" d="m903.82,625.34c-.74,0-1.43-.45-1.7-1.18-3.5-9.54-8.8-18.1-15.76-25.44-.69-.72-.66-1.87.07-2.55.72-.69,1.87-.66,2.55.07,7.3,7.7,12.86,16.68,16.53,26.68.34.94-.14,1.97-1.07,2.32-.21.07-.42.11-.62.11Z"/>
            <path class="cls-4" d="m866.58,583.66c-.27,0-.55-.06-.81-.19-5.5-2.75-11.31-4.81-17.26-6.12-.97-.21-1.59-1.18-1.38-2.15.21-.97,1.18-1.59,2.15-1.38,6.24,1.37,12.33,3.53,18.1,6.42.89.45,1.25,1.53.81,2.42-.32.63-.95,1-1.62,1Z"/>
          </g>
          <path class="cls-10" d="m801.38,566.67c2.49.8,5.04,1.48,7.67,2.01,1.38.28,2.77.52,4.15.71l6.75-11.97c5.56.31,11.03-.19,16.28-1.41l8.73,10.62c3.86-1.26,7.59-2.85,11.15-4.74l-1.57-13.67c4.58-2.96,8.73-6.56,12.33-10.7l13.32,3.47c2.36-3.24,4.45-6.71,6.24-10.38l-9.31-10.13c1.15-2.98,2.07-6.09,2.72-9.32.45-2.2.76-4.4.95-6.59l12.81-5.02c0-4.09-.36-8.12-1.05-12.07l-13.49-2.73c-1.42-5.31-3.58-10.37-6.39-15.03l7.41-11.58c-2.38-3.27-5.03-6.33-7.94-9.16l-12.51,5.72c-4.18-3.41-8.88-6.26-14-8.42l-.82-13.72c-2.49-.8-5.04-1.48-7.67-2.01-1.38-.28-2.77-.52-4.15-.71l-6.75,11.97c-5.56-.31-11.03.19-16.27,1.41l-8.73-10.62c-3.86,1.26-7.59,2.85-11.15,4.74l1.57,13.67c-4.58,2.96-8.73,6.56-12.33,10.7l-13.32-3.47c-2.36,3.24-4.45,6.71-6.24,10.38l9.31,10.13c-1.15,2.98-2.07,6.09-2.72,9.32-.45,2.2-.76,4.4-.95,6.59l-12.81,5.02c0,4.09.36,8.12,1.05,12.07l13.49,2.73c1.42,5.31,3.58,10.37,6.39,15.03l-7.41,11.58c2.38,3.27,5.03,6.33,7.94,9.16l12.51-5.72c4.18,3.41,8.88,6.26,14,8.42l.81,13.72Zm-5.37-72.56c3.04-14.96,17.64-24.62,32.6-21.58,14.96,3.04,24.62,17.64,21.58,32.6-3.04,14.96-17.64,24.62-32.6,21.58-14.96-3.04-24.62-17.64-21.58-32.6Z"/>
          <path class="cls-7" d="m839.13,494.45c1.35,9.08-4.91,17.53-13.98,18.88-9.08,1.35-17.53-4.91-18.88-13.98-1.35-9.08,4.9-17.53,13.98-18.88,9.08-1.35,17.53,4.91,18.88,13.98Z"/>
          <g>
            <path class="cls-2" d="m627.47,732.27v-75.63h-175.19v75.63h-56.96c-10.57,0-19.15,8.57-19.15,19.15v4.65c0,3.44,2.79,6.22,6.22,6.22h314.95c3.44,0,6.22-2.79,6.22-6.22v-4.65c0-10.57-8.57-19.15-19.15-19.15h-56.96Z"/>
            <g>
              <polygon class="cls-47" points="452.28 708.48 627.47 694.98 627.47 663.12 452.28 664.98 452.28 708.48"/>
              <polygon class="cls-47" points="627.47 719.87 452.28 732.27 627.47 732.27 627.47 719.87"/>
            </g>
            <g>
              <path class="cls-24" d="m292.08,340.15h495.59c14.33,0,25.96,11.63,25.96,25.96v281.84c0,14.33-11.63,25.96-25.96,25.96h-495.59c-14.33,0-25.96-11.63-25.96-25.96v-281.85c0-14.33,11.63-25.96,25.96-25.96Z"/>
              <rect class="cls-31" x="281.5" y="353.76" width="516.75" height="286.39" rx="23.37" ry="23.37"/>
            </g>
            <rect class="cls-42" x="516.9" y="654.31" width="45.94" height="8.81" rx="3.64" ry="3.64"/>
            <rect class="cls-5" x="562.84" y="737.65" width="128.22" height="9.09" rx="3.75" ry="3.75"/>
          </g>
          <path class="cls-8" d="m544.66,380.74c27.39,0,63.39-10.31,74.51-13.7,1.68-.51,3.42.63,3.42,2.26v76.2c0,58.88-76.73,106.61-76.73,106.61,0,0-76.73-47.73-76.73-106.61v-72.67c0-1.56,1.61-2.7,3.25-2.31,10.58,2.53,44.9,10.21,72.29,10.21Z"/>
          <g>
            <path class="cls-40" d="m538.74,374.2c26.03,0,60.24-9.79,70.8-13.02,1.6-.49,3.25.6,3.25,2.15v72.41c0,55.95-72.92,101.32-72.92,101.32,0,0-72.92-45.36-72.92-101.32v-69.06c0-1.48,1.53-2.57,3.09-2.19,10.05,2.41,42.67,9.71,68.69,9.71Z"/>
            <path class="cls-35" d="m539.87,386.12c19.53,0,43.81-6.41,56.01-11.46,3.64-1.51,7.76.93,7.76,4.59v58.11c0,48.93-63.77,88.6-63.77,88.6,0,0-63.77-39.67-63.77-88.6v-55.58c0-3.52,3.82-5.95,7.42-4.72,12.08,4.12,36.64,9.06,56.35,9.06Z"/>
            <path class="cls-5" d="m540.55,401.88v108.62s-50.72-32.32-50.72-70.72v-44.02c0-2.57,2.8-4.34,5.42-3.43,9.47,3.29,29.54,9.54,45.3,9.54Z"/>
            <path class="cls-5" d="m540.55,401.88v108.62s52.53-32.32,52.53-70.72v-44.12c0-2.54-2.75-4.31-5.35-3.45-9.83,3.25-31.22,9.67-47.18,9.67Z"/>
            <path class="cls-43" d="m520.61,428.02c.79.57,1.54,1.16,2.29,1.76.74.61,1.48,1.2,2.18,1.86.7.65,1.41,1.31,2.1,1.99.34.34.7.67,1.02,1.02l.98,1.04c.66.69,1.3,1.41,1.93,2.12.63.72,1.22,1.46,1.84,2.2.62.73,1.19,1.5,1.77,2.26.29.38.58.76.86,1.15.28.38.57.77.84,1.16.55.78,1.08,1.58,1.62,2.37.53.8,1.03,1.61,1.53,2.43.51.81.99,1.64,1.46,2.48l.7,1.25c.23.42.45.85.67,1.28.22.43.44.85.65,1.28l.61,1.31c.41.87.79,1.76,1.15,2.66.36.9.7,1.81,1.03,2.73.16.46.32.93.47,1.41.08.24.15.47.23.72l.23.8-10.05-.6c.21-.38.38-.69.57-1.02l.57-.97c.38-.64.77-1.28,1.16-1.92l2.37-3.77,4.76-7.48c1.6-2.48,3.24-4.93,4.95-7.34,1.69-2.42,3.48-4.77,5.29-7.1,1.83-2.32,3.71-4.6,5.67-6.81,1.96-2.21,3.99-4.37,6.1-6.44,2.11-2.07,4.32-4.04,6.63-5.9,1.15-.93,2.34-1.81,3.55-2.65,1.21-.84,2.46-1.64,3.74-2.37.26-.15.59-.06.74.2.13.23.08.52-.12.68-1.1.94-2.15,1.91-3.18,2.91-1.02,1-2.01,2.04-2.97,3.1-.96,1.06-1.89,2.14-2.79,3.25-.9,1.11-1.78,2.23-2.64,3.37-1.72,2.28-3.36,4.62-4.93,7-.78,1.2-1.56,2.39-2.31,3.6-.76,1.21-1.5,2.43-2.22,3.66-1.47,2.45-2.86,4.94-4.25,7.44-1.37,2.5-2.71,5.03-4.01,7.57-.65,1.27-1.29,2.55-1.91,3.83-.62,1.28-1.21,2.59-1.77,3.9-.57,1.31-1.12,2.62-1.65,3.94l-.79,1.97-.75,1.92-4.61,11.79-5.44-12.4-2.05-4.68c-.18-.4-.36-.81-.53-1.21-.17-.41-.36-.81-.53-1.21l-1.05-2.45-4.18-9.9c-.34-.84-.72-1.65-1.06-2.5l-.52-1.26-.54-1.25c-.35-.84-.72-1.67-1.06-2.53-.35-.85-.73-1.68-1.08-2.54-.36-.85-.7-1.72-1.06-2.56-.36-.85-.7-1.71-1.04-2.58-.33-.87-.71-1.75-1.05-2.64-.35-.89-.68-1.79-.98-2.72-.1-.3.07-.62.37-.72.18-.06.37-.02.51.08Z"/>
            <g class="cls-28">
              <g class="cls-34">
                <path class="cls-14" d="m487.03,435.03c6.73,21.94,10.54,56.58,12.33,77.06-18.8-17.53-37.47-38.21-38.41-49.02-1.18-13.52-3.48-52.49-3.08-79.59,7.77,9.24,22.07,28.39,29.17,51.54Z"/>
                <path class="cls-33" d="m522.23,478.88c-5.52-25.59-21.37-89.46-63.83-109.27.62-8.44,1.79-13.88,3.73-14,7.78-.47,16.97,4.01,16.97,4.01,41.48-.24,61.74,62.69,63.63,73.53,1.89,10.84-.24,106.57-4.24,109.14-.87.56-4.97-1.87-10.86-6.25-.15-11.51-1-36.77-5.4-57.16Z"/>
              </g>
            </g>
          </g>
          <g>
            <path class="cls-22" d="m813.63,400.68h-133.37c-2.11,0-3.83,1.72-3.83,3.83v19.46c0,2.11,1.72,3.83,3.83,3.83h133.37v-27.12Z"/>
            <path class="cls-44" d="m678.1,391.75h168.01c5.85,0,10.6,4.75,10.6,10.6v5.92c0,5.85-4.75,10.6-10.6,10.6h-168.01c-5.85,0-10.6-4.75-10.6-10.6v-5.92c0-5.85,4.75-10.6,10.6-10.6Z"/>
            <rect class="cls-4" x="672.45" y="396.64" width="179.32" height="17.34" rx="7.16" ry="7.16"/>
            <g>
              <g>
                <path class="cls-44" d="m692.81,410.68c-.79,0-1.44-.65-1.44-1.44v-8.62c0-.79.65-1.44,1.44-1.44s1.44.65,1.44,1.44v8.62c0,.79-.65,1.44-1.44,1.44Z"/>
                <path class="cls-44" d="m697.62,408.09c-.43.66-1.33.85-1.99.41l-7.2-4.74c-.66-.43-.85-1.33-.41-1.99.43-.66,1.33-.85,1.99-.41l7.2,4.74c.66.43.85,1.33.41,1.99Z"/>
                <path class="cls-44" d="m688.09,408.2c-.45-.65-.29-1.55.36-2l7.09-4.91c.65-.45,1.55-.29,2,.36.45.65.29,1.55-.36,2l-7.09,4.91c-.65.45-1.55.29-2-.36Z"/>
              </g>
              <g>
                <path class="cls-44" d="m713.01,410.68c-.79,0-1.44-.65-1.44-1.44v-8.62c0-.79.65-1.44,1.44-1.44s1.44.65,1.44,1.44v8.62c0,.79-.65,1.44-1.44,1.44Z"/>
                <path class="cls-44" d="m717.81,408.09c-.43.66-1.33.85-1.99.41l-7.2-4.74c-.66-.43-.85-1.33-.41-1.99.43-.66,1.33-.85,1.99-.41l7.2,4.74c.66.43.85,1.33.41,1.99Z"/>
                <path class="cls-44" d="m708.28,408.2c-.45-.65-.29-1.55.36-2l7.09-4.91c.65-.45,1.55-.29,2,.36.45.65.29,1.55-.36,2l-7.09,4.91c-.65.45-1.55.29-2-.36Z"/>
              </g>
              <g>
                <path class="cls-44" d="m733.2,410.68c-.79,0-1.44-.65-1.44-1.44v-8.62c0-.79.65-1.44,1.44-1.44s1.44.65,1.44,1.44v8.62c0,.79-.65,1.44-1.44,1.44Z"/>
                <path class="cls-44" d="m738.01,408.09c-.43.66-1.33.85-1.99.41l-7.2-4.74c-.66-.43-.85-1.33-.41-1.99.43-.66,1.33-.85,1.99-.41l7.2,4.74c.66.43.85,1.33.41,1.99Z"/>
                <path class="cls-44" d="m728.48,408.2c-.45-.65-.29-1.55.36-2l7.09-4.91c.65-.45,1.55-.29,2,.36.45.65.29,1.55-.36,2l-7.09,4.91c-.65.45-1.55.29-2-.36Z"/>
              </g>
              <g>
                <path class="cls-44" d="m753.4,410.68c-.79,0-1.44-.65-1.44-1.44v-8.62c0-.79.65-1.44,1.44-1.44s1.44.65,1.44,1.44v8.62c0,.79-.65,1.44-1.44,1.44Z"/>
                <path class="cls-44" d="m758.2,408.09c-.43.66-1.33.85-1.99.41l-7.2-4.74c-.66-.43-.85-1.33-.41-1.99.43-.66,1.33-.85,1.99-.41l7.2,4.74c.66.43.85,1.33.41,1.99Z"/>
                <path class="cls-44" d="m748.67,408.2c-.45-.65-.29-1.55.36-2l7.09-4.91c.65-.45,1.55-.29,2,.36.45.65.29,1.55-.36,2l-7.09,4.91c-.65.45-1.55.29-2-.36Z"/>
              </g>
              <g>
                <path class="cls-44" d="m773.59,410.68c-.79,0-1.44-.65-1.44-1.44v-8.62c0-.79.65-1.44,1.44-1.44s1.44.65,1.44,1.44v8.62c0,.79-.65,1.44-1.44,1.44Z"/>
                <path class="cls-44" d="m778.4,408.09c-.43.66-1.33.85-1.99.41l-7.2-4.74c-.66-.43-.85-1.33-.41-1.99.43-.66,1.33-.85,1.99-.41l7.2,4.74c.66.43.85,1.33.41,1.99Z"/>
                <path class="cls-44" d="m768.87,408.2c-.45-.65-.29-1.55.36-2l7.09-4.91c.65-.45,1.55-.29,2,.36.45.65.29,1.55-.36,2l-7.09,4.91c-.65.45-1.55.29-2-.36Z"/>
              </g>
            </g>
            <path class="cls-44" d="m801.62,409.72h-12.08c-.53,0-.96-.43-.96-.96h0c0-.53.43-.96.96-.96h12.08c.53,0,.96.43.96.96h0c0,.53-.43.96-.96.96Z"/>
            <path class="cls-44" d="m822.23,409.72h-12.07c-.53,0-.96-.43-.96-.96h0c0-.53.43-.96.96-.96h12.07c.53,0,.96.43.96.96h0c0,.53-.43.96-.96.96Z"/>
            <path class="cls-44" d="m841.88,409.72h-12.07c-.53,0-.96-.43-.96-.96h0c0-.53.43-.96.96-.96h12.07c.53,0,.96.43.96.96h0c0,.53-.43.96-.96.96Z"/>
          </g>
          <g>
            <path class="cls-4" d="m403.55,494.13l-43.85,43.85c-1.49,1.49-3.93,1.49-5.42,0l-43.85-43.85c-1.49-1.49-1.49-3.93,0-5.42l43.85-43.85c1.49-1.49,3.93-1.49,5.42,0l43.85,43.85c1.49,1.49,1.49,3.93,0,5.42Z"/>
            <path class="cls-5" d="m400.31,493.95l-40.81,40.81c-1.39,1.39-3.66,1.39-5.05,0l-40.81-40.81c-1.39-1.39-1.39-3.66,0-5.05l40.81-40.81c1.39-1.39,3.66-1.39,5.05,0l40.81,40.81c1.39,1.39,1.39,3.66,0,5.05Z"/>
            <path class="cls-4" d="m319.35,487.42h75.26c5.44,0,9.86,4.42,9.86,9.86v39.64c0,5.44-4.42,9.86-9.86,9.86h-75.26c-5.44,0-9.86-4.42-9.86-9.86v-39.64c0-5.44,4.42-9.86,9.86-9.86Z"/>
            <path class="cls-6" d="m404.47,490.72c0-1.82.15-1.8-1.66-2.96-.55-.22-1.2-.35-1.9-.35-94.21,0-88.46-.17-89.76.35-1.76,1.12-1.66,1.07-1.66,2.96.41.81-2.65-1.31,44.78,28.98,1.49.95,3.93.95,5.42,0,47.43-30.29,44.37-28.16,44.78-28.98Z"/>
            <path class="cls-12" d="m396.68,533.57h-32.03c-.53,0-.96-.43-.96-.96s.43-.96.96-.96h32.03c.53,0,.96.43.96.96s-.43.96-.96.96Z"/>
            <path class="cls-12" d="m396.68,537.73h-32.03c-.53,0-.96-.43-.96-.96s.43-.96.96-.96h32.03c.53,0,.96.43.96.96s-.43.96-.96.96Z"/>
          </g>
          <g>
            <path class="cls-20" d="m605.97,547.56h123.06c3.98,0,7.22,3.23,7.22,7.22v47.7c0,3.98-3.23,7.22-7.22,7.22h-123.06c-3.98,0-7.22-3.23-7.22-7.22v-47.7c0-3.98,3.23-7.22,7.22-7.22Z"/>
            <path class="cls-4" d="m608.35,563.88h118.31c3.22,0,5.83,2.61,5.83,5.83v31.24c0,3.22-2.61,5.83-5.83,5.83h-118.31c-3.22,0-5.83-2.61-5.83-5.83v-31.23c0-3.22,2.61-5.83,5.83-5.83Z"/>
            <g>
              <rect class="cls-4" x="604.43" y="552.13" width="5.39" height="4.85" rx="2" ry="2"/>
              <rect class="cls-4" x="614.22" y="552.13" width="5.39" height="4.85" rx="2" ry="2"/>
              <rect class="cls-4" x="624.01" y="552.13" width="5.39" height="4.85" rx="2" ry="2"/>
            </g>
            <path class="cls-21" d="m727.2,573.29h-68.75c-1.13,0-2.06-.93-2.06-2.06s.93-2.06,2.06-2.06h68.75c1.13,0,2.06.93,2.06,2.06s-.93,2.06-2.06,2.06Z"/>
            <path class="cls-21" d="m675.49,605.02h-68.75c-1.13,0-2.06-.93-2.06-2.06s.93-2.06,2.06-2.06h68.75c1.13,0,2.06.93,2.06,2.06s-.93,2.06-2.06,2.06Z"/>
            <path class="cls-21" d="m682.04,600.9h5.13c.94,0,1.7.76,1.7,1.7v.72c0,.94-.76,1.7-1.7,1.7h-5.13c-.94,0-1.7-.76-1.7-1.7v-.72c0-.94.76-1.7,1.7-1.7Z"/>
            <path class="cls-21" d="m692.76,600.9h5.13c.94,0,1.7.76,1.7,1.7v.72c0,.94-.76,1.7-1.7,1.7h-5.13c-.94,0-1.7-.76-1.7-1.7v-.72c0-.94.76-1.7,1.7-1.7Z"/>
            <path class="cls-21" d="m727.86,582.25h-113.85c-.77,0-1.4-.63-1.4-1.4s.63-1.4,1.4-1.4h113.85c.77,0,1.4.63,1.4,1.4s-.63,1.4-1.4,1.4Z"/>
            <path class="cls-21" d="m727.86,588.27h-113.85c-.77,0-1.4-.63-1.4-1.4s.63-1.4,1.4-1.4h113.85c.77,0,1.4.63,1.4,1.4s-.63,1.4-1.4,1.4Z"/>
          </g>
          <g>
            <g>
              <path class="cls-44" d="m660.62,478.34h-9.89c-4.26,0-7.73-3.47-7.73-7.73v-9.89c0-4.26,3.47-7.73,7.73-7.73h9.89c4.26,0,7.73,3.47,7.73,7.73v9.89c0,4.26-3.47,7.73-7.73,7.73Zm-9.89-21.02c-1.87,0-3.4,1.52-3.4,3.4v9.89c0,1.87,1.52,3.4,3.4,3.4h9.89c1.87,0,3.4-1.52,3.4-3.4v-9.89c0-1.87-1.52-3.4-3.4-3.4h-9.89Z"/>
              <g class="cls-19">
                <path class="cls-44" d="m660.62,520.75h-9.89c-4.46,0-8.09-3.63-8.09-8.09v-9.89c0-4.46,3.63-8.09,8.09-8.09h9.89c4.46,0,8.09,3.63,8.09,8.09v9.89c0,4.46-3.63,8.09-8.09,8.09Zm-9.89-21.02c-1.67,0-3.04,1.36-3.04,3.04v9.89c0,1.67,1.36,3.04,3.04,3.04h9.89c1.67,0,3.04-1.36,3.04-3.04v-9.89c0-1.67-1.36-3.04-3.04-3.04h-9.89Z"/>
              </g>
              <path class="cls-18" d="m656.29,472.78s-.07,0-.1,0c-.64-.03-1.23-.34-1.62-.85l-7.11-9.27c-.73-.95-.55-2.31.4-3.04.95-.73,2.31-.55,3.04.4l5.55,7.24,15.57-16.68c.82-.88,2.19-.92,3.06-.11.88.82.92,2.19.11,3.06l-17.31,18.55c-.41.44-.99.69-1.58.69Z"/>
              <path class="cls-18" d="m656.29,514.82s-.07,0-.1,0c-.64-.03-1.23-.34-1.62-.85l-7.11-9.27c-.73-.95-.55-2.31.4-3.04.95-.73,2.31-.55,3.04.4l5.55,7.24,15.57-16.68c.82-.88,2.19-.92,3.06-.11.88.82.92,2.19.11,3.06l-17.31,18.55c-.41.44-.99.69-1.58.69Z"/>
            </g>
            <path class="cls-44" d="m684.91,463.36h74.72c1.3,0,2.37-1.07,2.37-2.37s-1.06-2.37-2.37-2.37h-74.72c-1.3,0-2.37,1.06-2.37,2.37s1.06,2.37,2.37,2.37Z"/>
            <path class="cls-44" d="m684.91,472.62h55.57c1.3,0,2.37-1.06,2.37-2.37s-1.06-2.37-2.37-2.37h-55.57c-1.3,0-2.37,1.07-2.37,2.37s1.06,2.37,2.37,2.37Z"/>
            <path class="cls-44" d="m684.91,505.44h74.72c1.3,0,2.37-1.07,2.37-2.37s-1.06-2.37-2.37-2.37h-74.72c-1.3,0-2.37,1.06-2.37,2.37s1.06,2.37,2.37,2.37Z"/>
            <path class="cls-44" d="m684.91,514.71h65.46c1.3,0,2.37-1.06,2.37-2.37s-1.06-2.37-2.37-2.37h-65.46c-1.3,0-2.37,1.07-2.37,2.37s1.06,2.37,2.37,2.37Z"/>
          </g>
          <g>
            <g>
              <rect class="cls-21" x="446.14" y="554.56" width="84.19" height="48.14" rx="1.38" ry="1.38"/>
              <rect class="cls-4" x="447.98" y="556.68" width="80.5" height="43.9" rx="1.29" ry="1.29"/>
              <rect class="cls-16" x="450.21" y="559.37" width="76.05" height="38.52" rx="1.45" ry="1.45"/>
              <path class="cls-4" d="m501.59,578.63c0,7.38-5.98,13.36-13.36,13.36s-13.36-5.98-13.36-13.36,5.98-13.36,13.36-13.36,13.36,5.98,13.36,13.36Z"/>
              <path class="cls-21" d="m499.74,578.63c0,6.36-5.15,11.51-11.51,11.51s-11.51-5.15-11.51-11.51,5.15-11.51,11.51-11.51,11.51,5.15,11.51,11.51Z"/>
              <polygon class="cls-4" points="493.9 578.01 489.7 580.44 485.49 582.87 485.49 578.01 485.49 573.15 489.7 575.58 493.9 578.01"/>
            </g>
            <path class="cls-22" d="m509.03,570.63h-62.89v30.69c0,.76.62,1.38,1.38,1.38h62.89v-30.69c0-.76-.62-1.38-1.38-1.38Z"/>
            <g>
              <rect class="cls-21" x="418.88" y="573.18" width="84.19" height="48.14" rx="1.38" ry="1.38"/>
              <path class="cls-4" d="m422.02,575.3h77.92c.71,0,1.29.58,1.29,1.29v41.32c0,.71-.58,1.29-1.29,1.29h-77.92c-.71,0-1.29-.58-1.29-1.29v-41.32c0-.71.58-1.29,1.29-1.29Z"/>
              <rect class="cls-45" x="422.95" y="577.99" width="76.05" height="38.52" rx="1.45" ry="1.45"/>
              <circle class="cls-4" cx="460.98" cy="597.25" r="13.36" transform="translate(-226.2 908.68) rotate(-76.72)"/>
              <circle class="cls-21" cx="460.98" cy="597.25" r="11.51" transform="translate(-226.2 908.68) rotate(-76.72)"/>
              <polygon class="cls-4" points="466.65 596.63 462.44 599.06 458.24 601.49 458.24 596.63 458.24 591.78 462.44 594.2 466.65 596.63"/>
            </g>
          </g>
          <g>
            <path class="cls-24" d="m701.66,312.58c-.38,0-.76-.07-1.13-.23-2.48-1.05-4.08-3.47-4.08-6.15v-18.83c0-1.6,1.29-2.89,2.89-2.89s2.89,1.29,2.89,2.89v18.83c0,.41.28.71.56.83,1.47.62,2.15,2.32,1.53,3.79-.47,1.1-1.54,1.76-2.66,1.76Z"/>
            <path class="cls-46" d="m824.23,270.16c-1.42-.03-2.82.02-4.18.13.08-.77.14-1.55.15-2.33.36-18.17-17.74-33.28-40.44-33.73-18.61-.37-34.53,9.22-39.86,22.7-3.89-1.51-8.23-2.39-12.81-2.48-17.29-.35-31.54,10.7-31.82,24.69-.28,13.98,13.51,25.6,30.8,25.94,11.69.23,87.38-.27,97.46-.07,14.7.3,26.78-7.26,26.97-16.88.19-9.62-11.57-17.66-26.27-17.95Z"/>
            <path class="cls-4" d="m778.71,241.44c.3,0,.6,0,.91,0,9.34.19,18,3.22,24.39,8.55,5.92,4.94,9.11,11.27,8.98,17.82-.01.55-.05,1.12-.11,1.7l-.94,8.7,8.72-.72c.92-.08,1.85-.11,2.77-.11.22,0,.45,0,.67,0,5.64.11,11.03,1.65,14.79,4.22,1.34.92,4.46,3.38,4.4,6.36-.06,2.91-3.14,5.21-4.46,6.06-3.7,2.39-8.97,3.75-14.46,3.75-.23,0-.46,0-.69,0-1.68-.03-5.16-.05-10.63-.05-8.92,0-21.71.04-35.25.09-13.88.05-28.22.09-38.47.09-6.74,0-11.02-.02-13.1-.06-6.72-.13-12.92-2.32-17.48-6.16-4.12-3.47-6.33-7.88-6.24-12.41.2-9.71,10.87-17.61,23.8-17.61.21,0,.43,0,.65,0,3.63.07,7.11.74,10.34,2l6.69,2.59,2.64-6.67c1.97-4.99,6.07-9.52,11.53-12.76,5.93-3.52,13.04-5.38,20.56-5.38h0Zm0-7.22c-18.16,0-33.58,9.48-38.81,22.71-3.89-1.51-8.23-2.39-12.81-2.48-.26,0-.53,0-.79,0-16.93,0-30.75,10.93-31.02,24.69-.28,13.98,13.51,25.6,30.8,25.94,2.29.05,7.03.06,13.25.06,20.05,0,55.47-.18,73.73-.18,5.02,0,8.74.01,10.48.05.28,0,.56,0,.83,0,14.33,0,25.95-7.45,26.14-16.89.19-9.62-11.57-17.66-26.27-17.95-.27,0-.54,0-.82,0-1.14,0-2.26.05-3.37.14.08-.77.14-1.55.15-2.33.36-18.17-17.74-33.28-40.44-33.73-.35,0-.7-.01-1.05-.01h0Z"/>
            <rect class="cls-24" x="693.81" y="305.13" width="34.66" height="26.38" rx="10.89" ry="10.89"/>
            <path class="cls-4" d="m717.45,282.34c0,3.5-2.54,6.33-5.68,6.33s-5.68-2.83-5.68-6.33,2.54-6.33,5.68-6.33,5.68,2.83,5.68,6.33Z"/>
            <path class="cls-24" d="m719.71,312.87h-8.29c-1.6,0-2.89-1.29-2.89-2.89s1.29-2.89,2.89-2.89h8.29c.49,0,.9-.41.9-.9v-19.93c0-.49-.41-.9-.9-.9h-7.55c-1.6,0-2.89-1.29-2.89-2.89s1.29-2.89,2.89-2.89h7.55c3.68,0,6.68,3,6.68,6.68v19.93c0,3.68-3,6.68-6.68,6.68Z"/>
            <path class="cls-18" d="m714.66,315.43c0-1.95-1.58-3.52-3.52-3.52s-3.52,1.58-3.52,3.52c0,1.28.69,2.4,1.71,3.02v4.47c0,1,.82,1.81,1.81,1.81s1.81-.82,1.81-1.81v-4.47c1.02-.62,1.71-1.74,1.71-3.02Z"/>
          </g>
          <g>
            <g>
              <path class="cls-22" d="m394.34,631.72v-16.54c0-2.29-1.87-4.17-4.17-4.17h-124.06v24.87h124.06c2.29,0,4.17-1.87,4.17-4.17Z"/>
              <path class="cls-22" d="m390.17,574.06h-124.06v24.87h124.06c2.29,0,4.17-1.87,4.17-4.17v-16.54c0-2.29-1.87-4.17-4.17-4.17Z"/>
            </g>
            <rect class="cls-40" x="253.13" y="567.12" width="134.26" height="24.87" rx="10.26" ry="10.26"/>
            <rect class="cls-4" x="259.53" y="570.63" width="121.46" height="17.86" rx="7.37" ry="7.37"/>
            <path class="cls-40" d="m263.4,604.07h113.74c5.66,0,10.26,4.6,10.26,10.26v4.35c0,5.66-4.6,10.26-10.26,10.26h-113.74c-5.66,0-10.26-4.6-10.26-10.26v-4.35c0-5.66,4.6-10.26,10.26-10.26Z"/>
            <path class="cls-4" d="m266.9,607.58h106.72c4.07,0,7.37,3.3,7.37,7.37v3.12c0,4.07-3.3,7.37-7.37,7.37h-106.72c-4.07,0-7.37-3.3-7.37-7.37v-3.12c0-4.07,3.3-7.37,7.37-7.37Z"/>
            <path class="cls-40" d="m274.31,579.56c0,1.59-1.29,2.88-2.88,2.88s-2.88-1.29-2.88-2.88,1.29-2.88,2.88-2.88,2.88,1.29,2.88,2.88Zm10.49-2.88c-1.59,0-2.88,1.29-2.88,2.88s1.29,2.88,2.88,2.88,2.88-1.29,2.88-2.88-1.29-2.88-2.88-2.88Zm13.36,0c-1.59,0-2.88,1.29-2.88,2.88s1.29,2.88,2.88,2.88,2.88-1.29,2.88-2.88-1.29-2.88-2.88-2.88Zm13.36,0c-1.59,0-2.88,1.29-2.88,2.88s1.29,2.88,2.88,2.88,2.88-1.29,2.88-2.88-1.29-2.88-2.88-2.88Zm13.36,0c-1.59,0-2.88,1.29-2.88,2.88s1.29,2.88,2.88,2.88,2.88-1.29,2.88-2.88-1.29-2.88-2.88-2.88Zm13.36,0c-1.59,0-2.88,1.29-2.88,2.88s1.29,2.88,2.88,2.88,2.88-1.29,2.88-2.88-1.29-2.88-2.88-2.88Z"/>
            <path class="cls-40" d="m274.31,616.27c0,1.59-1.29,2.88-2.88,2.88s-2.88-1.29-2.88-2.88,1.29-2.88,2.88-2.88,2.88,1.29,2.88,2.88Zm10.49-2.88c-1.59,0-2.88,1.29-2.88,2.88s1.29,2.88,2.88,2.88,2.88-1.29,2.88-2.88-1.29-2.88-2.88-2.88Zm13.36,0c-1.59,0-2.88,1.29-2.88,2.88s1.29,2.88,2.88,2.88,2.88-1.29,2.88-2.88-1.29-2.88-2.88-2.88Zm13.36,0c-1.59,0-2.88,1.29-2.88,2.88s1.29,2.88,2.88,2.88,2.88-1.29,2.88-2.88-1.29-2.88-2.88-2.88Zm13.36,0c-1.59,0-2.88,1.29-2.88,2.88s1.29,2.88,2.88,2.88,2.88-1.29,2.88-2.88-1.29-2.88-2.88-2.88Zm13.36,0c-1.59,0-2.88,1.29-2.88,2.88s1.29,2.88,2.88,2.88,2.88-1.29,2.88-2.88-1.29-2.88-2.88-2.88Z"/>
            <g>
              <path class="cls-40" d="m365.6,584.1c-5.32,0-9.53-3.88-9.7-4.04-.22-.2-.34-.49-.34-.79s.12-.59.34-.79c.18-.16,4.39-4.04,9.7-4.04s9.53,3.88,9.7,4.04c.22.21.34.49.34.79s-.12.59-.34.79c-.18.16-4.39,4.04-9.7,4.04Zm-7.23-4.84c1.4,1.02,4.15,2.67,7.23,2.67s5.83-1.65,7.23-2.67c-1.41-1.02-4.15-2.67-7.23-2.67s-5.83,1.64-7.23,2.66Z"/>
              <path class="cls-40" d="m365.6,583.64c-2.41,0-4.38-1.96-4.38-4.38s1.96-4.38,4.38-4.38,4.38,1.96,4.38,4.38-1.96,4.38-4.38,4.38Zm0-6.59c-1.22,0-2.21.99-2.21,2.21s.99,2.21,2.21,2.21,2.21-.99,2.21-2.21-.99-2.21-2.21-2.21Z"/>
            </g>
            <g>
              <rect class="cls-40" x="354.16" y="612.66" width="11" height="7.9" rx="3.26" ry="3.26"/>
              <path class="cls-40" d="m374.37,619.03h-18.9c-.6,0-1.08-.49-1.08-1.08s.49-1.08,1.08-1.08h17.82v-2.83c0-.6.48-1.08,1.08-1.08s1.08.49,1.08,1.08v3.91c0,.6-.49,1.08-1.08,1.08Z"/>
              <path class="cls-40" d="m371.83,618.85c-.6,0-1.08-.48-1.08-1.08v-3.22c0-.6.49-1.08,1.08-1.08s1.08.49,1.08,1.08v3.22c0,.6-.49,1.08-1.08,1.08Z"/>
              <path class="cls-40" d="m367.87,618.85c-.6,0-1.08-.48-1.08-1.08v-4.36c0-.6.49-1.08,1.08-1.08s1.08.49,1.08,1.08v4.36c0,.6-.48,1.08-1.08,1.08Z"/>
              <path class="cls-4" d="m356.27,617.94c-.44,0-.81-.36-.81-.81v-1.25c0-.44.36-.81.81-.81s.81.36.81.81v1.25c0,.44-.36.81-.81.81Z"/>
            </g>
          </g>
        </g>
        <g>
          <path class="cls-39" d="m256.19,756.58s-70.95-49.28-100.97-20.87c-23.97,22.69,18.57,49.35,73,42.18,38.31-5.05,42.65,2.28,49.36,2.12,49.93-3.83,117.2-18.76,84.46-42.23-44.6-31.97-74.77,1.92-90.31,10.36l-15.54,8.44Z"/>
          <path class="cls-32" d="m347.93,736.6c-18.65-3.85-89.69,22.5-89.69,22.5,0,0-61.87-18.65-76.67-20.43-14.8-1.78-21.61,3.85-21.61,3.85,0,0,6.98-7.87,15.1-8.58,8.11-.71,19.83-2.66,19.83-2.66,0,0,118.41-5.62,134.09-2.07,15.69,3.55,18.95,7.4,18.95,7.4Z"/>
          <path class="cls-15" d="m247.31,640.7c-2.81.44-46.55,19.52-47.09,27.51-.54,7.99,11.98,72.83,36.2,81.27,24.21,8.44,51.3,0,51.3,0,0,0,28.42-70.15,19.98-83.47-8.44-13.32-46.62-25.31-46.62-25.31h-13.76Z"/>
          <path class="cls-3" d="m215.16,655.8c-41.79,22.39-52.05,62.82-41,71.73,7.74,6.24,36.94,20.05,62.25,19.17,25.31-.89,49.08,1.49,49.08,1.49,0,0,43.42-8.83,52.07-21.84,8.66-13.01-15.36-55.28-36.9-67.49-21.54-12.22-85.5-3.05-85.5-3.05Z"/>
          <path class="cls-17" d="m255.01,666.01c-5.78,0-10.51-4.73-10.51-10.51v-35.37c0-5.78,4.73-10.51,10.51-10.51s10.51,4.73,10.51,10.51v35.37c0,5.78-4.73,10.51-10.51,10.51Z"/>
          <path class="cls-29" d="m255.01,609.62c-5.78,0-10.51,4.73-10.51,10.51v28.92c6.2,5.18,12.2,2.46,21.02-4.37v-24.55c0-5.78-4.73-10.51-10.51-10.51Z"/>
          <path class="cls-17" d="m278.07,621.56c-1.73,3.53-4.53,5.48-6.26,4.37-1.73-1.11-1.74-4.87-.01-8.4,1.73-3.53,4.53-5.48,6.26-4.37,1.73,1.11,1.74,4.87.01,8.4Z"/>
          <path class="cls-17" d="m237.41,617.79c2,3.21,2.38,7.08.86,8.66-1.52,1.57-4.38.25-6.38-2.96-2-3.21-2.38-7.08-.86-8.66,1.52-1.57,4.38-.25,6.38,2.96Z"/>
          <path class="cls-17" d="m273.55,621.33c0,12.85-8.09,23.27-18.07,23.27s-18.07-10.42-18.07-23.27,8.09-23.27,18.07-23.27,18.07,10.42,18.07,23.27Z"/>
          <path class="cls-23" d="m294.89,678.93c11.84,6.32,22.16,30.24,22.16,30.24,0,0-26.64,4.14-32.17,8.29-5.53,4.14.79-1.58,3.95-13.02,3.16-11.45,6.06-25.51,6.06-25.51Z"/>
          <path class="cls-23" d="m212.45,677.2c2.76,12.63,15.98,47.89,15.98,47.89,0,0-12.25-13.95-25.26-14.74-13.01-.79-17.84-.99-17.76,2.17.02.62,2.17-14.01,12.24-23.09,10.06-9.08,14.8-12.24,14.8-12.24Z"/>
          <path class="cls-43" d="m291.82,756.72h-71.5c-2.88,0-5.34-2.08-5.82-4.92l-8.62-51.45c-.6-3.6,2.17-6.87,5.82-6.87h88.74c3.65,0,6.42,3.28,5.82,6.87l-8.62,51.45c-.48,2.84-2.94,4.92-5.82,4.92Z"/>
          <path class="cls-9" d="m291.82,756.72h-71.5c-2.88,0-5.34-2.01-5.82-4.74l-8.62-49.6c-.6-3.47,2.17-6.62,5.82-6.62h88.74c3.65,0,6.42,3.16,5.82,6.62l-8.62,49.6c-.48,2.74-2.94,4.74-5.82,4.74Z"/>
          <path class="cls-32" d="m265.51,776.99c-.43-.07-46.18-11.52-56.39-3.09-10.21,8.44,34.19,8.58,42.18,6.73,7.99-1.85,14.21-3.64,14.21-3.64Z"/>
          <path class="cls-32" d="m275.73,779.04s9.77-7.36,22.64-6.03c12.88,1.33,23.98,4.14,12.88,7.62-11.1,3.48-22.64,3.92-27.97,3.48-5.33-.44-7.55-5.07-7.55-5.07Z"/>
          <path class="cls-32" d="m249.71,588.53c-11.74,3.56-7.65,36.61,5.77,35.52,13.42-1.09,13.97-15.38,13.01-24.63-.95-9.25-6.67-14.56-18.78-10.89Z"/>
          <path class="cls-32" d="m245.49,613.02c-3.27-3.13-7.76,6.72-5.99,11.05,1.77,4.33-.71,6.85,1.69,11.51,2.39,4.66-4.41-2.96-5.36-8.54-.95-5.58-1.5-15.24-2.86-19.6-1.36-4.36.07-11.91,6.13-13.47,6.06-1.57,7.48-4.35,9.79-4.49,2.31-.14,13.34.95,18.78,3.95,5.44,2.99,8.44,7.49,8.03,14.29-.41,6.8-2.18,24.23-3.81,27.08-1.63,2.86-2.48,2.18-1.99.55.49-1.63,2.26-11.43.9-14.97-1.36-3.54-.68-12.25-4.22-12.93-3.54-.68-2.72,5.35-6.94,5.81-4.22.45-14.15-.23-14.15-.23Z"/>
        </g>
        <g>
          <path class="cls-32" d="m774.16,759.14s-2.85,10.99-12.53,13.77c-9.68,2.78-19.13,8.17-5.52,8.33,14.93.18,23.48-.52,29.68-1.56,6.2-1.04,2.14-11.98,1.15-17.18-.99-5.21-12.79-3.36-12.79-3.36Z"/>
          <path class="cls-32" d="m853.48,752s1.91,20.21-2.95,21.95c-4.86,1.74-10.41,5.9-3.47,5.9s15.53,1.64,17.78-5.9c2.74-9.2,8.94-10.75,6.73-15.43-2.21-4.68-8.89-13.38-8.89-13.38l-9.2,6.86Z"/>
          <path class="cls-39" d="m752.17,539.23l19.17,224.57s9.96,4.6,17.13,5.3c7.18.69,22.02-98.21,20.76-116.91-1.26-18.7,12.97-78.09,9.67-97.34-3.3-19.25-66.74-15.61-66.74-15.61Z"/>
          <path class="cls-32" d="m790.53,540.51c-1.35-.18-2.71-.34-4.08-.49l-33.11,12.81,6.11,71.57c15.87,34.88,33.27,66.56,42.8,87.84,4.34-25.31,7.57-51.36,6.99-60.06-.61-9.01,2.38-27.45,5.27-46.3l-23.98-65.37Z"/>
          <path class="cls-39" d="m761.63,575.89c18.58,82.6,91.64,183.25,91.56,183.25s13.66-2.37,14.35-8.62c.69-6.25-7.8-68.45-26.38-86.54-18.58-18.08-19.85-103.94-19.85-103.94l-59.68,15.85Z"/>
          <path class="cls-23" d="m805.44,460.42c20.9,21.02,34.31,57.17,34.49,66.12.18,8.94-24.1,24.91-24.1,24.91l-10.39-91.02Z"/>
          <polygon class="cls-17" points="781.92 414.03 790.2 455.21 767.56 479.58 764.55 429.64 781.92 414.03"/>
          <path class="cls-13" d="m790.2,442.37s10.68,3.75,22.56,33.92c11.88,30.17,20.14,104.51,20.14,104.51,0,0-22.83,19.39-55.52,19.38-20.83,0-31.35-4.69-31.35-4.69,0,0-2.08-70.07,0-95.36,2.08-25.29,33.86-58.39,44.18-57.76Z"/>
          <path class="cls-29" d="m773.23,448.69c6.73-7.84,9.22-19.81,10.15-27.43l-1.31-6.51-1.68.66-15.83,14.23,1.55,25.69c2.21-1.57,4.62-3.72,7.13-6.64Z"/>
          <path class="cls-17" d="m776.75,423.1c-2.6,12.26-12.3,20.59-21.67,18.6-9.37-1.99-14.86-13.53-12.26-25.79,2.6-12.26,12.3-20.59,21.67-18.6,9.37,1.99,14.86,13.53,12.26,25.79Z"/>
          <path class="cls-37" d="m787,433.07l7.09,11.98-37.59,28.1s2.83-13.03,3.59-17.82c.76-4.79,26.31-23.28,26.91-22.27Z"/>
          <path class="cls-24" d="m742.48,388.98c-15.79,4.96-2.88,24.86,2.19,25.04,5.07.18,6.92-4.54,11.09-3.45,4.17,1.09,8.1-6.32,10.65-4.7,2.55,1.62.93,16.66,0,19.21-.93,2.55,3.24,2.78,3.24,2.78,0,0,1.7-10.65,4.32-9.95,2.62.69,4.57,8.1,8.34,9.95l3.77,1.85s2.31-16.06,5.79-19.14c3.47-3.08,1.3-13.72-3.63-15.8-4.93-2.08-6.12-11.57-12.93-12.27-6.81-.69-12.36,3.93-21.39,2.78-9.03-1.16-7.01,2.31-11.43,3.7Z"/>
          <path class="cls-17" d="m780.73,420.51c-1.3,3.06-4.19,4.75-6.45,3.79-2.27-.96-3.05-4.22-1.75-7.28,1.3-3.06,4.19-4.75,6.45-3.79,2.27.96,3.05,4.22,1.75,7.28Z"/>
          <path class="cls-23" d="m797.88,464.78s-38.74,43.08-52.68,56.41c-.19,12.41-.09,26.86.09,39.71,7.56-3.72,28.55-14.59,40.5-26.11,14.76-14.23,21.34-46.86,12.09-70Z"/>
          <path class="cls-17" d="m698.83,517.61s-9.26-11.47-12.96-10.37c-3.69,1.1-5.09,1.28-8.33,1.1-3.24-.18-3.47,4.51,1.16,12.92,4.63,8.42,17.12,10.11,20.13,9.96,3.01-.15,0-13.62,0-13.62Z"/>
          <path class="cls-26" d="m793.56,455.33c14.98,3.98,10.11,41.96,1.66,57.64-6.07,11.27-26.34,22.76-38.72,25.98-12.38,3.22-61.54-6.42-61.54-6.42,0,0-1.98-17.71,1.76-17.71s43.54,1.91,55.45-8.86c11.92-10.77,23.29-55.45,41.38-50.64Z"/>
          <path class="cls-23" d="m686.86,515.14c-.65,0-1.3-.29-1.72-.85l-8.02-10.51c-.73-.95-.54-2.31.41-3.04.95-.73,2.31-.54,3.04.41l8.02,10.51c.73.95.54,2.31-.41,3.04-.39.3-.86.44-1.31.44Z"/>
        </g>
      </g>
    </g>
  </g>
</svg>