<?xml version="1.0" encoding="utf-8"?>
<!-- Generator: Adobe Illustrator 26.0.1, SVG Export Plug-In . SVG Version: 6.00 Build 0)  -->
<svg version="1.1" id="Layer_1" xmlns="http://www.w3.org/2000/svg" xmlns:xlink="http://www.w3.org/1999/xlink" x="0px" y="0px"
	 viewBox="0 0 568 556" style="enable-background:new 0 0 568 556;" xml:space="preserve">
<style type="text/css">
	.st0{font-family:'Montserrat-Regular';}
	.st1{font-size:36px;}
	.st2{fill:url(#SVGID_1_);}
	.st3{fill:url(#SVGID_00000054969122839423051800000007100468323177154179_);}
	.st4{fill:url(#SVGID_00000085962041860185220630000017716830197306486440_);}
	.st5{fill:url(#SVGID_00000103966396812803740000000007759104730089102741_);}
	.st6{fill:url(#SVGID_00000069356551185617743170000000495299385782360978_);}
	.st7{fill:url(#SVGID_00000177444033996039403500000010807392740738298042_);}
</style>
<text transform="matrix(1 0 0 1 205.131 510.4782)" class="st0 st1">associate whiz</text>
<g>
	<linearGradient id="SVGID_1_" gradientUnits="userSpaceOnUse" x1="76" y1="323.2989" x2="225.0551" y2="323.2989">
		<stop  offset="0" style="stop-color:#00ADEE"/>
		<stop  offset="1" style="stop-color:#2E3191"/>
	</linearGradient>
	<path class="st2" d="M76,379.7c2.1-6.99,3.42-14.34,6.45-20.89c8.32-17.97,22.73-29.56,41-36.61c1.05-0.4,2.11-0.76,3.74-1.34
		c-1.97-1.78-3.72-3.25-5.35-4.86c-10.34-10.2-16.05-22.74-16.44-37.08c-0.26-9.66,0.55-19.54,2.42-29.02
		c3.22-16.32,14-25.65,30.29-28.53c10.16-1.8,20.3-1.6,30.27,1.26c10.36,2.98,18.63,9.04,22.29,19.25
		c7.74,21.58,8.76,43.23-3.31,63.78c-3.3,5.61-8.28,10.23-12.55,15.37c2.35,0.96,5.36,2.01,8.21,3.39
		c24.24,11.8,39.53,30.21,41.86,57.81c1.58,18.76-7.67,32.2-25.58,38.11c-15.82,5.22-32.17,6.05-48.61,6.04
		c-16-0.02-31.95-0.64-47.39-5.65c-13.87-4.5-23.91-12.58-26.77-27.67c-0.04-0.23-0.35-0.42-0.54-0.62C76,388.19,76,383.95,76,379.7
		z"/>
	
		<linearGradient id="SVGID_00000020361866644733590970000017909150047537620905_" gradientUnits="userSpaceOnUse" x1="361.5402" y1="323.239" x2="510.7278" y2="323.239">
		<stop  offset="0" style="stop-color:#00ADEE"/>
		<stop  offset="1" style="stop-color:#2E3191"/>
	</linearGradient>
	<path style="fill:url(#SVGID_00000020361866644733590970000017909150047537620905_);" d="M458.92,320.73
		c13.27,4.12,23.9,10.68,32.83,19.84c11.61,11.9,18.17,26.2,18.92,42.86c0.84,18.62-8.3,31.21-26.07,37.01
		c-16.26,5.3-33.04,6-49.9,5.94c-15.16-0.05-30.28-0.75-44.9-5.34c-22.33-7.02-31.72-22.67-27.14-45.67
		c5.27-26.49,21.85-43.29,46.32-53.12c0.92-0.37,1.86-0.66,2.78-1.02c0.26-0.1,0.48-0.29,1.02-0.62
		c-7.19-5.6-12.76-12.38-16.6-20.58c-5.99-12.8-6.37-26.29-4.66-39.9c0.77-6.1,2.28-12.25,4.47-18c3.31-8.71,9.76-14.85,18.58-18.1
		c13.91-5.13,28.05-5.2,42-0.48c11.9,4.02,19.1,12.75,22.09,24.87c4.17,16.95,5.04,33.83-1.93,50.35
		c-3.3,7.82-8.17,14.51-14.82,19.85C461.17,319.23,460.34,319.74,458.92,320.73z"/>
	
		<linearGradient id="SVGID_00000060024031713955520790000009176356115508449693_" gradientUnits="userSpaceOnUse" x1="218.6764" y1="120.7985" x2="367.9494" y2="120.7985">
		<stop  offset="0" style="stop-color:#00ADEE"/>
		<stop  offset="1" style="stop-color:#2E3191"/>
	</linearGradient>
	<path style="fill:url(#SVGID_00000060024031713955520790000009176356115508449693_);" d="M269.66,117.86
		c-11.68-9.07-18.55-20.96-20.82-35.35c-2.14-13.6-1.27-27.15,3.16-40.2c4.44-13.06,14.17-20.51,27.47-23.15
		c10.51-2.09,21.09-2.01,31.49,0.94c11.37,3.22,19.76,10.16,23.43,21.41c6.07,18.63,7.06,37.42-0.99,55.89
		c-3.15,7.23-7.77,13.43-13.89,18.46c-0.83,0.68-1.57,1.46-2.74,2.57c10.34,3.41,19.31,8.26,27.2,15.06
		c15.3,13.18,23.6,29.79,23.97,50.01c0.3,16.46-9.13,28.6-25.33,34.19c-16.62,5.74-33.85,6.27-51.1,6.2
		c-14.97-0.06-29.95-0.69-44.45-5.31c-22.56-7.18-32.06-23.15-27.1-46.41c5.55-26.03,21.94-42.62,46.09-52.31
		c1.05-0.42,2.11-0.79,3.16-1.2C269.31,118.61,269.34,118.44,269.66,117.86z"/>
	
		<linearGradient id="SVGID_00000042004360491478631240000002965226456823198610_" gradientUnits="userSpaceOnUse" x1="133.0292" y1="155.5578" x2="217.4906" y2="155.5578">
		<stop  offset="0" style="stop-color:#00ADEE"/>
		<stop  offset="1" style="stop-color:#2E3191"/>
	</linearGradient>
	<path style="fill:url(#SVGID_00000042004360491478631240000002965226456823198610_);" d="M146.9,197.84
		c-3.39-1.65-8.03-3.43-12.13-6.07c-2.66-1.71-1.88-4.85-0.32-7.28c6.09-9.49,11.5-19.55,18.6-28.22
		c13.98-17.07,30.27-31.69,50.46-41.38c5.99-2.87,8.1-2.14,10.78,4.04c5.09,11.71,4.8,11.21-6.1,17.59
		c-23.06,13.49-41.23,31.96-53.84,55.67C152.95,194.84,151.85,197.69,146.9,197.84z"/>
	
		<linearGradient id="SVGID_00000124866041991351599190000016753151436069216686_" gradientUnits="userSpaceOnUse" x1="369.1292" y1="155.086" x2="453.607" y2="155.086">
		<stop  offset="0" style="stop-color:#00ADEE"/>
		<stop  offset="1" style="stop-color:#2E3191"/>
	</linearGradient>
	<path style="fill:url(#SVGID_00000124866041991351599190000016753151436069216686_);" d="M378.46,112.58
		c4.51,2.26,8.74,3.96,12.54,6.34c25.88,16.26,46.87,37.18,60.92,64.61c3.02,5.89,2.13,8.12-4.02,10.8
		c-11.72,5.11-11.5,4.99-17.53-6.1c-8.5-15.65-20.53-28.44-34.25-39.52c-6.87-5.55-14.67-9.99-22.25-14.61
		c-4.95-3.01-5.81-4.6-3.58-9.91c1.15-2.73,2.12-5.6,3.69-8.07C374.93,114.64,376.87,113.79,378.46,112.58z"/>
	
		<linearGradient id="SVGID_00000126300039384387035590000001563382135939696303_" gradientUnits="userSpaceOnUse" x1="238.8759" y1="433.5488" x2="347.9814" y2="433.5488">
		<stop  offset="0" style="stop-color:#00ADEE"/>
		<stop  offset="1" style="stop-color:#2E3191"/>
	</linearGradient>
	<path style="fill:url(#SVGID_00000126300039384387035590000001563382135939696303_);" d="M293,447.71
		c-16.62-0.09-33-1.75-48.75-7.54c-5.3-1.95-6.42-4.1-4.48-9.28c0.89-2.38,1.78-4.77,2.79-7.1c1.73-4,4.02-5.29,8.08-3.84
		c16.27,5.82,33.11,6.92,50.17,6.32c11.63-0.41,23.05-2.09,34.12-5.9c5.68-1.95,7.48-0.99,9.76,4.57
		c5.25,12.79,5.29,12.91-7.72,17.05C322.67,446.55,307.9,447.69,293,447.71z"/>
</g>
</svg>
