<?xml version="1.0" encoding="utf-8"?>
<!-- Generator: Adobe Illustrator 26.0.1, SVG Export Plug-In . SVG Version: 6.00 Build 0)  -->
<svg version="1.1" id="Layer_1" xmlns="http://www.w3.org/2000/svg" xmlns:xlink="http://www.w3.org/1999/xlink" x="0px" y="0px"
	 viewBox="0 0 568 556" style="enable-background:new 0 0 568 556;" xml:space="preserve">
<style type="text/css">
	.st0{fill:url(#SVGID_1_);}
	.st1{fill:url(#SVGID_00000097483270658227701400000016085043535504775573_);}
	.st2{fill:url(#SVGID_00000072991018886969922530000010988097932270922417_);}
	.st3{fill:url(#SVGID_00000158009478228894269310000009602919556269951406_);}
	.st4{fill:url(#SVGID_00000109730843738765479670000007187975825661861541_);}
	.st5{fill:url(#SVGID_00000056402304842498739930000009305009654032936344_);}
	.st6{fill:url(#SVGID_00000154400346371599616130000014717038962498597555_);}
	.st7{fill:url(#SVGID_00000165923057954105163170000006469143921600650909_);}
	.st8{fill:url(#SVGID_00000137835876262627914060000008569742322874439043_);}
	.st9{fill:url(#SVGID_00000096756883098405038030000003968575753052481981_);}
	.st10{fill:url(#SVGID_00000062180632996646753420000002841009570612017049_);}
	.st11{fill:url(#SVGID_00000079472718585257845680000013587831161708061830_);}
	.st12{font-family:'Montserrat-Regular';}
	.st13{font-size:36px;}
</style>
<g>
	<g>
		<g>
			<g>
				<linearGradient id="SVGID_1_" gradientUnits="userSpaceOnUse" x1="269.9365" y1="341.6575" x2="325.5826" y2="341.6575">
					<stop  offset="0" style="stop-color:#00ADEE"/>
					<stop  offset="1" style="stop-color:#2E3191"/>
				</linearGradient>
				<path class="st0" d="M274.59,348.23c0.06,0,0.13,0,0.19-0.01c4.09,14.15,13.76,26.77,22.98,26.77
					c9.12,0,18.61-12.67,22.73-26.79c0.14,0.02,0.29,0.03,0.43,0.03c2.57,0,4.66-2.94,4.66-6.57c0-2.8-1.24-5.19-2.99-6.14
					c0.01-0.42,0.02-0.83,0.02-1.24c0-18.41-6.99-25.96-24.86-25.96c-17.87,0-24.99,8.09-24.99,26.5c0,0.26,0,0.52,0.01,0.78
					c-1.67,1-2.84,3.33-2.84,6.05C269.94,345.29,272.02,348.23,274.59,348.23z"/>
				
					<linearGradient id="SVGID_00000034789635079059319970000002551678606240924594_" gradientUnits="userSpaceOnUse" x1="242.3023" y1="389.3335" x2="352.7209" y2="389.3335">
					<stop  offset="0" style="stop-color:#00ADEE"/>
					<stop  offset="1" style="stop-color:#2E3191"/>
				</linearGradient>
				<path style="fill:url(#SVGID_00000034789635079059319970000002551678606240924594_);" d="M352.72,402.44l-0.12-2.69
					c-0.69-4.58-3.68-8.25-7.62-10c0.01,0,0.02,0,0.03,0c0,0-26.09-13.84-47.95-13.51c-19.44,0.29-42.09,11.06-46.86,13.43
					c-4.03,1.73-7.09,5.43-7.79,10.08l-0.11,2.69H352.72z"/>
			</g>
			
				<linearGradient id="SVGID_00000092439428847923951440000015302509385774753468_" gradientUnits="userSpaceOnUse" x1="210.8793" y1="363.3997" x2="384.1441" y2="363.3997">
				<stop  offset="0" style="stop-color:#00ADEE"/>
				<stop  offset="1" style="stop-color:#2E3191"/>
			</linearGradient>
			<path style="fill:url(#SVGID_00000092439428847923951440000015302509385774753468_);" d="M297.51,450.03
				c-47.77,0-86.63-38.86-86.63-86.63c0-47.77,38.86-86.63,86.63-86.63s86.63,38.86,86.63,86.63
				C384.14,411.17,345.28,450.03,297.51,450.03z M297.51,292.81c-38.93,0-70.59,31.67-70.59,70.59c0,38.93,31.67,70.59,70.59,70.59
				s70.59-31.67,70.59-70.59C368.11,324.47,336.44,292.81,297.51,292.81z"/>
		</g>
		<g>
			<g>
				
					<linearGradient id="SVGID_00000053531007876168140540000016331663953183661754_" gradientUnits="userSpaceOnUse" x1="141.3633" y1="114.9208" x2="197.0097" y2="114.9208">
					<stop  offset="0" style="stop-color:#00ADEE"/>
					<stop  offset="1" style="stop-color:#2E3191"/>
				</linearGradient>
				<path style="fill:url(#SVGID_00000053531007876168140540000016331663953183661754_);" d="M146.02,121.49
					c0.06,0,0.13,0,0.19-0.01c4.09,14.15,13.76,26.77,22.98,26.77c9.12,0,18.61-12.67,22.73-26.79c0.14,0.02,0.29,0.03,0.43,0.03
					c2.57,0,4.66-2.94,4.66-6.57c0-2.8-1.24-5.19-2.99-6.14c0.01-0.42,0.02-0.83,0.02-1.24c0-18.41-6.99-25.96-24.86-25.96
					c-17.87,0-24.99,8.09-24.99,26.5c0,0.26,0,0.52,0.01,0.78c-1.67,1-2.84,3.33-2.84,6.05
					C141.36,118.55,143.45,121.49,146.02,121.49z"/>
				
					<linearGradient id="SVGID_00000022555066224070839330000001541361432605451930_" gradientUnits="userSpaceOnUse" x1="113.7291" y1="162.597" x2="224.1478" y2="162.597">
					<stop  offset="0" style="stop-color:#00ADEE"/>
					<stop  offset="1" style="stop-color:#2E3191"/>
				</linearGradient>
				<path style="fill:url(#SVGID_00000022555066224070839330000001541361432605451930_);" d="M224.15,175.7l-0.12-2.7
					c-0.69-4.58-3.68-8.24-7.62-10c0.01,0,0.02,0,0.03,0c0,0-26.09-13.84-47.95-13.51c-19.44,0.29-42.09,11.06-46.86,13.43
					c-4.03,1.73-7.09,5.43-7.79,10.08l-0.12,2.7H224.15z"/>
			</g>
			
				<linearGradient id="SVGID_00000177452030540566676830000000186351653132272519_" gradientUnits="userSpaceOnUse" x1="82.3064" y1="136.663" x2="255.5707" y2="136.663">
				<stop  offset="0" style="stop-color:#00ADEE"/>
				<stop  offset="1" style="stop-color:#2E3191"/>
			</linearGradient>
			<path style="fill:url(#SVGID_00000177452030540566676830000000186351653132272519_);" d="M168.94,223.29
				c-47.77,0-86.63-38.86-86.63-86.63c0-47.77,38.86-86.63,86.63-86.63c47.77,0,86.63,38.86,86.63,86.63
				C255.57,184.43,216.71,223.29,168.94,223.29z M168.94,66.07c-38.93,0-70.59,31.67-70.59,70.59c0,38.93,31.67,70.59,70.59,70.59
				c38.93,0,70.59-31.67,70.59-70.59C239.53,97.74,207.86,66.07,168.94,66.07z"/>
		</g>
		<g>
			<g>
				
					<linearGradient id="SVGID_00000153686746225955108190000006851843841548951452_" gradientUnits="userSpaceOnUse" x1="413.1883" y1="114.9208" x2="468.8339" y2="114.9208">
					<stop  offset="0" style="stop-color:#00ADEE"/>
					<stop  offset="1" style="stop-color:#2E3191"/>
				</linearGradient>
				<path style="fill:url(#SVGID_00000153686746225955108190000006851843841548951452_);" d="M417.84,121.49
					c0.06,0,0.13,0,0.19-0.01c4.09,14.15,13.76,26.77,22.98,26.77c9.12,0,18.61-12.67,22.73-26.79c0.14,0.02,0.29,0.03,0.43,0.03
					c2.57,0,4.66-2.94,4.66-6.57c0-2.8-1.24-5.19-2.99-6.14c0.01-0.42,0.02-0.83,0.02-1.24c0-18.41-6.99-25.96-24.86-25.96
					c-17.87,0-24.99,8.09-24.99,26.5c0,0.26,0,0.52,0.01,0.78c-1.67,1-2.84,3.33-2.84,6.05
					C413.19,118.55,415.27,121.49,417.84,121.49z"/>
				
					<linearGradient id="SVGID_00000141420104865651524330000004417351673502722745_" gradientUnits="userSpaceOnUse" x1="385.5538" y1="162.597" x2="495.9727" y2="162.597">
					<stop  offset="0" style="stop-color:#00ADEE"/>
					<stop  offset="1" style="stop-color:#2E3191"/>
				</linearGradient>
				<path style="fill:url(#SVGID_00000141420104865651524330000004417351673502722745_);" d="M495.97,175.7l-0.12-2.7
					c-0.69-4.58-3.68-8.24-7.62-10c0.01,0,0.02,0,0.03,0c0,0-26.09-13.84-47.95-13.51c-19.44,0.29-42.09,11.06-46.86,13.43
					c-4.03,1.73-7.09,5.43-7.79,10.08l-0.12,2.7H495.97z"/>
			</g>
			
				<linearGradient id="SVGID_00000140702286757599690350000018017088673451102644_" gradientUnits="userSpaceOnUse" x1="354.1311" y1="136.663" x2="527.3951" y2="136.663">
				<stop  offset="0" style="stop-color:#00ADEE"/>
				<stop  offset="1" style="stop-color:#2E3191"/>
			</linearGradient>
			<path style="fill:url(#SVGID_00000140702286757599690350000018017088673451102644_);" d="M440.76,223.29
				c-47.77,0-86.63-38.86-86.63-86.63c0-47.77,38.86-86.63,86.63-86.63c47.77,0,86.63,38.86,86.63,86.63
				C527.4,184.43,488.53,223.29,440.76,223.29z M440.76,66.07c-38.93,0-70.59,31.67-70.59,70.59c0,38.93,31.67,70.59,70.59,70.59
				c38.93,0,70.59-31.67,70.59-70.59C511.36,97.74,479.69,66.07,440.76,66.07z"/>
		</g>
		
			<linearGradient id="SVGID_00000101793546226146190560000005289602114177099167_" gradientUnits="userSpaceOnUse" x1="295.6917" y1="199.0345" x2="357.8057" y2="199.0345">
			<stop  offset="0" style="stop-color:#00ADEE"/>
			<stop  offset="1" style="stop-color:#2E3191"/>
		</linearGradient>
		<path style="fill:url(#SVGID_00000101793546226146190560000005289602114177099167_);" d="M303.72,222.07
			c-2.62,0-5.19-1.28-6.73-3.64c-2.42-3.71-1.37-8.68,2.34-11.1l46.07-30.04c3.71-2.42,8.68-1.37,11.1,2.34
			c2.42,3.71,1.37,8.68-2.34,11.1l-46.07,30.04C306.74,221.65,305.22,222.07,303.72,222.07z"/>
		
			<linearGradient id="SVGID_00000001622023519340841130000008659384054471454631_" gradientUnits="userSpaceOnUse" x1="295.6185" y1="237.4547" x2="311.8054" y2="237.4547">
			<stop  offset="0" style="stop-color:#00ADEE"/>
			<stop  offset="1" style="stop-color:#2E3191"/>
		</linearGradient>
		<path style="fill:url(#SVGID_00000001622023519340841130000008659384054471454631_);" d="M303.64,272.97c-0.01,0-0.01,0-0.02,0
			c-4.43-0.01-8.01-3.61-8-8.04l0.15-55c0.01-4.42,3.6-8,8.02-8c0.01,0,0.01,0,0.02,0c4.43,0.01,8.01,3.61,8,8.04l-0.15,55
			C311.65,269.4,308.06,272.97,303.64,272.97z"/>
		
			<linearGradient id="SVGID_00000183954809199907111320000003968143532183782787_" gradientUnits="userSpaceOnUse" x1="249.6182" y1="199.0344" x2="311.7324" y2="199.0344">
			<stop  offset="0" style="stop-color:#00ADEE"/>
			<stop  offset="1" style="stop-color:#2E3191"/>
		</linearGradient>
		<path style="fill:url(#SVGID_00000183954809199907111320000003968143532183782787_);" d="M303.7,222.07c-1.5,0-3.02-0.42-4.37-1.3
			l-46.07-30.04c-3.71-2.42-4.76-7.39-2.34-11.1c2.42-3.71,7.39-4.76,11.1-2.34l46.07,30.04c3.71,2.42,4.76,7.39,2.34,11.1
			C308.89,220.79,306.32,222.07,303.7,222.07z"/>
	</g>
</g>
<text transform="matrix(1 0 0 1 205.131 510.4782)" class="st12 st13">associate go</text>
</svg>
