<?xml version="1.0" encoding="utf-8"?>
<!-- Generator: Adobe Illustrator 26.0.1, SVG Export Plug-In . SVG Version: 6.00 Build 0)  -->
<svg version="1.1" id="Layer_1" xmlns="http://www.w3.org/2000/svg" xmlns:xlink="http://www.w3.org/1999/xlink" x="0px" y="0px"
	 viewBox="0 0 907 871" style="enable-background:new 0 0 907 871;" xml:space="preserve">
<style type="text/css">
	.st0{fill:url(#SVGID_1_);}
	.st1{fill:#FFFFFF;}
	.st2{fill:url(#SVGID_00000017518786111754853450000000765447605501445791_);}
	.st3{fill:#E69376;}
	.st4{fill:#4C9EBF;}
	.st5{fill:#3F1900;}
	.st6{fill:#F6A382;}
	.st7{fill:#000714;}
	.st8{fill:#E69575;}
	.st9{fill:#08101B;}
	.st10{fill:#E0856E;}
	.st11{fill:#F79F7D;}
	.st12{fill:#E98A6F;}
	.st13{fill:#3B2314;}
	.st14{fill:#4FA5C9;}
	.st15{fill:#101923;}
	.st16{fill:#212A35;}
	.st17{fill:#4691B0;}
	.st18{fill:#79CFE1;}
	.st19{fill:#001940;}
	.st20{fill:#00264F;}
	.st21{fill:#602A04;}
	.st22{fill:#95D6E3;}
	.st23{fill:#3EADC6;}
	.st24{fill:#CEE9E5;}
	.st25{fill:none;stroke:#73CDE1;stroke-width:5.3377;stroke-miterlimit:10;}
	.st26{fill:#471F08;}
	.st27{fill:none;stroke:#BBBDBF;stroke-width:8.7324;stroke-miterlimit:10;}
	.st28{fill:#002952;}
	.st29{fill:#004687;}
	.st30{fill:#0059A5;}
	.st31{fill:#00143B;}
	.st32{fill:#5C1B1B;}
	.st33{fill:#9E4541;}
	.st34{fill:#D35F5A;}
	.st35{fill:#9597BB;}
	.st36{fill:#7080AA;}
	.st37{fill:#CCC4D9;}
	.st38{fill:#9FA2C1;}
	.st39{fill:#121D28;}
	.st40{fill:#101A26;}
	.st41{fill:#1A2530;}
	.st42{fill:#D38950;}
	.st43{fill:#2A3C45;}
	.st44{fill:#00A7C0;}
	.st45{fill:#00B3C8;}
	.st46{fill:#010B18;}
	.st47{fill:#08141F;}
	.st48{fill:#D0D2D3;}
	.st49{fill:#E6E7E8;}
	.st50{fill:none;stroke:#E6E7E8;stroke-width:5.3377;stroke-miterlimit:10;}
	.st51{fill:#1F3038;}
	.st52{fill:#DB4849;}
	.st53{fill:#EB524F;}
	.st54{fill:#A4B71D;}
	.st55{fill:#ADCA25;}
	.st56{font-family:'Montserrat-Bold';}
	.st57{font-size:60px;}
	.st58{fill:#0E3885;}
	.st59{fill:url(#SVGID_00000023986834285387066590000010819845625557742511_);}
	.st60{fill:url(#SVGID_00000173137235745491651930000016446423237980610995_);}
</style>
<g>
	<linearGradient id="SVGID_1_" gradientUnits="userSpaceOnUse" x1="77.9483" y1="442.625" x2="794.3011" y2="442.625">
		<stop  offset="0" style="stop-color:#00ADEE"/>
		<stop  offset="1" style="stop-color:#2E3191"/>
	</linearGradient>
	<path class="st0" d="M787.32,134.81c0,0-177.02,52.33-351.2-92.19c-174.18,144.52-351.2,92.19-351.2,92.19
		s-86.71,495.06,351.2,707.81C874.04,629.87,787.32,134.81,787.32,134.81z"/>
	<path class="st1" d="M760.29,172.18c0,0-163.39,48.3-324.16-85.09c-160.77,133.39-324.17,85.09-324.17,85.09
		s-80.04,445.8,324.17,642.18C840.33,617.98,760.29,172.18,760.29,172.18z"/>
	
		<linearGradient id="SVGID_00000008839044691134831550000007498040861981491349_" gradientUnits="userSpaceOnUse" x1="127.4037" y1="453.1678" x2="744.8453" y2="453.1678">
		<stop  offset="0" style="stop-color:#00ADEE"/>
		<stop  offset="1" style="stop-color:#2E3191"/>
	</linearGradient>
	<path style="fill:url(#SVGID_00000008839044691134831550000007498040861981491349_);" d="M740.02,198.83
		c0,0-156.12,37.56-303.9-85.06c-147.78,122.62-303.9,85.06-303.9,85.06s-67.65,413.21,303.9,593.73
		C807.68,612.04,740.02,198.83,740.02,198.83z"/>
</g>
<g>
	<g>
		<g>
			<g>
				<g>
					<g>
						<polygon class="st3" points="73.6,702.31 73.4,699.11 70,679.19 58.22,680.44 55.02,699.12 54.41,702.31 						"/>
					</g>
					<path class="st3" d="M102.56,553.94c0,0-29.29,101.55-32.56,125.26c0,0-10.47,11.65-11.79,1.25
						c-2.64-20.78,5.55-128.87,11.11-137.27C74.89,534.78,102.56,553.94,102.56,553.94z"/>
				</g>
				<path class="st4" d="M65.2,561.45c0,0-7.49,56.94-8.25,126.37c0,0,12.59,3.27,18.75,0.59c0,0,34.45-93.97,29.83-137.82
					C105.52,550.6,73.9,533.63,65.2,561.45z"/>
			</g>
			<path class="st5" d="M202.54,349.32c-1.74,20.2-8.52,25.79-1.17,46.39c6.79,19.03,23.5,32.4,26.69,53.12
				c2.27,14.72-0.33,39-9.54,51.42c-13.36,18.02-46.32,9.94-64.99,7.89c-21.24-2.34-68.31-1.42-82.35-21.55
				c-10.65-15.26,0.42-43.88,3.63-60.19c4.08-20.7,8.4-41.37,12.08-62.15c3.35-18.89,8.02-49.62,21.22-64.98
				c11.21-13.05,26.67-14.19,45.22-11.77C188.4,292.06,204.71,324.1,202.54,349.32z"/>
			<path class="st3" d="M96.79,429.15c-15.15-0.42-27.77,11.51-28.2,26.66c-0.42,15.15,7.83,54.22,19.37,44.4
				c22.68-19.31,33.99-30.93,34.41-46.07C122.81,438.98,111.94,429.57,96.79,429.15z"/>
			<path class="st3" d="M75.52,450.31l27.42-3.74l16.62,23.06c0,0-20.88,88.52-33.46,105.6c-13.4,18.2-16.62-0.56-18.77-7.9
				C67.33,567.33,66.42,465.45,75.52,450.31z"/>
			<path class="st6" d="M168.26,702.31c0.97-4.28,1.97-8.69,3-13.26l-74.87-45.96c0,0-9.84,34.65-15.09,59.23H168.26z"/>
			<path class="st7" d="M168.03,702.31c0.81-5.39,1.18-8.45,1.18-8.45c13.52-60.93-76.39-56.48-76.39-56.48
				c-8.11,14.88-13.86,38.33-17.93,64.93H168.03z"/>
			<path class="st8" d="M127.05,567.41c-3.47-0.63-17.81,6.77-17.81,6.77s-17.91,57.53-18.67,66.28
				c-0.78,8.74,59.39,54.03,126.59,28.24c0,0-31.12-81.02-33.02-100.97C182.25,547.79,127.05,567.41,127.05,567.41z"/>
			<path class="st9" d="M109.24,574.18c0,0-17.16,51.88-18.67,66.28c-5.36,50.97,63.61,72.34,130.81,46.56
				c0,0,4.36-70.07-37.24-119.28C184.15,567.74,173.1,577.82,109.24,574.18z"/>
			<path class="st9" d="M221.17,702.31c0.14-2.68,0.22-4.16,0.22-4.16l-7.57,4.16H221.17z"/>
			<path class="st9" d="M220.81,702.31c4.44-42.49-18.57-49.16-18.57-49.16c-40-17.86-76.83,5.02-71.61,49.16H220.81z"/>
			<path class="st6" d="M169.45,426.12h-46.77c2.12-6.81,6.53-24.44-0.29-36.44l47.26-31.03
				C169.65,358.65,161.25,410.72,169.45,426.12z"/>
			<path class="st10" d="M126.03,405.67c0.14-5.21-0.73-10.86-3.64-15.99l47.26-31.03c0,0-3.42,21.22-3.77,40.58
				C148.81,404.65,141.79,406.75,126.03,405.67z"/>
			<path class="st6" d="M201.59,430.16c21.05,10.3,9.35,35.04,9.35,35.04l-28.45,103.56c0,0-26.59,10.87-73.25,5.43
				c-6.48-9.27-19.8-48.13-24.26-77.79c-3.68-24.43-15.09-48.5-2.66-62.13c4.76-5.22,41.07-10.44,41.25-11.29h43.7L201.59,430.16z"
				/>
			<g>
				<path class="st6" d="M115.12,393.93l-2.83-6.9l-7.11-20.36c-1-3.24-1.62-7.71-0.66-10.97c1.15-3.92,1.89-10.26,0.09-17.21
					c-4.81-18.61,3.04-28.86,3.04-28.86c10.11-17.86,36.02-19.09,36.02-19.09c32.12,0.04,36.32,30.92,36.32,30.92
					c6.19,20.38-9.39,38.35-9.42,38.38c-1.97,2.27-2.02,5.8-2.88,8.53c-0.93,2.92-2.42,5.68-4.31,8.08
					c-4.24,5.4-9.86,10.64-15.75,14.02c-5.58,3.21-16.52,6.76-24.4,7.08C119.95,397.68,116.74,397.88,115.12,393.93z"/>
				<path class="st5" d="M167.59,371.98c-0.58-14.64-0.9-13.72-0.9-13.72c-0.56-4.26-8.48,5.38-8.59-0.19
					c-0.5-25.53-10.38-37.19-14.1-38.97c-10.11-4.82-20.56-5.83-28.71-3.94c-12.78,2.94-11.41,20.08-11.41,20.08
					c-14.17-62.26,56.91-45.75,56.91-45.75c34.58,7.23,32.69,39.56,32.69,39.56c5.94,34.31-27.05,55.92-27.05,55.92L167.59,371.98z"
					/>
				<g>
					<g>
						<g>
							<g>
								<g>
									<g>
										<path class="st11" d="M165.1,367.12c1.19,0.82,2.68,1.25,4.51,1.12c4.96-0.32,8.85-5.18,8.67-10.83
											c-0.17-5.64-4.32-9.97-9.27-9.64c-2.35,0.16-4.45,1.33-6,3.12c-2.26,2.61-2.1,7.22-1.38,10.35
											C162.2,363.75,163.31,365.88,165.1,367.12z"/>
									</g>
								</g>
							</g>
						</g>
					</g>
					<g>
						<g>
							<path class="st12" d="M167.27,353.13c0.14-2.98,6.28-0.45,5.46,1.26c-0.47,0.99-1.49,1.75-2.28,2.46
								c-1.09,0.98-1.6,1.85-1.68,3.34c-0.01,0.17-0.02,0.69,0.16,0.79c0.8,0.5,3.2-2.52,3.72-3.16c1.03-1.26,1.08-3.31,0.47-4.77
								c-0.63-1.55-1.71-2.24-3.39-2.05c-1.35,0.15-2.71,0.31-2.55,1.98C167.19,353.01,167.26,353.28,167.27,353.13L167.27,353.13z"
								/>
						</g>
						<g>
							<path class="st12" d="M169.34,356.11c-0.66-0.59-1.23-0.04-1.84,0.45c-0.57,0.47-0.86,1.09-0.98,1.8
								c-0.27,1.56,0.05,3.61,1,4.91c0.77,1.05,2,1.65,3.3,1.55c1.81-0.14,2.26-1.76,2.25-3.3c0-0.4-0.02-1.38-0.43-1.61
								c-0.45-0.25-0.72,0.44-0.99,0.74c-0.39,0.4-0.97,0.58-1.5,0.65c-1.03,0.14-2.06-0.33-2.74-1.06
								c-0.12-0.13-0.24-0.29-0.3-0.45c0.05,1,0.12,1.22,0.19,0.66c0.07-0.26,0.17-0.5,0.31-0.73c0.38-0.71,1.06-1.22,1.5-1.9
								C169.31,357.51,169.67,356.41,169.34,356.11L169.34,356.11z"/>
						</g>
					</g>
				</g>
				<g>
					<path class="st13" d="M135.57,346.74c-0.09,1.78,0.83,3.28,2.04,3.33c1.2,0.05,2.25-1.35,2.33-3.13
						c0.08-1.79-0.84-3.28-2.04-3.33C136.69,343.56,135.65,344.96,135.57,346.74z"/>
					<path class="st13" d="M110.75,344.67c0.03,1.79,1.03,3.22,2.24,3.2c1.21-0.01,2.17-1.48,2.15-3.27
						c-0.03-1.78-1.03-3.22-2.24-3.2C111.69,341.43,110.72,342.89,110.75,344.67z"/>
					<path class="st5" d="M146.07,343.81c-4.77-6.23-17.3-3.79-17.3-3.79s-0.73,0-0.64-2.23c0,0-0.05-1.96,1.53-1.86
						C129.66,335.93,145.01,333.32,146.07,343.81z"/>
					<path class="st5" d="M103.87,335.23c2.19-4.19,13.89-0.18,13.89-0.18c1.58,0.15,1.21,2.08,1.21,2.08c-0.28,2.21-1,2.09-1,2.09
						s-11.63-4.53-13.61-1.85C104,335.9,104.1,336.02,103.87,335.23z"/>
					<g>
						<path class="st1" d="M114.73,368.26l17.33,2.3c0.9,0.13,1.27,0.79,0.78,1.47c0,0-4.93,7.01-10.55,6.25
							c-5.62-0.76-8.48-8.83-8.48-8.83C113.57,368.74,113.98,368.27,114.73,368.26z"/>
					</g>
					<path class="st12" d="M127.51,364.18c-9.23-0.2-9.86-2.59-9.86-2.59l4.33-9.93C121.98,351.66,121.36,361.4,127.51,364.18z"/>
				</g>
				<path class="st1" d="M164.91,368.17c0.08,1.67,1.51,2.97,3.19,2.88c1.68-0.08,2.97-1.51,2.88-3.19
					c-0.08-1.68-1.51-2.97-3.19-2.88C166.11,365.06,164.82,366.49,164.91,368.17z"/>
			</g>
			<g>
				<path class="st6" d="M173.76,452.18c-0.94,15.12,6.97,29.97,22.09,30.9c15.12,0.94,54.45-5.97,45.02-17.84
					c-18.52-23.32-29.74-35.03-44.87-35.96C180.88,428.34,174.69,437.05,173.76,452.18z"/>
				<path class="st6" d="M185.29,474.18l9.62-25.95l28.17-3.79c0,0,68.23,60.13,77.37,79.28c9.73,20.4-8.33,14.4-15.81,12.83
					C284.64,536.55,194.35,489.34,185.29,474.18z"/>
				<path class="st6" d="M302.01,536.84c0,0-33.99,47.82-65.65,75.06c0,0-13.64-1.36-9.32-8.8c7.35-12.63,37.6-71.81,45.04-84.5
					C276.26,511.48,302.01,536.84,302.01,536.84z"/>
				<path class="st6" d="M227.03,603.1l-15.99,4.08l-6.84-8.91c0.08,9.87-3.13,16.64-3.13,16.64c-8.93,9.49-14.3,16.92-14.3,16.92
					c-3.5,3.23,0.4,5.02,0.4,5.02c6.55-1.95,18.94-11.6,18.94-11.6c-6.2,6.4-18,15.54-18,15.54c-2.4,3.17,1.6,4.12,1.6,4.12
					c9.44-0.24,20.34-14.24,20.34-14.24c-3.95,5.42-15.19,14.79-15.19,14.79c-0.49,2.82,1.1,2.66,1.1,2.66
					c7.51,0.96,17.96-12.55,17.96-12.55l-4.04,4.96c-6.15,6.29-0.49,6.95-0.49,6.95l3.73-2.79c11.22-8.7,15.48-19.78,15.48-19.78
					l7.75-13L227.03,603.1z"/>
			</g>
			<path class="st14" d="M303.27,530.79c0,0,2.77,3.99-7,17.31c0,0-36.61,52.82-60.25,65.69c0,0-10.41-4.16-11.74-11.93
				c0,0,31.37-72.22,50.91-84.52c19.53-12.3,0,0,0,0S290.73,505.93,303.27,530.79"/>
			<path class="st4" d="M80.83,433.54c0,0-14.18,3.54-14.18,35.19c0,0-11.29,109.07,8.37,114.39c0,0,24.5,7.78,42.33-105.66
				C117.36,477.46,113.3,433.05,80.83,433.54z"/>
			<path class="st14" d="M110.75,425.51l-20.18,3.63c0,0-14.71,3.22-15.2,15.81c0,0-0.83,23.86,12.16,67
				C87.53,511.95,109,445.75,110.75,425.51z"/>
			<path class="st14" d="M115.9,424.72l-9.1,1.4c0,0-17.65,34.13-21.82,70.27c4.46,29.67,13.4,74.59,24.26,77.79
				c36.78,10.88,75.17-6.22,75.17-6.22L202,497.73c-47.24-18.39-23.36-72.39-23.36-72.39l-9.92-2.38l-41.76,42.21L115.9,424.72"/>
			<path class="st14" d="M178.64,425.35l23.36,3.87c0,0,11.2,3.97,17.78,11.99c0,0,93.52,69.83,83.2,94.98c0,0-3.04,8.49-12.69,5.87
				l-90.55-42.72C199.72,499.34,149.22,476.05,178.64,425.35z"/>
			<path class="st14" d="M97.24,448.01c0,0-18.46,25.57-21.67,38.74c-2.11,8.66,12.98,28.16,25.16,31.59
				C107.39,520.22,107.54,449.74,97.24,448.01z"/>
			<path class="st15" d="M97.24,448.01c0,0-18.46,25.57-21.67,38.74c-2.11,8.66,12.98,28.16,25.16,31.59
				C107.39,520.22,107.54,449.74,97.24,448.01z"/>
			<g>
				<path class="st15" d="M105.4,426.12c0,0-16.81,34.34-20.98,70.49c4.46,29.66,13.97,74.37,24.82,77.58
					c36.78,10.88,75.17-6.22,75.17-6.22L202,497.73c-47.24-18.39-23.36-72.39-23.36-72.39l-9.92-2.38l-44.17,63.14l-8.64-61.39
					L105.4,426.12z"/>
				<path class="st16" d="M168.72,422.97l-44.18,63.14l0,0l31.77-8.6c0,0,4.61-3.91,1.68-8.18l-4.37-8.53l5.82-1.73
					c0,0,7.64-0.9,8.91-7.13l4.77-27.92L168.72,422.97z"/>
				<path class="st16" d="M116.06,424.81l8.49,61.3l0,0l-17.26-16.03c0,0-7.1-5.77-0.45-8.66l8.22-2.55l-9.65-8.67
					c0,0-2-2.65,0-7.64l5.79-17.22L116.06,424.81z"/>
				<path class="st15" d="M186.05,561.45l28.14,46.64c0,0-25.01,24.68-74.23,29.07c0,0-34.47,0.86-55.53-18.44l17.58-57.26H186.05z"
					/>
			</g>
			<g>
				<polygon class="st17" points="133.24,434.73 133.78,458.42 142.5,449.89 				"/>
				<path class="st18" d="M133.24,434.2c0,0,26.46-10.83,33.02-21.62l12.37,12.77l-32.1,31.14l-13.3-21.76"/>
			</g>
			<path class="st18" d="M109.69,435.4c0,0,2.57-9.92,15.14-18.3l-1.65,34.2C123.18,451.29,116.21,433.8,109.69,435.4z"/>
			<path class="st17" d="M108.55,451.29l1.14-15.89c3.84-0.94,7.27,4.43,10.07,8.84L108.55,451.29z"/>
			<path class="st5" d="M119.33,309.44c21.76,10.53,34.24,20.59,30.06,46.63c-3.77,23.48-4.81,36.28,9.04,56.36
				c13.01,18.85,14.66,29.9,5.36,51.29c-7.46,17.17-14.82,33.66,6.52,42.67c40.28,16.99,75.25-16.04,58.35-57.86
				c-7.58-18.75-24.3-30.93-32.87-48.89c-8.69-18.19-2.03-34.4-1.34-53.27c1.17-31.55-44.04-75-69.52-43.18
				c-2.14,2.67-3.89,5.97-5.47,9.02L119.33,309.44z"/>
		</g>
	</g>
	<g>
		<g>
			<g>
				<g>
					<path class="st3" d="M823.23,452.97l8.77,1.91c0,0,23.98,103.2,14.96,127.71c-9.02,24.5-23.53,0.24-28.06-1.97
						c-4.53-2.22-44.62-115.79-44.62-115.79L823.23,452.97z"/>
					<path class="st19" d="M853.46,569.67l-15.77-119.87c-9.39-31.53-44.04-19.89-44.04-19.89c-26,9.64-21.86,30.09-21.86,30.09
						l35.6,123.15c0,0,6.74,18.7,31.44,16.22C838.82,599.38,856.8,595.08,853.46,569.67z"/>
				</g>
				<path class="st6" d="M806.19,610.57l24.07-147.13c0,0,8.3-22.11-8.29-33.16l-63.23-29.72h-44.59l-76.01,44.92l49.82,165.09
					H806.19z"/>
				<path class="st20" d="M806.02,702.31l0.16-91.74H687.96c0,0-12.23,27.96-16.33,91.74H806.02z"/>
				<g>
					<path class="st20" d="M753.93,702.31c-4.79-18.79-21.41-32.59-41.08-32.44c-19.46,0.14-35.73,13.89-40.45,32.44H753.93z"/>
					<path class="st20" d="M728.02,702.31c-7.37-3.13-16.68-3.93-28.26,0H728.02z"/>
				</g>
				<g>
					<path class="st20" d="M803.79,702.31c-4.81-18.14-16.72-30.65-36.1-28.66c-16.75,1.71-30.16,13.32-35.38,28.66H803.79z"/>
				</g>
				<g>
					<path class="st6" d="M644.78,463.58l-8.67,2.31c0,0-13.52,103.74-3.37,127.79c10.14,24.06,19.68,0.2,24.1-2.23
						c4.42-2.42,37.39-118.29,37.39-118.29L644.78,463.58z"/>
					<path class="st19" d="M668.06,590.53l28.4-122.17c-5.86-33.04-37.32-30.72-37.32-30.72c-27.61,2.51-28.96,23.33-28.96,23.33
						l-1.83,124.26c0,0-1.82,21.24,14.18,20.11C642.54,605.34,665.45,601.76,668.06,590.53z"/>
				</g>
				<path class="st6" d="M713.93,368.07v47.66h50.39c0,0-12.39-18.89-6.19-47.66H713.93z"/>
				<path class="st10" d="M739.49,408.54c4.54,2.92,14.19,9.15,19.71,5.5c1.48-0.98,2.16-2.26,2.39-3.69
					c-3.24-7.55-7.7-22.6-3.46-42.28h-44.2v4.32C719.44,386.34,726.52,400.17,739.49,408.54z"/>
				<g>
					<path class="st11" d="M712.72,368.74c0,0-8.58-3.72-18.29-24.95c0,0-21.08-25.1-6.14-53.6c0,0,8.83-24.1,51.62-17.36
						C739.91,272.82,743.76,337.42,712.72,368.74z"/>
					<path class="st6" d="M765.42,381.63l2.85-7.47c0,0,7.88-27.8,7.88-27.81c0.98-3.49,1.04-8.18,0.41-11.77
						c-0.69-3.91-1.13-7.99-0.11-12.12c4.97-20-5.28-31.35-5.28-31.35c-11.29-18.86-39.09-19.48-39.09-19.48
						c-34.42,0.9-38.08,34.09-38.08,34.09c-6.09,21.99,11.08,40.83,11.11,40.86c1.38,1.51,0.49,8.77,0.85,10.85
						c1.61,8.87,9.93,14.49,17.33,18.41c8.13,4.3,17.98,8.89,27.16,9.95C753.93,386.2,763.78,385.91,765.42,381.63z"/>
				</g>
				<path class="st12" d="M758.69,339.62l-9.58,2.91c0,0,12.5,1.7,13.26-1.91c0,0-1.38-7.26-2.94-14.16
					C759.43,326.47,760.11,339.19,758.69,339.62z"/>
				<g>
					<path class="st13" d="M743.41,325.04c0.06,1.97-0.99,3.6-2.33,3.63c-1.33,0.04-2.47-1.52-2.52-3.5
						c-0.05-1.97,0.99-3.59,2.32-3.63C742.22,321.5,743.36,323.07,743.41,325.04z"/>
					<path class="st13" d="M770.48,323.94c0.14,1.97-0.85,3.63-2.19,3.72c-1.33,0.09-2.52-1.43-2.65-3.4
						c-0.13-1.97,0.85-3.63,2.18-3.72C769.16,320.45,770.36,321.98,770.48,323.94z"/>
					<path class="st21" d="M746.44,318.56c0.85,0.25,1.16-0.9,1.16-0.9c0.35-1.11,0.09-2.09,0.09-2.09
						c-0.3-0.83-0.96-1.13-0.96-1.13c-2.22-0.48-6.62-0.24-10.38,0.59c-2.09,0.46-5.51,1.74-5.86,3.6c-0.1,0.56-0.23,1.52,0.4,1.74
						C730.88,320.36,738.07,318.7,746.44,318.56z"/>
					<path class="st21" d="M777.19,317.75c-2.45-0.14-6.77-0.23-12.09,0.37c-0.82,0.35-1.26-0.75-1.27-0.75
						c-0.5-1.06-0.36-2.06-0.36-2.06c0.18-0.85,0.81-1.24,0.81-1.24c2.14-0.77,5.15-1.07,9-0.74c1.15,0.1,3.13,0.4,4.43,0.93
						C777.71,314.26,777.91,315,777.19,317.75z"/>
				</g>
				<g>
					<path class="st1" d="M765.12,350.34c0.76,0.09,1.16,0.68,0.84,1.45c0,0-3.68,8.89-9.6,9.18c-5.92,0.28-10.44-8.21-10.44-8.21
						c-0.44-0.82,0-1.54,0.95-1.59C746.86,351.16,757.08,350.57,765.12,350.34z"/>
				</g>
				<path class="st22" d="M679.78,606.58c0.1,4.9-7.34,56.18-4.21,56.84c0.02,0.01,85.08,19.61,130.44,0l0.18-52.84l24.07-147.13
					c0,0,8.3-22.11-8.29-33.16l-63.23-29.72l4.27,12.82l-9.14,25.99l-39.72-38.81l-76.01,44.92c4.25,14.07,8.47,28.16,12.71,42.23
					c7.84,25.95,15.47,51.97,23.54,77.84C674.39,565.57,681.07,593.64,679.78,606.58z"/>
				<polygon class="st23" points="748.38,409.81 747.85,433.5 739.12,424.97 				"/>
				<g>
					<path class="st24" d="M759.49,448.01c0,1.87-1.51,3.38-3.38,3.38c-1.87,0-3.38-1.51-3.38-3.38c0-1.86,1.51-3.38,3.38-3.38
						C757.97,444.64,759.49,446.15,759.49,448.01z"/>
				</g>
				<g>
					<path class="st24" d="M759.49,509.39c0,1.86-1.51,3.37-3.38,3.37c-1.87,0-3.38-1.51-3.38-3.37c0-1.87,1.51-3.38,3.38-3.38
						C757.97,506.01,759.49,507.52,759.49,509.39z"/>
				</g>
				<g>
					<path class="st24" d="M759.49,570.75c0,1.87-1.51,3.38-3.38,3.38c-1.87,0-3.38-1.51-3.38-3.38c0-1.86,1.51-3.38,3.38-3.38
						C757.97,567.38,759.49,568.89,759.49,570.75z"/>
				</g>
				<g>
					<path class="st24" d="M759.49,632.13c0,1.86-1.51,3.38-3.38,3.38c-1.87,0-3.38-1.51-3.38-3.38c0-1.87,1.51-3.38,3.38-3.38
						C757.97,628.75,759.49,630.26,759.49,632.13z"/>
				</g>
				<line class="st25" x1="748.38" y1="436.2" x2="748.38" y2="669.12"/>
				<g>
					<path class="st26" d="M805.48,668.27c0,0-43.44,20.35-132.35-0.45c-1.46-0.35-0.84-4.14-0.84-4.14l0.84-8.56
						c0.39-2.74,1.92-2.61,1.92-2.61c0.02,0,85.07,19.6,130.44,0c0,0,1.83-0.32,1.91,2.42v10.67
						C807.39,665.6,807.39,667.73,805.48,668.27z"/>
					<g>
						<path class="st27" d="M761.34,674.72c0,1.36-1.07,2.46-2.4,2.46h-17.31c-1.32,0-2.39-1.1-2.39-2.46v-12.46
							c0-1.36,1.07-2.46,2.39-2.46h17.31c1.33,0,2.4,1.1,2.4,2.46V674.72z"/>
						<line class="st27" x1="739.25" y1="667.71" x2="748.4" y2="667.71"/>
					</g>
				</g>
				<path class="st18" d="M748.38,409.29c0,0-27.89-10.84-34.45-21.62l-8.24,15.71l29.4,28.2l13.29-21.76"/>
				<path class="st21" d="M676.59,314.93c11.24,33.89,27.91,46.09,27.91,46.09s-4.59-25.8,9.05-22.27l2.35-0.13
					c0,0-4.69-15.12,5.03-22.58c-4.61-5.93-0.87-17.76,0.07-19.45c4.71-8.52,18.32-4.89,26.27-7.14c6.16-1.75,21.46-4.34,24.98,3.1
					c26.72-0.77,13.22-33.15,13.22-33.15c-0.7,9.58-8.66,11.75-8.66,11.75c8.47-10.22-2.89-28.83-2.89-28.83
					c-11.55,9.26-41.89,11.16-41.89,11.16c-21.82-0.69-27.22,13.29-27.22,13.29S664.24,274.74,676.59,314.93z"/>
				<g>
					<g>
						<g>
							<g>
								<g>
									<g>
										<path class="st6" d="M710.26,349.83c-1.22,1.03-2.82,1.67-4.84,1.73c-5.49,0.17-10.28-4.75-10.7-10.98
											c-0.41-6.23,3.68-11.42,9.16-11.59c2.6-0.08,5.04,0.98,6.94,2.79c2.76,2.63,3.08,7.7,2.62,11.23
											C713.07,345.83,712.09,348.28,710.26,349.83z"/>
									</g>
								</g>
							</g>
						</g>
					</g>
					<g>
						<g>
							<path class="st12" d="M706.37,334.69c-0.47-3.26-6.94,0.18-5.87,1.97c0.63,1.04,1.82,1.76,2.78,2.46
								c1.3,0.97,1.95,1.87,2.2,3.49c0.03,0.19,0.09,0.76-0.09,0.9c-0.83,0.63-3.78-2.44-4.43-3.08c-1.27-1.27-1.54-3.53-1.04-5.2
								c0.54-1.78,1.65-2.65,3.53-2.62c1.49,0.01,3.01,0.05,3.01,1.9C706.45,334.54,706.39,334.86,706.37,334.69L706.37,334.69z"/>
						</g>
						<g>
							<path class="st12" d="M704.41,338.19c0.65-0.72,1.34-0.18,2.07,0.3c0.68,0.44,1.08,1.11,1.28,1.88
								c0.46,1.68,0.33,3.97-0.58,5.5c-0.73,1.24-2.02,2.03-3.46,2.06c-2,0.03-2.67-1.7-2.83-3.39c-0.04-0.45-0.13-1.52,0.3-1.82
								c0.46-0.32,0.84,0.4,1.17,0.7c0.46,0.4,1.12,0.54,1.72,0.56c1.14,0.05,2.23-0.58,2.91-1.46c0.12-0.16,0.22-0.34,0.28-0.53
								c0.05,1.11,0,1.36-0.15,0.76c-0.1-0.28-0.24-0.53-0.42-0.76c-0.49-0.75-1.3-1.24-1.84-1.93
								C704.6,339.72,704.08,338.55,704.41,338.19L704.41,338.19z"/>
						</g>
					</g>
				</g>
				<polygon class="st19" points="656.91,702.31 731.25,702.31 735.33,526.79 701.52,408.03 638.14,445.49 671.01,592.54 				"/>
				<path class="st28" d="M701.52,408.03l33.81,118.76l-0.14,5.64l-42.58-43.58c0,0-4.47-7.57,1.58-12.04l10.06-9.62l-7.18-5.14
					c0,0-10.06-4.88-8.84-14.03l2.88-34.39L701.52,408.03z"/>
				<path class="st19" d="M825.43,702.31l-5.76-121.09l12.66-125.77c4.48-22.7-17.43-28.48-17.43-28.48l-38.5-18.1l-5.39,114.73
					l13.34,178.72H825.43z"/>
				<path class="st18" d="M771.93,410.48c0,0-2.57-9.92-15.14-18.3l1.65,34.19C758.44,426.38,765.41,408.89,771.93,410.48z"/>
				<path class="st23" d="M773.07,426.38l-1.14-15.9c-3.84-0.94-7.27,4.44-10.07,8.84L773.07,426.38z"/>
				<g>
					<polygon class="st29" points="745.64,418.38 744.6,416.46 737.59,427.22 743.62,429.37 					"/>
					<path class="st29" d="M761.86,419.33l1.97-3.01c0,0,7.49,6.29-0.38,13.05C763.45,429.37,763.45,423.8,761.86,419.33z"/>
					<path class="st30" d="M745.64,418.38c0,0,5.94,5.28,16.22,0.95c2.25,2.86,2.24,6.5,1.59,10.04l-5.32,10.99h-7.44l-7.07-10.99
						C743.62,429.37,742.89,426.94,745.64,418.38z"/>
					<polygon class="st29" points="750.69,440.36 744.67,597.56 757.22,621.97 767.46,597.68 758.13,440.36 					"/>
				</g>
				<path class="st28" d="M776.4,408.86l9.92,4.67l7.17,33.11c0,0,3.59,8.57-1.61,10.81l-9.35,5.46l13.19,8.34
					c0,0,6.94,4.35,2.67,10.75l-26.45,51.64l-0.83-8.83L776.4,408.86z"/>
				<path class="st6" d="M709.12,539.98l-15.46-12.21c0,0-23.27-3.41-34.89-1.95c0,0-3.84,5.34,25.5,6.16
					c0,0-20.58,6.58-27.19,11.47c0,0-1.06,6.08,17.76-2.76l8.57-0.63l-19.92,9.94c0,0,0.78,3.79,18.91-1.14l18.18,2L709.12,539.98z"
					/>
				<path class="st31" d="M808.1,542.25l-99.61-11.91c-4.98,6.08-9.78,17.13-7.64,28.68l127.23,40.36c0,0,33.61,5.96,24.75-34.52
					C852.83,564.86,838.63,544.22,808.1,542.25z"/>
				<path class="st6" d="M808.1,542.25c0,0-17.9,9.64-24.61,10.41l-10.42-17.97l14.23-9.23l9.76-2.25c0,0,16.04-4.14,20.27,17.88
					L808.1,542.25z"/>
				<g>
					<path class="st28" d="M630.02,577.1c-6.02,36.39,20.45,27.2,20.45,27.2l134.97-48.58c-3.81-20.91-12.37-24.18-12.37-24.18
						l-115.43,22.02C657.64,553.57,635.92,560.39,630.02,577.1z"/>
				</g>
			</g>
		</g>
	</g>
	<g>
		<path class="st3" d="M588.06,702.31h93.13c-4.07-26.6-9.82-50.06-17.93-64.93c0,0-89.9-4.44-76.38,56.48
			C586.88,693.86,587.25,696.92,588.06,702.31z"/>
		<path class="st32" d="M655.11,363.46c1.82,22.63,6.12,44.85,18.52,64.44c3.44,5.44,6.94,11.21,11.72,15.61
			c-18.49,3.93-67.17,3.79-74.6-23.85c-4.85-18.08-5.91-37-5.26-55.63c0.58-16.85,0.96-35.67,8.11-51.24
			c6.51-14.16,29.47-13.98,38-1c4.14,6.3,1.82,14.04,2.05,21.17C653.98,343.07,654.29,353.31,655.11,363.46z"/>
		<path class="st3" d="M659.29,429.15c15.15-0.42,23.46,13.05,28.19,26.66c4.98,14.31-7.83,54.22-19.36,44.4
			c-22.68-19.31-33.99-30.93-34.42-46.07C633.28,438.98,644.15,429.57,659.29,429.15z"/>
		<path class="st8" d="M629.03,567.41c3.48-0.63,17.81,6.77,17.81,6.77s17.9,57.53,18.67,66.28c0.77,8.74-59.39,54.03-126.59,28.24
			c0,0,31.11-81.02,33.02-100.97C573.83,547.79,629.03,567.41,629.03,567.41z"/>
		<path class="st9" d="M646.84,574.18c0,0,17.16,51.88,18.67,66.28c5.36,50.97-63.61,72.34-130.82,46.56
			c0,0-4.36-70.07,37.24-119.28C571.93,567.74,582.99,577.82,646.84,574.18z"/>
		<path class="st6" d="M542.27,702.31l-7.57-4.16c0,0,0.08,1.48,0.22,4.16H542.27z"/>
		<path class="st6" d="M625.46,702.31c5.21-44.13-31.61-67.02-71.61-49.16c0,0-23.02,6.67-18.57,49.16H625.46z"/>
		<path class="st6" d="M586.63,426.12h46.78c-2.13-6.81-6.53-24.44,0.29-36.44l-47.26-31.03
			C586.43,358.65,594.84,410.72,586.63,426.12z"/>
		<path class="st10" d="M630.05,405.67c-0.14-5.21,0.72-10.86,3.64-15.99l-47.26-31.03c0,0,3.42,21.22,3.77,40.58
			C607.27,404.65,614.29,406.75,630.05,405.67z"/>
		<path class="st6" d="M555.28,430.53c-21.89,10.47-10.14,34.67-10.14,34.67l28.46,103.56c0,0,26.59,10.87,73.24,5.43
			c6.48-9.27,19.8-48.13,24.26-77.79c3.67-24.43,15.09-48.5,2.66-62.13c-4.77-5.22-41.07-10.44-41.26-11.29l-42.86-0.18
			L555.28,430.53z"/>
		<g>
			<path class="st6" d="M640.96,393.93l2.84-6.9l7.1-20.36c1-3.24,1.63-7.71,0.67-10.97c-1.16-3.92-1.89-10.26-0.09-17.21
				c4.8-18.61-3.04-28.86-3.04-28.86c-10.1-17.86-36.02-19.09-36.02-19.09c-32.12,0.04-36.31,30.92-36.31,30.92
				c-6.2,20.38,9.39,38.35,9.42,38.38c1.97,2.27,2.02,5.8,2.88,8.53c0.93,2.92,2.41,5.68,4.3,8.08c4.25,5.4,9.87,10.64,15.75,14.02
				c5.58,3.21,16.52,6.76,24.4,7.08C636.13,397.68,639.34,397.88,640.96,393.93z"/>
			<path class="st32" d="M588.5,371.98c0.58-14.64,0.9-13.72,0.9-13.72c0.56-4.26,8.47,5.38,8.59-0.19
				c0.5-25.53,10.38-37.19,14.1-38.97c10.1-4.82,20.56-5.83,28.7-3.94c12.78,2.94,11.41,20.08,11.41,20.08
				c14.17-62.26-56.91-45.75-56.91-45.75c-34.57,7.23-32.69,39.56-32.69,39.56c-5.94,34.31,27.05,55.92,27.05,55.92L588.5,371.98z"
				/>
			<g>
				<g>
					<g>
						<g>
							<g>
								<g>
									<path class="st11" d="M590.99,367.12c-1.19,0.82-2.68,1.25-4.51,1.12c-4.96-0.32-8.84-5.18-8.67-10.83
										c0.17-5.64,4.32-9.97,9.27-9.64c2.35,0.16,4.45,1.33,6,3.12c2.26,2.61,2.1,7.22,1.37,10.35
										C593.88,363.75,592.77,365.88,590.99,367.12z"/>
								</g>
							</g>
						</g>
					</g>
				</g>
				<g>
					<g>
						<path class="st12" d="M588.82,353.13c-0.14-2.98-6.28-0.45-5.46,1.26c0.48,0.99,1.5,1.75,2.29,2.46
							c1.08,0.98,1.6,1.85,1.68,3.34c0.01,0.17,0.02,0.69-0.16,0.79c-0.8,0.5-3.2-2.52-3.72-3.16c-1.04-1.26-1.08-3.31-0.48-4.77
							c0.64-1.55,1.71-2.24,3.4-2.05c1.35,0.15,2.72,0.31,2.55,1.98C588.89,353.01,588.82,353.28,588.82,353.13L588.82,353.13z"/>
					</g>
					<g>
						<path class="st12" d="M586.74,356.11c0.66-0.59,1.23-0.04,1.84,0.45c0.57,0.47,0.87,1.09,0.99,1.8c0.27,1.56-0.05,3.61-1,4.91
							c-0.77,1.05-2,1.65-3.3,1.55c-1.81-0.14-2.26-1.76-2.25-3.3c0-0.4,0.02-1.38,0.43-1.61c0.45-0.25,0.72,0.44,1,0.74
							c0.38,0.4,0.97,0.58,1.5,0.65c1.02,0.14,2.06-0.33,2.74-1.06c0.12-0.13,0.23-0.29,0.3-0.45c-0.05,1-0.12,1.22-0.19,0.66
							c-0.06-0.26-0.17-0.5-0.31-0.73c-0.38-0.71-1.06-1.22-1.5-1.9C586.78,357.51,586.41,356.41,586.74,356.11L586.74,356.11z"/>
					</g>
				</g>
			</g>
			<g>
				<path class="st13" d="M620.52,346.74c0.09,1.78-0.83,3.28-2.05,3.33c-1.21,0.05-2.25-1.35-2.34-3.13
					c-0.08-1.79,0.83-3.28,2.04-3.33C619.39,343.56,620.43,344.96,620.52,346.74z"/>
				<path class="st13" d="M645.33,344.67c-0.02,1.79-1.02,3.22-2.24,3.2c-1.21-0.01-2.17-1.48-2.15-3.27
					c0.02-1.78,1.02-3.22,2.24-3.2C644.4,341.43,645.36,342.89,645.33,344.67z"/>
				<path class="st32" d="M610.02,343.81c4.77-6.23,17.3-3.79,17.3-3.79s0.73,0,0.65-2.23c0,0,0.05-1.96-1.54-1.86
					C626.42,335.93,611.07,333.32,610.02,343.81z"/>
				<path class="st32" d="M651.77,337.63c0.03-6.89-13.26-3.22-13.26-3.22c-1.58-0.02-1.42,1.94-1.42,1.94
					c0.05,2.23,0.78,2.19,0.78,2.19s12.04-3.27,13.73-0.4C652.1,336.71,651.46,338.39,651.77,337.63z"/>
				<path class="st12" d="M628.58,364.18c9.23-0.2,9.86-2.59,9.86-2.59l-4.33-9.93C634.11,351.66,634.72,361.4,628.58,364.18z"/>
				<g>
					<path class="st33" d="M624.46,369.42l17.67-1.15c0.93-0.05,1.43,0.62,1.09,1.5c0,0-3.43,9.03-9.16,9.39
						c-5.73,0.35-10.26-8.2-10.26-8.2C623.41,370.22,623.73,369.6,624.46,369.42z"/>
					<path class="st34" d="M640.44,374.8c-1.56,2.14-3.72,4.19-6.39,4.36c-2.69,0.16-5.09-1.62-6.9-3.57
						C630.34,371.61,636.56,371.33,640.44,374.8z"/>
					<path class="st1" d="M624.29,369.5c0.06-0.03,0.11-0.06,0.17-0.08l17.67-1.15c0.18-0.01,0.34,0.03,0.48,0.07
						c0.53,0.77,0.02,2.19-1.38,3.13c-2.68,0.69-8.82,1.91-15.34,0.97C624.29,371.05,623.63,369.91,624.29,369.5z"/>
				</g>
			</g>
			<path class="st1" d="M591.18,368.17c-0.09,1.67-1.52,2.97-3.19,2.88c-1.68-0.08-2.96-1.51-2.88-3.19
				c0.08-1.68,1.51-2.97,3.19-2.88C589.97,365.06,591.26,366.49,591.18,368.17z"/>
		</g>
		<path class="st35" d="M671.1,431.46c0,0,11.48,0,17.99,29.07c0,0,31.85,96.69,11.42,102.28c0,0-30.5-6.01-59.2-83.01
			C641.31,479.8,638.68,433.3,671.1,431.46z"/>
		<path class="st35" d="M645.33,425.51l20.18,3.63c0,0,14.71,3.22,15.2,15.81c0,0,0.82,23.86-12.16,67
			C668.56,511.95,647.08,445.75,645.33,425.51z"/>
		<path class="st35" d="M640.18,424.72l9.1,1.4c0,0,17.65,34.13,21.82,70.27c-4.46,29.67-13.41,74.59-24.26,77.79
			c-36.78,10.88-75.18-6.22-75.18-6.22l-17.58-70.23c47.24-18.39,23.37-72.39,23.37-72.39l9.92-2.38l41.75,42.21L640.18,424.72"/>
		<path class="st14" d="M658.84,448.01c0,0,18.46,25.57,21.67,38.74c2.12,8.66-12.98,28.16-25.16,31.59
			C648.7,520.22,648.54,449.74,658.84,448.01z"/>
		<path class="st9" d="M658.84,448.01c0,0,18.46,25.57,21.67,38.74c2.12,8.66-12.98,28.16-25.16,31.59
			C648.7,520.22,648.54,449.74,658.84,448.01z"/>
		<g>
			<path class="st9" d="M650.68,426.12c0,0,16.82,34.34,20.99,70.49c-4.47,29.66-13.97,74.37-24.82,77.58
				c-36.78,10.88-75.18-6.22-75.18-6.22l-17.58-70.23c47.24-18.39,23.37-72.39,23.37-72.39l9.92-2.38l44.17,63.14l8.64-61.39
				L650.68,426.12z"/>
			<path class="st16" d="M587.37,422.97l44.18,63.14l0,0l-31.77-8.6c0,0-4.61-3.91-1.68-8.18l4.37-8.53l-5.82-1.73
				c0,0-7.64-0.9-8.91-7.13l-4.77-27.92L587.37,422.97z"/>
			<path class="st16" d="M640.02,424.81l-8.48,61.3l0,0l17.26-16.03c0,0,7.1-5.77,0.45-8.66l-8.22-2.55l9.64-8.67
				c0,0,2.01-2.65,0-7.64l-5.79-17.22L640.02,424.81z"/>
		</g>
		<g>
			<polygon class="st36" points="622.84,434.73 622.31,458.42 613.59,449.89 			"/>
			<path class="st37" d="M622.84,434.2c0,0-26.46-10.83-33.02-21.62l-12.37,12.77l32.1,31.14l13.29-21.76"/>
		</g>
		<path class="st37" d="M646.39,435.4c0,0-2.56-9.92-15.14-18.3l1.64,34.2C632.9,451.29,639.87,433.8,646.39,435.4z"/>
		<path class="st36" d="M647.53,451.29l-1.14-15.89c-3.84-0.94-7.27,4.43-10.07,8.84L647.53,451.29z"/>
		<path class="st9" d="M683.23,702.31c-5-27.96-11.59-53.56-20.21-69.45c0,0-122.23-11.31-127.93,34.38l-1.49,35.07H683.23z"/>
		<path class="st35" d="M545.69,437.68c0,0-4.91,5.12-8.87,19.8c0,0-19.37,70.79-5.11,106.77c0,0,4.66,7.31,16.65,10.56l38.08-91.6
			c0,0,16.24-38.35-9.55-58.19l-21.6,5.52C555.28,430.53,549.01,432.9,545.69,437.68z"/>
		<path class="st6" d="M579.2,514.2l-13.6-10.74c0,0-20.46-3-30.69-1.71c0,0-3.38,4.7,22.44,5.42c0,0-18.11,5.78-23.92,10.09
			c0,0-0.93,5.36,15.63-2.43l7.53-0.55l-17.52,8.75c0,0,0.68,3.33,16.63-1l15.99,1.75L579.2,514.2z"/>
		<path class="st35" d="M666.26,516.2l-87.61-10.48c-4.38,5.35-8.6,15.06-6.72,25.23l111.92,35.49c0,0,29.57,5.24,21.77-30.36
			C705.61,536.08,693.12,517.93,666.26,516.2z"/>
		<path class="st6" d="M666.26,516.2c0,0-15.74,8.49-21.65,9.16l-9.16-15.81l12.52-8.12l8.58-1.98c0,0,14.11-3.64,17.83,15.73
			L666.26,516.2z"/>
		<g>
			<path class="st38" d="M550.02,575.29c0,0-24,2.2-17.98-23.93c5.19-14.7,24.29-20.7,24.29-20.7l79.12-23.88
				c0,0,7.53,2.88,10.88,21.28C646.33,528.06,577.14,575.99,550.02,575.29z"/>
		</g>
		<path class="st32" d="M598.94,362.76c-2.92,22.52-3.32,45.14,4.74,66.88c2.23,6.03,4.46,12.41,8.22,17.7
			c-18.9,0-66.5-10.24-68.02-38.82c-0.99-18.69,1.9-37.42,6.4-55.51c4.07-16.36,8.35-34.69,18.57-48.44
			c9.3-12.5,31.72-7.55,37.38,6.91c2.75,7.02-1.13,14.11-2.39,21.14C602.06,342.58,600.25,352.66,598.94,362.76z"/>
	</g>
	<g>
		<g>
			<g>
				<g>
					<path class="st3" d="M566.62,702.31c0.85-36.6-3.19-115.12-7.67-122.37c-5.29-8.57-33.56,9.69-33.56,9.69
						s19.43,76.56,26.31,112.68H566.62z"/>
				</g>
				<g>
					<path class="st3" d="M546.49,466.2l8.53,2.78c0,0,13.51,105.09,2.08,128.56c-11.44,23.47-24.59-0.11-28.88-2.77
						c-4.28-2.66-31.63-121.68-31.63-121.68L546.49,466.2z"/>
					<path class="st39" d="M564.85,585.34l-5.45-131.65c-6.18-32.32-39.27-22.69-39.27-22.69c-26.83,6.98-25.54,37.05-25.54,37.05
						l23.07,126.1c0,0,4.83,19.28,29.66,19.28C547.32,613.43,565.63,610.96,564.85,585.34z"/>
				</g>
				<path class="st39" d="M541.42,702.31h28.81c-0.13-33.74-1.26-100.28-7.95-126.58c0,0-45.63,0.95-42.35,22.85
					C519.94,598.58,528.49,656.08,541.42,702.31z"/>
			</g>
			<path class="st6" d="M530.31,612.85l24.07-147.12c0,0,8.3-22.12-8.29-33.17l-63.22-29.71h-44.59l-76.01,44.92l49.82,165.08
				H530.31z"/>
			<path class="st20" d="M530.15,702.31l0.16-89.46H412.09c0,0-11.94,27.29-16.18,89.46H530.15z"/>
			<g>
				<path class="st40" d="M477.41,702.31c-5.51-17.61-21.57-30.3-40.44-30.16c-18.65,0.14-34.37,12.78-39.79,30.16H477.41z"/>
				<path class="st40" d="M444.02,702.31c-3.24-0.48-6.77-0.51-10.59,0H444.02z"/>
			</g>
			<g>
				<path class="st40" d="M527.27,702.31c-5.18-16.9-16.89-28.28-35.45-26.39c-15.91,1.62-28.81,12.18-34.54,26.39H527.27z"/>
			</g>
			<g>
				<path class="st6" d="M366.77,702.31c-0.87-19.53-0.92-40.22,5.29-102.57c0,0-27.38-12.69-33.29,1.04
					c-2.76,6.43,2.49,64.42,8.59,101.53H366.77z"/>
				<path class="st6" d="M391.35,450.46c-29.35-6.68-39.37,20.44-39.37,20.44s-14.74,90.28-14.56,128.97
					c0.12,26.11,31.98,5.08,34.07,0.49c4.61-10.13,38.09-118.88,38.09-118.88S411.33,455.95,391.35,450.46z"/>
				<path class="st41" d="M376.46,601.88l38.06-123.38c-0.85-30.67-30.87-35.25-30.87-35.25c-28.22-2.7-34.4,21.58-34.4,21.58
					l-13.65,123.52c0,0-4.63,27.76,11.41,28.16C347,616.52,373.91,619.44,376.46,601.88z"/>
				<path class="st41" d="M373.2,702.31c2.17-36.36,5.57-107.91,5.57-107.91c-12.95-22.54-43.18-6.04-43.18-6.04
					c-5.39,22.66,3.62,81.71,9.28,113.95H373.2z"/>
			</g>
			<path class="st6" d="M438.05,370.34v47.66h50.4c0,0-12.4-18.89-6.2-47.66H438.05z"/>
			<path class="st10" d="M463.62,410.82c4.55,2.92,14.2,9.14,19.71,5.5c1.48-0.98,2.17-2.27,2.39-3.7
				c-3.24-7.55-7.7-22.6-3.46-42.28h-44.21v4.32C443.57,388.62,450.64,402.45,463.62,410.82z"/>
			<g>
				<path class="st11" d="M436.85,371.01c0,0-8.58-3.73-18.29-24.95c0,0-21.09-25.1-6.14-53.6c0,0,8.83-24.1,51.62-17.36
					C464.04,275.1,467.89,339.69,436.85,371.01z"/>
				<path class="st6" d="M489.54,383.9l2.86-7.47c0,0,7.88-27.81,7.88-27.81c0.99-3.49,1.04-8.17,0.41-11.77
					c-0.69-3.91-1.13-8-0.11-12.12c4.97-20-5.28-31.35-5.28-31.35C484,274.53,456.2,273.9,456.2,273.9
					c-34.42,0.89-38.08,34.09-38.08,34.09c-6.09,22,11.08,40.83,11.11,40.87c1.37,1.5,0.48,8.76,0.85,10.85
					c1.61,8.87,9.93,14.49,17.33,18.41c8.13,4.3,17.98,8.89,27.16,9.95C478.06,388.48,487.91,388.18,489.54,383.9z"/>
			</g>
			<path class="st12" d="M482.82,341.9l-9.58,2.91c0,0,12.51,1.7,13.26-1.91c0,0-1.38-7.26-2.94-14.16
				C483.56,328.74,484.24,341.46,482.82,341.9z"/>
			<g>
				<path class="st13" d="M467.54,327.28c0.09,1.97-0.93,3.61-2.27,3.67c-1.33,0.06-2.49-1.48-2.58-3.46
					c-0.09-1.96,0.93-3.61,2.26-3.67C466.29,323.76,467.46,325.31,467.54,327.28z"/>
				<path class="st13" d="M494.61,326.26c0.1,1.97-0.92,3.61-2.25,3.68c-1.33,0.06-2.5-1.48-2.59-3.45
					c-0.09-1.97,0.91-3.62,2.25-3.68C493.36,322.75,494.52,324.29,494.61,326.26z"/>
				<path class="st42" d="M470.56,320.84c0.86,0.24,1.16-0.91,1.16-0.91c0.36-1.11,0.09-2.09,0.09-2.09
					c-0.29-0.83-0.95-1.12-0.95-1.12c-2.23-0.48-6.62-0.24-10.39,0.58c-2.08,0.46-5.51,1.74-5.86,3.6c-0.11,0.56-0.23,1.52,0.4,1.74
					C455,322.64,462.19,320.98,470.56,320.84z"/>
				<path class="st42" d="M501.56,319.03c-2.45-0.14-8.91,0.89-14.24,1.49c-0.82,0.35-1.26-0.75-1.26-0.75
					c-0.5-1.06-0.36-2.07-0.36-2.07c0.18-0.85,0.81-1.24,0.81-1.24c2.14-0.77,7.96-2.02,11.8-1.69c1.15,0.1,3,0.67,3.53,1.76
					C501.83,316.54,502.28,316.28,501.56,319.03z"/>
			</g>
			<path class="st22" d="M403.91,608.85c0.1,4.9-7.34,56.18-4.21,56.84c0.02,0,85.07,19.6,130.44,0l0.18-52.85l24.07-147.12
				c0,0,8.3-22.12-8.29-33.17l-63.22-29.71l4.26,12.81l-9.14,26l-39.72-38.81l-76.01,44.92c4.25,14.08,8.47,28.16,12.72,42.23
				c7.83,25.95,15.46,51.97,23.53,77.85C398.52,567.85,405.2,595.92,403.91,608.85z"/>
			<polygon class="st23" points="472.5,412.09 471.97,435.78 463.25,427.25 			"/>
			<g>
				<path class="st24" d="M483.61,450.29c0,1.86-1.51,3.38-3.38,3.38c-1.86,0-3.38-1.52-3.38-3.38c0-1.87,1.52-3.38,3.38-3.38
					C482.1,446.91,483.61,448.42,483.61,450.29z"/>
			</g>
			<g>
				<path class="st24" d="M483.61,511.66c0,1.87-1.51,3.38-3.38,3.38c-1.86,0-3.38-1.51-3.38-3.38c0-1.87,1.52-3.38,3.38-3.38
					C482.1,508.28,483.61,509.79,483.61,511.66z"/>
			</g>
			<g>
				<path class="st24" d="M483.61,573.03c0,1.87-1.51,3.38-3.38,3.38c-1.86,0-3.38-1.51-3.38-3.38c0-1.87,1.52-3.38,3.38-3.38
					C482.1,569.65,483.61,571.17,483.61,573.03z"/>
			</g>
			<g>
				<path class="st24" d="M483.61,634.4c0,1.87-1.51,3.38-3.38,3.38c-1.86,0-3.38-1.51-3.38-3.38c0-1.86,1.52-3.38,3.38-3.38
					C482.1,631.02,483.61,632.54,483.61,634.4z"/>
			</g>
			<line class="st25" x1="472.5" y1="438.48" x2="472.5" y2="671.39"/>
			<g>
				<path class="st26" d="M529.6,670.54c0,0-43.44,20.36-132.35-0.44c-1.46-0.35-0.84-4.14-0.84-4.14l0.84-8.56
					c0.39-2.74,1.92-2.61,1.92-2.61c0.02,0,85.07,19.6,130.43,0c0,0,1.83-0.32,1.91,2.42v10.67
					C531.51,667.88,531.51,670.01,529.6,670.54z"/>
				<g>
					<path class="st27" d="M485.47,677c0,1.36-1.07,2.46-2.4,2.46h-17.3c-1.32,0-2.4-1.1-2.4-2.46v-12.46c0-1.35,1.08-2.45,2.4-2.45
						h17.3c1.33,0,2.4,1.1,2.4,2.45V677z"/>
					<line class="st27" x1="463.37" y1="669.98" x2="472.53" y2="669.98"/>
				</g>
			</g>
			<path class="st18" d="M472.5,411.56c0,0-27.89-10.84-34.46-21.62l-8.24,15.71l29.4,28.2l13.29-21.76"/>
			<path class="st42" d="M471.4,291.73c5.46-1.55,11.77-2.6,17.42-1.57c5.64,1.03,8.82,8.59,14.65,4.75
				c2.36-1.56,6.86-4.96,8.34-7.31c2.27-3.61-2.65-10.37-6-11.59c-3.76-1.36-3.39-2.6-5.24-6.29c-1.57-3.14-1.96-6.03-5.84-7.1
				c-3.71-1.02-7.27,1.45-10.89,0.92c-6.24-0.92-7.41-7.65-13.96-8.8c-7.23-1.27-11.06,10.87-18.22,10.39
				c-6.2-0.42-10.21-5.83-16.93-4.54c-6.93,1.33-8.71,8.76-14.98,10.92c-6.4,2.2-13.46,1.03-15.38,9.33
				c-1.56,6.75,1.4,11.35-3.39,17.1c-5.32,6.4-3.39,13.06-0.56,19.8c5.1,12.12,10.18,24.1,18.08,34.71c2.2,2.96,4.64,5.82,7.3,8.37
				c0.45,0.43,2.72,1.88,2.82,2.47c0-0.01-4.57-25.79,9.06-22.26l2.35-0.13c0,0-4.69-15.12,5.03-22.59
				c-4.61-5.93-0.86-17.75,0.07-19.44C449.84,290.35,463.44,293.98,471.4,291.73z"/>
			<g>
				<g>
					<g>
						<g>
							<g>
								<g>
									<path class="st6" d="M434.39,352.11c-1.22,1.03-2.82,1.67-4.85,1.73c-5.48,0.18-10.27-4.74-10.69-10.98
										c-0.42-6.22,3.68-11.42,9.15-11.59c2.6-0.08,5.05,0.98,6.94,2.78c2.76,2.63,3.08,7.7,2.62,11.24
										C437.2,348.11,436.22,350.56,434.39,352.11z"/>
								</g>
							</g>
						</g>
					</g>
				</g>
				<g>
					<g>
						<path class="st12" d="M430.49,336.96c-0.48-3.26-6.95,0.17-5.86,1.98c0.63,1.03,1.83,1.75,2.78,2.45
							c1.29,0.97,1.95,1.87,2.2,3.49c0.03,0.19,0.09,0.76-0.09,0.9c-0.83,0.63-3.78-2.44-4.43-3.08c-1.27-1.26-1.55-3.53-1.04-5.19
							c0.54-1.78,1.65-2.66,3.52-2.63c1.49,0.02,3.01,0.05,3,1.91C430.57,336.82,430.52,337.13,430.49,336.96L430.49,336.96z"/>
					</g>
					<g>
						<path class="st12" d="M428.54,340.47c0.65-0.73,1.34-0.19,2.07,0.29c0.67,0.44,1.08,1.1,1.28,1.87
							c0.46,1.69,0.33,3.97-0.58,5.5c-0.73,1.24-2.02,2.03-3.46,2.06c-2,0.03-2.67-1.7-2.83-3.39c-0.04-0.44-0.13-1.52,0.31-1.81
							c0.46-0.31,0.84,0.4,1.17,0.71c0.46,0.41,1.13,0.53,1.71,0.56c1.15,0.05,2.23-0.58,2.91-1.46c0.12-0.16,0.22-0.34,0.28-0.53
							c0.05,1.11,0,1.36-0.14,0.75c-0.1-0.28-0.24-0.52-0.42-0.76c-0.49-0.74-1.3-1.23-1.85-1.94
							C428.72,342,428.21,340.83,428.54,340.47L428.54,340.47z"/>
					</g>
				</g>
			</g>
			<polygon class="st41" points="381.33,702.31 455.42,702.31 459.45,529.07 425.65,410.31 362.26,447.76 395.13,594.82 			"/>
			<path class="st43" d="M425.65,410.31l33.8,118.76l-0.14,5.64l-42.58-43.58c0,0-4.47-7.56,1.58-12.04l10.06-9.63l-7.17-5.14
				c0,0-10.06-4.88-8.84-14.03l2.88-34.39L425.65,410.31z"/>
			<path class="st41" d="M549.44,702.31l-5.65-118.82l12.67-125.77c4.48-22.71-17.44-28.48-17.44-28.48l-38.5-18.1l-5.39,114.73
				l13.18,176.44H549.44z"/>
			<path class="st18" d="M496.06,412.76c0,0-2.57-9.92-15.14-18.3l1.65,34.2C482.56,428.66,489.54,411.17,496.06,412.76z"/>
			<path class="st23" d="M497.2,428.66l-1.14-15.89c-3.84-0.94-7.27,4.43-10.07,8.84L497.2,428.66z"/>
			<g>
				<polygon class="st44" points="469.76,420.66 468.73,418.74 461.72,429.49 467.75,431.64 				"/>
				<path class="st44" d="M485.99,421.6l1.97-3.01c0,0,7.49,6.3-0.38,13.05C487.58,431.64,487.58,426.08,485.99,421.6z"/>
				<path class="st45" d="M469.76,420.66c0,0,5.94,5.28,16.23,0.95c2.25,2.86,2.24,6.51,1.59,10.04l-5.32,10.99h-7.44l-7.07-10.99
					C467.75,431.64,467.02,429.22,469.76,420.66z"/>
				<polygon class="st44" points="474.81,442.63 468.8,599.83 481.35,624.25 491.59,599.95 482.25,442.63 				"/>
			</g>
			<path class="st43" d="M500.52,411.14l9.93,4.66l7.17,33.12c0,0,3.6,8.57-1.61,10.81l-9.35,5.45l13.18,8.35
				c0,0,6.94,4.35,2.67,10.75l-26.45,51.64l-0.83-8.83L500.52,411.14z"/>
			<g>
				<path class="st33" d="M469.06,354.05l21.17-1.38c1.12-0.06,1.71,0.75,1.31,1.8c0,0-4.12,10.82-10.98,11.24
					c-6.87,0.43-12.28-9.82-12.28-9.82C467.81,355.01,468.19,354.26,469.06,354.05z"/>
				<path class="st34" d="M488.21,360.5c-1.87,2.57-4.46,5.02-7.65,5.21c-3.21,0.2-6.1-1.93-8.27-4.27
					C476.12,356.68,483.57,356.34,488.21,360.5z"/>
				<path class="st1" d="M468.86,354.15c0.07-0.03,0.12-0.07,0.2-0.1l21.17-1.38c0.22-0.01,0.4,0.04,0.58,0.09
					c-0.55,1.25-1.09,2.51-1.65,3.75c-3.21,0.83-10.56,2.28-18.37,1.17C470.21,356.46,469.57,355.29,468.86,354.15z"/>
			</g>
		</g>
	</g>
	<g>
		<g>
			<g>
				<g>
					<path class="st3" d="M226.49,702.31c6.88-36.12,26.3-112.68,26.3-112.68s-28.28-18.26-33.56-9.69
						c-4.47,7.25-8.52,85.77-7.67,122.37H226.49z"/>
				</g>
				<g>
					<path class="st3" d="M231.7,466.2l-8.54,2.78c0,0-13.51,105.09-2.08,128.56c11.43,23.48,24.59-0.12,28.88-2.78
						c4.28-2.66,31.63-121.68,31.63-121.68L231.7,466.2z"/>
					<path class="st46" d="M213.33,585.34l5.46-131.65c6.17-32.32,39.27-22.7,39.27-22.7c26.83,6.99,25.54,37.05,25.54,37.05
						l-23.07,126.11c0,0-4.84,19.28-29.66,19.28C230.87,613.43,212.55,610.96,213.33,585.34z"/>
				</g>
				<path class="st46" d="M236.76,702.31c12.94-46.23,21.49-103.73,21.49-103.73c3.29-21.89-42.34-22.85-42.34-22.85
					c-6.69,26.29-7.82,92.83-7.95,126.58H236.76z"/>
			</g>
			<path class="st6" d="M247.87,612.85L223.8,465.73c0,0-8.29-22.12,8.3-33.17l63.22-29.72h44.59l76.01,44.92L366.1,612.85H247.87z"
				/>
			<path class="st20" d="M382.29,702.31c-4.24-62.17-16.19-89.46-16.19-89.46H247.87l0.16,89.46H382.29z"/>
			<g>
				<path class="st40" d="M381.01,702.31c-5.42-17.39-21.15-30.02-39.8-30.16c-18.87-0.14-34.93,12.55-40.44,30.16H381.01z"/>
				<path class="st40" d="M344.76,702.31c-3.83-0.51-7.35-0.48-10.59,0H344.76z"/>
			</g>
			<g>
				<path class="st40" d="M320.91,702.31c-5.73-14.21-18.64-24.77-34.55-26.39c-18.55-1.9-30.26,9.49-35.44,26.39H320.91z"/>
			</g>
			<g>
				<path class="st6" d="M411.42,702.31h19.4c6.11-37.1,11.35-95.09,8.59-101.53c-5.91-13.74-33.29-1.04-33.29-1.04
					C412.35,662.1,412.29,682.78,411.42,702.31z"/>
				<path class="st6" d="M386.84,450.46c29.35-6.68,39.37,20.44,39.37,20.44s14.73,90.28,14.55,128.97
					c-0.12,26.1-31.98,5.08-34.07,0.49c-4.61-10.13-38.09-118.87-38.09-118.87S366.86,455.95,386.84,450.46z"/>
				<path class="st47" d="M401.73,601.88L363.67,478.5c0.86-30.67,30.87-35.25,30.87-35.25c28.22-2.7,34.41,21.58,34.41,21.58
					l13.65,123.52c0,0,4.63,27.77-11.41,28.17C431.19,616.52,404.27,619.44,401.73,601.88z"/>
				<path class="st47" d="M433.32,702.31c5.66-32.25,14.68-91.29,9.29-113.96c0,0-30.23-16.5-43.18,6.04c0,0,3.4,71.55,5.57,107.91
					H433.32z"/>
			</g>
			<path class="st6" d="M340.14,370.35v47.66h-50.4c0,0,12.39-18.89,6.2-47.66H340.14z"/>
			<path class="st10" d="M314.57,410.82c-4.54,2.92-14.19,9.14-19.71,5.5c-1.47-0.98-2.16-2.27-2.39-3.7
				c3.24-7.55,7.7-22.6,3.46-42.28h44.21v4.32C334.62,388.62,327.55,402.45,314.57,410.82z"/>
			<g>
				<path class="st11" d="M341.34,371.01c0,0,8.58-3.72,18.29-24.95c0,0,21.09-25.1,6.14-53.6c0,0-8.83-24.1-51.62-17.35
					C314.15,275.1,310.3,339.69,341.34,371.01z"/>
				<path class="st6" d="M288.64,383.9l-2.85-7.47c0,0-7.88-27.81-7.88-27.81c-0.98-3.5-1.04-8.17-0.41-11.77
					c0.69-3.91,1.13-7.99,0.12-12.12c-4.97-20,5.28-31.35,5.28-31.35c11.29-18.86,39.09-19.48,39.09-19.48
					c34.41,0.9,38.08,34.09,38.08,34.09c6.09,21.99-11.08,40.83-11.12,40.87c-1.37,1.5-0.48,8.77-0.85,10.85
					c-1.61,8.87-9.94,14.49-17.33,18.41c-8.13,4.29-17.98,8.89-27.16,9.95C300.12,388.48,290.28,388.19,288.64,383.9z"/>
			</g>
			<path class="st12" d="M295.37,341.9l9.58,2.91c0,0-12.51,1.7-13.26-1.91c0,0,1.38-7.26,2.94-14.16
				C294.63,328.74,293.95,341.47,295.37,341.9z"/>
			<g>
				<path class="st13" d="M310.64,327.28c-0.09,1.97,0.94,3.61,2.27,3.67c1.33,0.06,2.49-1.49,2.58-3.45
					c0.09-1.97-0.93-3.61-2.26-3.67C311.9,323.76,310.73,325.31,310.64,327.28z"/>
				<path class="st13" d="M283.57,326.26c-0.1,1.97,0.92,3.61,2.25,3.68c1.34,0.06,2.5-1.48,2.59-3.45
					c0.09-1.97-0.92-3.62-2.25-3.68C284.83,322.75,283.67,324.29,283.57,326.26z"/>
				<path class="st13" d="M307.62,320.84c-0.86,0.25-1.15-0.91-1.15-0.91c-0.36-1.11-0.1-2.09-0.1-2.09
					c0.29-0.83,0.96-1.12,0.96-1.12c2.22-0.48,6.62-0.24,10.38,0.58c2.09,0.46,5.51,1.73,5.87,3.6c0.1,0.56,0.23,1.53-0.4,1.74
					C323.18,322.64,315.99,320.98,307.62,320.84z"/>
				<path class="st13" d="M276.62,319.03c2.45-0.14,8.91,0.89,14.24,1.49c0.82,0.35,1.26-0.76,1.26-0.76
					c0.49-1.06,0.36-2.06,0.36-2.06c-0.18-0.86-0.8-1.24-0.8-1.24c-2.14-0.76-7.96-2.02-11.81-1.68c-1.15,0.1-3,0.67-3.53,1.76
					C276.36,316.54,275.91,316.28,276.62,319.03z"/>
			</g>
			<path class="st1" d="M374.28,608.86c-0.1,4.9,7.34,56.18,4.21,56.83c-0.02,0.01-85.07,19.61-130.44,0l-0.18-52.84L223.8,465.73
				c0,0-8.29-22.12,8.3-33.17l63.22-29.72l-4.27,12.82l9.14,26l39.72-38.81l76.01,44.92c-4.25,14.07-8.47,28.16-12.72,42.23
				c-7.84,25.95-15.46,51.97-23.53,77.85C379.68,567.85,372.99,595.91,374.28,608.86z"/>
			<polygon class="st48" points="305.68,412.09 306.21,435.78 314.94,427.25 			"/>
			<g>
				<g>
					<path class="st49" d="M294.57,450.29c0,1.87,1.51,3.38,3.38,3.38c1.86,0,3.38-1.51,3.38-3.38c0-1.86-1.52-3.37-3.38-3.37
						C296.09,446.91,294.57,448.43,294.57,450.29z"/>
				</g>
				<g>
					<path class="st49" d="M294.57,511.67c0,1.86,1.51,3.37,3.38,3.37c1.86,0,3.38-1.51,3.38-3.37c0-1.87-1.52-3.38-3.38-3.38
						C296.09,508.28,294.57,509.79,294.57,511.67z"/>
				</g>
				<g>
					<path class="st49" d="M294.57,573.03c0,1.87,1.51,3.38,3.38,3.38c1.86,0,3.38-1.51,3.38-3.38c0-1.86-1.52-3.38-3.38-3.38
						C296.09,569.65,294.57,571.17,294.57,573.03z"/>
				</g>
				<g>
					<path class="st49" d="M294.57,634.41c0,1.86,1.51,3.38,3.38,3.38c1.86,0,3.38-1.52,3.38-3.38c0-1.87-1.52-3.38-3.38-3.38
						C296.09,631.02,294.57,632.54,294.57,634.41z"/>
				</g>
			</g>
			<line class="st50" x1="305.68" y1="438.48" x2="305.68" y2="671.4"/>
			<g>
				<path class="st26" d="M248.58,670.54c0,0,43.45,20.35,132.36-0.45c1.46-0.35,0.85-4.14,0.85-4.14l-0.85-8.56
					c-0.38-2.74-1.92-2.61-1.92-2.61c-0.02,0.01-85.07,19.61-130.44,0c0,0-1.83-0.32-1.91,2.43v10.67
					C246.67,667.88,246.67,670.01,248.58,670.54z"/>
				<g>
					<path class="st27" d="M292.71,677c0,1.36,1.07,2.46,2.4,2.46h17.3c1.32,0,2.4-1.1,2.4-2.46v-12.46c0-1.35-1.08-2.46-2.4-2.46
						h-17.3c-1.33,0-2.4,1.1-2.4,2.46V677z"/>
					<line class="st27" x1="314.82" y1="669.99" x2="305.66" y2="669.99"/>
				</g>
			</g>
			<path class="st49" d="M305.68,411.56c0,0,27.89-10.83,34.46-21.62l8.24,15.71l-29.4,28.2l-13.3-21.75"/>
			<path class="st13" d="M266.83,267.4c3.66,8.99,11.68,11.68,11.68,11.68c-0.97,3.02-7.35,5.3-7.35,5.3
				c5.66,9.65,18.22,5.79,18.22,5.79c5.65-1.03,11.95,0.02,17.41,1.57c7.96,2.25,21.56-1.38,26.27,7.14
				c0.94,1.69,4.67,13.52,0.07,19.45c9.72,7.47,5.03,22.59,5.03,22.59l2.35,0.13c13.63-3.53,9.06,22.25,9.06,22.27
				c0.11-0.59,2.37-2.03,2.82-2.47c2.66-2.56,8.29-11.72,10.05-14.96c9.59-17.59,8.69-18.49,11.26-28.87
				c1.76-7.09,1-26.3-9.32-35.95c0,0,3.2-12.65-16.76-20.31c0,0-42.59-10.69-63.24,3.38C284.37,264.12,275.15,268.73,266.83,267.4z"
				/>
			<path class="st42" d="M326.54,265.13"/>
			<g>
				<g>
					<g>
						<g>
							<g>
								<g>
									<path class="st6" d="M343.8,352.11c1.22,1.03,2.81,1.67,4.84,1.73c5.49,0.17,10.27-4.74,10.69-10.98
										c0.42-6.22-3.68-11.42-9.16-11.59c-2.59-0.08-5.04,0.98-6.93,2.79c-2.76,2.63-3.08,7.7-2.62,11.23
										C340.99,348.11,341.97,350.56,343.8,352.11z"/>
								</g>
							</g>
						</g>
					</g>
				</g>
				<g>
					<g>
						<path class="st12" d="M347.69,336.97c0.47-3.26,6.95,0.18,5.86,1.97c-0.63,1.04-1.82,1.76-2.77,2.46
							c-1.3,0.97-1.95,1.87-2.2,3.48c-0.04,0.19-0.09,0.75,0.09,0.9c0.83,0.64,3.78-2.44,4.43-3.08c1.27-1.27,1.55-3.53,1.04-5.2
							c-0.54-1.77-1.64-2.65-3.52-2.62c-1.49,0.01-3.01,0.05-3.01,1.9C347.61,336.82,347.67,337.13,347.69,336.97L347.69,336.97z"/>
					</g>
					<g>
						<path class="st12" d="M349.65,340.46c-0.65-0.72-1.34-0.18-2.07,0.3c-0.67,0.45-1.07,1.11-1.27,1.88
							c-0.46,1.68-0.33,3.97,0.57,5.5c0.73,1.24,2.02,2.03,3.47,2.06c2,0.03,2.67-1.7,2.83-3.39c0.04-0.44,0.13-1.52-0.3-1.82
							c-0.46-0.32-0.84,0.4-1.17,0.71c-0.46,0.41-1.13,0.53-1.72,0.56c-1.14,0.05-2.23-0.58-2.91-1.46
							c-0.11-0.16-0.22-0.34-0.28-0.53c-0.05,1.11,0,1.36,0.14,0.75c0.1-0.28,0.24-0.53,0.42-0.76c0.49-0.74,1.3-1.23,1.84-1.93
							C349.47,342,349.98,340.83,349.65,340.46L349.65,340.46z"/>
					</g>
				</g>
			</g>
			<polygon class="st47" points="396.86,702.31 383.05,594.82 415.92,447.77 352.54,410.31 318.73,529.07 322.76,702.31 			"/>
			<path class="st51" d="M352.54,410.31l-33.81,118.76l0.15,5.64l42.58-43.58c0,0,4.48-7.56-1.58-12.04l-10.06-9.62l7.17-5.14
				c0,0,10.06-4.88,8.84-14.03l-2.88-34.39L352.54,410.31z"/>
			<path class="st47" d="M234.39,583.49l-5.65,118.82h41.14l13.17-176.45l-5.39-114.72l-38.5,18.1c0,0-21.91,5.78-17.43,28.49
				L234.39,583.49z"/>
			<path class="st49" d="M282.13,412.76c0,0,2.57-9.92,15.14-18.3l-1.65,34.19C295.63,428.66,288.65,411.16,282.13,412.76z"/>
			<path class="st48" d="M280.99,428.66l1.14-15.89c3.84-0.94,7.27,4.44,10.07,8.84L280.99,428.66z"/>
			<path class="st51" d="M277.67,411.14l-9.93,4.67l-7.17,33.11c0,0-3.6,8.57,1.61,10.81l9.35,5.46l-13.18,8.34
				c0,0-6.94,4.35-2.67,10.75l26.45,51.64l0.83-8.83L277.67,411.14z"/>
			<g>
				<path class="st33" d="M309.13,354.05l-21.17-1.38c-1.11-0.06-1.71,0.75-1.31,1.8c0,0,4.11,10.82,10.98,11.24
					c6.87,0.42,12.28-9.81,12.28-9.81C310.38,355.01,310,354.26,309.13,354.05z"/>
				<path class="st34" d="M289.98,360.5c1.87,2.57,4.46,5.02,7.65,5.22c3.21,0.2,6.1-1.94,8.27-4.27
					C302.07,356.68,294.63,356.34,289.98,360.5z"/>
				<path class="st1" d="M309.33,354.15c-0.07-0.03-0.13-0.08-0.2-0.1l-21.17-1.38c-0.22-0.01-0.4,0.04-0.58,0.08
					c0.55,1.26,1.09,2.51,1.65,3.75c3.21,0.83,10.57,2.28,18.37,1.16C307.97,356.47,308.62,355.29,309.33,354.15z"/>
			</g>
			<path class="st13" d="M344.2,357.1l-3.69-16.07l-2.35-0.13c0,0-2.38,10.64-15.12,12.53c0,0-5.5,0.84-7.85,1.14
				c-0.31,0.04-3.7-3.31-4.14-3.59c-3.77-2.45-8.3-3.12-12.69-3.46c-4.49-0.34-9.3-0.78-13.6,0.86c-0.57,0.22-6.07,3.01-6.25,2.22
				c0,0,5.82,25.75,9.92,33.11c0,0,1.79,5.67,15.02,4.28c0,0,22.72-2.02,40.36-18.46C346.73,367.32,344.2,357.1,344.2,357.1z
				 M284.89,356c0.52-2.68,0.63-4.37,2.93-4.79c4.53-0.83,9.49-0.06,13.99,0.52c3.65,0.46,8.17,0.93,9.66,4.92
				c1.32,3.5,0.35,8.62-1.49,11.82c-3.12,5.4-13.21,8.19-18.32,4.69C287.3,370.18,283.91,361.05,284.89,356z"/>
			<g>
				<polygon class="st52" points="308.43,420.66 309.46,418.73 316.47,429.5 310.44,431.64 				"/>
				<path class="st52" d="M292.2,421.6l-1.96-3.01c0,0-7.49,6.29,0.37,13.05C290.61,431.64,290.61,426.08,292.2,421.6z"/>
				<path class="st53" d="M308.43,420.66c0,0-5.94,5.28-16.23,0.95c-2.25,2.86-2.24,6.5-1.59,10.04l5.33,10.99h7.44l7.07-10.99
					C310.44,431.64,311.17,429.22,308.43,420.66z"/>
				<polygon class="st52" points="303.37,442.63 309.39,599.83 296.84,624.25 286.6,599.96 295.93,442.63 				"/>
			</g>
		</g>
	</g>
</g>
<rect x="43" y="704" class="st54" width="810" height="76"/>
<rect x="35.5" y="696.12" class="st55" width="810" height="76"/>
<rect x="-343" y="275" class="st55" width="108" height="78"/>
<text transform="matrix(1 0 0 1 66.0745 751.6348)" class="st1 st56 st57">Group Health Insurance</text>
<g>
	<g>
		<g>
			<path class="st58" d="M-567.09,356.4l-0.45,1.37h-0.58l1.48-4.35h0.68l1.48,4.35h-0.6l-0.46-1.37H-567.09z M-565.66,355.96
				l-0.43-1.25c-0.1-0.28-0.16-0.54-0.23-0.79h-0.01c-0.06,0.26-0.14,0.52-0.22,0.79l-0.43,1.26H-565.66z"/>
			<path class="st58" d="M-563.33,353.47c0.27-0.05,0.63-0.08,1.08-0.08c0.55,0,0.96,0.13,1.22,0.36c0.24,0.21,0.38,0.52,0.38,0.91
				c0,0.39-0.12,0.7-0.34,0.93c-0.3,0.32-0.78,0.48-1.33,0.48c-0.17,0-0.32-0.01-0.45-0.04v1.74h-0.56V353.47z M-562.77,355.56
				c0.12,0.03,0.28,0.04,0.46,0.04c0.68,0,1.09-0.33,1.09-0.93c0-0.57-0.41-0.85-1.03-0.85c-0.24,0-0.43,0.02-0.53,0.05V355.56z"/>
			<path class="st58" d="M-559.39,357.76v-4.35h0.61l1.39,2.2c0.32,0.51,0.57,0.97,0.78,1.41l0.01-0.01
				c-0.05-0.58-0.06-1.11-0.06-1.79v-1.82h0.53v4.35h-0.57l-1.38-2.21c-0.3-0.48-0.59-0.98-0.81-1.45l-0.02,0.01
				c0.03,0.55,0.05,1.07,0.05,1.79v1.86H-559.39z"/>
			<path class="st58" d="M-550.91,355.55c0,1.5-0.91,2.29-2.02,2.29c-1.15,0-1.95-0.89-1.95-2.21c0-1.38,0.86-2.28,2.02-2.28
				C-551.68,353.35-550.91,354.26-550.91,355.55z M-554.28,355.62c0,0.93,0.5,1.76,1.39,1.76c0.89,0,1.39-0.82,1.39-1.81
				c0-0.86-0.45-1.77-1.39-1.77C-553.82,353.8-554.28,354.66-554.28,355.62z"/>
			<path class="st58" d="M-547.79,353.42h0.56v2.1h0.02c0.12-0.17,0.23-0.32,0.34-0.46l1.33-1.63h0.7l-1.57,1.84l1.7,2.5h-0.66
				l-1.43-2.13l-0.41,0.48v1.66h-0.56V353.42z"/>
			<path class="st58" d="M-543.01,356.4l-0.45,1.37h-0.58l1.48-4.35h0.68l1.48,4.35h-0.6l-0.46-1.37H-543.01z M-541.58,355.96
				l-0.43-1.25c-0.1-0.28-0.16-0.54-0.23-0.79h-0.01c-0.06,0.26-0.14,0.52-0.22,0.79l-0.43,1.26H-541.58z"/>
			<path class="st58" d="M-536.81,353.42v4.35h-0.56v-4.35H-536.81z"/>
			<path class="st58" d="M-535.31,357.76v-4.35h0.61l1.39,2.2c0.32,0.51,0.57,0.97,0.78,1.41l0.01-0.01
				c-0.05-0.58-0.06-1.11-0.06-1.79v-1.82h0.53v4.35h-0.57l-1.38-2.21c-0.3-0.48-0.59-0.98-0.81-1.45l-0.02,0.01
				c0.03,0.55,0.04,1.07,0.04,1.79v1.86H-535.31z"/>
			<path class="st58" d="M-530.63,357.08c0.25,0.15,0.62,0.28,1.01,0.28c0.57,0,0.91-0.3,0.91-0.74c0-0.41-0.23-0.64-0.82-0.86
				c-0.71-0.25-1.15-0.62-1.15-1.23c0-0.68,0.56-1.18,1.41-1.18c0.45,0,0.77,0.1,0.96,0.21l-0.15,0.46
				c-0.14-0.08-0.43-0.21-0.83-0.21c-0.59,0-0.82,0.35-0.82,0.65c0,0.41,0.26,0.61,0.86,0.84c0.74,0.28,1.11,0.64,1.11,1.28
				c0,0.67-0.5,1.25-1.52,1.25c-0.42,0-0.88-0.12-1.11-0.28L-530.63,357.08z"/>
			<path class="st58" d="M-526.29,353.42v2.57c0,0.97,0.43,1.39,1.01,1.39c0.64,0,1.06-0.43,1.06-1.39v-2.57h0.57v2.53
				c0,1.34-0.7,1.88-1.64,1.88c-0.89,0-1.56-0.51-1.56-1.86v-2.56H-526.29z"/>
			<path class="st58" d="M-522.17,353.47c0.28-0.06,0.69-0.09,1.08-0.09c0.6,0,0.99,0.11,1.26,0.35c0.22,0.19,0.34,0.49,0.34,0.83
				c0,0.57-0.36,0.95-0.82,1.11v0.02c0.34,0.12,0.54,0.43,0.64,0.88c0.14,0.61,0.25,1.03,0.34,1.19h-0.58
				c-0.07-0.12-0.17-0.5-0.29-1.04c-0.13-0.6-0.36-0.83-0.87-0.84h-0.53v1.88h-0.56V353.47z M-521.61,355.45h0.57
				c0.6,0,0.98-0.33,0.98-0.83c0-0.56-0.41-0.81-1-0.81c-0.27,0-0.46,0.03-0.55,0.05V355.45z"/>
			<path class="st58" d="M-517.45,356.4l-0.45,1.37h-0.58l1.48-4.35h0.68l1.48,4.35h-0.6l-0.46-1.37H-517.45z M-516.02,355.96
				l-0.43-1.25c-0.1-0.28-0.16-0.54-0.23-0.79h-0.01c-0.06,0.26-0.14,0.52-0.22,0.79l-0.43,1.26H-516.02z"/>
			<path class="st58" d="M-513.69,357.76v-4.35h0.61l1.39,2.2c0.32,0.51,0.57,0.97,0.78,1.41l0.01-0.01
				c-0.05-0.58-0.06-1.11-0.06-1.79v-1.82h0.53v4.35h-0.57l-1.38-2.21c-0.3-0.48-0.59-0.98-0.81-1.45l-0.02,0.01
				c0.03,0.55,0.05,1.07,0.05,1.79v1.86H-513.69z"/>
			<path class="st58" d="M-505.89,357.62c-0.21,0.1-0.62,0.21-1.15,0.21c-1.23,0-2.15-0.77-2.15-2.2c0-1.36,0.92-2.28,2.27-2.28
				c0.54,0,0.88,0.12,1.03,0.19l-0.14,0.46c-0.21-0.1-0.52-0.18-0.88-0.18c-1.02,0-1.7,0.65-1.7,1.79c0,1.06,0.61,1.75,1.67,1.75
				c0.34,0,0.69-0.07,0.92-0.18L-505.89,357.62z"/>
			<path class="st58" d="M-502.42,355.73h-1.69v1.57h1.88v0.47h-2.44v-4.35h2.35v0.47h-1.79v1.37h1.69V355.73z"/>
			<path class="st58" d="M-499.1,353.47c0.27-0.05,0.63-0.08,1.08-0.08c0.55,0,0.96,0.13,1.22,0.36c0.24,0.21,0.38,0.52,0.38,0.91
				c0,0.39-0.12,0.7-0.34,0.93c-0.3,0.32-0.78,0.48-1.33,0.48c-0.17,0-0.32-0.01-0.45-0.04v1.74h-0.56V353.47z M-498.54,355.56
				c0.12,0.03,0.28,0.04,0.46,0.04c0.68,0,1.09-0.33,1.09-0.93c0-0.57-0.41-0.85-1.03-0.85c-0.25,0-0.43,0.02-0.53,0.05V355.56z"/>
			<path class="st58" d="M-495,356.4l-0.45,1.37h-0.58l1.48-4.35h0.68l1.48,4.35h-0.6l-0.46-1.37H-495z M-493.57,355.96l-0.43-1.25
				c-0.1-0.28-0.16-0.54-0.23-0.79h-0.01c-0.06,0.26-0.14,0.52-0.22,0.79l-0.43,1.26H-493.57z"/>
			<path class="st58" d="M-491.24,353.47c0.28-0.06,0.69-0.09,1.08-0.09c0.6,0,0.99,0.11,1.26,0.35c0.22,0.19,0.34,0.49,0.34,0.83
				c0,0.57-0.36,0.95-0.82,1.11v0.02c0.34,0.12,0.54,0.43,0.64,0.88c0.14,0.61,0.25,1.03,0.34,1.19h-0.58
				c-0.07-0.12-0.17-0.5-0.29-1.04c-0.13-0.6-0.36-0.83-0.87-0.84h-0.53v1.88h-0.56V353.47z M-490.68,355.45h0.57
				c0.6,0,0.98-0.33,0.98-0.83c0-0.56-0.41-0.81-1-0.81c-0.27,0-0.46,0.03-0.55,0.05V355.45z"/>
			<path class="st58" d="M-486.37,353.89h-1.32v-0.48h3.22v0.48h-1.33v3.87h-0.57V353.89z"/>
			<path class="st58" d="M-483.48,357.76v-4.35h0.61l1.39,2.2c0.32,0.51,0.57,0.97,0.78,1.41l0.01-0.01
				c-0.05-0.58-0.06-1.11-0.06-1.79v-1.82h0.53v4.35h-0.57l-1.38-2.21c-0.3-0.48-0.59-0.98-0.81-1.45l-0.02,0.01
				c0.03,0.55,0.05,1.07,0.05,1.79v1.86H-483.48z"/>
			<path class="st58" d="M-476.47,355.73h-1.69v1.57h1.88v0.47h-2.44v-4.35h2.35v0.47h-1.79v1.37h1.69V355.73z"/>
			<path class="st58" d="M-475.03,353.47c0.28-0.06,0.69-0.09,1.08-0.09c0.6,0,0.99,0.11,1.26,0.35c0.22,0.19,0.34,0.49,0.34,0.83
				c0,0.57-0.36,0.95-0.82,1.11v0.02c0.34,0.12,0.54,0.43,0.64,0.88c0.14,0.61,0.25,1.03,0.34,1.19h-0.58
				c-0.07-0.12-0.17-0.5-0.29-1.04c-0.13-0.6-0.36-0.83-0.87-0.84h-0.53v1.88h-0.56V353.47z M-474.47,355.45h0.57
				c0.6,0,0.98-0.33,0.98-0.83c0-0.56-0.41-0.81-1-0.81c-0.27,0-0.46,0.03-0.55,0.05V355.45z"/>
		</g>
	</g>
	<g>
		<g>
			<g>
				<path class="st58" d="M-565.98,333.06c0,0.02,0.1,0.24,0.29,0.68c0.19,0.43,0.45,1,0.76,1.69c0.32,0.69,0.68,1.48,1.09,2.38
					c0.41,0.89,0.83,1.8,1.25,2.73c0.43,0.93,0.84,1.84,1.25,2.73c0.41,0.89,0.77,1.69,1.09,2.39c0.32,0.7,0.57,1.27,0.76,1.71
					c0.19,0.44,0.29,0.68,0.29,0.71c0.13,0.23,0.14,0.46,0.01,0.69c-0.12,0.23-0.3,0.34-0.54,0.34c-0.58,0-1.03,0-1.35,0
					c-0.32,0-0.56-0.01-0.73-0.04c-0.17-0.02-0.29-0.06-0.36-0.11c-0.08-0.05-0.15-0.12-0.24-0.2c-0.75-0.9-1.66-1.56-2.74-1.96
					c-1.08-0.41-2.18-0.6-3.32-0.58c-1.13,0.02-2.24,0.25-3.32,0.69c-1.08,0.43-1.99,1.05-2.74,1.85c-0.05,0.08-0.11,0.15-0.18,0.2
					c-0.07,0.05-0.18,0.09-0.35,0.11c-0.17,0.03-0.41,0.04-0.73,0.04c-0.32,0-0.75,0-1.3,0c-0.28,0-0.48-0.11-0.6-0.34
					c-0.12-0.23-0.14-0.45-0.08-0.69c1.25-2.69,2.29-4.94,3.13-6.76c0.83-1.82,1.52-3.31,2.05-4.48c0.53-1.17,0.95-2.06,1.25-2.68
					c0.3-0.62,0.54-1.08,0.71-1.38c0.17-0.3,0.32-0.5,0.43-0.59c0.11-0.09,0.24-0.19,0.39-0.29c0.32-0.2,0.66-0.32,1.04-0.36
					c0.38-0.04,0.74-0.01,1.09,0.09c0.35,0.1,0.67,0.27,0.96,0.51C-566.4,332.38-566.17,332.69-565.98,333.06z M-572.59,344.26
					c0.63-0.23,1.31-0.41,2.01-0.54c0.71-0.13,1.43-0.19,2.15-0.2c0.73-0.01,1.44,0.04,2.15,0.15c0.71,0.11,1.38,0.26,2.01,0.46
					c-0.12-0.25-0.2-0.44-0.26-0.56c-0.06-0.13-0.13-0.27-0.2-0.43c-0.08-0.16-0.18-0.38-0.31-0.66c-0.13-0.28-0.34-0.72-0.61-1.3
					c-0.28-0.58-0.63-1.36-1.08-2.33c-0.44-0.97-1.01-2.22-1.71-3.75c-0.7,1.48-1.27,2.71-1.7,3.67c-0.43,0.96-0.78,1.73-1.05,2.31
					c-0.27,0.58-0.47,1.03-0.6,1.33c-0.13,0.3-0.24,0.54-0.31,0.73c-0.08,0.18-0.15,0.35-0.21,0.5
					C-572.38,343.79-572.47,344-572.59,344.26z"/>
				<path class="st58" d="M-558.9,331.73c0.32-0.22,0.67-0.33,1.05-0.33c0.38,0,0.73,0.11,1.05,0.33c0.32,0.22,0.48,0.54,0.48,0.98
					v9.93c0,0.65,0.1,1.22,0.31,1.71c0.21,0.49,0.48,0.9,0.81,1.23c0.33,0.33,0.72,0.57,1.16,0.73c0.44,0.16,0.89,0.24,1.34,0.24
					c0.47,0,0.92-0.08,1.36-0.25c0.44-0.17,0.84-0.41,1.19-0.74c0.35-0.33,0.63-0.73,0.85-1.21c0.22-0.48,0.33-1.05,0.33-1.7
					c0-0.5-0.1-1-0.31-1.49c-0.21-0.49-0.5-0.93-0.86-1.3c-0.37-0.38-0.81-0.66-1.33-0.85c-0.52-0.19-1.08-0.25-1.7-0.19
					c-0.42,0.05-0.76-0.05-1.01-0.3c-0.26-0.25-0.42-0.54-0.48-0.88c-0.06-0.33,0-0.65,0.16-0.96c0.17-0.31,0.47-0.49,0.9-0.54
					c1.1-0.15,2.14-0.06,3.13,0.28c0.98,0.33,1.83,0.84,2.54,1.51c0.71,0.68,1.25,1.49,1.61,2.44c0.37,0.95,0.49,1.96,0.38,3.03
					c-0.08,0.82-0.31,1.59-0.69,2.3c-0.38,0.72-0.86,1.34-1.46,1.86c-0.6,0.53-1.29,0.94-2.06,1.24c-0.78,0.3-1.61,0.45-2.49,0.45
					c-0.93,0-1.81-0.17-2.63-0.51c-0.82-0.34-1.53-0.81-2.14-1.41c-0.61-0.6-1.09-1.3-1.44-2.1c-0.35-0.8-0.53-1.66-0.53-2.58v-9.93
					C-559.38,332.27-559.22,331.95-558.9,331.73z"/>
				<path class="st58" d="M-544.39,337.96c0-0.52,0.16-0.9,0.48-1.15c0.32-0.25,0.67-0.38,1.05-0.38c0.38,0,0.73,0.13,1.05,0.38
					s0.48,0.63,0.48,1.15v9.43c0,0.5-0.16,0.88-0.48,1.14c-0.32,0.26-0.67,0.39-1.05,0.39c-0.38,0-0.73-0.13-1.05-0.39
					c-0.32-0.26-0.48-0.64-0.48-1.14V337.96z M-542.89,334.41c-0.5,0-0.87-0.15-1.11-0.46c-0.24-0.31-0.36-0.65-0.36-1.03
					c0-0.38,0.13-0.72,0.38-1.04c0.25-0.32,0.63-0.48,1.15-0.48c0.5,0,0.88,0.16,1.13,0.48c0.25,0.32,0.38,0.66,0.38,1.04
					c0,0.38-0.13,0.72-0.39,1.03C-541.98,334.25-542.37,334.41-542.89,334.41z"/>
				<path class="st58" d="M-536.28,347.44c0,0.48-0.16,0.85-0.49,1.1c-0.33,0.25-0.68,0.38-1.06,0.38c-0.38,0-0.73-0.12-1.04-0.36
					c-0.31-0.24-0.46-0.61-0.46-1.11v-5.13c0.02-0.87,0.19-1.66,0.53-2.36c0.33-0.71,0.74-1.31,1.21-1.8
					c0.48-0.49,0.98-0.87,1.53-1.14c0.54-0.27,1.04-0.4,1.49-0.4c0.42,0,0.75,0.12,1.01,0.35c0.26,0.23,0.39,0.59,0.39,1.08
					c0-0.05,0-0.02,0,0.1c0,0.12-0.02,0.26-0.08,0.43c-0.05,0.17-0.15,0.34-0.29,0.53c-0.14,0.18-0.36,0.33-0.66,0.43
					c-0.65,0.23-1.13,0.55-1.43,0.94c-0.3,0.39-0.5,0.91-0.59,1.54c-0.09,0.63-0.13,1.4-0.1,2.29
					C-536.29,345.17-536.28,346.22-536.28,347.44z"/>
				<path class="st58" d="M-532.65,342.66c0-0.9,0.17-1.75,0.52-2.55c0.35-0.8,0.82-1.5,1.42-2.1c0.6-0.6,1.31-1.08,2.12-1.43
					c0.82-0.35,1.7-0.53,2.65-0.53c0.95,0,1.83,0.17,2.65,0.52c0.82,0.35,1.53,0.82,2.14,1.43c0.61,0.61,1.09,1.31,1.44,2.11
					c0.35,0.8,0.52,1.66,0.52,2.58v4.93c0,0.45-0.16,0.79-0.47,1.01c-0.31,0.23-0.66,0.34-1.04,0.34c-0.38,0-0.73-0.11-1.05-0.34
					c-0.32-0.23-0.48-0.56-0.48-1.01v-4.93c0-0.65-0.1-1.22-0.31-1.7c-0.21-0.48-0.48-0.89-0.82-1.21
					c-0.33-0.33-0.72-0.57-1.17-0.73c-0.44-0.16-0.89-0.24-1.34-0.24c-0.47,0-0.92,0.08-1.37,0.24c-0.44,0.16-0.84,0.4-1.19,0.72
					c-0.35,0.32-0.63,0.73-0.84,1.21c-0.21,0.48-0.31,1.05-0.31,1.7c0,0.48,0.09,0.95,0.26,1.41c0.17,0.46,0.43,0.87,0.75,1.23
					c0.33,0.37,0.71,0.66,1.16,0.88c0.45,0.22,0.94,0.34,1.48,0.34c0.1,0,0.23-0.01,0.4-0.02c0.17-0.02,0.35-0.01,0.54,0.02
					c0.19,0.03,0.38,0.11,0.55,0.23c0.18,0.12,0.32,0.31,0.44,0.58c0.13,0.32,0.17,0.6,0.12,0.84c-0.05,0.24-0.17,0.45-0.35,0.61
					c-0.18,0.17-0.43,0.29-0.74,0.38c-0.31,0.08-0.65,0.13-1.01,0.13c-0.65,0-1.36-0.13-2.14-0.4c-0.78-0.27-1.5-0.67-2.17-1.21
					c-0.67-0.54-1.23-1.23-1.68-2.06C-532.43,344.78-532.65,343.8-532.65,342.66z"/>
				<path class="st58" d="M-516.69,331.8c0.32-0.25,0.67-0.38,1.05-0.38s0.73,0.13,1.05,0.38c0.32,0.25,0.48,0.63,0.48,1.15v7.68
					c0.6,0,1.17-0.09,1.7-0.28c0.53-0.18,1.03-0.43,1.5-0.75c0.47-0.32,0.9-0.69,1.3-1.13c0.4-0.43,0.76-0.9,1.08-1.4
					c0.15-0.23,0.33-0.4,0.54-0.51c0.21-0.11,0.43-0.16,0.66-0.16c0.25,0,0.49,0.06,0.73,0.18c0.23,0.12,0.42,0.28,0.55,0.48
					c0.13,0.2,0.21,0.43,0.23,0.7c0.02,0.27-0.07,0.56-0.25,0.88c-0.62,1.03-1.41,1.93-2.36,2.7c-0.96,0.77-1.99,1.32-3.09,1.65
					c0.47,0.88,1.17,1.61,2.11,2.18c0.94,0.57,2.16,0.85,3.64,0.85c0.47,0,0.83,0.15,1.08,0.45c0.25,0.3,0.38,0.63,0.38,1
					c0,0.37-0.12,0.7-0.36,1c-0.24,0.3-0.61,0.45-1.09,0.45c0.03,0-0.07,0-0.33,0.01c-0.25,0.01-0.6-0.01-1.04-0.06
					c-0.44-0.05-0.96-0.15-1.54-0.29c-0.58-0.14-1.19-0.36-1.83-0.66c-0.63-0.3-1.26-0.7-1.89-1.19c-0.63-0.49-1.2-1.11-1.71-1.86
					v2.53c0,0.5-0.16,0.88-0.49,1.14c-0.33,0.26-0.68,0.39-1.06,0.39c-0.38,0-0.73-0.13-1.04-0.38c-0.31-0.25-0.46-0.63-0.46-1.15
					v-14.44C-517.17,332.44-517.01,332.05-516.69,331.8z"/>
				<path class="st58" d="M-497.6,338.98c-0.2-0.1-0.45-0.18-0.74-0.25c-0.29-0.07-0.58-0.1-0.88-0.09
					c-0.29,0.01-0.55,0.08-0.78,0.2c-0.23,0.13-0.37,0.32-0.44,0.59c-0.07,0.25-0.02,0.45,0.13,0.61c0.15,0.16,0.37,0.3,0.65,0.44
					c0.28,0.13,0.62,0.27,1,0.4c0.38,0.13,0.78,0.29,1.18,0.48c0.4,0.18,0.79,0.41,1.16,0.69c0.38,0.28,0.7,0.62,0.96,1.04
					c0.38,0.57,0.59,1.16,0.63,1.78c0.03,0.62-0.07,1.2-0.3,1.74c-0.23,0.54-0.58,1.03-1.03,1.48c-0.45,0.44-0.97,0.77-1.56,0.99
					s-1.23,0.3-1.91,0.26c-0.68-0.04-1.38-0.27-2.08-0.69c-0.23-0.13-0.44-0.28-0.61-0.43c-0.17-0.15-0.34-0.32-0.49-0.5
					c-0.18-0.17-0.3-0.36-0.36-0.58c-0.06-0.22-0.07-0.43-0.04-0.64c0.03-0.21,0.11-0.41,0.23-0.6c0.12-0.19,0.28-0.35,0.48-0.46
					c0.35-0.17,0.66-0.17,0.94-0.02c0.28,0.15,0.54,0.34,0.79,0.58c0.22,0.22,0.49,0.38,0.81,0.49c0.33,0.11,0.65,0.15,0.96,0.13
					c0.32-0.02,0.61-0.12,0.88-0.28c0.27-0.16,0.45-0.4,0.55-0.71c0.1-0.4,0.08-0.73-0.07-0.98c-0.15-0.25-0.38-0.47-0.68-0.65
					c-0.3-0.18-0.66-0.35-1.06-0.49c-0.41-0.14-0.82-0.3-1.24-0.48c-0.42-0.18-0.82-0.39-1.2-0.65c-0.38-0.26-0.71-0.59-0.98-0.99
					c-0.23-0.35-0.37-0.79-0.43-1.31c-0.05-0.53,0.02-1.05,0.2-1.56c0.18-0.52,0.5-0.98,0.94-1.4c0.44-0.42,1.03-0.69,1.76-0.83
					c0.57-0.17,1.21-0.2,1.93-0.1c0.72,0.1,1.38,0.32,2,0.65c0.42,0.23,0.66,0.52,0.74,0.85c0.07,0.33,0.02,0.63-0.15,0.89
					c-0.18,0.26-0.43,0.45-0.78,0.56C-496.83,339.25-497.2,339.2-497.6,338.98z"/>
				<path class="st58" d="M-490.5,348.53c-0.32,0.26-0.67,0.39-1.05,0.39c-0.38,0-0.73-0.13-1.04-0.38
					c-0.31-0.25-0.47-0.63-0.47-1.15v-14.44c0-0.5,0.16-0.88,0.48-1.14c0.32-0.26,0.67-0.39,1.05-0.39c0.38,0,0.73,0.13,1.04,0.37
					c0.31,0.25,0.47,0.63,0.47,1.15l0.02,4.44c0.53-0.46,1.1-0.8,1.71-1.02c0.61-0.22,1.22-0.32,1.84-0.32c0.7,0,1.38,0.13,2.03,0.4
					c0.66,0.27,1.24,0.66,1.75,1.18c0.51,0.52,0.91,1.14,1.22,1.88c0.31,0.73,0.46,1.56,0.46,2.48v5.4c0,0.5-0.16,0.88-0.47,1.14
					c-0.31,0.26-0.66,0.39-1.04,0.39c-0.38,0-0.73-0.13-1.05-0.39c-0.32-0.26-0.48-0.64-0.48-1.14v-5.42c0-0.48-0.09-0.91-0.26-1.27
					c-0.18-0.36-0.4-0.66-0.68-0.9c-0.28-0.24-0.6-0.43-0.96-0.55c-0.36-0.12-0.72-0.19-1.09-0.19c-0.39,0-0.75,0.06-1.11,0.19
					c-0.35,0.13-0.67,0.31-0.95,0.55c-0.29,0.24-0.51,0.54-0.68,0.9c-0.17,0.36-0.25,0.78-0.25,1.27v5.42
					C-490.02,347.89-490.18,348.27-490.5,348.53z"/>
				<path class="st58" d="M-479.46,342.66c0-0.9,0.17-1.75,0.52-2.55c0.35-0.8,0.82-1.5,1.42-2.1c0.6-0.6,1.31-1.08,2.12-1.43
					c0.82-0.35,1.7-0.53,2.65-0.53c0.95,0,1.83,0.17,2.65,0.52c0.82,0.35,1.53,0.82,2.14,1.43c0.61,0.61,1.09,1.31,1.44,2.11
					c0.35,0.8,0.52,1.66,0.52,2.58v4.93c0,0.45-0.16,0.79-0.47,1.01c-0.31,0.23-0.66,0.34-1.04,0.34c-0.38,0-0.73-0.11-1.05-0.34
					c-0.32-0.23-0.48-0.56-0.48-1.01v-4.93c0-0.65-0.1-1.22-0.31-1.7c-0.21-0.48-0.48-0.89-0.82-1.21
					c-0.33-0.33-0.72-0.57-1.17-0.73c-0.44-0.16-0.89-0.24-1.34-0.24c-0.47,0-0.92,0.08-1.37,0.24c-0.44,0.16-0.84,0.4-1.19,0.72
					c-0.35,0.32-0.63,0.73-0.84,1.21c-0.21,0.48-0.31,1.05-0.31,1.7c0,0.48,0.09,0.95,0.26,1.41c0.17,0.46,0.43,0.87,0.75,1.23
					c0.33,0.37,0.71,0.66,1.16,0.88c0.45,0.22,0.94,0.34,1.48,0.34c0.1,0,0.23-0.01,0.4-0.02c0.17-0.02,0.35-0.01,0.54,0.02
					c0.19,0.03,0.38,0.11,0.55,0.23c0.18,0.12,0.32,0.31,0.44,0.58c0.13,0.32,0.17,0.6,0.12,0.84c-0.05,0.24-0.17,0.45-0.35,0.61
					c-0.18,0.17-0.43,0.29-0.74,0.38c-0.31,0.08-0.65,0.13-1.01,0.13c-0.65,0-1.36-0.13-2.14-0.4c-0.78-0.27-1.5-0.67-2.17-1.21
					c-0.67-0.54-1.23-1.23-1.68-2.06C-479.24,344.78-479.46,343.8-479.46,342.66z"/>
			</g>
		</g>
	</g>
	<g>
		<g>
			<g>
				
					<linearGradient id="SVGID_00000038371972421887264130000017591643197037225148_" gradientUnits="userSpaceOnUse" x1="-545.567" y1="285.935" x2="-492.1264" y2="285.935">
					<stop  offset="0" style="stop-color:#00ADEE"/>
					<stop  offset="1" style="stop-color:#2E3191"/>
				</linearGradient>
				<path style="fill:url(#SVGID_00000038371972421887264130000017591643197037225148_);" d="M-545.57,296.23v-35.35h53.44
					c0,0,0,9.83,0,17.24c0,7.41-4.58,15.58-13.41,20.58s-18.58,7.91-23.83,9.91c-5.25,2-7.73,2.37-7.73,2.37s5.98-4.79,17.4-9.96
					c11.41-5.16,23.24-13.25,23.24-26.91c0-5.58-1.25-8.16-1.25-8.16s-0.05,11.26-7.41,18.49c-9.33,9.16-31.56,15.04-37.97,18.62
					c0,0,4.32-4.37,20.48-11.79c16.16-7.41,17.99-16.33,18.66-21.41c0.67-5.08-0.83-7.5-0.83-7.5s-1,10.91-12.5,17.91
					c-11.5,7-16.53,8.09-21.92,11.66C-543.56,294.83-545.57,296.23-545.57,296.23z"/>
				
					<linearGradient id="SVGID_00000047051707112074444890000012925024396028383414_" gradientUnits="userSpaceOnUse" x1="-527.4542" y1="307.0322" x2="-492.5297" y2="307.0322">
					<stop  offset="0" style="stop-color:#00ADEE"/>
					<stop  offset="1" style="stop-color:#2E3191"/>
				</linearGradient>
				<path style="fill:url(#SVGID_00000047051707112074444890000012925024396028383414_);" d="M-516.96,319.81
					c-1.92,1.17-3.33,2.3-3.33,2.3l-7.16-4.58c0,0,2.59-3,11.92-7.25c9.33-4.25,11-4.25,16.16-8.75c5.16-4.5,6.83-9.58,6.83-9.58
					s0.58,12.41-6,17.99"/>
			</g>
			<path class="st1" d="M-539.11,272.53c0,0-0.61-1.76,0.72-3.05c1.33-1.29,2.01-1.11,2.01-1.11s-0.18-2.48,5.07-3.16
				c5.25-0.68,6.54,0.22,6.54,0.22s-1.94,0.14-2.66,0.9c0,0,3.22,1.23,5.84,4.44c1.61,1.97,3.67,4.97,2.78,6.17
				c-3.18,4.28-13.13,5.47-20.89,13.13c0,0,6.83-8.42,7.77-11.66c0.93-3.23,0.47-5.93-0.79-6.94c-1.26-1.01-3.27-1.37-4.42-0.93
				C-538.28,270.95-539.11,272.53-539.11,272.53z"/>
		</g>
	</g>
</g>
</svg>
