<?xml version="1.0" encoding="utf-8"?>
<!-- Generator: Adobe Illustrator 26.0.1, SVG Export Plug-In . SVG Version: 6.00 Build 0)  -->
<svg version="1.1" id="Capa_1" xmlns="http://www.w3.org/2000/svg" xmlns:xlink="http://www.w3.org/1999/xlink" x="0px" y="0px"
	 viewBox="0 0 2083.76 1596.71" style="enable-background:new 0 0 2083.76 1596.71;" xml:space="preserve">
<style type="text/css">
	.st0{fill:#EAEAEA;}
	.st1{fill:url(#SVGID_1_);}
	.st2{fill:url(#SVGID_00000003817616467206170070000005208532263498976413_);}
	.st3{fill:#FFFFFF;}
	.st4{fill:#221832;}
	.st5{fill:#E1EAF5;}
	.st6{fill:#BED2E6;}
	.st7{fill:#89A5C7;}
	.st8{fill:#BF9A93;}
	.st9{fill:#23282A;}
	.st10{fill:#152831;}
	.st11{fill:#8D463A;}
	.st12{fill:#1F343B;}
	.st13{fill:#C9DCE8;}
	.st14{fill:#DDF0ED;}
	.st15{fill:#F37C7B;}
	.st16{fill:#55362E;}
	.st17{fill:#F7A18D;}
	.st18{fill:#F5EDEA;}
	.st19{fill:#506982;}
	.st20{fill:#F05F89;}
	.st21{fill:#D3E3EC;}
	.st22{fill:#A25A48;}
	.st23{fill:#F9B4A1;}
	.st24{fill:#30444D;}
	.st25{fill:#39201D;}
	.st26{fill:#233E81;}
	.st27{font-family:'Montserrat-Bold';}
	.st28{font-size:60px;}
	.st29{fill:#4C3B61;}
	.st30{fill:#FDFBE0;}
	.st31{fill:#130825;}
	.st32{fill:#EBA394;}
	.st33{fill:#DB8D7F;}
	.st34{fill:#F8A491;}
	.st35{fill:#625379;}
	.st36{fill:#F6F5F4;}
	.st37{fill:#5D3A32;}
	.st38{fill:#16111D;}
	.st39{fill:#331B17;}
	.st40{fill:url(#SVGID_00000172428884022105903020000006829985739304799132_);}
	.st41{fill:url(#SVGID_00000172410365340373293600000004895629945940170661_);}
	.st42{fill:url(#SVGID_00000026858506966265901660000015215378816823730085_);}
	.st43{fill:url(#SVGID_00000165919218096870785270000013382559695084700095_);}
	.st44{fill:url(#SVGID_00000142896535574688964340000010762304003930882439_);}
	.st45{fill:#E9DAC3;}
	.st46{fill:#C4B29D;}
	.st47{fill:#DEC9AF;}
	.st48{fill:#080709;}
	.st49{fill:#BE6E67;}
	.st50{fill:#A95D59;}
	.st51{fill:#AE8064;}
	.st52{fill:#896853;}
	.st53{fill:#745C4E;}
	.st54{fill:#BFDEE3;}
	.st55{fill:#73AB8F;}
	.st56{fill:#4EC6DD;}
	.st57{fill:#4EA3CE;}
	.st58{fill:#F2EDE8;}
	.st59{fill:#DAD4CF;}
</style>
<path class="st0" d="M84.72,1423.93c0,32.84,435.97,59.47,973.77,59.47c537.79,0,973.76-26.62,973.76-59.47
	c0-32.85-435.97-59.47-973.76-59.47C520.69,1364.46,84.72,1391.09,84.72,1423.93z"/>
<g>
	<g>
		<g>
			<linearGradient id="SVGID_1_" gradientUnits="userSpaceOnUse" x1="454.7463" y1="933.4111" x2="1088.9257" y2="933.4111">
				<stop  offset="0" style="stop-color:#29ABE2"/>
				<stop  offset="1" style="stop-color:#2D368F"/>
			</linearGradient>
			<path class="st1" d="M1073.37,510.63H906.07v13.19h157.88c8.33,0,15.07,6.75,15.07,15.09v789.01c0,8.33-6.74,15.08-15.07,15.08
				H479.71c-8.32,0-15.07-6.75-15.07-15.08V538.91c0-8.34,6.75-15.09,15.07-15.09h141.03v-13.19H470.31
				c-8.59,0-15.56,6.96-15.56,15.56v814.46c0,8.58,6.97,15.55,15.56,15.55h603.06c8.6,0,15.56-6.97,15.56-15.55V526.19
				C1088.93,517.59,1081.97,510.63,1073.37,510.63z"/>
			
				<linearGradient id="SVGID_00000079468149764564941770000002014012829265823165_" gradientUnits="userSpaceOnUse" x1="464.6452" y1="933.4111" x2="1079.0236" y2="933.4111">
				<stop  offset="0" style="stop-color:#29ABE2"/>
				<stop  offset="1" style="stop-color:#2D368F"/>
			</linearGradient>
			<path style="fill:url(#SVGID_00000079468149764564941770000002014012829265823165_);" d="M1059.1,532.66v399.6v372.07H484.57
				V1003.5V532.66h136.17v-8.84H479.71c-8.32,0-15.07,6.75-15.07,15.09v789.01c0,8.33,6.75,15.08,15.07,15.08h584.24
				c8.33,0,15.07-6.75,15.07-15.08V538.91c0-8.34-6.74-15.09-15.07-15.09H906.07v8.84H1059.1z"/>
			<path class="st3" d="M607.06,834.25h-61.03c-3.77,0-6.84,3.07-6.84,6.84v61.02c0,3.78,3.08,6.84,6.84,6.84h61.03
				c3.78,0,6.84-3.06,6.84-6.84V841.1C613.9,837.32,610.84,834.25,607.06,834.25z"/>
			<path class="st3" d="M546.03,1017.51h61.03c3.78,0,6.84-3.07,6.84-6.86v-61.02c0-3.76-3.06-6.83-6.84-6.83h-61.03
				c-3.77,0-6.84,3.07-6.84,6.83v61.02C539.19,1014.44,542.27,1017.51,546.03,1017.51z"/>
			<path class="st3" d="M484.57,1003.5c16.12,4.54,32.36,8.55,48.73,12.09c-0.59-1.54-0.95-3.19-0.95-4.94v-61.02
				c0-7.54,6.13-13.69,13.69-13.69h61.03c7.55,0,13.68,6.14,13.68,13.69v61.02c0,7.57-6.13,13.7-13.68,13.7h-27.01
				c3.12,0.49,6.23,0.99,9.35,1.46c89.44,13.24,179.81,12.62,267.16-7.33h-215.4v-15.38h270.56c5.25-1.74,10.5-3.54,15.73-5.44
				c8.51-3.07,16.93-6.39,25.3-9.83H641.17v-15.38h346.19c24.73-11.87,48.73-25.25,71.74-40.19v-399.6H906.07v27.89
				c0,8.59-6.97,15.56-15.58,15.56H636.31c-8.6,0-15.56-6.97-15.56-15.56v-27.89H484.57V1003.5z M620.74,902.12
				c0,7.56-6.13,13.69-13.68,13.69h-61.03c-7.56,0-13.69-6.13-13.69-13.69V841.1c0-7.56,6.13-13.69,13.69-13.69h61.03
				c7.55,0,13.68,6.13,13.68,13.69V902.12z M1015.66,957.2H641.17v-15.37h374.48V957.2z M1015.66,915.81H641.17v-15.38h374.48
				V915.81z M1015.66,885.18H641.17v-15.39h374.48V885.18z M1015.66,854.53H641.17v-15.38h374.48V854.53z M526.41,648.74
				c0-8.6,6.96-15.55,15.55-15.55h120.6c8.6,0,15.58,6.95,15.58,15.55v120.62c0,8.58-6.98,15.55-15.58,15.55h-120.6
				c-8.59,0-15.55-6.97-15.55-15.55V648.74z"/>
			<path class="st4" d="M620.74,532.66v27.89c0,8.59,6.97,15.56,15.56,15.56H890.5c8.6,0,15.58-6.97,15.58-15.56v-27.89v-8.84
				v-13.19v-9.73c0-8.6-6.97-15.56-15.58-15.56h-80.4c0,0-21.39-12.72-5.29-41.65c5.78-8.21,9.18-18.23,9.18-29.04
				c0-27.94-22.64-50.58-50.59-50.58c-27.93,0-50.57,22.65-50.57,50.58c0,10.8,3.41,20.82,9.18,29.04
				c16.11,28.92-5.29,41.65-5.29,41.65h-80.41c-8.6,0-15.56,6.96-15.56,15.56v9.73v13.19V532.66z M889.54,551.48H637.29
				c-3.04,0-5.52-2.48-5.52-5.51c0-3.05,2.47-5.51,5.52-5.51h252.25c3.04,0,5.5,2.46,5.5,5.51
				C895.04,549,892.58,551.48,889.54,551.48z M763.4,390.02c12.91,0,23.36,10.45,23.36,23.33c0,12.9-10.45,23.36-23.36,23.36
				c-12.89,0-23.33-10.46-23.33-23.36C740.06,400.47,750.51,390.02,763.4,390.02z"/>
			<path class="st5" d="M607.06,1047.46h-61.03c-3.77,0-6.84,3.05-6.84,6.83v61.04c0,3.76,3.08,6.84,6.84,6.84h61.03
				c3.78,0,6.84-3.07,6.84-6.84v-61.04C613.9,1050.51,610.84,1047.46,607.06,1047.46z"/>
			<path class="st5" d="M1015.66,972.45v15.38h-62.89c-8.38,3.45-16.8,6.77-25.3,9.83c-5.23,1.9-10.48,3.7-15.73,5.44h103.92v15.38
				H856.57c-87.35,19.95-177.72,20.58-267.16,7.33c-3.13-0.47-6.24-0.97-9.35-1.46h-34.02c-5.82,0-10.76-3.66-12.74-8.77
				c-16.36-3.54-32.6-7.55-48.73-12.09v300.82h574.53V932.26c-23.01,14.94-47.01,28.33-71.74,40.19H1015.66z M620.74,1219.98
				c0,7.55-6.13,13.69-13.68,13.69h-61.03c-7.56,0-13.69-6.13-13.69-13.69v-61.02c0-7.56,6.13-13.69,13.69-13.69h61.03
				c7.55,0,13.68,6.13,13.68,13.69V1219.98z M620.74,1115.33c0,7.56-6.13,13.68-13.68,13.68h-61.03c-7.56,0-13.69-6.12-13.69-13.68
				v-61.04c0-7.55,6.13-13.68,13.69-13.68h61.03c7.55,0,13.68,6.13,13.68,13.68V1115.33z M1015.66,1227.81H641.17v-15.38h374.48
				V1227.81z M1015.66,1197.16H641.17v-15.4h374.48V1197.16z M1015.66,1166.53H641.17v-15.4h374.48V1166.53z M1015.66,1123.13
				H641.17v-15.38h374.48V1123.13z M1015.66,1092.5H641.17v-15.37h374.48V1092.5z M1015.66,1061.86H641.17v-15.38h374.48V1061.86z"
				/>
			<path class="st5" d="M607.06,1152.11h-61.03c-3.77,0-6.84,3.08-6.84,6.85v61.02c0,3.77,3.08,6.84,6.84,6.84h61.03
				c3.78,0,6.84-3.07,6.84-6.84v-61.02C613.9,1155.19,610.84,1152.11,607.06,1152.11z"/>
			<path class="st3" d="M889.54,540.46H637.29c-3.04,0-5.52,2.46-5.52,5.51c0,3.03,2.47,5.51,5.52,5.51h252.25
				c3.04,0,5.5-2.48,5.5-5.51C895.04,542.92,892.58,540.46,889.54,540.46z"/>
			<path class="st6" d="M541.96,784.92h120.6c8.6,0,15.58-6.97,15.58-15.55V648.74c0-8.6-6.98-15.55-15.58-15.55h-120.6
				c-8.59,0-15.55,6.95-15.55,15.55v120.62C526.41,777.95,533.37,784.92,541.96,784.92z"/>
			<path class="st7" d="M607.06,827.4h-61.03c-7.56,0-13.69,6.13-13.69,13.69v61.02c0,7.56,6.13,13.69,13.69,13.69h61.03
				c7.55,0,13.68-6.13,13.68-13.69V841.1C620.74,833.54,614.61,827.4,607.06,827.4z M613.9,902.12c0,3.78-3.06,6.84-6.84,6.84
				h-61.03c-3.77,0-6.84-3.06-6.84-6.84V841.1c0-3.77,3.08-6.84,6.84-6.84h61.03c3.78,0,6.84,3.07,6.84,6.84V902.12z"/>
			<path class="st7" d="M546.03,1024.36h34.02h27.01c7.55,0,13.68-6.13,13.68-13.7v-61.02c0-7.54-6.13-13.69-13.68-13.69h-61.03
				c-7.56,0-13.69,6.14-13.69,13.69v61.02c0,1.75,0.35,3.4,0.95,4.94C535.28,1020.69,540.21,1024.36,546.03,1024.36z M539.19,949.64
				c0-3.76,3.08-6.83,6.84-6.83h61.03c3.78,0,6.84,3.07,6.84,6.83v61.02c0,3.78-3.06,6.86-6.84,6.86h-61.03
				c-3.77,0-6.84-3.07-6.84-6.86V949.64z"/>
			<path class="st7" d="M607.06,1040.61h-61.03c-7.56,0-13.69,6.13-13.69,13.68v61.04c0,7.56,6.13,13.68,13.69,13.68h61.03
				c7.55,0,13.68-6.12,13.68-13.68v-61.04C620.74,1046.74,614.61,1040.61,607.06,1040.61z M613.9,1115.33
				c0,3.76-3.06,6.84-6.84,6.84h-61.03c-3.77,0-6.84-3.07-6.84-6.84v-61.04c0-3.78,3.08-6.83,6.84-6.83h61.03
				c3.78,0,6.84,3.05,6.84,6.83V1115.33z"/>
			<path class="st7" d="M607.06,1145.27h-61.03c-7.56,0-13.69,6.13-13.69,13.69v61.02c0,7.55,6.13,13.69,13.69,13.69h61.03
				c7.55,0,13.68-6.13,13.68-13.69v-61.02C620.74,1151.4,614.61,1145.27,607.06,1145.27z M613.9,1219.98c0,3.77-3.06,6.84-6.84,6.84
				h-61.03c-3.77,0-6.84-3.07-6.84-6.84v-61.02c0-3.77,3.08-6.85,6.84-6.85h61.03c3.78,0,6.84,3.08,6.84,6.85V1219.98z"/>
			<rect x="641.17" y="839.15" class="st7" width="374.48" height="15.38"/>
			<rect x="641.17" y="869.78" class="st7" width="374.48" height="15.39"/>
			<rect x="641.17" y="900.43" class="st7" width="374.48" height="15.38"/>
			<rect x="641.17" y="941.83" class="st7" width="374.48" height="15.37"/>
			<polygon class="st7" points="1015.66,972.45 987.36,972.45 641.17,972.45 641.17,987.84 952.77,987.84 1015.66,987.84 			"/>
			<polygon class="st7" points="1015.66,1003.11 911.74,1003.11 641.17,1003.11 641.17,1018.48 856.57,1018.48 1015.66,1018.48 			
				"/>
			<rect x="641.17" y="1046.49" class="st7" width="374.48" height="15.38"/>
			<rect x="641.17" y="1077.12" class="st7" width="374.48" height="15.37"/>
			<rect x="641.17" y="1107.75" class="st7" width="374.48" height="15.38"/>
			<rect x="641.17" y="1151.13" class="st7" width="374.48" height="15.4"/>
			<rect x="641.17" y="1181.77" class="st7" width="374.48" height="15.4"/>
			<rect x="641.17" y="1212.43" class="st7" width="374.48" height="15.38"/>
		</g>
		<g>
			<path class="st8" d="M483.2,693.5l14.08-78.63l-5.84-1.05l-14.95,83.43c1.5-0.19,2.42-0.19,2.42-0.19S480.85,694.98,483.2,693.5z
				"/>
			<path class="st9" d="M343.91,1378.62c-6.98-1.08-29.77-15.76-33-18.98c-3.22-3.21-3.58-4.28-3.58-4.28l-0.15-1.98
				c-1.59,3.67-5.24,13.06-4.31,20.14c0,0.07,0.54,3.34,1.28,7.34c3.94,4.15,6.76,8.84,5,12.69c-0.24,0.53-0.85,1.1-1.71,1.63
				c0.09,0.19,0.18,0.33,0.26,0.38h3.49c0,0,5.2-12.5,10.56-11.91c5.51,2.43,12.05,5.33,20.02,10.24
				c12.73,7.85,28.46,3.11,30.02-0.35c3.06-6.71-7.65-15.92-14.19-20.43c-7.47-5.15-15.01-11.44-18.83-18.24
				c2.11,4.49,5.28,7.09,9.17,11.99C355.44,1376.32,350.88,1379.69,343.91,1378.62z"/>
			<path class="st9" d="M309.15,1393.56c1.76-3.85-1.06-8.54-5-12.69c-2.91-3.06-6.44-5.82-9.22-7.74
				c-7.45-5.15-14.98-11.42-18.82-18.22c2.11,4.48,5.27,7.07,9.16,11.98c7.52,9.44,2.95,12.81-4.02,11.74
				c-6.98-1.08-29.76-15.76-32.99-18.98c-3.22-3.21-3.59-4.28-3.59-4.28l-0.15-1.98c-1.58,3.67-5.23,13.06-4.31,20.14
				c0,0.18,3.49,21.05,4.82,22.05h3.48c0,0,5.21-12.5,10.55-11.91c5.52,2.43,12.06,5.33,20.02,10.24
				c10.78,6.64,23.65,4.27,28.34,1.28C308.3,1394.66,308.92,1394.08,309.15,1393.56z"/>
			<path class="st10" d="M346.56,945.85l-6.48-25.99h-38.32c0,0-3.53,54.32-11.56,54.3c-23.5-0.07-67.55-16.13-75.99-19.27
				c-5.71,22.59-10,53.09-5.37,86.81c7.54,54.75,19.36,116.21,19.36,116.21s0.82,0.03,2.29,0.11c7.11,0.33,30.27,1.31,59.41,1.46
				c1.1,0,2.22,0.01,3.34,0.01c18.47,0.04,39.09-0.25,59.43-1.27c1.94-0.11,3.89-0.2,5.82-0.31c0,0,16.42-101.53,13.59-184.58
				c-0.06,0.03-0.12,0.08-0.2,0.1C359.49,976.82,346.56,945.85,346.56,945.85z"/>
			<path class="st11" d="M327.86,606.72c1.02,3.46,1.82,7.41,2.41,11.92c0.5,3.71,0.83,7.22,1,10.63c0.01,0,0.01,0,0.03,0
				c0,0.08,0,0.15,0,0.24c0.07,1.37,0.09,2.72,0.09,4.05c0,0.32,0.03,0.67,0.03,0.98c4.34,3.61,7.05,7.14,7.15,7.28
				C339.88,625.57,334.27,614.21,327.86,606.72z"/>
			<path class="st12" d="M261.23,863.86V850.5c-14.93-0.38-30.6-1.91-42.72-5.73c-0.1,2.06-0.2,4.14-0.3,6.18
				c-0.03,0.32-0.04,0.66-0.05,0.98c-0.19,3.25-0.39,6.48-0.59,9.67l0,0C232.41,862.61,253.5,863.95,261.23,863.86z"/>
			<path class="st12" d="M301.67,878.71h-35.61c-1.39,0-2.62-0.59-3.5-1.52c-1.22,5.47-1.84,10.84,1.34,12.26
				c4.34,1.94,23.52,4.27,37.97,5.83C301.89,889.91,301.87,884.59,301.67,878.71z"/>
			<path class="st13" d="M281.69,727.16c2.32,14.5,4.89,30.68,7.29,46.16h38.13c-2.64-20.47-5.24-37.11-7.53-50.15l-15.53-16.49
				L281.69,727.16z"/>
			<path class="st13" d="M334.36,873.88c0,2.67-2.16,4.83-4.82,4.83h-27.87c0.19,5.88,0.22,11.2,0.19,16.57
				c-0.05,7.51-0.18,15.13-0.11,24.58h38.32c0,0-1.99-34.51-5.56-77.32c-0.05,0.02-0.11,0.04-0.16,0.05V873.88z"/>
			<path class="st14" d="M319.59,723.17c-3.16-18.01-5.71-29.14-6.92-34.09l-8.62,17.6L319.59,723.17z"/>
			<path class="st14" d="M276.36,694.13c1.38,8.5,3.25,20.08,5.33,33.03l22.36-20.48l-25.23-14.83
				C278.11,692.79,277.29,693.54,276.36,694.13z"/>
			<path class="st15" d="M314.39,649.14c4.09-0.94,4.28-6.71,4.28-6.71c0.12-1.03-0.53-1.2-1.48-1.42
				c-0.93-0.22-3.75,0.97-5.09,0.85c-1.34-0.12-4.15-2.17-4.9,0.57C306.48,645.18,310.29,650.08,314.39,649.14z M310.82,642.41
				c1.73,0.86,4.04,0.35,5.31-0.19c1.27-0.56,1.87,0.53,1.87,0.53c0.53,0.52-0.48,3.48-3.46,4.15c-2.98,0.67-5.77-1.71-6.17-2.97
				C307.95,642.64,309.07,641.54,310.82,642.41z"/>
			<path class="st16" d="M300.61,626.25c0,1.48,0.78,2.65,1.72,2.65c0.95,0,1.72-1.17,1.72-2.65c0-1.47-0.77-2.67-1.72-2.67
				C301.38,623.58,300.61,624.78,300.61,626.25z"/>
			<path class="st16" d="M324.59,626.25c0-1.47-0.77-2.67-1.72-2.67s-1.72,1.19-1.72,2.67c0,1.48,0.77,2.65,1.72,2.65
				S324.59,627.73,324.59,626.25z"/>
			<path class="st17" d="M311.14,620.58c-0.24,1.14-1.9,16.58-1.1,17.58c0.79,1,7.24,1.61,7.89,0.3c0.65-1.3-3.21-18.34-4.68-19.11
				C313.25,619.36,311.48,618.93,311.14,620.58z"/>
			<path class="st17" d="M290.3,634.29c-0.65,2.96,2.24,6.09,6.45,7.01c4.2,0.92,8.13-0.75,8.78-3.7c0.64-2.96-2.26-6.1-6.45-7.01
				C294.86,629.68,290.93,631.34,290.3,634.29z"/>
			<path class="st17" d="M331.3,629.51c0-0.09,0-0.16,0-0.24c-0.01,0-0.01,0-0.03,0c-1.22-0.06-2.55,0.08-3.89,0.54
				c-4.08,1.37-6.59,4.83-5.62,7.68c0.98,2.88,5.06,4.07,9.15,2.69l0.3-0.13h0.01c0.02-0.36,0.01-0.74,0.03-1.11
				c0.09-1.3,0.15-2.61,0.16-3.94c0-0.14,0-0.29,0-0.46c0-0.31-0.03-0.66-0.03-0.98C331.39,632.23,331.37,630.88,331.3,629.51z"/>
			<path class="st18" d="M314.54,646.9c2.98-0.67,3.99-3.63,3.46-4.15c0,0-0.6-1.09-1.87-0.53c-1.28,0.54-3.58,1.05-5.31,0.19
				c-1.75-0.87-2.87,0.23-2.45,1.52C308.77,645.19,311.57,647.57,314.54,646.9z"/>
			<path class="st19" d="M288.99,773.31c-2.41-15.48-4.98-31.66-7.29-46.16c-2.08-12.94-3.94-24.52-5.33-33.03
				c-2.86,1.83-6.79,1.8-12.05-0.88c-4.58,25.44-5.9,58.52-5.9,58.52l21.93,11.88l-3.6,9.67H288.99z"/>
			<path class="st19" d="M317.95,686.06c-1.2-0.75-6.05-0.01-6.05,0l0,0c0,0,0.01,0.04,0.01,0.06c0.03,0.08,0.1,0.37,0.24,0.9
				c0.12,0.48,0.3,1.17,0.51,2.07c1.21,4.95,3.76,16.08,6.92,34.09c2.29,13.04,4.89,29.68,7.53,50.15h2.43
				c2.66,0,4.82,2.16,4.82,4.83v36.88c1.52,0.22,2.72,0.6,3.4,1.2c0.74,0.69,1.15,1.32,1.4,1.94l7.16-28.78l-9.85-11.26l12.48-17.7
				l-23.1-69.39l0,0C325.83,691.02,319.16,686.8,317.95,686.06z"/>
			<polygon class="st19" points="338.14,822.27 338.15,822.26 338.14,822.27 			"/>
			<path class="st20" d="M266.06,878.71h35.61h27.87c2.66,0,4.82-2.17,4.82-4.83v-31.29c-3.16,1.15-9.34,0.78-13.21,0.36v2.77
				h-11.57v2.87c0,0-23.09,2.56-48.35,1.91v13.36v10.02c0,1.29,0.52,2.45,1.33,3.31C263.44,878.13,264.67,878.71,266.06,878.71z"/>
			<path class="st20" d="M321.14,815.45c4.09-0.5,9.55-0.94,13.21-0.43v-36.88c0-2.66-2.16-4.83-4.82-4.83h-2.43h-38.13h-12.24
				h-10.68c-2.67,0-4.83,2.16-4.83,4.83v28.5c21.28,7.33,48.35,6.63,48.35,6.63v1.07h11.57V815.45z"/>
			<polygon class="st21" points="460.06,718.3 455.26,725.71 455.23,725.74 486.61,745.56 487.42,744.07 492.35,734.9 
				490.51,733.96 461.36,718.97 			"/>
			<g>
				<path class="st22" d="M321.57,664.05c-4.68,2.61-10.66,2.55-12.89,2.32c0.03,6.5,2.05,15.19,3.22,19.69c0-0.01,4.85-0.75,6.05,0
					c1.21,0.75,7.88,4.97,7.88,4.97l0,0c4.76,0.92,8.66,1.93,11.88,2.98c-0.18-3.84-1.65-8.77-6.28-14.45
					C325.49,672.25,322.86,667.56,321.57,664.05z"/>
				<path class="st22" d="M312.16,687.01c-0.14-0.53-0.22-0.82-0.24-0.9C311.99,686.44,312.08,686.73,312.16,687.01z"/>
				<path class="st22" d="M299.47,611.9c-2.75,0.59-3.41,1.48-3.51,2.48c-0.1,1,1.71,0.41,3.92,0c2.2-0.39,3.52,2.32,4.82,1.31
					c1.31-1.01,0-2.6,0-2.6C304.35,612.51,302.23,611.3,299.47,611.9z"/>
				<path class="st22" d="M321.5,616.49c2.21-0.4,3.52,2.32,4.83,1.3c1.3-1,0-2.62,0-2.62c-0.35-0.57-2.48-1.79-5.24-1.18
					c-2.75,0.6-3.42,1.49-3.53,2.5C317.47,617.49,319.28,616.89,321.5,616.49z"/>
				<path class="st4" d="M317.1,578.54c1.73,1.11,5.15,3.4,8.81,6.44c5.2,4.33,10.81,10.14,12.42,16.28
					c0.08,0.32-0.11,0.65-0.43,0.74c-0.32,0.07-0.66-0.12-0.74-0.44c-1.28-4.94-5.6-9.96-10.1-13.98c-4.5-4.04-9.14-7.1-10.97-8.24
					c-0.52-0.32-0.81-0.49-0.81-0.49l0,0c-0.2-0.12-0.27-0.33-0.26-0.55c-2.95-0.36-6.18-0.45-9.74-0.18l0,0
					c-3.32-1.48-7.91-2.23-14.17-1.91c-16.71,0.85-29.03,14.41-33.04,23.1l-0.01-0.01c0,0-0.02,0.07-0.07,0.2
					c-0.69,1.54-1.16,2.94-1.29,4.07c-0.03,0.2-0.06,0.41-0.09,0.62c-1.61,6.07-3.78,16.77-2.31,26.16
					c2.22,14.04,1.29,23.49-0.6,32.35c-1.88,8.82-34.21,23.45-23.21,42.29c10.74-4.8,23.57-9.39,32.5-12.38
					c0.47,0.25,0.89,0.46,1.32,0.66c5.26,2.68,9.19,2.72,12.05,0.88c0.92-0.59,1.75-1.34,2.46-2.28
					c9.36-12.24,2.65-52.06,2.65-61.51c0-6.87,1.55-10.31,2.96-12.05c5.86-4.54,14.1-9.34,19.62-11.12
					c8.69-2.8,8.99-11.03,8.99-12.15c2.56,1.27,9.01,4.9,14.82,11.7c6.41,7.48,12.02,18.85,10.71,35.1
					c-0.07,0.72-0.1,1.42-0.18,2.16c0,0,2.22-2.09,3.82-8.98C343.85,627.88,350.26,584.19,317.1,578.54z M267.73,590.94
					c0.21-0.26,0.58-0.3,0.84-0.09c0.27,0.21,0.31,0.6,0.1,0.85l-0.08,0.1l-0.26,0.38c-0.23,0.33-0.56,0.85-0.95,1.53
					c-0.79,1.39-1.86,3.5-2.92,6.37c-1.5,4.06-2.98,9.71-3.74,17.04c-0.33,3.09-0.54,6.47-0.54,10.19c0,2.52,0.13,5.25,0.32,8.06
					c0.12,1.75,0.24,3.49,0.45,5.34c0.04,0.33-0.21,0.62-0.54,0.66c-0.07,0-0.13-0.04-0.19-0.06c-0.24-0.07-0.44-0.22-0.48-0.48
					c-0.53-4.89-0.77-9.4-0.77-13.51c0-3.74,0.22-7.13,0.53-10.26C261.37,599.02,267.67,591.02,267.73,590.94z M234.65,693.07
					c-0.1,0.33-0.43,0.5-0.75,0.41c-0.32-0.09-0.51-0.43-0.42-0.74c1.84-6.41,7.58-10.08,13.72-12.53c2.97-1.18,6.05-2.08,8.88-2.87
					c3.06-0.84,5.83-1.56,7.84-2.33c0.61-0.21,1.12-0.7,1.58-1.53c0.46-0.83,0.83-1.97,1.11-3.36c0.56-2.8,0.75-6.62,0.75-11.08
					c0-9.12-0.81-20.91-0.81-32.43c0-6.43,0.25-12.78,1.04-18.54c1.8-13.16,8.54-20.89,14.8-25.25c6.28-4.39,12.07-5.46,12.12-5.48
					c0.33-0.05,0.65,0.17,0.71,0.49c0.06,0.35-0.17,0.64-0.49,0.7c0,0.01-0.32,0.07-0.95,0.23c-0.61,0.16-1.5,0.42-2.59,0.82
					c-2.15,0.79-5.07,2.11-8.11,4.23c-6.05,4.24-12.53,11.62-14.3,24.43c-0.78,5.68-1.03,11.97-1.03,18.37
					c0,11.47,0.8,23.24,0.8,32.43c0,6.76-0.4,12.07-2.02,15.03c-0.54,0.98-1.27,1.74-2.21,2.08c-2.15,0.82-5.03,1.56-8.16,2.43
					c-2.75,0.77-5.7,1.64-8.53,2.77C241.62,683.74,236.29,687.25,234.65,693.07z M311.88,585.19h-0.06c-0.71,0-6.92,0.08-13.97,2.66
					c-7.05,2.58-14.9,7.62-19.07,17.54c-2.64,6.29-3.29,16.29-3.29,27.09c0,9.51,0.49,19.63,0.49,28.5c0,5.16-0.16,9.88-0.69,13.83
					c-0.54,3.95-1.42,7.1-2.96,9.17c-1.03,1.37-2.41,2.23-4.1,2.34c-4.11,0.29-7.38,0.27-10.12,0.29c-2.07,0.02-3.85,0.04-5.45,0.24
					c-3.67,0.48-6.42,1.7-10.14,5.64l-0.84,0.03l-0.04-0.85c3.8-4.08,6.96-5.55,10.87-6.02c1.56-0.18,3.23-0.23,5.13-0.25
					c2.86-0.02,6.22,0.01,10.5-0.29c1.32-0.1,2.33-0.7,3.22-1.86c0.88-1.17,1.58-2.9,2.08-5.06c1.03-4.31,1.33-10.38,1.33-17.22
					c0-8.83-0.48-18.96-0.48-28.5c0-10.86,0.61-20.92,3.37-27.55c4.33-10.32,12.53-15.57,19.76-18.22
					c6.89-2.51,12.9-2.71,14.17-2.73c0.06,0,0.17,0,0.22,0h0.09c0.33,0.02,0.6,0.29,0.6,0.61c-0.01,0.25-0.2,0.43-0.42,0.51
					C312.02,585.14,311.96,585.19,311.88,585.19z M340.68,629.29c-0.02,0.33-0.3,0.58-0.63,0.56c-0.34-0.02-0.59-0.3-0.58-0.63
					c0.04-0.8,0.06-1.62,0.06-2.41c-0.01-13.52-5.31-22.51-10.95-28.3c-5.64-5.79-11.63-8.35-12.93-8.87l-0.26-0.09
					c-0.3-0.12-0.47-0.46-0.37-0.77c0.12-0.32,0.46-0.49,0.77-0.38c0.05,0.01,6.26,2.2,12.49,8.1c6.23,5.89,12.46,15.54,12.46,30.3
					C340.73,627.62,340.71,628.45,340.68,629.29z"/>
			</g>
			<g>
				<path class="st23" d="M501.95,711.08c2.25-8.93-4.97-6.99-4.97-6.99c1.35-9.14-5.88-7.02-5.88-7.02
					c-1.03-6.38-4.82-5.51-7.91-3.57c-2.35,1.48-4.29,3.57-4.29,3.57s-0.91,0-2.42,0.19c-2.06,0.27-5.21,0.92-8.86,2.57
					c-4.13,1.87-5.68,12.2-6.26,19.14l29.15,15c5.79-3.32,9.2-7.44,11.88-12.15C505.97,715.49,501.95,711.08,501.95,711.08z"/>
				<path class="st23" d="M293.25,1159.49l13.94,193.9l0.15,1.98c0,0,0.37,1.07,3.58,4.28c3.23,3.22,26.01,17.9,33,18.98
					c6.96,1.07,11.53-2.3,4.02-11.74c-3.89-4.9-7.06-7.49-9.17-11.99c-1.97-4.16-3.03-9.95-2.89-20.79
					c0.19-16.69,11.57-117.51,16.81-175.88C332.34,1159.23,311.72,1159.53,293.25,1159.49z"/>
				<path class="st23" d="M230.5,1158.01l14.04,195.37l0.15,1.98c0,0,0.37,1.07,3.59,4.28c3.23,3.22,26.01,17.9,32.99,18.98
					c6.97,1.07,11.53-2.3,4.02-11.74c-3.89-4.9-7.05-7.49-9.16-11.98c-1.96-4.17-3.02-9.96-2.9-20.8
					c0.2-16.56,11.42-116.07,16.7-174.62C260.78,1159.33,237.61,1158.34,230.5,1158.01z"/>
				<path class="st23" d="M304.05,706.68l8.62-17.6c-0.22-0.89-0.39-1.59-0.51-2.07c-0.07-0.28-0.17-0.58-0.24-0.9
					c0-0.02-0.01-0.06-0.01-0.06c-1.17-4.49-3.19-13.19-3.22-19.69c2.23,0.22,8.21,0.28,12.89-2.32c2.04-1.14,3.84-2.79,4.98-5.16
					c2.69-5.64,4.16-11.9,4.67-18.84l-0.3,0.13c-4.08,1.38-8.17,0.19-9.15-2.69c-0.97-2.85,1.54-6.31,5.62-7.68
					c1.34-0.46,2.67-0.6,3.89-0.54c-0.17-3.41-0.5-6.92-1-10.63c-0.6-4.51-1.4-8.46-2.41-11.92c-5.81-6.8-12.26-10.43-14.82-11.7
					c0,1.11-0.3,9.34-8.99,12.15c-5.51,1.78-13.76,6.58-19.62,11.12c-1.42,1.74-2.96,5.18-2.96,12.05c0,9.45,6.7,49.27-2.65,61.51
					L304.05,706.68z M322.86,628.9c-0.95,0-1.72-1.17-1.72-2.65c0-1.47,0.77-2.67,1.72-2.67s1.72,1.19,1.72,2.67
					C324.59,627.73,323.81,628.9,322.86,628.9z M321.09,613.99c2.76-0.61,4.88,0.62,5.24,1.18c0,0,1.3,1.61,0,2.62
					c-1.31,1.02-2.62-1.7-4.83-1.3c-2.22,0.4-4.03,1-3.93,0C317.67,615.48,318.34,614.58,321.09,613.99z M311.14,620.58
					c0.35-1.65,2.11-1.22,2.11-1.22c1.47,0.77,5.33,17.8,4.68,19.11c-0.65,1.31-7.1,0.7-7.89-0.3
					C309.24,637.16,310.9,621.72,311.14,620.58z M307.21,642.43c0.74-2.74,3.55-0.69,4.9-0.57c1.33,0.12,4.16-1.06,5.09-0.85
					c0.95,0.22,1.6,0.39,1.48,1.42c0,0-0.19,5.77-4.28,6.71C310.29,650.08,306.48,645.18,307.21,642.43z M299.47,611.9
					c2.76-0.6,4.88,0.61,5.23,1.19c0,0,1.31,1.6,0,2.6c-1.3,1-2.62-1.71-4.82-1.31c-2.21,0.41-4.03,1-3.92,0
					C296.05,613.38,296.72,612.49,299.47,611.9z M304.05,626.25c0,1.48-0.77,2.65-1.72,2.65c-0.95,0-1.72-1.17-1.72-2.65
					c0-1.47,0.78-2.67,1.72-2.67C303.28,623.58,304.05,624.78,304.05,626.25z M290.3,634.29c0.63-2.95,4.56-4.61,8.78-3.7
					c4.2,0.91,7.09,4.05,6.45,7.01c-0.66,2.95-4.58,4.62-8.78,3.7C292.54,640.38,289.65,637.26,290.3,634.29z"/>
				<path class="st23" d="M321.14,815.45v27.5c3.87,0.42,10.05,0.79,13.21-0.36c0.05-0.01,0.11-0.03,0.16-0.05l0,0
					c4.72-1.84,3.24-5.91,3.24-5.91c3.59-1.6,0-6.6,0-6.6c3.91-3.07,0.39-7.75,0.38-7.76l0,0l0.01-0.01c0,0,1.94-1.76,1-4.09
					c-0.25-0.62-0.65-1.26-1.4-1.94c-0.68-0.6-1.88-0.98-3.4-1.2C330.7,814.51,325.23,814.95,321.14,815.45z"/>
			</g>
			<polygon class="st14" points="321.14,842.95 321.14,815.45 321.14,814.35 309.58,814.35 309.58,845.72 321.14,845.72 			"/>
			<g>
				<path class="st24" d="M263.9,889.46c-3.17-1.42-2.56-6.79-1.34-12.26c-0.82-0.86-1.33-2.03-1.33-3.31v-10.02
					c-7.73,0.09-28.82-1.24-43.66-2.25c-2.35,36.11-6.06,68.09-4.8,92.75c0,0,0.52,0.19,1.44,0.53c8.44,3.15,52.49,19.2,75.99,19.27
					c8.03,0.02,11.56-54.3,11.56-54.3c-0.08-9.44,0.06-17.07,0.11-24.58C287.41,893.73,268.24,891.39,263.9,889.46z"/>
				<path class="st24" d="M487.42,744.07l-0.81,1.49l-31.38-19.82l0.03-0.04l-1.12-0.62c0,0-32.54,43.58-43.41,43.58
					c-13.6,0-23.96-57.29-58.67-66.29l0,0c-2.07-2.49-5.75-5.58-14.35-8.36c-3.22-1.05-7.12-2.07-11.88-2.98l23.1,69.39l-12.48,17.7
					l9.85,11.26l-7.16,28.78c0.93,2.33-1,4.09-1,4.09l-0.01,0.01c0.01,0.01,3.53,4.68-0.38,7.76c0,0,3.59,5,0,6.6
					c0,0,1.48,4.07-3.24,5.91l0,0c3.57,42.81,5.56,77.32,5.56,77.32l6.48,25.99c0,0,12.93,30.97,25.33,27.57
					c0.07-0.02,0.13-0.07,0.2-0.1c6.23-2.79,4.41-53.46,4.41-53.46c-1-34.74-3.51-80.03-6.8-119.98
					c8.91,11.31,23.34,27.96,33.74,31.7c16.09,5.8,29.88,4.51,40.23-9.5c27.37-37,45.48-77.03,45.48-77.03L487.42,744.07z
					 M369.3,795.85c-0.44,0.03-0.83-0.3-0.87-0.74c-0.93-10.82-3.48-38.89-4.7-52.26c-0.41-4.46-0.66-7.28-0.66-7.28
					c-0.05-0.44,0.27-0.82,0.73-0.87c0.45-0.04,0.84,0.29,0.87,0.74c0,0,4.13,45.11,5.37,59.53
					C370.06,795.41,369.74,795.79,369.3,795.85z"/>
				<path class="st24" d="M261.23,806.64v-28.5c0-2.66,2.17-4.83,4.83-4.83h10.68l3.6-9.67l-21.93-11.88c0,0,1.32-33.08,5.9-58.52
					c-0.43-0.2-0.85-0.4-1.32-0.66c-8.94,3-21.76,7.59-32.5,12.38l0,0l0,0l0,0c-4.15,1.86-7.98,3.74-11.14,5.58
					c-1.5,0.69-3.2,1.46-5.14,2.31c-14,6.21-34.33,102.56-11.26,123.76c3.77,3.48,9.17,6.12,15.55,8.14
					c12.13,3.81,27.79,5.34,42.72,5.73c25.25,0.65,48.35-1.91,48.35-1.91v-2.87v-31.37v-1.07
					C309.58,813.28,282.51,813.98,261.23,806.64z M259.4,806.87c-0.06-0.03-5.97-1.45-12.21-5.43
					c-6.22-3.97-12.82-10.54-13.93-20.81c-0.22-2.06-0.32-4.12-0.32-6.14c0.01-13.49,4.29-25.85,4.28-36.67
					c0-3.32-0.4-6.5-1.41-9.53c-0.14-0.42,0.09-0.88,0.51-1.02c0.01,0,0.02,0,0.04,0c0.41-0.1,0.83,0.1,0.97,0.51
					c1.09,3.23,1.5,6.59,1.5,10.03c0,1.05-0.08,2.1-0.14,3.18c-0.66,10.37-4.14,21.56-4.13,33.5c0,1.97,0.1,3.97,0.32,5.98
					c0.69,6.42,3.68,11.3,7.38,14.98c1.13,1.12,2.33,2.16,3.56,3.09c5.21,3.88,10.8,5.82,13,6.49c0.63,0.19,0.97,0.28,0.97,0.28
					c0.43,0.1,0.69,0.53,0.59,0.97c-0.01,0.02-0.04,0.03-0.06,0.07C260.18,806.72,259.8,806.95,259.4,806.87z"/>
			</g>
			<path class="st25" d="M268.25,686.32c1.68-0.11,3.07-0.98,4.1-2.34c1.54-2.07,2.41-5.22,2.96-9.17
				c0.53-3.94,0.69-8.66,0.69-13.83c0-8.87-0.49-18.99-0.49-28.5c0-10.79,0.65-20.8,3.29-27.09c4.17-9.93,12.02-14.96,19.07-17.54
				c7.04-2.58,13.25-2.66,13.97-2.66h0.06c0.08,0,0.14-0.05,0.21-0.08c0.22-0.09,0.41-0.26,0.42-0.51c0-0.33-0.27-0.6-0.6-0.61
				h-0.09c-0.04,0-0.16,0-0.22,0c-1.27,0.02-7.28,0.22-14.17,2.73c-7.24,2.64-15.43,7.89-19.76,18.22
				c-2.77,6.62-3.37,16.69-3.37,27.55c0,9.54,0.48,19.67,0.48,28.5c0,6.84-0.3,12.91-1.33,17.22c-0.51,2.16-1.2,3.89-2.08,5.06
				c-0.89,1.16-1.89,1.76-3.22,1.86c-4.28,0.29-7.64,0.26-10.5,0.29c-1.9,0.01-3.57,0.07-5.13,0.25c-3.91,0.47-7.07,1.94-10.87,6.02
				l0.04,0.85l0.84-0.03c3.72-3.94,6.47-5.16,10.14-5.64c1.6-0.2,3.38-0.22,5.45-0.24C260.87,686.59,264.13,686.61,268.25,686.32z"
				/>
			<path class="st25" d="M266.56,674.06c1.62-2.96,2.01-8.27,2.02-15.03c0-9.18-0.8-20.96-0.8-32.43c0-6.4,0.25-12.69,1.03-18.37
				c1.78-12.81,8.25-20.2,14.3-24.43c3.03-2.12,5.95-3.44,8.11-4.23c1.09-0.4,1.98-0.66,2.59-0.82c0.63-0.17,0.95-0.22,0.95-0.23
				c0.32-0.06,0.55-0.36,0.49-0.7c-0.06-0.32-0.38-0.54-0.71-0.49c-0.05,0.03-5.85,1.1-12.12,5.48c-6.26,4.37-13,12.09-14.8,25.25
				c-0.79,5.75-1.04,12.11-1.04,18.54c0,11.51,0.81,23.31,0.81,32.43c0,4.47-0.19,8.28-0.75,11.08c-0.28,1.39-0.66,2.53-1.11,3.36
				c-0.46,0.83-0.97,1.32-1.58,1.53c-2.01,0.77-4.78,1.49-7.84,2.33c-2.83,0.79-5.91,1.69-8.88,2.87
				c-6.15,2.45-11.88,6.12-13.72,12.53c-0.09,0.31,0.1,0.66,0.42,0.74c0.32,0.09,0.65-0.09,0.75-0.41c1.64-5.82,6.97-9.33,13-11.73
				c2.83-1.13,5.79-2,8.53-2.77c3.13-0.87,6.01-1.61,8.16-2.43C265.28,675.8,266.01,675.04,266.56,674.06z"/>
			<path class="st25" d="M260.95,640.7c-0.21-1.85-0.32-3.59-0.45-5.34c-0.19-2.81-0.32-5.53-0.32-8.06c0-3.72,0.21-7.1,0.54-10.19
				c0.75-7.33,2.24-12.98,3.74-17.04c1.06-2.88,2.13-4.99,2.92-6.37c0.39-0.68,0.73-1.2,0.95-1.53l0.26-0.38l0.08-0.1
				c0.21-0.25,0.17-0.64-0.1-0.85c-0.26-0.2-0.64-0.17-0.84,0.09c-0.06,0.08-6.36,8.08-8.22,26.1c-0.32,3.13-0.53,6.52-0.53,10.26
				c0,4.11,0.24,8.63,0.77,13.51c0.04,0.26,0.24,0.42,0.48,0.48c0.06,0.02,0.12,0.06,0.19,0.06
				C260.74,641.32,260.98,641.03,260.95,640.7z"/>
			<path class="st25" d="M315.02,588.79c-0.1,0.31,0.07,0.65,0.37,0.77l0.26,0.09c1.3,0.52,7.29,3.08,12.93,8.87
				c5.64,5.79,10.94,14.78,10.95,28.3c0,0.79-0.02,1.61-0.06,2.41c-0.01,0.33,0.24,0.61,0.58,0.63c0.33,0.01,0.61-0.24,0.63-0.56
				c0.03-0.85,0.05-1.67,0.05-2.48c0-14.77-6.23-24.41-12.46-30.3c-6.23-5.9-12.44-8.09-12.49-8.1
				C315.48,588.3,315.13,588.47,315.02,588.79z"/>
			<path class="st25" d="M315.28,578.84L315.28,578.84c0,0,0.29,0.17,0.81,0.49c1.84,1.14,6.47,4.2,10.97,8.24
				c4.5,4.02,8.82,9.04,10.1,13.98c0.08,0.33,0.42,0.52,0.74,0.44c0.31-0.08,0.51-0.42,0.43-0.74c-1.61-6.14-7.22-11.95-12.42-16.28
				c-3.66-3.04-7.08-5.32-8.81-6.44c-0.74-0.46-1.2-0.73-1.2-0.73c-0.29-0.19-0.66-0.08-0.82,0.2c-0.06,0.08-0.04,0.18-0.05,0.28
				C315.02,578.5,315.08,578.71,315.28,578.84z"/>
			<path class="st21" d="M259.78,805.31c0,0-0.35-0.09-0.97-0.28c-2.2-0.67-7.79-2.61-13-6.49c-1.23-0.92-2.43-1.97-3.56-3.09
				c-3.71-3.68-6.69-8.56-7.38-14.98c-0.22-2.01-0.32-4.01-0.32-5.98c-0.01-11.94,3.47-23.13,4.13-33.5
				c0.07-1.07,0.14-2.13,0.14-3.18c0-3.44-0.4-6.81-1.5-10.03c-0.13-0.41-0.55-0.61-0.97-0.51c-0.02,0-0.03,0-0.04,0
				c-0.43,0.14-0.65,0.6-0.51,1.02c1.01,3.03,1.41,6.21,1.41,9.53c0.01,10.83-4.26,23.18-4.28,36.67c0,2.02,0.1,4.08,0.32,6.14
				c1.11,10.27,7.71,16.84,13.93,20.81c6.24,3.98,12.15,5.39,12.21,5.43c0.4,0.08,0.78-0.15,0.91-0.53
				c0.02-0.04,0.04-0.05,0.06-0.07C260.47,805.83,260.21,805.4,259.78,805.31z"/>
			<path class="st21" d="M363.79,734.7c-0.45,0.05-0.77,0.43-0.73,0.87c0,0,0.25,2.82,0.66,7.28c1.22,13.37,3.77,41.45,4.7,52.26
				c0.04,0.43,0.43,0.77,0.87,0.74c0.44-0.06,0.77-0.43,0.73-0.88c-1.24-14.42-5.37-59.53-5.37-59.53
				C364.63,734.99,364.24,734.66,363.79,734.7z"/>
		</g>
		<text transform="matrix(1 0 0 1 758.5762 686.8261)"><tspan x="0" y="0" class="st26 st27 st28">Home </tspan><tspan x="-53.16" y="72" class="st26 st27 st28">Insurance</tspan></text>
	</g>
	<g>
		<g>
			<path class="st29" d="M1648.27,1371.46c0,0.03,0.02,0,0.04,0.03c0.01,0,2.48,1.84,5.14,4.24c2.66,2.45,5.53,5.37,6.41,7.99
				c0.17,0.54-0.1,1.05-0.61,1.22c-0.51,0.19-1.05-0.12-1.23-0.62c-0.42-1.38-2.05-3.43-3.93-5.32c-1.89-1.9-4.01-3.68-5.4-4.78
				c-0.93-0.75-1.52-1.19-1.52-1.19c-0.02,0-0.01-0.03-0.02-0.03c-0.91,1.22-1.91,2.36-3,3.39c0.92,0.7,2.62,2.09,4.43,3.72
				c2.67,2.44,5.54,5.33,6.42,7.98c0.17,0.51-0.11,1.06-0.62,1.22c-0.51,0.16-1.06-0.11-1.22-0.62c-0.41-1.37-2.05-3.44-3.95-5.32
				c-1.89-1.9-4.02-3.68-5.4-4.78c-0.5-0.42-0.89-0.71-1.15-0.91c-1.26,1-2.62,1.88-4.1,2.57c0.64,0.64,1.62,1.61,2.73,2.9
				c1.79,2.06,3.77,4.66,4.59,7.17c0.16,0.52-0.12,1.05-0.62,1.22c-0.51,0.17-1.05-0.11-1.22-0.62c-0.95-3.03-4.67-7.15-6.47-8.94
				c-0.51-0.53-0.82-0.81-0.9-0.89c-0.78,0.29-1.58,0.55-2.4,0.75c-15.86,3.62-23.5,11.04-19.98,18.1
				c3.53,7.03,74.03-1.33,80.51-1.33c4.17,0,3.05-22.18,1.75-37.83l-44.42,3.18C1651.1,1366.59,1649.82,1369.13,1648.27,1371.46z"/>
			<path class="st30" d="M1648.69,1374.23c1.39,1.09,3.51,2.87,5.4,4.78c1.89,1.89,3.52,3.94,3.93,5.32c0.17,0.5,0.71,0.8,1.23,0.62
				c0.51-0.17,0.78-0.68,0.61-1.22c-0.88-2.63-3.75-5.54-6.41-7.99c-2.66-2.4-5.13-4.24-5.14-4.24c-0.02-0.03-0.04,0-0.04-0.03
				c-0.42-0.26-0.99-0.2-1.31,0.21c-0.3,0.44-0.21,1,0.19,1.33c0.01,0,0,0.03,0.02,0.03
				C1647.16,1373.03,1647.76,1373.48,1648.69,1374.23z"/>
			<path class="st30" d="M1649.22,1383.38c1.9,1.88,3.54,3.95,3.95,5.32c0.16,0.5,0.7,0.78,1.22,0.62c0.51-0.16,0.79-0.71,0.62-1.22
				c-0.88-2.65-3.75-5.54-6.42-7.98c-1.81-1.64-3.51-3.02-4.43-3.72c-0.43-0.32-0.7-0.53-0.71-0.53c-0.43-0.31-1.02-0.22-1.34,0.19
				c-0.31,0.43-0.23,1.02,0.2,1.35c0,0,0.12,0.11,0.36,0.28c0.26,0.2,0.65,0.49,1.15,0.91
				C1645.2,1379.7,1647.33,1381.48,1649.22,1383.38z"/>
			<path class="st30" d="M1644.04,1390.92c0.17,0.5,0.71,0.79,1.22,0.62c0.5-0.16,0.79-0.7,0.62-1.22c-0.82-2.51-2.8-5.1-4.59-7.17
				c-1.11-1.29-2.09-2.26-2.73-2.9c-0.36-0.37-0.64-0.63-0.64-0.63c-0.41-0.37-1.01-0.34-1.37,0.04c-0.36,0.4-0.33,1.01,0.05,1.38
				l0,0c0,0,0.06,0.05,0.06,0.05c0.08,0.08,0.39,0.36,0.9,0.89C1639.37,1383.77,1643.1,1387.89,1644.04,1390.92z"/>
			<path class="st29" d="M1755.35,1398.62c6.45,0,76.97,8.35,80.5,1.33c3.53-7.06-4.11-14.48-19.98-18.1
				c-0.84-0.21-1.63-0.47-2.42-0.75c-0.07,0.08-0.38,0.36-0.91,0.89c-0.59,0.59-1.4,1.44-2.25,2.44c-1.71,1.96-3.57,4.51-4.2,6.5
				c-0.16,0.5-0.7,0.79-1.22,0.62c-0.51-0.16-0.78-0.7-0.63-1.22c0.82-2.51,2.81-5.1,4.59-7.17c1.11-1.29,2.09-2.26,2.72-2.9
				c-1.47-0.7-2.83-1.57-4.09-2.57c-0.26,0.2-0.65,0.49-1.14,0.91c-0.94,0.73-2.19,1.78-3.48,2.95c-2.59,2.32-5.33,5.29-5.89,7.15
				c-0.16,0.5-0.72,0.78-1.22,0.62c-0.5-0.16-0.78-0.71-0.61-1.22c0.89-2.65,3.76-5.54,6.42-7.98c1.81-1.64,3.51-3.02,4.43-3.72
				c-1.1-1.03-2.08-2.17-3-3.39c0,0,0,0.03-0.01,0.03c0,0-0.59,0.45-1.52,1.19c-0.93,0.72-2.18,1.78-3.48,2.95
				c-2.58,2.32-5.32,5.29-5.88,7.15c-0.17,0.5-0.7,0.8-1.22,0.62c-0.5-0.17-0.78-0.68-0.62-1.22c0.9-2.63,3.75-5.54,6.43-7.99
				c2.66-2.4,5.12-4.24,5.14-4.24c0.01-0.03,0.02,0,0.03-0.03c-1.49-2.22-2.7-4.64-3.68-7.14h-44.86
				C1752.14,1379.58,1751.47,1398.62,1755.35,1398.62z"/>
			<path class="st30" d="M1796.68,1375.73c-2.67,2.45-5.53,5.37-6.43,7.99c-0.16,0.54,0.12,1.05,0.62,1.22
				c0.51,0.19,1.05-0.12,1.22-0.62c0.56-1.86,3.31-4.83,5.88-7.15c1.3-1.17,2.55-2.23,3.48-2.95c0.93-0.75,1.52-1.19,1.52-1.19
				c0.01,0,0.01-0.03,0.01-0.03c0.42-0.33,0.5-0.89,0.19-1.33c-0.31-0.42-0.88-0.47-1.32-0.21c-0.01,0.03-0.02,0-0.03,0.03
				C1801.8,1371.49,1799.34,1373.33,1796.68,1375.73z"/>
			<path class="st30" d="M1795.13,1388.1c-0.17,0.51,0.11,1.06,0.61,1.22c0.5,0.16,1.06-0.11,1.22-0.62
				c0.56-1.86,3.29-4.83,5.89-7.15c1.28-1.17,2.54-2.22,3.48-2.95c0.5-0.42,0.88-0.71,1.14-0.91c0.23-0.17,0.37-0.28,0.37-0.28
				c0.42-0.33,0.52-0.92,0.19-1.35c-0.31-0.41-0.92-0.5-1.35-0.19c0,0-0.29,0.21-0.71,0.53c-0.92,0.7-2.62,2.09-4.43,3.72
				C1798.89,1382.56,1796.02,1385.45,1795.13,1388.1z"/>
			<path class="st30" d="M1808.84,1383.15c-1.78,2.06-3.77,4.66-4.59,7.17c-0.16,0.52,0.12,1.05,0.63,1.22
				c0.52,0.17,1.05-0.11,1.22-0.62c0.63-1.98,2.5-4.54,4.2-6.5c0.86-1,1.67-1.85,2.25-2.44c0.53-0.53,0.84-0.81,0.91-0.89
				c0.02,0,0.07-0.05,0.07-0.05c0.4-0.37,0.41-0.98,0.05-1.38c-0.36-0.38-0.97-0.41-1.36-0.04c0,0-0.29,0.26-0.66,0.63
				C1810.93,1380.89,1809.95,1381.87,1808.84,1383.15z"/>
			<path class="st4" d="M1813.78,917.31c0,0.6,0.01,1.19,0.02,1.81C1813.79,918.5,1813.78,917.91,1813.78,917.31z"/>
			<path class="st4" d="M1813.7,912.17c0.01,0.53,0.01,1.08,0.03,1.65C1813.72,913.25,1813.72,912.7,1813.7,912.17z"/>
			<path class="st4" d="M1813.6,906.46c0,0.45,0.02,0.87,0.02,1.33C1813.62,907.33,1813.6,906.91,1813.6,906.46z"/>
			<path class="st4" d="M1813.85,923.86c0.01,0.75,0.02,1.55,0.02,2.34C1813.87,925.41,1813.86,924.6,1813.85,923.86z"/>
			<path class="st4" d="M1813.96,936.99c0,1.02,0.01,2.04,0.01,3.08C1813.96,939.04,1813.96,938.01,1813.96,936.99z"/>
			<path class="st4" d="M1813.39,898.18c-0.02-0.29-0.03-0.57-0.04-0.88l0,0C1813.36,897.6,1813.37,897.88,1813.39,898.18z"/>
			<path class="st4" d="M1813.49,902.01c0.01,0.33,0.02,0.7,0.03,1.05C1813.51,902.71,1813.5,902.34,1813.49,902.01z"/>
			<path class="st4" d="M1813.9,929.65c0.02,1.22,0.02,2.46,0.02,3.7C1813.92,932.11,1813.92,930.87,1813.9,929.65z"/>
			<path class="st4" d="M1691.38,911.26c-20.81-4.78-43.19,1.63-54.36,5.73c1.17,88.41,5.89,430.48,10.12,447.35l4.97-0.35
				l44.42-3.18l8.7-0.62l22.21-393.61l17.9,397.77h7.95h44.86h10.15c0,0,6.12-293.33,5.65-423.5
				C1785.53,966.2,1718.08,917.39,1691.38,911.26z M1697.72,1342.04h-49.25c-0.81,0-1.45-0.65-1.45-1.43c0-0.8,0.64-1.47,1.45-1.47
				h49.25c0.81,0,1.45,0.67,1.45,1.47C1699.17,1341.39,1698.53,1342.04,1697.72,1342.04z M1803.1,1340.61
				c0,0.78-0.64,1.43-1.44,1.43h-49.24c-0.81,0-1.45-0.65-1.45-1.43c0-0.8,0.64-1.47,1.45-1.47h49.24
				C1802.45,1339.14,1803.1,1339.81,1803.1,1340.61z"/>
			<path class="st31" d="M1725.07,897.3h-88.28c0.02,2.49,0.1,9.31,0.24,19.68c0,0,0,0,0,0c11.16-4.1,33.55-10.51,54.36-5.73
				c26.69,6.13,94.15,54.94,122.59,29.58l0,0c0-0.27-0.01-0.51-0.01-0.76c0-1.04-0.01-2.06-0.01-3.08
				c-0.02-1.24-0.02-2.44-0.03-3.65c-0.01-1.24-0.01-2.48-0.02-3.7c0-1.16-0.02-2.33-0.03-3.45c0-0.79-0.02-1.59-0.02-2.34
				c-0.02-1.61-0.03-3.2-0.05-4.74c-0.01-0.62-0.02-1.21-0.02-1.81c-0.02-1.19-0.03-2.35-0.05-3.49c-0.02-0.57-0.02-1.12-0.03-1.65
				c-0.02-1.51-0.05-2.98-0.08-4.38c0-0.46-0.02-0.88-0.02-1.33c-0.03-1.16-0.05-2.3-0.08-3.4c-0.01-0.35-0.02-0.72-0.03-1.05
				c-0.03-1.35-0.07-2.61-0.1-3.84c-0.02-0.29-0.03-0.57-0.04-0.88H1725.07z"/>
			<path class="st32" d="M1724.8,582.28c16.67-0.14,21.87-9.83,26.47-23.08c0.05-0.12,0.1-0.26,0.14-0.39l-4.52-21.6
				c-1.37,3.25-3.64,6.74-7.42,9.45c-9.78,7.04-26.87-9.92-32.18-11.64c-2.63-0.87-4.61,0.25-5.95,1.58l1.27-8.88l0,0l-0.69,4.91
				l-3.75,26.2c0,0,0.05,0.18,0.11,0.46C1699.13,562.43,1705.09,582.45,1724.8,582.28z"/>
			<path class="st33" d="M1726.38,536.23c-10.31,1.44-18.01-2.44-23.77-8.51l-1.27,8.88c1.34-1.33,3.31-2.44,5.95-1.58
				c5.31,1.72,22.4,18.68,32.18,11.64c3.78-2.71,6.05-6.2,7.42-9.45l0,0l-1.6-7.59l-1.27-6.09
				C1740.46,530.05,1734.94,535.02,1726.38,536.23z"/>
			<path class="st16" d="M1705.3,493.68c0.88-0.13,1.43-1.33,1.23-2.69c-0.2-1.35-1.07-2.34-1.95-2.23
				c-0.88,0.13-1.42,1.33-1.23,2.69C1703.56,492.8,1704.43,493.8,1705.3,493.68z"/>
			<path class="st16" d="M1732.64,489.67c0.86-0.13,1.43-1.33,1.23-2.68c-0.21-1.35-1.07-2.34-1.95-2.22
				c-0.88,0.13-1.43,1.33-1.23,2.68C1730.87,488.8,1731.74,489.79,1732.64,489.67z"/>
			<path class="st17" d="M1716.33,505.03c1.09,1.01,9.94-0.23,10.47-1.84c0.53-1.61-5.89-20.08-7.74-20.71c0,0-1.69-1.73-2.2,1.51
				C1716.65,485.35,1715.24,504,1716.33,505.03z"/>
			<path class="st34" d="M1697.98,500.27c-0.2,2.81,2.88,5.3,6.89,5.58c3.99,0.28,7.38-1.78,7.59-4.57c0.18-2.81-2.91-5.32-6.9-5.59
				C1701.57,495.4,1698.17,497.45,1697.98,500.27z"/>
			<path class="st34" d="M1735.72,491.26c-3.75,1.42-5.99,4.7-5,7.32c0.98,2.64,4.83,3.63,8.58,2.23c3.75-1.4,5.99-4.68,5-7.32
				C1743.31,490.83,1739.46,489.86,1735.72,491.26z"/>
			<path class="st33" d="M1680.44,487.53c0,0-2.86,1.96-1.74,5.64c1.13,3.69,2.55,2.37,2.45,4.05c-0.1,1.67,2.11,7.28,5.08,5.22
				C1689.2,500.38,1683.76,487.91,1680.44,487.53z"/>
			<path class="st33" d="M1753.25,493.46c3.43,1.13,3.94-4.9,3.36-6.47c-0.58-1.59,1.17-0.73,1.19-4.57
				c0.03-3.85-3.28-4.92-3.28-4.92C1751.46,478.82,1749.83,492.32,1753.25,493.46z"/>
			<path class="st3" d="M1631.27,697.58L1631.27,697.58c0-0.01-0.17-2.26-0.46-5.8c-0.8-9.49-2.41-28.38-3.71-39.38l-0.04-0.35
				l-12.42-18.23c-0.46-0.66-1.35-0.82-2.02-0.37c-0.66,0.44-0.83,1.35-0.38,2l12.02,17.65c0.88,7.49,1.9,18.55,2.7,27.81
				c0.82,9.38,1.42,16.89,1.44,16.9c0.02,0.45,0.27,0.82,0.62,1.06c0.26,0.18,0.58,0.29,0.92,0.27c0.04-0.01,0.08-0.03,0.14-0.04
				C1630.81,698.97,1631.34,698.34,1631.27,697.58z"/>
			<path class="st3" d="M1608.62,719.73c-0.01,0-2.02-1.01-5.21-2.64c-4.77-2.46-12.17-6.28-19.33-10.18
				c-7.14-3.87-14.07-7.82-17.75-10.4c-0.66-0.44-1.56-0.31-2.01,0.36c-0.45,0.65-0.3,1.55,0.35,2.03
				c5.22,3.63,15.81,9.43,25.19,14.4c9.37,4.96,17.46,9.02,17.46,9.02c0.71,0.36,1.59,0.06,1.95-0.65
				C1609.63,720.95,1609.33,720.09,1608.62,719.73z"/>
			<path class="st26" d="M1848.29,591.06c-5.78-11.58-18.62-13.95-18.62-13.95c-0.04,0.08-0.08,0.16-0.11,0.24
				c-0.18-0.09-0.37-0.16-0.57-0.24c-46.6-13.21-68.9-16.88-77.72-17.91c-4.61,13.25-9.81,22.94-26.47,23.08
				c-19.71,0.17-25.67-19.85-26.5-23c-9.16,1.1-31.49,4.88-77.16,17.84c0,0-12.84,2.37-18.64,13.95
				c-5.8,11.57-50.65,101.2-50.65,101.2s1.3,1.13,3.55,2.98c8.79,7.26,32.15,25.69,49.59,31.67c1.35,0.45,2.67,0.84,3.94,1.15
				l20.1-29.19c-0.35-0.23-0.6-0.61-0.62-1.06c-0.01-0.01-0.61-7.52-1.44-16.9c-0.8-9.27-1.83-20.32-2.7-27.81l-12.02-17.65
				c-0.45-0.65-0.28-1.56,0.38-2c0.67-0.45,1.56-0.29,2.02,0.37l12.42,18.23l0.04,0.35c1.3,11.01,2.91,29.89,3.71,39.38
				c0.29,3.53,0.46,5.79,0.46,5.8l0,0c0.07,0.75-0.46,1.38-1.19,1.52c2.49,14.43,6.3,34.31,7.75,45.26
				c3.52,26.61-3.3,90.54-4.66,152.94h3.61h88.28h88.28l0,0h3.6c-1.35-62.4-8.19-126.32-4.65-152.94
				c1.46-11.03,5.29-31.09,7.8-45.54c-0.38-0.29-0.61-0.74-0.57-1.24c0-0.01,0.18-2.26,0.47-5.8c0.78-9.49,2.42-28.38,3.7-39.38
				l0.05-0.35l12.42-18.23c0.45-0.66,1.35-0.82,2.01-0.38c0.65,0.46,0.83,1.36,0.38,2.01l-12.02,17.65
				c-0.87,7.49-1.89,18.55-2.71,27.81c-0.83,9.38-1.42,16.89-1.42,16.9c-0.05,0.45-0.29,0.82-0.64,1.06l20.08,29.19
				c0.28-0.08,0.55-0.15,0.82-0.22c16.01-4.09,35.13-17.28,44.17-24.03c3.24-2.42,5.21-4.02,5.21-4.02
				S1854.09,602.64,1848.29,591.06z M1609.26,721.67c-0.36,0.71-1.24,1.01-1.95,0.65c0,0-8.09-4.06-17.46-9.02
				c-9.38-4.97-19.97-10.77-25.19-14.4c-0.65-0.47-0.8-1.37-0.35-2.03c0.45-0.67,1.35-0.8,2.01-0.36
				c3.68,2.59,10.61,6.53,17.75,10.4c7.16,3.9,14.55,7.72,19.33,10.18c3.19,1.63,5.2,2.64,5.21,2.64
				C1609.33,720.09,1609.63,720.95,1609.26,721.67z M1690.95,561.37c0.76-0.24,1.58,0.17,1.81,0.94l0.09,0.26
				c0.07,0.19,0.17,0.47,0.31,0.82c0.28,0.72,0.7,1.75,1.28,2.98c1.18,2.48,3.02,5.82,5.58,9.19c5.17,6.73,13.19,13.5,25.11,14.2
				c0.56,0.03,1.11,0.04,1.66,0.04c10.41,0,17.14-5.85,21.58-12.29c4.38-6.41,6.25-13.32,6.59-14.8l0.07-0.28l0,0
				c0.17-0.79,0.95-1.27,1.72-1.11c0.79,0.16,1.29,0.93,1.11,1.71c0,0.08-0.9,4.18-3.29,9.34c-2.39,5.15-6.28,11.38-12.42,15.62
				c-4.09,2.83-9.2,4.72-15.36,4.72c-0.61,0-1.2-0.02-1.83-0.06c-13-0.74-21.81-8.21-27.25-15.33c-5.45-7.16-7.69-14.04-7.71-14.13
				C1689.77,562.43,1690.19,561.63,1690.95,561.37z M1806.62,890.59h-164.06c-0.79,0-1.45-0.65-1.45-1.45c0-0.8,0.65-1.46,1.45-1.46
				h164.06c0.8,0,1.45,0.66,1.45,1.46C1808.07,889.95,1807.42,890.59,1806.62,890.59z M1886.13,698.89
				c-5.2,3.63-15.8,9.43-25.19,14.4c-9.36,4.96-17.45,9.02-17.46,9.02c-0.72,0.36-1.58,0.06-1.94-0.65
				c-0.36-0.71-0.07-1.57,0.64-1.94c0,0,2.01-1.01,5.21-2.64c3.17-1.63,7.52-3.88,12.2-6.36c9.32-4.93,19.95-10.77,24.87-14.22
				c0.66-0.44,1.56-0.31,2.02,0.36C1886.94,697.52,1886.79,698.42,1886.13,698.89z"/>
			<path class="st3" d="M1822.41,697.82c0-0.01,0.59-7.52,1.42-16.9c0.82-9.27,1.83-20.32,2.71-27.81l12.02-17.65
				c0.45-0.65,0.27-1.56-0.38-2.01c-0.66-0.44-1.56-0.28-2.01,0.38l-12.42,18.23l-0.05,0.35c-1.29,11.01-2.92,29.89-3.7,39.38
				c-0.29,3.53-0.47,5.79-0.47,5.8c-0.04,0.51,0.19,0.95,0.57,1.24c0.21,0.17,0.46,0.28,0.75,0.32c0.35,0.02,0.66-0.09,0.92-0.27
				C1822.12,698.64,1822.37,698.27,1822.41,697.82z"/>
			<path class="st3" d="M1697.72,577.33c5.44,7.12,14.25,14.59,27.25,15.33c0.62,0.03,1.22,0.06,1.83,0.06
				c6.17,0,11.28-1.89,15.36-4.72c6.14-4.24,10.04-10.47,12.42-15.62c2.39-5.16,3.29-9.26,3.29-9.34c0.18-0.78-0.32-1.55-1.11-1.71
				c-0.77-0.17-1.55,0.32-1.72,1.11l0,0l-0.07,0.28c-0.35,1.48-2.21,8.4-6.59,14.8c-4.44,6.45-11.17,12.29-21.58,12.29
				c-0.55,0-1.1-0.01-1.66-0.04c-11.92-0.7-19.94-7.47-25.11-14.2c-2.56-3.37-4.39-6.71-5.58-9.19c-0.58-1.23-1-2.27-1.28-2.98
				c-0.14-0.35-0.24-0.63-0.31-0.82l-0.09-0.26c-0.23-0.77-1.06-1.18-1.81-0.94c-0.77,0.26-1.18,1.06-0.94,1.83
				C1690.04,563.29,1692.27,570.17,1697.72,577.33z"/>
			<path class="st35" d="M1697.72,1339.14h-49.25c-0.81,0-1.45,0.67-1.45,1.47c0,0.78,0.64,1.43,1.45,1.43h49.25
				c0.81,0,1.45-0.65,1.45-1.43C1699.17,1339.81,1698.53,1339.14,1697.72,1339.14z"/>
			<path class="st35" d="M1750.96,1340.61c0,0.78,0.64,1.43,1.45,1.43h49.24c0.8,0,1.44-0.65,1.44-1.43c0-0.8-0.64-1.47-1.44-1.47
				h-49.24C1751.6,1339.14,1750.96,1339.81,1750.96,1340.61z"/>
			<path class="st36" d="M1723.43,516.35c4.07-0.61,5.9-3.06,6.25-4.3c0.35-1.22-2.06-2.86-3.03-2.14
				c-1.43,1.07-3.74,1.81-3.74,1.81c-2.52,0.19-4.45-1.68-6.16,0.57C1715.04,514.53,1719.14,516.97,1723.43,516.35z"/>
			<g>
				<path class="st37" d="M1744.03,523.53l1.27,6.09c5.74-0.27,6.72-26.57,6.88-33.1c-0.69,0.07-1.42,0.07-2.24-0.03
					C1749.74,505.19,1748.38,515.53,1744.03,523.53z"/>
				<path class="st37" d="M1687.49,505.61c3.5,15.32,10,23.55,14.44,27.01l0.69-4.91c-5.99-6.35-9.87-15.09-12.3-22.78
					C1689.3,505.34,1688.38,505.53,1687.49,505.61z"/>
				<path class="st37" d="M1707.72,478.23c-8.44-2.07-12.34,3.45-13.05,5.1c-0.7,1.63,1.22,1,1.22,1
					c5.48-6.47,10.79-1.95,12.78-3.65C1710.65,478.97,1707.72,478.23,1707.72,478.23z"/>
				<path class="st37" d="M1725.9,475.56c0,0-2.61,1.58-0.21,2.63c2.39,1.05,6.17-4.81,13.28-0.19c0,0,2.02,0.06,0.87-1.31
					C1738.7,475.35,1733.36,471.16,1725.9,475.56z"/>
				<path class="st38" d="M1734.19,438.21c-8.71-2.12-18.62-0.7-20.75,2.19c0,0-20.91-3.77-29.18,11.46
					c-8.27,15.24-0.88,33.16-0.88,33.16s5.53,16.02,8.13,15.4c2.59-0.63,1.95-9.93,1.12-15.6c-0.83-5.67-0.93-7.12,2.32-9.17
					c3.23-2.06,21.09-7.26,19.92-18.77c0,0,2.78,8.85,9.59,10.53c6.84,1.69,19.17,5.46,20.14,10.71c0.97,5.23,2.38,14.05,4.43,13.86
					c1.65-0.15,3.18-10.11,3.66-17.46c0.11-1.81,0.17-3.49,0.15-4.81C1752.59,455.51,1746.71,441.25,1734.19,438.21z"/>
			</g>
			<path class="st39" d="M1435.02,623.18V322.89c-1.86-0.12-3.73-0.2-5.62-0.2c-1.58,0-3.14,0.04-4.69,0.12v298.54
				C1427.44,621.32,1431.71,621.55,1435.02,623.18z"/>
			<path class="st39" d="M1435.02,675.3v-15.72c-2.93,0.6-7.43,0.34-10.31,0.07v16.3c-0.01,1.22-0.2,2.37-0.49,3.49
				c-0.63,2.44-1.86,4.65-3.61,6.39c-2.54,2.55-6,4.11-9.88,4.11c-3.88,0-7.34-1.56-9.89-4.11c-2.53-2.54-4.09-6-4.09-9.88v-20.55
				c0-2.86-2.31-5.15-5.15-5.15c-2.86,0-5.17,2.29-5.17,5.15v20.55c0,13.41,10.87,24.28,24.3,24.28c7.83,0,14.78-3.71,19.21-9.48
				c3.17-4.07,5.08-9.22,5.08-14.8V675.3z"/>
			<path class="st39" d="M1426.9,139.52c0,0,0.02,0,0.03,0c0.05-0.02,0.09-0.02,0.15-0.03c0.07-0.02,0.13-0.03,0.21-0.05
				c0.07-0.01,0.14-0.01,0.21-0.01c0.03,0,0.07-0.01,0.11-0.01c0.05,0,0.09,0.02,0.15,0.02c0.07,0.01,0.14,0.03,0.2,0.03
				c0.07,0.02,0.13,0.05,0.19,0.07c0.04,0.02,0.09,0.02,0.14,0.05c0.01,0.01,0.02,0.01,0.03,0.01c1.11,0.55,2.18,1.12,3.26,1.68
				c0.43,0,0.86,0.02,1.29,0.03v-8.8c0-2.95-2.4-5.35-5.35-5.35c-2.95,0-5.36,2.4-5.36,5.35v8.8c0.18,0,0.34-0.01,0.5-0.01
				C1425.36,140.11,1426.87,139.54,1426.9,139.52z"/>
			
				<linearGradient id="SVGID_00000062870650350262327770000009087760320796604333_" gradientUnits="userSpaceOnUse" x1="1432.6962" y1="243.5676" x2="1579.0333" y2="243.5676">
				<stop  offset="0" style="stop-color:#29ABE2"/>
				<stop  offset="1" style="stop-color:#2D368F"/>
			</linearGradient>
			<path style="fill:url(#SVGID_00000062870650350262327770000009087760320796604333_);" d="M1432.7,145.88
				c44.25,69.86,49.3,152.17,49.32,186.51c0,2.65-0.03,5-0.07,7.06c9.89-10.05,27.52-16.75,47.7-16.75
				c21.37,0,39.89,7.52,49.38,18.56c-0.29-13.31-3.3-43.72-22.15-79.54C1537.38,224.64,1500.9,181.73,1432.7,145.88z"/>
			
				<linearGradient id="SVGID_00000180338376797923014960000002038026381903433143_" gradientUnits="userSpaceOnUse" x1="1280.8962" y1="242.8457" x2="1421.601" y2="242.8457">
				<stop  offset="0" style="stop-color:#29ABE2"/>
				<stop  offset="1" style="stop-color:#2D368F"/>
			</linearGradient>
			<path style="fill:url(#SVGID_00000180338376797923014960000002038026381903433143_);" d="M1383.93,239.58
				c6.45-33.17,17.77-67.73,37.67-93.86c-3.56,1.67-8.37,4.05-14.17,7.33c-12.6,7.11-29.61,18.23-47.13,34.22
				c-33.68,30.76-69.21,79.55-79.41,152.7c9.79-10.34,27.71-17.27,48.25-17.27c19.5,0,36.62,6.26,46.68,15.73
				c-0.05-2.54-0.08-5.47-0.08-8.82C1375.74,309.3,1377.02,275.22,1383.93,239.58z"/>
			
				<linearGradient id="SVGID_00000089546794116724782860000014502872346885846925_" gradientUnits="userSpaceOnUse" x1="1172.7299" y1="244.9419" x2="1422.6775" y2="244.9419">
				<stop  offset="0" style="stop-color:#29ABE2"/>
				<stop  offset="1" style="stop-color:#2D368F"/>
			</linearGradient>
			<path style="fill:url(#SVGID_00000089546794116724782860000014502872346885846925_);" d="M1357.9,184.63
				c28.05-25.61,54.73-38.87,64.78-43.33c-0.17,0-0.33,0.01-0.5,0.01c-123.22,2.48-225.32,90.59-249.45,207.27h2.07
				c6.55-14.93,28.25-25.89,54.1-25.89c20.64,0,38.63,7,48.38,17.42C1287.46,265.68,1323.65,215.88,1357.9,184.63z"/>
			
				<linearGradient id="SVGID_00000160156803718053285430000003080660218774495411_" gradientUnits="userSpaceOnUse" x1="1379.3245" y1="243.0396" x2="1478.4381" y2="243.0396">
				<stop  offset="0" style="stop-color:#29ABE2"/>
				<stop  offset="1" style="stop-color:#2D368F"/>
			</linearGradient>
			<path style="fill:url(#SVGID_00000160156803718053285430000003080660218774495411_);" d="M1435.02,322.89
				c18.65,1.15,34.56,8.06,43.31,17.85c0.07-2.32,0.11-5.09,0.11-8.36c0.02-34.56-5.29-118.57-51.07-188.17
				c-21.18,25.76-33.24,61.55-39.94,96.05c-6.84,35.31-8.11,69.18-8.11,89.34c0,5.03,0.07,9.12,0.16,12.25
				c8.64-10.55,25.46-18.01,45.22-19.04c1.55-0.09,3.11-0.12,4.69-0.12C1431.29,322.69,1433.16,322.77,1435.02,322.89z"/>
			
				<linearGradient id="SVGID_00000181079746503735323020000000856652391832359358_" gradientUnits="userSpaceOnUse" x1="1431.5919" y1="242.4563" x2="1681.1969" y2="242.4563">
				<stop  offset="0" style="stop-color:#29ABE2"/>
				<stop  offset="1" style="stop-color:#2D368F"/>
			</linearGradient>
			<path style="fill:url(#SVGID_00000181079746503735323020000000856652391832359358_);" d="M1560.04,260.04
				c18.28,34.75,21.93,64.48,22.48,79.06c9.95-9.86,27.42-16.4,47.38-16.4c22.89,0,42.55,8.59,51.29,20.93
				c-25.96-114.2-126.85-199.86-248.31-202.31c-0.44-0.01-0.86-0.03-1.29-0.03C1502.15,177.71,1539.95,221.84,1560.04,260.04z"/>
			<path class="st36" d="M1427.62,139.42c-0.04,0-0.09,0.01-0.11,0.01c0,0,0.01,0,0.02,0
				C1427.56,139.43,1427.59,139.42,1427.62,139.42z"/>
			<path class="st36" d="M1428.3,139.59c-0.05-0.02-0.1-0.02-0.14-0.05c0.01,0.01,0.03,0.01,0.03,0.02
				C1428.23,139.58,1428.27,139.58,1428.3,139.59z"/>
			<path class="st36" d="M1360.3,187.27c17.52-15.99,34.52-27.11,47.13-34.22c5.81-3.27,10.61-5.66,14.17-7.33
				c1.48-1.93,2.99-3.84,4.57-5.69c0.04-0.03,0.08-0.07,0.11-0.08c0.06-0.07,0.11-0.12,0.18-0.18c0.03-0.01,0.03-0.04,0.07-0.07
				c0.03-0.03,0.07-0.03,0.11-0.05c0.07-0.04,0.13-0.07,0.21-0.1c0.03-0.01,0.04-0.03,0.07-0.05c-0.01,0-0.03,0-0.03,0
				c-0.04,0.02-1.54,0.6-4.23,1.78c-10.05,4.47-36.73,17.72-64.78,43.33c-34.25,31.24-70.44,81.05-80.63,155.48
				c-0.38,2.75-0.8,5.46-1.1,8.27c-0.11,0.98,0.6,1.87,1.58,1.96c0.97,0.12,1.86-0.6,1.96-1.57c0.33-3,0.76-5.9,1.18-8.81
				C1291.09,266.83,1326.62,218.03,1360.3,187.27z"/>
			<path class="st36" d="M1387.43,240.27c6.69-34.5,18.76-70.29,39.94-96.05c-0.45-0.67-0.87-1.36-1.32-2.02
				c-0.04-0.08-0.05-0.16-0.08-0.22c-0.06-0.11-0.12-0.22-0.14-0.34c-0.03-0.11-0.03-0.23-0.05-0.34c-0.01-0.11-0.01-0.22,0-0.34
				c0.01-0.12,0.06-0.24,0.1-0.35c0.03-0.07,0.03-0.16,0.06-0.23c0.02-0.03,0.04-0.05,0.06-0.07c0.05-0.11,0.15-0.18,0.22-0.28
				c0.03-0.03,0.05-0.07,0.07-0.08c-0.03,0.01-0.07,0.05-0.11,0.08c-1.59,1.85-3.09,3.76-4.57,5.69
				c-19.9,26.13-31.22,60.69-37.67,93.86c-6.92,35.64-8.19,69.72-8.19,90.03c0,3.34,0.03,6.28,0.08,8.82
				c0.14,6.48,0.35,10.23,0.35,10.26c0.07,0.97,0.92,1.73,1.89,1.67c0.98-0.06,1.74-0.9,1.69-1.89c0-0.01-0.12-1.74-0.22-5
				c-0.03-0.48-0.04-1.06-0.05-1.61c-0.09-3.13-0.16-7.23-0.16-12.25C1379.32,309.45,1380.59,275.57,1387.43,240.27z"/>
			<path class="st36" d="M1428.12,139.54c0.02,0.01,0.05,0.01,0.08,0.02c0-0.01-0.01-0.01-0.03-0.02c-0.06-0.02-0.13-0.05-0.19-0.07
				C1428.01,139.49,1428.07,139.52,1428.12,139.54z"/>
			<path class="st36" d="M1426.87,139.56c-0.09,0.02-0.15,0.06-0.21,0.1c0.02-0.01,0.07-0.03,0.1-0.04
				C1426.78,139.6,1426.81,139.58,1426.87,139.56z"/>
			<path class="st36" d="M1427.43,139.44c0.02,0,0.05-0.01,0.09-0.01c-0.01,0-0.02,0-0.02,0c-0.07,0-0.14,0-0.21,0.01
				C1427.34,139.44,1427.38,139.44,1427.43,139.44z"/>
			<path class="st36" d="M1432.7,145.88c-1.97-1.05-3.95-2.07-5.97-3.1c-0.37-0.17-0.6-0.47-0.76-0.8c0.03,0.07,0.05,0.14,0.08,0.22
				c0.45,0.66,0.88,1.35,1.32,2.02c45.78,69.6,51.09,153.61,51.07,188.17c0,3.27-0.04,6.03-0.11,8.36
				c-0.04,1.32-0.08,2.53-0.11,3.52c-0.07,1.37-0.11,2.43-0.16,3.13c-0.04,0.7-0.07,1.05-0.07,1.06c-0.08,0.97,0.66,1.82,1.65,1.91
				c0.98,0.07,1.83-0.66,1.91-1.64c0-0.03,0.26-3.35,0.39-9.28c0.04-2.06,0.07-4.4,0.07-7.06
				C1482,298.05,1476.94,215.74,1432.7,145.88z"/>
			<path class="st36" d="M1428.12,139.54c-0.05-0.02-0.1-0.05-0.15-0.07c-0.07-0.01-0.13-0.02-0.2-0.03
				C1427.89,139.46,1428.01,139.49,1428.12,139.54z"/>
			<path class="st36" d="M1427.43,139.44c-0.06,0-0.1,0-0.14,0c-0.08,0.01-0.14,0.03-0.21,0.05
				C1427.2,139.45,1427.31,139.45,1427.43,139.44z"/>
			<path class="st36" d="M1426,140.31c0.07-0.11,0.15-0.18,0.22-0.28C1426.14,140.12,1426.05,140.2,1426,140.31z"/>
			<path class="st36" d="M1425.78,140.96c0.01-0.12,0.06-0.24,0.1-0.35C1425.84,140.72,1425.79,140.84,1425.78,140.96z"/>
			<path class="st36" d="M1426.75,139.62c-0.03,0.01-0.08,0.02-0.1,0.04c-0.04,0.01-0.08,0.01-0.11,0.05
				c-0.04,0.02-0.04,0.06-0.07,0.07C1426.55,139.72,1426.66,139.67,1426.75,139.62z"/>
			<path class="st36" d="M1425.83,141.64c-0.03-0.11-0.03-0.23-0.05-0.34C1425.79,141.41,1425.79,141.52,1425.83,141.64z"/>
			<path class="st36" d="M1431.59,141.28c-1.08-0.56-2.15-1.13-3.26-1.68c-0.01,0-0.02,0-0.03-0.01c-0.03-0.01-0.07-0.01-0.11-0.02
				c-0.03-0.01-0.05-0.01-0.08-0.02c-0.11-0.05-0.23-0.08-0.35-0.1c-0.05,0-0.09-0.02-0.15-0.02c-0.03,0-0.06,0.01-0.1,0.01
				c-0.04,0-0.07,0.01-0.09,0.01c-0.12,0.01-0.24,0.01-0.35,0.05c-0.06,0.01-0.1,0.01-0.15,0.03c-0.03,0.02-0.04,0.03-0.07,0.05
				c-0.05,0.01-0.09,0.04-0.11,0.06c-0.09,0.05-0.2,0.09-0.29,0.15c-0.07,0.06-0.12,0.1-0.18,0.18c-0.02,0.01-0.04,0.06-0.07,0.08
				c-0.07,0.09-0.15,0.17-0.22,0.28c-0.02,0.03-0.04,0.05-0.06,0.07c-0.03,0.08-0.03,0.16-0.06,0.23c-0.04,0.11-0.09,0.23-0.1,0.35
				c-0.01,0.12-0.01,0.23,0,0.34c0.01,0.11,0.01,0.22,0.05,0.34c0.01,0.11,0.08,0.23,0.14,0.34c0.16,0.34,0.39,0.63,0.76,0.8
				c2.02,1.03,4.01,2.06,5.97,3.1c68.21,35.85,104.68,78.76,124.18,115.83c18.85,35.82,21.86,66.23,22.15,79.54
				c0.01,0.86,0.03,1.65,0.03,2.35c0,1.59-0.06,2.79-0.09,3.61c-0.01,0.41-0.03,0.72-0.04,0.92l-0.02,0.29
				c-0.09,0.97,0.64,1.83,1.62,1.93c0.98,0.08,1.86-0.64,1.94-1.63c0-0.04,0.16-1.85,0.16-5.12c0-1.26-0.03-2.81-0.1-4.51
				c-0.56-14.58-4.21-44.31-22.48-79.06C1539.95,221.84,1502.15,177.71,1431.59,141.28z"/>
			<path class="st3" d="M1806.62,887.69h-164.06c-0.79,0-1.45,0.66-1.45,1.46c0,0.8,0.65,1.45,1.45,1.45h164.06
				c0.8,0,1.45-0.65,1.45-1.45C1808.07,888.35,1807.42,887.69,1806.62,887.69z"/>
			<g>
				<path class="st23" d="M1448.48,660.43c0.06-0.29,4.18-18.07,0.1-25.78c-4.11-7.76-6.76-3.18-6.76-3.18s-0.85-2.03-2.7-4.26
					c-0.82-1.87-2.31-3.15-4.1-4.02c-3.31-1.63-7.57-1.87-10.31-1.82c-1.65,0.03-2.76,0.17-2.76,0.17v0.2
					c-6.67,0.76-11.72,4.13-12.45,15.05c-0.88,12.87,6.38,26.97,14.72,42.66c0.29-1.11,0.48-2.27,0.49-3.49v-16.3
					c2.89,0.27,7.38,0.52,10.31-0.07v15.72v0.64c0,5.58-1.91,10.72-5.08,14.8c14.84,29.14,51.14,82,115.15,69.77
					c30.54-5.83,48.88-19.38,59.9-33.61c-17.44-5.97-40.81-24.4-49.59-31.67C1532.14,715.66,1496.43,722.07,1448.48,660.43z"/>
				<path class="st23" d="M1752.7,474.54c-0.48,7.35-2.01,17.31-3.66,17.46c-2.05,0.19-3.46-8.63-4.43-13.86
					c-0.98-5.24-13.3-9.01-20.14-10.71c-6.81-1.68-9.59-10.53-9.59-10.53c1.18,11.51-16.69,16.71-19.92,18.77
					c-3.25,2.05-3.15,3.5-2.32,9.17c0.83,5.66,1.46,14.97-1.12,15.6c-2.6,0.62-8.13-15.4-8.13-15.4c-1.54-0.63-3.31-1.61-5.37,0.3
					c-2.94,2.7-0.93,21.35,9.47,20.27c0.89-0.08,1.82-0.27,2.83-0.68c2.43,7.69,6.31,16.43,12.3,22.78
					c5.76,6.08,13.46,9.95,23.77,8.51c8.55-1.2,14.08-6.17,17.64-12.69c4.35-8,5.71-18.34,5.91-27.04c0.82,0.09,1.55,0.09,2.24,0.03
					c11.3-0.86,7.57-19.71,4.37-22.25C1755.28,473.27,1753.8,473.93,1752.7,474.54z M1686.24,502.44c-2.97,2.06-5.18-3.55-5.08-5.22
					c0.1-1.68-1.33-0.37-2.45-4.05c-1.12-3.68,1.74-5.64,1.74-5.64C1683.76,487.91,1689.2,500.38,1686.24,502.44z M1695.89,484.33
					c0,0-1.92,0.63-1.22-1c0.71-1.64,4.61-7.17,13.05-5.1c0,0,2.94,0.74,0.95,2.44C1706.68,482.38,1701.37,477.85,1695.89,484.33z
					 M1705.3,493.68c-0.87,0.13-1.74-0.87-1.94-2.23c-0.2-1.35,0.34-2.56,1.23-2.69c0.88-0.12,1.74,0.88,1.95,2.23
					C1706.73,492.34,1706.18,493.55,1705.3,493.68z M1704.87,505.85c-4.01-0.27-7.09-2.77-6.89-5.58c0.19-2.82,3.59-4.87,7.58-4.59
					c3.99,0.28,7.08,2.78,6.9,5.59C1712.26,504.07,1708.86,506.13,1704.87,505.85z M1725.9,475.56c7.46-4.4,12.8-0.22,13.94,1.13
					c1.15,1.37-0.87,1.31-0.87,1.31c-7.11-4.62-10.89,1.24-13.28,0.19C1723.29,477.14,1725.9,475.56,1725.9,475.56z M1732.64,489.67
					c-0.89,0.12-1.76-0.87-1.96-2.22c-0.2-1.34,0.35-2.55,1.23-2.68c0.88-0.13,1.74,0.87,1.95,2.22
					C1734.06,488.34,1733.5,489.54,1732.64,489.67z M1716.86,483.99c0.51-3.23,2.2-1.51,2.2-1.51c1.85,0.63,8.27,19.09,7.74,20.71
					c-0.53,1.61-9.39,2.86-10.47,1.84C1715.24,504,1716.65,485.35,1716.86,483.99z M1729.67,512.05c-0.34,1.24-2.17,3.69-6.25,4.3
					c-4.29,0.63-8.38-1.82-6.68-4.05c1.7-2.26,3.64-0.38,6.16-0.57c0,0,2.31-0.74,3.74-1.81
					C1727.61,509.19,1730.02,510.83,1729.67,512.05z M1739.3,500.8c-3.75,1.41-7.6,0.42-8.58-2.23c-0.99-2.62,1.24-5.91,5-7.32
					c3.75-1.4,7.59-0.42,8.59,2.23C1745.29,496.13,1743.05,499.41,1739.3,500.8z M1756.61,486.99c0.57,1.58,0.07,7.6-3.36,6.47
					c-3.42-1.14-1.79-14.64,1.27-15.96c0,0,3.31,1.07,3.28,4.92C1757.78,486.25,1756.03,485.4,1756.61,486.99z"/>
				<path class="st23" d="M1909.02,894.24c0.1-32.32-1.85-115.17-22.18-190.43c-9.03,6.74-28.16,19.94-44.17,24.03
					c10.03,32.76,22.43,87.99,25.21,166.42c-0.02,0.44-2.27,62.21,1.21,57.39c3.5-4.83,5.91-26.05,5.91-26.05s2.94,28.63,6.77,26.39
					c3.83-2.27,6.76-23.02,6.76-23.02s0.94,26,4.31,23.14c3.39-2.87,6.76-26.99,6.76-26.99s1.44,32.71,4.34,27.21
					c2.21-4.19,4.06-26.75,4.77-44.09h0.08c0,0,0.11-3.06,0.18-8.54C1909.02,897.7,1909.03,895.83,1909.02,894.24L1909.02,894.24z"
					/>
			</g>
			<path class="st3" d="M1886.13,698.89c0.66-0.47,0.81-1.37,0.35-2.03c-0.45-0.67-1.36-0.8-2.02-0.36
				c-4.92,3.45-15.55,9.29-24.87,14.22c-4.67,2.48-9.02,4.73-12.2,6.36c-3.2,1.63-5.21,2.64-5.21,2.64c-0.71,0.37-1,1.23-0.64,1.94
				c0.36,0.71,1.22,1.01,1.94,0.65c0.01,0,8.1-4.06,17.46-9.02C1870.33,708.32,1880.93,702.52,1886.13,698.89z"/>
		</g>
		<g>
			<polygon class="st45" points="1511.53,877.33 1411.51,877.33 1411.51,918.89 1511.53,972.47 			"/>
			<rect x="1411.51" y="860.13" class="st46" width="100.02" height="17.2"/>
			<path class="st45" d="M1148.94,1288.19v-194.64h168.8v179.79c8.49-1.68,16.95-3.44,25.4-5.33c33.41-7.46,66.75-16.87,99.53-28.08
				h-80.4v-8.97h-3.89v-133.62h153.15v115.99c14.59-6.31,29.01-12.98,43.17-20.02v-112.27l-320.9-171.92l-320.92,171.92v143.36
				c48.31,24.86,99.53,43.79,153.18,54.34C1093.57,1284.13,1121.24,1287.13,1148.94,1288.19z M945.76,1230.95v-133.62h153.17v133.62
				h-4.69v8.97H949.66v-8.97H945.76z"/>
			<path class="st47" d="M1139.03,1389.96v-25.5h9.9v-76.27c-27.7-1.06-55.36-4.06-82.88-9.45
				c-53.65-10.55-104.87-29.48-153.18-54.34v76.25c26.21-2.96,38.95,48.68,38.95,48.68s6.25-28.92,36.72-25.8
				c30.49,3.14,14.85,56.26,14.85,56.26s42.21-48.43,42.98,10.17c0,0,51.57-13.28,31.25,25.52h44.75v-25.52H1139.03z"/>
			<path class="st47" d="M1511.53,1230.95h-4.69v8.97h-64.17c-32.78,11.21-66.12,20.62-99.53,28.08c-8.45,1.89-16.91,3.65-25.4,5.33
				v91.13h12.5v25.5h16.68v25.52h10.68c-20.32-38.8,31.26-25.52,31.26-25.52c0.77-58.6,42.98-10.17,42.98-10.17
				s-15.64-53.12,14.85-56.26c30.47-3.12,36.72,25.8,36.72,25.8s13.28-53.91,40.64-48.44c27.35,5.46,19.07,58.6,19.07,58.6
				s4.59-8.46,11.59-17.45V1193.3c-14.16,7.03-28.58,13.7-43.17,20.02V1230.95z"/>
			<polygon class="st46" points="1554.69,1081.04 1554.69,1050.83 1233.79,878.9 912.87,1050.83 912.87,1081.04 1233.79,909.11 			
				"/>
			<polygon class="st38" points="1583.42,1033.64 1583.42,1066.2 1233.79,878.9 1554.69,1050.83 1583.87,1066.47 1583.87,1011.23 
				1511.53,972.47 1411.51,918.89 1233.79,823.68 883.7,1011.23 883.7,1033.38 1233.33,846.08 			"/>
			<polygon class="st48" points="1583.42,1066.2 1583.42,1033.64 1233.33,846.08 883.7,1033.38 883.7,1066.47 912.87,1050.83 
				1233.79,878.9 			"/>
			<rect x="1402.13" y="828.47" class="st49" width="121.9" height="14.48"/>
			<polygon class="st50" points="1524.03,860.13 1524.03,842.95 1402.13,842.95 1402.13,860.13 1411.51,860.13 1511.53,860.13 			
				"/>
			<polygon class="st51" points="1161.37,1126.12 1161.37,1112.34 1305.29,1112.34 1305.29,1126.12 1305.29,1364.46 
				1317.73,1364.46 1317.73,1273.33 1317.73,1093.55 1148.94,1093.55 1148.94,1288.19 1148.94,1364.46 1161.37,1364.46 			"/>
			<path class="st52" d="M1305.29,1126.12h-143.92v238.34h143.92V1126.12z M1283.31,1234.17c0-2.86,2.09-5.2,4.67-5.2
				c2.57,0,4.66,2.34,4.66,5.2v32.73c0,2.87-2.09,5.2-4.66,5.2c-2.57,0-4.67-2.33-4.67-5.2V1234.17z"/>
			<rect x="1161.37" y="1112.34" class="st53" width="143.92" height="13.79"/>
			<path class="st54" d="M1287.98,1272.09c2.57,0,4.66-2.33,4.66-5.2v-32.73c0-2.86-2.09-5.2-4.66-5.2c-2.57,0-4.67,2.34-4.67,5.2
				v32.73C1283.31,1269.76,1285.4,1272.09,1287.98,1272.09z"/>
			<path class="st55" d="M1524.03,1300.89c-27.36-5.47-40.64,48.44-40.64,48.44s-6.25-28.92-36.72-25.8
				c-30.49,3.14-14.85,56.26-14.85,56.26s-42.21-48.43-42.98,10.17c0,0-51.58-13.28-31.26,25.52h93.77h103.34h68.58
				c0,0,21.88-41.15,5.47-48.18c-16.4-7.03-34.38,12.5-34.38,12.5s19.54-48.43-3.12-57.82c-13.06-5.39-27.02,7.86-36.55,20.07
				c-7,8.99-11.59,17.45-11.59,17.45S1551.38,1306.35,1524.03,1300.89z"/>
			<path class="st55" d="M1046.37,1389.96c-0.78-58.6-42.98-10.17-42.98-10.17s15.64-53.12-14.85-56.26
				c-30.47-3.12-36.72,25.8-36.72,25.8s-12.74-51.64-38.95-48.68c-0.57,0.05-1.12,0.11-1.7,0.24c-27.34,5.46-19.07,58.6-19.07,58.6
				s-25.46-46.89-48.12-37.52c-22.66,9.39-3.13,57.82-3.13,57.82s-17.98-19.53-34.38-12.5c-16.4,7.03,5.48,48.18,5.48,48.18h100.93
				h70.98h93.77C1097.94,1376.68,1046.37,1389.96,1046.37,1389.96z"/>
			<path class="st51" d="M1506.84,1230.95h4.69v-17.63v-115.99h-153.15v133.62h3.89H1506.84z M1430.26,1216.46h-59.39v-46.86v-6.93
				v-5.81v-45.07h59.39h13.29h55.48v45.07v7.29v5.45v46.86h-55.48H1430.26z"/>
			<rect x="1443.55" y="1169.61" class="st56" width="55.48" height="46.86"/>
			<path class="st56" d="M1380.41,1156.86h49.85v-15.81C1415.22,1142,1398.52,1146.62,1380.41,1156.86z"/>
			<path class="st56" d="M1443.55,1156.86h45.31c-11.89-7.57-27.16-14.23-45.31-15.67V1156.86z"/>
			<rect x="1370.87" y="1169.61" class="st56" width="59.39" height="46.86"/>
			<path class="st57" d="M1488.86,1156.86h10.17v-45.07h-55.48v29.4C1461.7,1142.63,1476.97,1149.29,1488.86,1156.86z"/>
			<path class="st57" d="M1430.26,1141.06v-29.27h-59.39v45.07h9.54C1398.52,1146.62,1415.22,1142,1430.26,1141.06z"/>
			<polygon class="st51" points="1430.26,1156.86 1443.55,1156.86 1443.55,1141.19 1443.55,1111.79 1430.26,1111.79 
				1430.26,1141.06 			"/>
			<rect x="1430.26" y="1169.61" class="st51" width="13.29" height="46.86"/>
			<polygon class="st51" points="1443.55,1169.61 1499.03,1169.61 1499.03,1164.15 1499.03,1156.86 1488.86,1156.86 
				1443.55,1156.86 1430.26,1156.86 1380.41,1156.86 1370.87,1156.86 1370.87,1162.67 1370.87,1169.61 1430.26,1169.61 			"/>
			<polygon class="st46" points="1506.84,1230.95 1362.27,1230.95 1362.27,1239.92 1442.67,1239.92 1506.84,1239.92 			"/>
			<path class="st51" d="M1098.93,1230.95v-133.62H945.76v133.62h3.9h144.58H1098.93z M1086.42,1156.86v7.29v5.45v46.86h-55.48
				h-13.28h-59.39v-46.86v-6.93v-5.81v-45.07h59.39h13.28h55.48V1156.86z"/>
			<rect x="958.26" y="1169.61" class="st56" width="59.39" height="46.86"/>
			<rect x="1030.93" y="1169.61" class="st56" width="55.48" height="46.86"/>
			<path class="st56" d="M1076.23,1156.86c-11.86-7.57-27.13-14.23-45.3-15.67v15.67H1076.23z"/>
			<path class="st56" d="M967.8,1156.86h49.85v-15.81C1002.61,1142,985.92,1146.62,967.8,1156.86z"/>
			<path class="st57" d="M1030.93,1141.19c18.17,1.44,33.44,8.1,45.3,15.67h10.18v-45.07h-55.48V1141.19z"/>
			<path class="st57" d="M1017.65,1141.06v-29.27h-59.39v45.07h9.54C985.92,1146.62,1002.61,1142,1017.65,1141.06z"/>
			<polygon class="st51" points="1017.65,1156.86 1030.93,1156.86 1030.93,1141.19 1030.93,1111.79 1017.65,1111.79 
				1017.65,1141.06 			"/>
			<rect x="1017.65" y="1169.61" class="st51" width="13.28" height="46.86"/>
			<polygon class="st51" points="1030.93,1156.86 1017.65,1156.86 967.8,1156.86 958.26,1156.86 958.26,1162.67 958.26,1169.61 
				1017.65,1169.61 1030.93,1169.61 1086.42,1169.61 1086.42,1164.15 1086.42,1156.86 1076.23,1156.86 			"/>
			<rect x="949.66" y="1230.95" class="st46" width="144.58" height="8.97"/>
			<polygon class="st58" points="1346.91,1389.96 1330.23,1389.96 1139.03,1389.96 1122.37,1389.96 1122.37,1415.48 
				1346.91,1415.48 			"/>
			<polygon class="st59" points="1317.73,1364.46 1305.29,1364.46 1161.37,1364.46 1148.94,1364.46 1139.03,1364.46 
				1139.03,1389.96 1330.23,1389.96 1330.23,1364.46 			"/>
		</g>
	</g>
</g>
<rect x="-594.46" y="655.54" class="st26" width="180.84" height="117.78"/>
</svg>
