<?xml version="1.0" encoding="utf-8"?>
<!-- Generator: Adobe Illustrator 26.0.1, SVG Export Plug-In . SVG Version: 6.00 Build 0)  -->
<svg version="1.1" id="Layer_1" xmlns="http://www.w3.org/2000/svg" xmlns:xlink="http://www.w3.org/1999/xlink" x="0px" y="0px"
	 viewBox="0 0 568 556" style="enable-background:new 0 0 568 556;" xml:space="preserve">
<style type="text/css">
	.st0{fill:url(#SVGID_1_);}
	.st1{fill:url(#SVGID_00000084499663799933263250000006671115274402230191_);}
	.st2{fill:url(#SVGID_00000156586416897560405180000002326775689931281578_);}
	.st3{fill:url(#SVGID_00000091015555389367795510000014601001945411090356_);}
	.st4{fill:url(#SVGID_00000009585655091115206980000005476568677626326920_);}
	.st5{fill:url(#SVGID_00000036222781894782389400000015111094851097020822_);}
	.st6{fill:url(#SVGID_00000010298745455860351300000003961489489524677812_);}
	.st7{fill:url(#SVGID_00000182509384630257194150000017097896092481325456_);}
	.st8{font-family:'Montserrat-Regular';}
	.st9{font-size:36px;}
</style>
<g>
	<linearGradient id="SVGID_1_" gradientUnits="userSpaceOnUse" x1="113.3574" y1="264.4359" x2="455.6327" y2="264.4359">
		<stop  offset="0" style="stop-color:#00ADEE"/>
		<stop  offset="1" style="stop-color:#2E3191"/>
	</linearGradient>
	<path class="st0" d="M384.89,72.44c4.35,0.95,8.8,1.59,13.04,2.91c32.39,10.08,52.34,31.93,56.86,65.49
		c4.48,33.28-8.98,59.42-37.12,77.75c-2.12,1.38-3.08,2.68-3.04,5.28c0.16,10.12,0.07,20.24,0.06,30.36c0,1.12,0.06,2.26-0.07,3.37
		c-0.5,4.4-3.57,7.21-7.7,7.1c-4.13-0.11-7.1-3.08-7.16-7.55c-0.11-8.62-0.04-17.24-0.05-25.87c0-1.35,0-2.7,0-4.52
		c-11.92,3.28-23.63,4.09-36.04,2.16c0,1.91,0,3.49,0,5.06c0,50.86,0.01,101.72-0.01,152.58c-0.01,13.98-7.06,24.53-19.12,28.13
		c-3.28,0.98-6.87,1.26-10.32,1.27c-49.89,0.08-99.78,0.05-149.67,0.05c-1.49,0-2.98,0-5.48,0c0.39,5.97,0.07,11.87,1.33,17.41
		c1.18,5.17,5.64,7.73,11.03,7.96c3.24,0.14,6.48,0.03,9.73,0.03c61.24,0,122.48,0,183.72,0c10.25,0,14.82-4.58,14.82-14.87
		c0.01-32.61,0-65.23,0.01-97.84c0-1.37-0.04-2.75,0.07-4.12c0.31-3.81,3.02-6.58,6.65-6.9c3.81-0.34,7.09,2.03,7.93,5.9
		c0.31,1.44,0.31,2.97,0.31,4.47c0.02,32.74,0.02,65.48,0.01,98.22c0,16.07-7.02,25.34-22.47,29.73c-0.22,0.06-0.4,0.28-0.59,0.43
		c-68.12,0-136.24,0-204.36,0c-0.19-0.15-0.36-0.39-0.57-0.45c-15.47-4.51-22.27-13.61-22.29-29.83c0-3.22,0-6.44,0-10.12
		c-7.61,0-14.81,0.01-22.01,0c-17.57-0.04-29.02-11.44-29.02-29.11c-0.03-89.71-0.02-179.42,0.03-269.13c0-2.85,0.25-5.78,0.94-8.53
		c3.19-12.7,13.77-20.49,27.73-20.5c61.11-0.02,122.22,0.01,183.32-0.1c2.28,0,4.88-0.88,6.8-2.17c8.7-5.84,18.07-10.01,28.28-12.3
		c2.89-0.65,5.8-1.18,8.7-1.76C374.41,72.44,379.65,72.44,384.89,72.44z M314.31,103.75c-2.11,0-3.43,0-4.75,0
		c-12.47,0-24.95,0-37.42,0c-43.28,0-86.57,0-129.85,0c-6.69,0-11.35,2.69-13.04,7.92c-0.71,2.2-0.88,4.66-0.88,7.01
		c-0.04,89.11-0.04,178.22-0.03,267.32c0,1-0.03,2,0.04,3c0.52,7.24,5.44,12,12.7,12.01c64.99,0.03,129.98,0.03,194.97,0
		c7.12,0,11.95-4.62,12.59-11.71c0.11-1.24,0.08-2.5,0.08-3.75c0-52.11,0-104.23,0-156.34c0-0.87,0.2-1.82-0.06-2.61
		c-0.31-0.94-0.83-2.21-1.6-2.54c-15.27-6.47-27.28-16.81-36.22-30.4c-2.42,0.35-4.6,0.92-6.77,0.93
		c-43.66,0.05-87.32,0.05-130.98,0.03c-6.79,0-9.5-2.73-9.53-9.56c-0.04-8.75-0.01-17.5-0.01-26.24c0-8.73,2.12-10.88,10.78-10.88
		c39.79,0,79.58,0,119.38,0c1.57,0,3.14,0,4.85,0C299.36,131.52,304.69,117.24,314.31,103.75z M313.52,151.26
		c0.02,35.16,28.39,63.66,63.44,63.72c35.17,0.06,63.86-28.6,63.85-63.79c-0.01-35.15-28.75-63.82-63.92-63.75
		C341.91,87.5,313.5,116.11,313.52,151.26z M298.34,163.24c-40.12,0-79.8,0-119.53,0c0,5.6,0,10.89,0,16.12
		c39.99,0,79.67,0,119.53,0C298.34,173.89,298.34,168.69,298.34,163.24z"/>
	
		<linearGradient id="SVGID_00000098208253305976116110000000330585812137050301_" gradientUnits="userSpaceOnUse" x1="399.7601" y1="291.0822" x2="414.6349" y2="291.0822">
		<stop  offset="0" style="stop-color:#00ADEE"/>
		<stop  offset="1" style="stop-color:#2E3191"/>
	</linearGradient>
	<path style="fill:url(#SVGID_00000098208253305976116110000000330585812137050301_);" d="M399.76,291.11
		c-0.02-4.16,3.13-7.39,7.25-7.46c4.22-0.07,7.7,3.39,7.62,7.56c-0.08,3.99-3.51,7.31-7.54,7.3
		C403.03,298.49,399.78,295.22,399.76,291.11z"/>
	
		<linearGradient id="SVGID_00000166642835594167603240000012290959969631797899_" gradientUnits="userSpaceOnUse" x1="163.6149" y1="299.263" x2="313.4106" y2="299.263">
		<stop  offset="0" style="stop-color:#00ADEE"/>
		<stop  offset="1" style="stop-color:#2E3191"/>
	</linearGradient>
	<path style="fill:url(#SVGID_00000166642835594167603240000012290959969631797899_);" d="M238.48,306.76
		c-21.45,0-42.9,0-64.35-0.01c-1.37,0-2.76,0.03-4.11-0.16c-3.7-0.51-6.33-3.51-6.41-7.15c-0.08-3.62,2.45-6.75,6.13-7.39
		c1.46-0.26,2.98-0.27,4.47-0.28c42.9-0.01,85.8-0.01,128.7-0.01c6.91,0,10.39,2.47,10.49,7.39c0.1,5.07-3.42,7.6-10.58,7.61
		C281.38,306.76,259.93,306.76,238.48,306.76z"/>
	
		<linearGradient id="SVGID_00000168805298054801112960000000638962007464415364_" gradientUnits="userSpaceOnUse" x1="163.6099" y1="228.1871" x2="313.4074" y2="228.1871">
		<stop  offset="0" style="stop-color:#00ADEE"/>
		<stop  offset="1" style="stop-color:#2E3191"/>
	</linearGradient>
	<path style="fill:url(#SVGID_00000168805298054801112960000000638962007464415364_);" d="M238.56,235.69
		c-21.45,0-42.9,0-64.35-0.01c-1.49,0-3.01,0.02-4.47-0.25c-3.71-0.69-6.2-3.79-6.13-7.41c0.08-3.77,2.88-6.78,6.78-7.2
		c1.36-0.15,2.74-0.12,4.11-0.12c42.65-0.01,85.31-0.01,127.96,0c1.49,0,3-0.03,4.48,0.16c3.71,0.46,6.35,3.43,6.46,7.09
		c0.11,3.54-2.14,6.59-5.67,7.37c-1.56,0.35-3.21,0.36-4.83,0.36C281.46,235.69,260.01,235.69,238.56,235.69z"/>
	
		<linearGradient id="SVGID_00000166665688190813583610000015295419804494916484_" gradientUnits="userSpaceOnUse" x1="163.619" y1="334.902" x2="313.4184" y2="334.902">
		<stop  offset="0" style="stop-color:#00ADEE"/>
		<stop  offset="1" style="stop-color:#2E3191"/>
	</linearGradient>
	<path style="fill:url(#SVGID_00000166665688190813583610000015295419804494916484_);" d="M238.5,327.41
		c22.08,0,44.15,0.03,66.23-0.03c3.4-0.01,6.16,0.94,7.81,4.05c2.41,4.53-0.36,9.96-5.52,10.83c-1.34,0.22-2.74,0.14-4.11,0.14
		c-42.91,0.01-85.81,0-128.72,0c-1,0-2,0.04-2.99-0.03c-4.49-0.29-7.68-3.53-7.58-7.66c0.1-4.14,3.34-7.27,7.9-7.28
		c15.09-0.06,30.18-0.02,45.28-0.03C224.03,327.41,231.26,327.41,238.5,327.41z"/>
	
		<linearGradient id="SVGID_00000170986317323041125890000011526193974333718175_" gradientUnits="userSpaceOnUse" x1="163.6199" y1="263.715" x2="313.4044" y2="263.715">
		<stop  offset="0" style="stop-color:#00ADEE"/>
		<stop  offset="1" style="stop-color:#2E3191"/>
	</linearGradient>
	<path style="fill:url(#SVGID_00000170986317323041125890000011526193974333718175_);" d="M238.5,271.21c-21.45,0-42.91,0-64.36,0
		c-1.25,0-2.5,0.06-3.74-0.07c-3.83-0.41-6.69-3.51-6.78-7.25c-0.09-3.56,2.48-6.81,6.09-7.5c1.33-0.25,2.73-0.18,4.1-0.18
		c43.15-0.01,86.31-0.01,129.46,0c1.25,0,2.51-0.07,3.73,0.12c3.84,0.6,6.5,3.83,6.39,7.6c-0.11,3.79-2.93,6.81-6.8,7.21
		c-1.11,0.12-2.24,0.06-3.36,0.06C281.66,271.21,260.08,271.21,238.5,271.21z"/>
	
		<linearGradient id="SVGID_00000017480512210747347770000016423813518488136854_" gradientUnits="userSpaceOnUse" x1="369.7114" y1="167.0119" x2="384.7186" y2="167.0119">
		<stop  offset="0" style="stop-color:#00ADEE"/>
		<stop  offset="1" style="stop-color:#2E3191"/>
	</linearGradient>
	<path style="fill:url(#SVGID_00000017480512210747347770000016423813518488136854_);" d="M369.73,166.95
		c0-8.11-0.04-16.23,0.01-24.34c0.03-5.35,2.77-8.55,7.22-8.66c4.55-0.12,7.69,3.26,7.71,8.65c0.07,16.35,0.07,32.7,0,49.05
		c-0.02,5.24-3.02,8.42-7.5,8.43c-4.52,0.01-7.37-3.14-7.41-8.42C369.68,183.42,369.73,175.18,369.73,166.95z"/>
	
		<linearGradient id="SVGID_00000011718938578371027590000006709961202623443627_" gradientUnits="userSpaceOnUse" x1="369.7464" y1="117.322" x2="384.5775" y2="117.322">
		<stop  offset="0" style="stop-color:#00ADEE"/>
		<stop  offset="1" style="stop-color:#2E3191"/>
	</linearGradient>
	<path style="fill:url(#SVGID_00000011718938578371027590000006709961202623443627_);" d="M369.75,117.26c0-4.17,3.14-7.36,7.3-7.4
		c4.09-0.04,7.44,3.19,7.53,7.24c0.09,4.13-3.47,7.75-7.56,7.68C372.98,124.72,369.75,121.37,369.75,117.26z"/>
</g>
<text transform="matrix(1 0 0 1 133.7646 521.8232)" class="st8 st9">information whiz</text>
</svg>
