<?xml version="1.0" encoding="utf-8"?>
<!-- Generator: Adobe Illustrator 26.0.1, SVG Export Plug-In . SVG Version: 6.00 Build 0)  -->
<svg version="1.1" id="Layer_1" xmlns="http://www.w3.org/2000/svg" xmlns:xlink="http://www.w3.org/1999/xlink" x="0px" y="0px"
	 viewBox="0 0 2000 1683.24" style="enable-background:new 0 0 2000 1683.24;" xml:space="preserve">
<style type="text/css">
	.st0{fill:#F4F7FD;}
	.st1{fill:#102A54;}
	.st2{fill:#FFC0B1;}
	.st3{fill:#3C94F8;}
	.st4{fill:#2B87E2;}
	.st5{fill:url(#SVGID_1_);}
	.st6{fill:#FFFFFF;}
	.st7{clip-path:url(#XMLID_00000056414183729254990730000017065797905235172523_);fill:#DFC2A1;}
	.st8{fill:#FFB841;}
	.st9{fill:#FCA714;}
	.st10{opacity:0.7;fill:#FCA714;}
	.st11{fill:url(#SVGID_00000102507143454647356070000010276940547758787263_);}
	.st12{fill:url(#SVGID_00000039820285115578648860000000590944714359297183_);}
	.st13{fill:url(#SVGID_00000144312627044355680960000014636183939528117647_);}
	.st14{fill:url(#SVGID_00000109722942294567144630000004959991418731012770_);}
	.st15{fill:url(#SVGID_00000056398024587547927590000006861564019082411966_);}
	.st16{fill:url(#SVGID_00000034072583653947797450000001302315870817896886_);}
	.st17{fill:url(#SVGID_00000081634081911751712130000010050106343799789968_);}
	.st18{fill:url(#SVGID_00000147903465679628198890000005942789474471744645_);}
	.st19{fill:url(#SVGID_00000113343579012163785050000001226388917461320890_);}
	.st20{fill:url(#SVGID_00000080188277153428770660000013427465238979073724_);}
	.st21{fill:url(#SVGID_00000096781921299509520090000002466479488179731105_);}
	.st22{fill:url(#SVGID_00000008843326320107576160000002391048700844869780_);}
	.st23{fill:url(#SVGID_00000134970222749240083700000007830084419268167090_);}
	.st24{fill:url(#SVGID_00000009564882387924224840000001920856732329513663_);}
	.st25{fill:url(#SVGID_00000111882690361189800040000002467941679463929987_);}
	.st26{fill:url(#SVGID_00000081624460909997968950000007010074595185799310_);}
	.st27{fill:url(#SVGID_00000128485803550323043090000002896077590545091730_);}
	.st28{fill:url(#SVGID_00000070118542044469369400000011306927692415893632_);}
	.st29{fill:url(#SVGID_00000015345164415342213010000001214362028422679949_);}
	.st30{fill:url(#SVGID_00000128477329047939773270000011693294829713220501_);}
	.st31{fill:url(#SVGID_00000144313219459822830540000001840424718739027854_);}
	.st32{fill:url(#SVGID_00000138555580753107674840000000316013494462427021_);}
	.st33{fill:url(#SVGID_00000116213917312419140810000009118781919410627771_);}
	.st34{fill:url(#SVGID_00000095338698625080111600000007262456454920777399_);}
	.st35{fill:url(#SVGID_00000038390020228242437060000007237444586879550862_);}
	.st36{fill:url(#SVGID_00000179606965843030714720000011471745630897047196_);}
	.st37{fill:url(#SVGID_00000093878252519562499760000005972813491552653227_);}
	.st38{fill:url(#SVGID_00000178175516949272648330000000999742282496626609_);}
	.st39{fill:url(#SVGID_00000139267915166953390570000003811471579388660878_);}
	.st40{fill:url(#SVGID_00000064316599564245242190000010086157681337142207_);}
	.st41{fill:url(#SVGID_00000048481341941712309980000013618433150691619502_);}
	.st42{fill:url(#SVGID_00000066486387921215621030000013405253496670176910_);}
	.st43{fill:url(#SVGID_00000096036501973366471560000008234195008506904961_);}
	.st44{fill:url(#SVGID_00000041260660774445515590000014629853389475718061_);}
	.st45{fill:#ADCA25;}
</style>
<g>
	<g>
		<path class="st0" d="M381.5,318.06c-42.53,32.89-81.42,72.49-103.82,121.36c-22.4,48.87-26.38,108.2-1.1,155.65
			c6.54,12.27,15.21,23.86,27.12,31.03c15.78,9.5,35.16,10.16,53.58,10.4c88.42,1.15,182.44-3.16,255.6-52.83
			c14.62-9.93,28.37-21.82,37.2-37.13c26.61-46.12,1.61-107.01,20.92-156.64c16.9-43.46,66.31-74.86,64.4-121.45
			c-1-24.54-18-45.11-38.87-56.53c-10.36-5.67-22.69-10.16-34.39-12.01c-10.68-1.69-21.45,1.23-31.85,3.42
			c-57.75,12.17-113.67,32.63-165.61,60.67C435.54,279.72,407.68,297.8,381.5,318.06z"/>
		<path class="st0" d="M201.4,1526.75h1580.96c59.55-121.31,87.82-250.85,91.48-385.94c0.97-35.7-0.21-72.13-11.91-105.87
			c-35.98-103.8-154.13-148.94-238.34-219.49c-16.62-13.92-32.56-29.74-40.91-49.75c-8.53-20.46-8.36-43.34-8.05-65.51
			c1.11-79.69,2.22-159.38,3.33-239.07c0.97-69.66,0.99-143.17-33.76-203.55c-28.5-49.52-77.6-84.27-129.74-107.64
			c-119.54-53.58-262.36-52.41-381.01,3.1C914.8,208.55,822.39,317.45,786.92,443.55c-22.76,80.92-25.4,172.61-80.41,236.16
			c-80.88,93.43-228.17,78.03-342.73,124.37C238.43,854.79,156.06,983,132.02,1116.07S159.65,1398.14,201.4,1526.75z"/>
		<path class="st0" d="M1643.49,554.03c3.09,8.02,7.75,15.93,15.23,20.16c3.83,2.17,8.19,3.24,12.55,3.86
			c23.88,3.43,48.76-6.56,65.34-24.08c16.58-17.52,25.09-41.86,25.41-65.98c0.17-13.05-2.13-26.6-9.64-37.27
			c-8.12-11.55-21.25-17.91-34.87-20.35c-11.1-1.98-26.52-3.22-37.02,1.97c-10.01,4.95-17.47,17.72-23.17,26.77
			c-8.43,13.4-14.71,28.28-17.7,43.85C1636.36,519.98,1637.23,537.79,1643.49,554.03z"/>
	</g>
	<g>
		<g>
			<g>
				<g>
					<path class="st1" d="M194.8,1090.99l-1.54,35.93l-13.96,9l-22.23,52.35c-2.98,7.01-9.99,11.44-17.6,11.11l0,0l5.02-117.08
						c0.25-5.73,5.77-9.75,11.3-8.21L194.8,1090.99z"/>
				</g>
				<polygon class="st2" points="227.61,1134.33 193.26,1126.92 194.8,1090.99 229.29,1095.11 				"/>
			</g>
			<g>
				<path class="st3" d="M1016.02,1046.02c-7.03-47.46-182.73-207.05-182.73-207.05l-183.5-57.23l-106.98,307.72l-335.19-13.11
					l1.94,73.91c0,0,370.45,67.59,385.77,62.84c36.18-11.22,124.14-144.79,159.56-200.52l128.49,78.82l-17.76,350.12h66.34
					C931.97,1441.52,1018.37,1061.89,1016.02,1046.02z"/>
				<polygon class="st4" points="754.9,1012.58 778.11,971.25 883.39,1091.4 				"/>
			</g>
			<g>
				<g>
					<path class="st1" d="M880,1476.15h35.97l9.59,13.56l53.25,19.97c7.13,2.67,11.85,9.49,11.85,17.11l0,0H873.48
						c-5.74,0-9.99-5.34-8.69-10.94L880,1476.15z"/>
				</g>
				<polygon class="st2" points="921.9,1441.52 915.96,1476.15 880,1476.15 882.64,1441.52 				"/>
			</g>
		</g>
		<g>
			<path class="st3" d="M1266.13,942.25c-49.1-14.95-95.41-47.78-137.66-97.58c-32.92-38.81-63.55-88.08-91.05-146.44
				c-46.43-98.56-67.75-188.19-68.64-191.96l-4.23-17.99l17.64-5.52c64.09-20.08,116.69-61.55,149.53-92.81
				c36.12-34.38,57.01-64.38,57.22-64.68l12.96-18.74l16.82,15.37c0.26,0.23,27.34,24.78,70.25,50.19
				c39.01,23.1,99.56,51.72,166.53,56.92l18.43,1.43l-0.09,18.48c-0.02,3.87-0.7,96-23.85,202.46
				c-13.71,63.05-32.51,117.93-55.89,163.13c-30,58-67.78,100.38-112.27,125.96l-7.46,4.29L1266.13,942.25z"/>
			<linearGradient id="SVGID_1_" gradientUnits="userSpaceOnUse" x1="988.139" y1="629.9005" x2="1453.9623" y2="629.9005">
				<stop  offset="0" style="stop-color:#00ADEE"/>
				<stop  offset="1" style="stop-color:#2E3191"/>
			</linearGradient>
			<path class="st5" d="M1205.3,336.57c0,0-85.36,123.87-217.16,165.16c0,0,84.8,360.93,283.78,421.51
				c180.33-103.66,182.04-474.41,182.04-474.41C1316.25,438.14,1205.3,336.57,1205.3,336.57z"/>
		</g>
		<path class="st1" d="M895.22,473.94l-96.35-29.7c-11.86-3.65-181.33,37.74-181.33,37.74c-12.51,3.08-24.24,8.75-34.43,16.64l0,0
			c-13.95,10.82-24.5,25.42-30.39,42.06l-80.08,226.35l55.04,23.93l111.53-212.91l68.23-13.61l-80.33,242.93l262.66,75.69
			l43.05-348.17C937.33,508.02,921.25,481.97,895.22,473.94z"/>
		<path class="st2" d="M1320.39,584.02c0,0,27.21-22.11,36.41-23.31c9.2-1.2,57.98,5.32,58.38,11.65s-11.2,50.32-22.79,51.12
			c-11.6,0.8-61.01,0-61.01,0L1320.39,584.02z"/>
		<g>
			<path class="st1" d="M917.22,487.04l165.55,137.26l235.6-47.55l16.1,57.82L1108.24,715c-16.63,5.91-34.62,6.92-51.81,2.9h0
				c-12.55-2.93-24.34-8.47-34.62-16.25l-120.51-91.23L917.22,487.04z"/>
			<g>
				<g>
					<path d="M1195.55,593.82l14.03,92.86c0.74,4.87-2.52,9.45-7.36,10.35l-11.01,2.05c-5.01,0.93-9.81-2.41-10.67-7.43
						l-16.25-94.14c-0.93-5.37,3.03-10.36,8.47-10.67l13.23-0.77C1190.69,585.79,1194.84,589.15,1195.55,593.82z"/>
					<path d="M1305.05,571.8l14.03,92.86c0.74,4.87-2.52,9.45-7.36,10.35l-11.01,2.05c-5.01,0.93-9.81-2.41-10.67-7.43l-16.25-94.14
						c-0.93-5.37,3.03-10.36,8.47-10.67l13.23-0.77C1300.19,563.77,1304.34,567.13,1305.05,571.8z"/>
				</g>
				<path class="st6" d="M1071.72,687.81c-0.61,0-1.16-0.42-1.31-1.04c-6.74-29.21,10.44-61.74,11.17-63.11
					c0.35-0.65,1.16-0.9,1.82-0.55c0.65,0.35,0.9,1.16,0.55,1.82c-0.18,0.33-17.43,33.02-10.92,61.23c0.17,0.72-0.28,1.44-1.01,1.61
					C1071.92,687.8,1071.82,687.81,1071.72,687.81z"/>
			</g>
		</g>
		<path class="st1" d="M707.45,565.78c-0.16,0-0.32-0.03-0.47-0.09c-0.7-0.26-1.05-1.03-0.79-1.73l17.82-47.54
			c0.26-0.7,1.04-1.05,1.73-0.79c0.7,0.26,1.05,1.03,0.79,1.73l-17.82,47.54C708.5,565.45,707.99,565.78,707.45,565.78z"/>
		<path class="st1" d="M639.21,579.39c-0.59,0-1.13-0.39-1.3-0.99c-0.06-0.21-6.06-21.64-26.86-36.64c-0.6-0.43-0.74-1.27-0.3-1.88
			c0.43-0.6,1.27-0.74,1.88-0.3c21.6,15.59,27.64,37.21,27.88,38.12c0.19,0.72-0.23,1.45-0.95,1.65
			C639.45,579.38,639.33,579.39,639.21,579.39z"/>
		<path class="st6" d="M921.61,626.99c-0.05,0-0.11,0-0.17-0.01c-0.74-0.09-1.26-0.76-1.17-1.5l5.89-47.59
			c0.09-0.74,0.76-1.26,1.5-1.17c0.74,0.09,1.26,0.76,1.17,1.5l-5.89,47.59C922.86,626.49,922.28,626.99,921.61,626.99z"/>
		<g>
			<g>
				<path class="st2" d="M843.76,488.74L843.76,488.74c-16.61-0.81-29.02-15.59-26.93-32.09l12.54-98.87l40.29,1.96l4,99.35
					C874.33,475.83,860.5,489.55,843.76,488.74z"/>
				<path class="st2" d="M825.93,274.65l127.46,6.19l-1.45,7.85c-5,27.15-7.52,54.73-7.02,82.33c0.24,13.21-1.47,28.85-8.65,41.21
					c-14.09,24.25-44.63,33.94-69.52,20.99C841.67,420.18,803.76,381.26,825.93,274.65z"/>
				<path class="st1" d="M905.02,371.97c-0.1,0-0.2,0-0.3-0.01l-11.77-0.57c-0.74-0.04-1.31-0.67-1.28-1.41
					c0.04-0.74,0.67-1.31,1.41-1.28l11.77,0.57c1.01,0.04,1.98-0.37,2.63-1.15c0.65-0.78,0.9-1.8,0.68-2.79l-8.42-37.36
					c-0.16-0.72,0.29-1.44,1.02-1.61c0.72-0.16,1.44,0.29,1.61,1.02l8.42,37.36c0.41,1.82-0.04,3.68-1.24,5.11
					C908.41,371.21,906.78,371.97,905.02,371.97z"/>
				
					<ellipse transform="matrix(0.2961 -0.9551 0.9551 0.2961 302.9873 1072.0466)" class="st1" cx="878.89" cy="330.44" rx="6.48" ry="6.48"/>
				<path class="st1" d="M931.59,331.72c-0.17,3.57-3.21,6.33-6.79,6.16c-3.57-0.17-6.33-3.21-6.16-6.79
					c0.17-3.57,3.21-6.33,6.79-6.16C929,325.11,931.76,328.15,931.59,331.72z"/>
				<path class="st1" d="M872.72,437.22c-0.16,0-0.32-0.03-0.48-0.09c-0.75-0.28-18.45-7.15-30.17-22.38
					c-0.45-0.59-0.34-1.43,0.25-1.88c0.59-0.45,1.43-0.34,1.88,0.25c11.25,14.61,28.83,21.44,29,21.51
					c0.69,0.26,1.04,1.04,0.78,1.73C873.77,436.89,873.26,437.22,872.72,437.22z"/>
				<path d="M839.32,280.17c0,0-0.35,44.94-11.39,51.48c-11.04,6.55-13.93-7.22-13.93-7.22s-12.93-46.61,11.97-55.57
					C841.22,263.37,839.32,280.17,839.32,280.17z"/>
				<g>
					
						<ellipse transform="matrix(0.0485 -0.9988 0.9988 0.0485 450.4487 1127.7479)" class="st2" cx="817.15" cy="327.44" rx="20.9" ry="14.26"/>
					<path class="st1" d="M823.76,339.23c-0.04,0-0.07,0-0.11,0c-0.74-0.06-1.29-0.71-1.23-1.45c0.01-0.16,1.26-16.39-5.3-22.93
						c-0.53-0.52-0.53-1.37,0-1.9c0.52-0.53,1.38-0.53,1.9,0c7.45,7.41,6.14,24.34,6.08,25.05
						C825.04,338.7,824.45,339.23,823.76,339.23z"/>
				</g>
			</g>
			<g>
				<path class="st1" d="M909.6,394.21c-0.46,0-0.9-0.23-1.15-0.65c-0.09-0.14-5.51-8.69-19.96-10.42
					c-0.74-0.09-1.26-0.76-1.17-1.49c0.09-0.74,0.76-1.27,1.49-1.17c15.88,1.9,21.7,11.31,21.94,11.71
					c0.38,0.64,0.18,1.46-0.46,1.84C910.07,394.15,909.83,394.21,909.6,394.21z"/>
				<path class="st1" d="M885.37,388.68c-0.3,0-0.6-0.1-0.85-0.3c-0.57-0.47-0.66-1.32-0.19-1.89c3.01-3.68,0.73-10.96,0.7-11.03
					c-0.23-0.71,0.16-1.46,0.87-1.69c0.71-0.23,1.46,0.16,1.69,0.86c0.11,0.35,2.76,8.74-1.18,13.56
					C886.14,388.51,885.76,388.68,885.37,388.68z"/>
			</g>
			<path class="st1" d="M860.84,317.87c-2.07,0-3.81-1.6-3.96-3.69c-0.16-2.19,1.49-4.09,3.68-4.25
				c14.03-1.02,28.66-7.01,28.81-7.07c2.03-0.84,4.35,0.13,5.19,2.15c0.84,2.03-0.12,4.35-2.15,5.19
				c-0.64,0.27-15.94,6.54-31.27,7.66C861.04,317.87,860.94,317.87,860.84,317.87z"/>
			<path class="st1" d="M939.96,323.12c-0.31,0-0.63-0.04-0.94-0.11c-11.86-2.88-25.84-15.56-26.43-16.1
				c-1.62-1.48-1.74-3.99-0.26-5.62c1.48-1.62,3.99-1.74,5.62-0.26c0.13,0.12,13.07,11.84,22.95,14.24c2.13,0.52,3.44,2.67,2.92,4.8
				C943.38,321.9,941.75,323.12,939.96,323.12z"/>
			<path d="M831.48,284.6c0,0,104.3,27.02,148.52,7.91c44.22-19.11,1.72-14.83,1.72-14.83s26.89-22.15,11.86-43.16
				c-9.33-13.05-29.02-0.99-29.02-0.99s2.9-17.29-11.17-23.98c-25.04-11.91-45.48,19.7-45.48,19.7s-78.64,3.29-89.84,25.37
				C806.87,276.69,831.48,284.6,831.48,284.6z"/>
		</g>
		<g>
			<g>
				<path class="st6" d="M817.67,450.04l19.82,37.76l-20.35,6.94c-10.26,3.5-20.59-5.09-19.03-15.81
					c2.28-15.64,5.09-33.32,6.11-33.03C806.07,446.42,817.67,450.04,817.67,450.04z"/>
				<path class="st6" d="M840.13,488.35l13.5,16.14c7.22,8.63,21.09,6.11,24.81-4.51l10.21-29.16l-15.94-4.73L840.13,488.35z"/>
			</g>
		</g>
		<path class="st1" d="M840.13,488.35l-2.64-0.56l-10.96,3.74l-28.17,231.83c-2.12,17.47,2.1,35.11,11.89,49.73l18.12,27.06
			l15.31-27.75c6.23-11.29,9.37-24.01,9.12-36.9l-4.6-237.49L840.13,488.35z"/>
		<path class="st1" d="M1347.17,611.42c-0.43,0-0.85-0.2-1.11-0.59c-0.42-0.61-0.26-1.45,0.35-1.87c3.57-2.44,6.27-18.2,7.13-27.56
			l0.16-1.72l1.63,0.57c6.1,2.15,23.05,7.12,28.21,4.33c0.65-0.35,1.01-0.79,1.16-1.38c1.2-4.97-15.91-15.44-28.45-21.29
			c-0.67-0.31-0.96-1.11-0.65-1.79c0.31-0.67,1.11-0.96,1.79-0.65c5.37,2.51,32.07,15.46,29.92,24.35c-0.32,1.32-1.18,2.4-2.49,3.11
			c-6.26,3.4-23.16-1.74-28.77-3.6c-0.65,6.04-3.02,24.35-8.12,27.84C1347.69,611.34,1347.43,611.42,1347.17,611.42z"/>
		<path class="st1" d="M1384.05,579.7c-0.38,0-0.76-0.16-1.02-0.47c-0.48-0.56-0.41-1.41,0.15-1.89c9.81-8.36,31.23-6.4,32.13-6.31
			c0.74,0.07,1.28,0.73,1.21,1.47c-0.07,0.74-0.73,1.27-1.47,1.21c-0.21-0.02-21.19-1.94-30.13,5.68
			C1384.67,579.6,1384.36,579.7,1384.05,579.7z"/>
		<path class="st1" d="M1408.91,588.96c-12.22,0-25.85-1.37-26-1.39c-0.74-0.07-1.28-0.73-1.2-1.47c0.08-0.74,0.74-1.28,1.47-1.2
			c0.16,0.02,16.24,1.64,29,1.34c0.71-0.03,1.36,0.57,1.37,1.31c0.02,0.74-0.57,1.36-1.31,1.37
			C1411.15,588.95,1410.04,588.96,1408.91,588.96z"/>
		<path class="st1" d="M1406.9,605.02c-0.03,0-0.05,0-0.08,0c-0.91-0.05-22.43-1.28-30.03-4.12c-2.23-0.84-3.7-2.25-4.37-4.2
			c-1.48-4.29,1.69-9.56,1.82-9.78c0.39-0.63,1.21-0.83,1.84-0.45c0.63,0.39,0.83,1.21,0.45,1.85c-0.74,1.22-2.46,4.95-1.58,7.51
			c0.41,1.17,1.31,2,2.77,2.55c7.22,2.71,29.02,3.95,29.24,3.96c0.74,0.04,1.31,0.68,1.27,1.42
			C1408.2,604.47,1407.6,605.02,1406.9,605.02z"/>
		<path class="st1" d="M1401.23,616.86C1401.23,616.86,1401.23,616.86,1401.23,616.86c-13.4-0.03-21.98-2.56-25.9-4.06
			c-3.3-1.26-5.21-4.74-4.43-8.07c1.11-4.76,5.76-6.3,5.96-6.36c0.71-0.23,1.46,0.16,1.69,0.87c0.23,0.71-0.16,1.46-0.87,1.69
			c-0.15,0.05-3.41,1.17-4.16,4.42c-0.47,2.04,0.72,4.17,2.77,4.96c3.75,1.44,11.98,3.85,24.95,3.88c0.74,0,1.34,0.6,1.34,1.35
			C1402.57,616.26,1401.97,616.86,1401.23,616.86z"/>
		<path class="st1" d="M1381.38,625.14c-0.07,0-0.14-0.01-0.21-0.02c-1.37-0.21-13.35-2.23-13.13-8.67
			c0.06-1.85,0.72-3.35,1.94-4.44c2.3-2.06,5.77-1.81,5.92-1.8c0.74,0.06,1.29,0.7,1.24,1.44c-0.06,0.74-0.71,1.29-1.44,1.24
			c-0.06,0-2.51-0.15-3.93,1.13c-0.66,0.6-1,1.42-1.04,2.53c-0.12,3.45,8,5.48,10.85,5.92c0.73,0.11,1.24,0.8,1.12,1.53
			C1382.61,624.66,1382.03,625.14,1381.38,625.14z"/>
		<g>
			<path class="st2" d="M514.54,785.24c0,0,6.15,36.25,0,41.2c-6.15,4.95-35.96,28.26-41.9,26.14
				c-5.93-2.12-27.13-20.49-27.13-27.56c0-7.07,35.88-54.2,35.88-54.2L514.54,785.24z"/>
			<path class="st1" d="M486.65,848.04c-0.28,0-0.55-0.09-0.79-0.26c-0.6-0.44-0.73-1.28-0.29-1.88l16.58-22.65
				c0.44-0.6,1.28-0.73,1.88-0.29c0.6,0.44,0.73,1.28,0.29,1.88l-16.58,22.65C487.48,847.84,487.07,848.04,486.65,848.04z"/>
			<path class="st1" d="M450.99,834.36c-0.28,0-0.56-0.09-0.8-0.26c-0.6-0.44-0.73-1.28-0.29-1.88l4.06-5.52
				c0.44-0.6,1.28-0.73,1.88-0.29c0.6,0.44,0.73,1.28,0.29,1.88l-4.06,5.52C451.81,834.17,451.4,834.36,450.99,834.36z"/>
			<path class="st1" d="M457.53,841.43c-0.28,0-0.56-0.08-0.8-0.26c-0.6-0.44-0.73-1.28-0.29-1.88l4.06-5.52
				c0.44-0.6,1.28-0.73,1.88-0.29c0.6,0.44,0.72,1.28,0.29,1.88l-4.06,5.52C458.35,841.24,457.94,841.43,457.53,841.43z"/>
			<path class="st1" d="M465.5,848.43c-0.28,0-0.56-0.09-0.8-0.26c-0.6-0.44-0.72-1.28-0.28-1.88l4.07-5.52
				c0.44-0.6,1.28-0.73,1.88-0.29c0.6,0.44,0.72,1.28,0.28,1.88l-4.07,5.52C466.32,848.24,465.91,848.43,465.5,848.43z"/>
		</g>
	</g>
	<g>
		<g>
			<g>
				<g>
					<g>
						<defs>
							<path id="XMLID_7_" d="M886.81,1072.04c5.36,7.78,4.84,18.62-2.1,25.03c-90.92,83.91-245.63,428.47-112.79,428.28
								c184.95-0.27,201.57,3.76,387.93-0.56c146.1-3.38-8.06-357.53-95.47-427.63c-9-7.22-11.14-20.04-4.9-29.74
								c21.62-33.62,64.51-103.62,52.51-112.16c-15.85-11.29-59.37,17.05-88.79,12.57c-29.42-4.48-32.84-21.45-70.14,1.23
								c-37.3,22.68-104.36-16.96-123.01-9.58C815.3,965.32,865.25,1040.73,886.81,1072.04z"/>
						</defs>
						<use xlink:href="#XMLID_7_"  style="overflow:visible;fill:#F9DEC1;"/>
						<clipPath id="XMLID_00000110470726438029017500000010534806504828722585_">
							<use xlink:href="#XMLID_7_"  style="overflow:visible;"/>
						</clipPath>
						<path style="clip-path:url(#XMLID_00000110470726438029017500000010534806504828722585_);fill:#DFC2A1;" d="M884,1044.33
							c13.52,11.32,30.2,19.7,47.83,20.15c14.23,0.36,28.63-4.4,42.51-1.23c9.97,2.28,18.79,8.5,28.88,10.13
							c13.25,2.15,26.28-3.87,39.5-6.22c13.21-2.35,29.97,1.2,34.03,13.99c3.53,11.13-5.3,23.06-16.11,27.49s-22.94,3.48-34.61,3.14
							c-11.67-0.33-24.17,0.28-33.64,7.12c-10.53,7.61-15.7,21.86-27.63,27.01c-2.89,1.24-6.19,1.85-9.18,0.88
							c-7.9-2.57-8.84-13.54-14.74-19.4c-5.83-5.8-15.65-5.41-23.04-1.81c-7.39,3.61-13.16,9.76-19.51,14.98
							c-13.14,10.8-29.36,17.87-46.26,19.85c-2.49,0.29-5.16,0.45-7.37-0.73c-3.18-1.68-4.49-5.55-4.95-9.12
							c-2.94-22.88,16.76-43.34,16.74-66.41c-0.01-19.13-13.32-35.23-21.82-52.37c-2.61-5.27-5.24-11.94-2.97-17.8
							c1.75-4.51,6.16-8.19,11.14-7.83c11.12,0.81,18.66,15,25.19,22.39C872.97,1034.17,878.25,1039.52,884,1044.33z"/>
						<path style="clip-path:url(#XMLID_00000110470726438029017500000010534806504828722585_);fill:#DFC2A1;" d="M919.8,1018.92
							c2.57,4.25,5.92,9,10.89,9.27c3.49,0.19,6.63-1.98,9.27-4.27c10.47-9.08,17.79-21.59,29.12-29.58
							c10.42-7.35,23.87-10.26,36.4-7.88c16.28,3.1,32.54,14.59,47.96,8.52c3.97-1.56,7.64-4.27,11.9-4.46
							c6.81-0.31,12.32,6.18,13.65,12.87c1.33,6.68-0.35,13.54-1.45,20.27c-1.1,6.72-1.53,14.06,1.96,19.92
							c18.55-25.74,33.46-54.09,44.15-83.96c1.56-4.35,3.05-9.02,1.99-13.52c-2.31-9.88-14.81-13.08-24.95-12.79
							c-15.63,0.44-31.02,4.63-45.29,11.03c-15.48,6.95-31.62,16.78-48.16,13.01c-8.1-1.85-15.1-6.82-22.87-9.75
							c-15.49-5.86-33.31-3.16-48.05,4.38c-12.13,6.2-24.97,16.63-39.46,12.72c-2.22-0.6-4.34-1.45-5.39,1.2
							c-0.83,2.09-0.04,4.97,0.73,6.94c2.85,7.32,8.37,14.28,12.44,21C909.68,1002.19,914.74,1010.56,919.8,1018.92z"/>
						<path style="clip-path:url(#XMLID_00000110470726438029017500000010534806504828722585_);fill:#DFC2A1;" d="M994.76,1552.16
							c0,0,2.85-253.39,34.16-286.13c31.32-32.74,123.46-98.22,123.46-98.22s82.91,177.36,84.54,247.4
							c1.63,70.05-15.98,142.65-15.98,142.65L994.76,1552.16z"/>
					</g>
					<path class="st1" d="M887.7,1081.68c-3.19,0-5.82-2.53-5.91-5.74c-0.1-3.27,2.47-5.99,5.74-6.09l170.28-5.03
						c3.3-0.07,5.99,2.47,6.09,5.74c0.1,3.27-2.47,5.99-5.74,6.09l-170.28,5.03C887.82,1081.68,887.76,1081.68,887.7,1081.68z"/>
					<path class="st1" d="M887.72,1098.58c-3.19,0-5.82-2.53-5.91-5.74c-0.1-3.27,2.47-5.99,5.74-6.09l170.28-5.03
						c3.3-0.08,5.99,2.47,6.09,5.74c0.1,3.27-2.47,5.99-5.74,6.09l-170.28,5.03C887.84,1098.58,887.78,1098.58,887.72,1098.58z"/>
				</g>
			</g>
			<g>
				<g>
					<polygon class="st8" points="1338.7,1454.18 823.76,1454.18 862.29,1381.56 1299.55,1381.56 					"/>
					<polyline class="st9" points="862.29,1381.56 934.78,1381.56 962.22,1454.18 823.76,1454.18 					"/>
				</g>
				<g>
					<g>
						<polygon class="st8" points="1266.98,1526.79 752.04,1526.79 790.57,1454.18 1227.83,1454.18 						"/>
						<polyline class="st9" points="790.57,1454.18 863.06,1454.18 890.5,1526.79 752.04,1526.79 						"/>
					</g>
					<g>
						<polygon class="st8" points="1412.65,1526.79 897.71,1526.79 936.24,1454.18 1373.5,1454.18 						"/>
						<polyline class="st9" points="936.24,1454.18 1008.72,1454.18 1036.17,1526.79 897.71,1526.79 						"/>
					</g>
					<g>
						<polygon class="st8" points="1551.11,1526.79 1036.17,1526.79 1074.7,1454.18 1511.96,1454.18 						"/>
						<polyline class="st9" points="1074.7,1454.18 1147.19,1454.18 1174.63,1526.79 1036.17,1526.79 						"/>
					</g>
				</g>
				<g>
					<polygon class="st8" points="1490.77,1454.18 975.83,1454.18 1014.36,1381.56 1451.61,1381.56 					"/>
					<polyline class="st9" points="1014.36,1381.56 1086.84,1381.56 1114.29,1454.18 975.83,1454.18 					"/>
				</g>
				<g>
					<polygon class="st8" points="1432.1,1381.56 917.16,1381.56 955.69,1308.94 1392.95,1308.94 					"/>
					<polyline class="st9" points="955.69,1308.94 1028.18,1308.94 1055.62,1381.56 917.16,1381.56 					"/>
				</g>
				<rect x="1055.62" y="1379.1" class="st9" width="376.48" height="4.91"/>
				<rect x="1122.38" y="1451.72" class="st9" width="376.48" height="4.91"/>
			</g>
		</g>
		<g>
			<g>
				<path class="st8" d="M779.84,1373.3H543.41c-4.52,0-8.19-3.67-8.19-8.19v-21.99c0-4.52,3.67-8.19,8.19-8.19h236.44
					c4.52,0,8.19,3.67,8.19,8.19v21.99C788.03,1369.63,784.37,1373.3,779.84,1373.3z"/>
				<rect x="550.41" y="1334.93" class="st9" width="9.24" height="38.37"/>
				<rect x="569.85" y="1334.93" class="st9" width="9.24" height="38.37"/>
				<rect x="589.29" y="1334.93" class="st9" width="9.24" height="38.37"/>
				<rect x="608.73" y="1334.93" class="st9" width="9.24" height="38.37"/>
				<rect x="628.17" y="1334.93" class="st9" width="9.24" height="38.37"/>
				<rect x="647.62" y="1334.93" class="st9" width="9.24" height="38.37"/>
				<rect x="667.06" y="1334.93" class="st9" width="9.24" height="38.37"/>
				<rect x="686.5" y="1334.93" class="st9" width="9.24" height="38.37"/>
				<rect x="705.94" y="1334.93" class="st9" width="9.24" height="38.37"/>
				<rect x="725.38" y="1334.93" class="st9" width="9.24" height="38.37"/>
				<rect x="744.82" y="1334.93" class="st9" width="9.24" height="38.37"/>
				<rect x="764.26" y="1334.93" class="st9" width="9.24" height="38.37"/>
			</g>
			<g>
				<path class="st8" d="M809.17,1334.93H572.74c-4.52,0-8.19-3.67-8.19-8.19v-21.99c0-4.52,3.67-8.19,8.19-8.19h236.44
					c4.52,0,8.19,3.67,8.19,8.19v21.99C817.36,1331.26,813.7,1334.93,809.17,1334.93z"/>
				<rect x="579.74" y="1296.55" class="st9" width="9.24" height="38.37"/>
				<rect x="599.18" y="1296.55" class="st9" width="9.24" height="38.37"/>
				<rect x="618.63" y="1296.55" class="st9" width="9.24" height="38.37"/>
				<rect x="638.07" y="1296.55" class="st9" width="9.24" height="38.37"/>
				<rect x="657.51" y="1296.55" class="st9" width="9.24" height="38.37"/>
				<rect x="676.95" y="1296.55" class="st9" width="9.24" height="38.37"/>
				<rect x="696.39" y="1296.55" class="st9" width="9.24" height="38.37"/>
				<rect x="715.83" y="1296.55" class="st9" width="9.24" height="38.37"/>
				<rect x="735.27" y="1296.55" class="st9" width="9.24" height="38.37"/>
				<rect x="754.71" y="1296.55" class="st9" width="9.24" height="38.37"/>
				<rect x="774.15" y="1296.55" class="st9" width="9.24" height="38.37"/>
				<rect x="793.59" y="1296.55" class="st9" width="9.24" height="38.37"/>
			</g>
			<g>
				<path class="st8" d="M799.78,1296.55H563.35c-4.52,0-8.19-3.67-8.19-8.19v-21.99c0-4.52,3.67-8.19,8.19-8.19h236.44
					c4.52,0,8.19,3.67,8.19,8.19v21.99C807.97,1292.89,804.31,1296.55,799.78,1296.55z"/>
				<rect x="570.35" y="1258.18" class="st9" width="9.24" height="38.37"/>
				<rect x="589.79" y="1258.18" class="st9" width="9.24" height="38.37"/>
				<rect x="609.23" y="1258.18" class="st9" width="9.24" height="38.37"/>
				<rect x="628.67" y="1258.18" class="st9" width="9.24" height="38.37"/>
				<rect x="648.11" y="1258.18" class="st9" width="9.24" height="38.37"/>
				<rect x="667.55" y="1258.18" class="st9" width="9.24" height="38.37"/>
				<rect x="686.99" y="1258.18" class="st9" width="9.24" height="38.37"/>
				<rect x="706.43" y="1258.18" class="st9" width="9.24" height="38.37"/>
				<rect x="725.88" y="1258.18" class="st9" width="9.24" height="38.37"/>
				<rect x="745.32" y="1258.18" class="st9" width="9.24" height="38.37"/>
				<rect x="764.76" y="1258.18" class="st9" width="9.24" height="38.37"/>
				<rect x="784.2" y="1258.18" class="st9" width="9.24" height="38.37"/>
			</g>
			<g>
				<path class="st8" d="M815.57,1259.97H579.14c-4.52,0-8.19-3.67-8.19-8.19v-21.99c0-4.52,3.67-8.19,8.19-8.19h236.44
					c4.52,0,8.19,3.67,8.19,8.19v21.99C823.76,1256.3,820.1,1259.97,815.57,1259.97z"/>
				<rect x="586.14" y="1221.6" class="st9" width="9.24" height="38.37"/>
				<rect x="605.58" y="1221.6" class="st9" width="9.24" height="38.37"/>
				<rect x="625.02" y="1221.6" class="st9" width="9.24" height="38.37"/>
				<rect x="644.47" y="1221.6" class="st9" width="9.24" height="38.37"/>
				<rect x="663.91" y="1221.6" class="st9" width="9.24" height="38.37"/>
				<rect x="683.35" y="1221.6" class="st9" width="9.24" height="38.37"/>
				<rect x="702.79" y="1221.6" class="st9" width="9.24" height="38.37"/>
				<rect x="722.23" y="1221.6" class="st9" width="9.24" height="38.37"/>
				<rect x="741.67" y="1221.6" class="st9" width="9.24" height="38.37"/>
				<rect x="761.11" y="1221.6" class="st9" width="9.24" height="38.37"/>
				<rect x="780.55" y="1221.6" class="st9" width="9.24" height="38.37"/>
				<rect x="799.99" y="1221.6" class="st9" width="9.24" height="38.37"/>
			</g>
			<g>
				<path class="st8" d="M804.4,1221.6H567.96c-4.52,0-8.19-3.67-8.19-8.19v-21.99c0-4.52,3.67-8.19,8.19-8.19H804.4
					c4.52,0,8.19,3.67,8.19,8.19v21.99C812.59,1217.93,808.92,1221.6,804.4,1221.6z"/>
				<rect x="574.97" y="1183.22" class="st9" width="9.24" height="38.37"/>
				<rect x="594.41" y="1183.22" class="st9" width="9.24" height="38.37"/>
				<rect x="613.85" y="1183.22" class="st9" width="9.24" height="38.37"/>
				<rect x="633.29" y="1183.22" class="st9" width="9.24" height="38.37"/>
				<rect x="652.73" y="1183.22" class="st9" width="9.24" height="38.37"/>
				<rect x="672.17" y="1183.22" class="st9" width="9.24" height="38.37"/>
				<rect x="691.61" y="1183.22" class="st9" width="9.24" height="38.37"/>
				<rect x="711.05" y="1183.22" class="st9" width="9.24" height="38.37"/>
				<rect x="730.49" y="1183.22" class="st9" width="9.24" height="38.37"/>
				<rect x="749.93" y="1183.22" class="st9" width="9.24" height="38.37"/>
				<rect x="769.37" y="1183.22" class="st9" width="9.24" height="38.37"/>
				<rect x="788.81" y="1183.22" class="st9" width="9.24" height="38.37"/>
			</g>
			<g>
				<path class="st8" d="M794.51,1411.67H558.07c-4.52,0-8.19-3.67-8.19-8.19v-21.99c0-4.52,3.67-8.19,8.19-8.19h236.44
					c4.52,0,8.19,3.67,8.19,8.19v21.99C802.7,1408.01,799.03,1411.67,794.51,1411.67z"/>
				<rect x="565.08" y="1373.3" class="st9" width="9.24" height="38.37"/>
				<rect x="584.52" y="1373.3" class="st9" width="9.24" height="38.37"/>
				<rect x="603.96" y="1373.3" class="st9" width="9.24" height="38.37"/>
				<rect x="623.4" y="1373.3" class="st9" width="9.24" height="38.37"/>
				<rect x="642.84" y="1373.3" class="st9" width="9.24" height="38.37"/>
				<rect x="662.28" y="1373.3" class="st9" width="9.24" height="38.37"/>
				<rect x="681.72" y="1373.3" class="st9" width="9.24" height="38.37"/>
				<rect x="701.16" y="1373.3" class="st9" width="9.24" height="38.37"/>
				<rect x="720.6" y="1373.3" class="st9" width="9.24" height="38.37"/>
				<rect x="740.04" y="1373.3" class="st9" width="9.24" height="38.37"/>
				<rect x="759.48" y="1373.3" class="st9" width="9.24" height="38.37"/>
				<rect x="778.92" y="1373.3" class="st9" width="9.24" height="38.37"/>
			</g>
			<g>
				<path class="st8" d="M790.7,1450.05H554.27c-4.52,0-8.19-3.67-8.19-8.19v-21.99c0-4.52,3.67-8.19,8.19-8.19H790.7
					c4.52,0,8.19,3.67,8.19,8.19v21.99C798.89,1446.38,795.23,1450.05,790.7,1450.05z"/>
				<rect x="561.27" y="1411.67" class="st9" width="9.24" height="38.37"/>
				<rect x="580.71" y="1411.67" class="st9" width="9.24" height="38.37"/>
				<rect x="600.15" y="1411.67" class="st9" width="9.24" height="38.37"/>
				<rect x="619.59" y="1411.67" class="st9" width="9.24" height="38.37"/>
				<rect x="639.04" y="1411.67" class="st9" width="9.24" height="38.37"/>
				<rect x="658.48" y="1411.67" class="st9" width="9.24" height="38.37"/>
				<rect x="677.92" y="1411.67" class="st9" width="9.24" height="38.37"/>
				<rect x="697.36" y="1411.67" class="st9" width="9.24" height="38.37"/>
				<rect x="716.8" y="1411.67" class="st9" width="9.24" height="38.37"/>
				<rect x="736.24" y="1411.67" class="st9" width="9.24" height="38.37"/>
				<rect x="755.68" y="1411.67" class="st9" width="9.24" height="38.37"/>
				<rect x="775.12" y="1411.67" class="st9" width="9.24" height="38.37"/>
			</g>
			<g>
				<path class="st8" d="M785.27,1488.42H548.84c-4.52,0-8.19-3.67-8.19-8.19v-21.99c0-4.52,3.67-8.19,8.19-8.19h236.44
					c4.52,0,8.19,3.67,8.19,8.19v21.99C793.46,1484.75,789.8,1488.42,785.27,1488.42z"/>
				<rect x="555.84" y="1450.05" class="st9" width="9.24" height="38.37"/>
				<rect x="575.28" y="1450.05" class="st9" width="9.24" height="38.37"/>
				<rect x="594.72" y="1450.05" class="st9" width="9.24" height="38.37"/>
				<rect x="614.16" y="1450.05" class="st9" width="9.24" height="38.37"/>
				<rect x="633.6" y="1450.05" class="st9" width="9.24" height="38.37"/>
				<rect x="653.05" y="1450.05" class="st9" width="9.24" height="38.37"/>
				<rect x="672.49" y="1450.05" class="st9" width="9.24" height="38.37"/>
				<rect x="691.93" y="1450.05" class="st9" width="9.24" height="38.37"/>
				<rect x="711.37" y="1450.05" class="st9" width="9.24" height="38.37"/>
				<rect x="730.81" y="1450.05" class="st9" width="9.24" height="38.37"/>
				<rect x="750.25" y="1450.05" class="st9" width="9.24" height="38.37"/>
				<rect x="769.69" y="1450.05" class="st9" width="9.24" height="38.37"/>
			</g>
			<g>
				<path class="st8" d="M795.32,1526.79H558.89c-4.52,0-8.19-3.67-8.19-8.19v-21.99c0-4.52,3.67-8.19,8.19-8.19h236.44
					c4.52,0,8.19,3.67,8.19,8.19v21.99C803.51,1523.13,799.84,1526.79,795.32,1526.79z"/>
				<rect x="565.89" y="1488.42" class="st9" width="9.24" height="38.37"/>
				<rect x="585.33" y="1488.42" class="st9" width="9.24" height="38.37"/>
				<rect x="604.77" y="1488.42" class="st9" width="9.24" height="38.37"/>
				<rect x="624.21" y="1488.42" class="st9" width="9.24" height="38.37"/>
				<rect x="643.65" y="1488.42" class="st9" width="9.24" height="38.37"/>
				<rect x="663.09" y="1488.42" class="st9" width="9.24" height="38.37"/>
				<rect x="682.53" y="1488.42" class="st9" width="9.24" height="38.37"/>
				<rect x="701.97" y="1488.42" class="st9" width="9.24" height="38.37"/>
				<rect x="721.41" y="1488.42" class="st9" width="9.24" height="38.37"/>
				<rect x="740.86" y="1488.42" class="st9" width="9.24" height="38.37"/>
				<rect x="760.3" y="1488.42" class="st9" width="9.24" height="38.37"/>
				<rect x="779.74" y="1488.42" class="st9" width="9.24" height="38.37"/>
			</g>
			<g>
				<path class="st8" d="M803.14,1148.17H566.7c-4.52,0-8.19-3.67-8.19-8.19v-21.99c0-4.52,3.67-8.19,8.19-8.19h236.44
					c4.52,0,8.19,3.67,8.19,8.19v21.99C811.33,1144.5,807.66,1148.17,803.14,1148.17z"/>
				<rect x="573.71" y="1109.8" class="st9" width="9.24" height="38.37"/>
				<rect x="593.15" y="1109.8" class="st9" width="9.24" height="38.37"/>
				<rect x="612.59" y="1109.8" class="st9" width="9.24" height="38.37"/>
				<rect x="632.03" y="1109.8" class="st9" width="9.24" height="38.37"/>
				<rect x="651.47" y="1109.8" class="st9" width="9.24" height="38.37"/>
				<rect x="670.91" y="1109.8" class="st9" width="9.24" height="38.37"/>
				<rect x="690.35" y="1109.8" class="st9" width="9.24" height="38.37"/>
				<rect x="709.79" y="1109.8" class="st9" width="9.24" height="38.37"/>
				<rect x="729.23" y="1109.8" class="st9" width="9.24" height="38.37"/>
				<rect x="748.67" y="1109.8" class="st9" width="9.24" height="38.37"/>
				<rect x="768.11" y="1109.8" class="st9" width="9.24" height="38.37"/>
				<rect x="787.55" y="1109.8" class="st9" width="9.24" height="38.37"/>
			</g>
			<g>
				<path class="st8" d="M813.19,1186.54H576.75c-4.52,0-8.19-3.67-8.19-8.19v-21.99c0-4.52,3.67-8.19,8.19-8.19h236.44
					c4.52,0,8.19,3.67,8.19,8.19v21.99C821.38,1182.88,817.71,1186.54,813.19,1186.54z"/>
				<rect x="583.76" y="1148.17" class="st9" width="9.24" height="38.37"/>
				<rect x="603.2" y="1148.17" class="st9" width="9.24" height="38.37"/>
				<rect x="622.64" y="1148.17" class="st9" width="9.24" height="38.37"/>
				<rect x="642.08" y="1148.17" class="st9" width="9.24" height="38.37"/>
				<rect x="661.52" y="1148.17" class="st9" width="9.24" height="38.37"/>
				<rect x="680.96" y="1148.17" class="st9" width="9.24" height="38.37"/>
				<rect x="700.4" y="1148.17" class="st9" width="9.24" height="38.37"/>
				<rect x="719.84" y="1148.17" class="st9" width="9.24" height="38.37"/>
				<rect x="739.28" y="1148.17" class="st9" width="9.24" height="38.37"/>
				<rect x="758.72" y="1148.17" class="st9" width="9.24" height="38.37"/>
				<rect x="778.16" y="1148.17" class="st9" width="9.24" height="38.37"/>
				<rect x="797.6" y="1148.17" class="st9" width="9.24" height="38.37"/>
			</g>
			<rect x="559.09" y="1486.34" class="st9" width="229.88" height="4.16"/>
			<rect x="555.84" y="1447.97" class="st9" width="234.66" height="4.16"/>
			<rect x="558.28" y="1409.59" class="st9" width="236.03" height="4.16"/>
			<rect x="558.28" y="1371.22" class="st9" width="220.65" height="4.16"/>
			<rect x="569.85" y="1332.85" class="st9" width="209.79" height="4.16"/>
			<rect x="572.94" y="1294.47" class="st9" width="229.88" height="4.16"/>
			<rect x="575.28" y="1256.1" class="st9" width="224.7" height="4.16"/>
			<rect x="579.34" y="1219.51" class="st9" width="224.86" height="4.16"/>
			<rect x="576.95" y="1184.46" class="st9" width="229.88" height="4.16"/>
			<rect x="573.71" y="1146.09" class="st9" width="229.23" height="4.16"/>
			<path class="st10" d="M558.55,1259.97h61.95c14.02,0,26.18,9.69,29.32,23.36l55.8,243.47H535.62L558.55,1259.97z"/>
			<g>
				<g>
					<path class="st8" d="M579.22,1450.05H342.79c-4.52,0-8.19-3.67-8.19-8.19v-21.99c0-4.52,3.67-8.19,8.19-8.19h236.44
						c4.52,0,8.19,3.67,8.19,8.19v21.99C587.41,1446.38,583.75,1450.05,579.22,1450.05z"/>
					<rect x="349.79" y="1411.67" class="st9" width="9.24" height="38.37"/>
					<rect x="369.23" y="1411.67" class="st9" width="9.24" height="38.37"/>
					<rect x="388.67" y="1411.67" class="st9" width="9.24" height="38.37"/>
					<rect x="408.11" y="1411.67" class="st9" width="9.24" height="38.37"/>
					<rect x="427.55" y="1411.67" class="st9" width="9.24" height="38.37"/>
					<rect x="446.99" y="1411.67" class="st9" width="9.24" height="38.37"/>
					<rect x="466.44" y="1411.67" class="st9" width="9.24" height="38.37"/>
					<rect x="485.88" y="1411.67" class="st9" width="9.24" height="38.37"/>
					<rect x="505.32" y="1411.67" class="st9" width="9.24" height="38.37"/>
					<rect x="524.76" y="1411.67" class="st9" width="9.24" height="38.37"/>
					<rect x="544.2" y="1411.67" class="st9" width="9.24" height="38.37"/>
					<rect x="563.64" y="1411.67" class="st9" width="9.24" height="38.37"/>
				</g>
				<g>
					<path class="st8" d="M608.55,1411.67H372.12c-4.52,0-8.19-3.67-8.19-8.19v-21.99c0-4.52,3.67-8.19,8.19-8.19h236.44
						c4.52,0,8.19,3.67,8.19,8.19v21.99C616.74,1408.01,613.08,1411.67,608.55,1411.67z"/>
					<rect x="379.12" y="1373.3" class="st9" width="9.24" height="38.37"/>
					<rect x="398.56" y="1373.3" class="st9" width="9.24" height="38.37"/>
					<rect x="418" y="1373.3" class="st9" width="9.24" height="38.37"/>
					<rect x="437.45" y="1373.3" class="st9" width="9.24" height="38.37"/>
					<rect x="456.89" y="1373.3" class="st9" width="9.24" height="38.37"/>
					<rect x="476.33" y="1373.3" class="st9" width="9.24" height="38.37"/>
					<rect x="495.77" y="1373.3" class="st9" width="9.24" height="38.37"/>
					<rect x="515.21" y="1373.3" class="st9" width="9.24" height="38.37"/>
					<rect x="534.65" y="1373.3" class="st9" width="9.24" height="38.37"/>
					<rect x="554.09" y="1373.3" class="st9" width="9.24" height="38.37"/>
					<rect x="573.53" y="1373.3" class="st9" width="9.24" height="38.37"/>
					<rect x="592.97" y="1373.3" class="st9" width="9.24" height="38.37"/>
				</g>
				<g>
					<path class="st8" d="M599.16,1373.3H362.73c-4.52,0-8.19-3.67-8.19-8.19v-21.99c0-4.52,3.67-8.19,8.19-8.19h236.44
						c4.52,0,8.19,3.67,8.19,8.19v21.99C607.35,1369.63,603.68,1373.3,599.16,1373.3z"/>
					<rect x="369.73" y="1334.93" class="st9" width="9.24" height="38.37"/>
					<rect x="389.17" y="1334.93" class="st9" width="9.24" height="38.37"/>
					<rect x="408.61" y="1334.93" class="st9" width="9.24" height="38.37"/>
					<rect x="428.05" y="1334.93" class="st9" width="9.24" height="38.37"/>
					<rect x="447.49" y="1334.93" class="st9" width="9.24" height="38.37"/>
					<rect x="466.93" y="1334.93" class="st9" width="9.24" height="38.37"/>
					<rect x="486.37" y="1334.93" class="st9" width="9.24" height="38.37"/>
					<rect x="505.81" y="1334.93" class="st9" width="9.24" height="38.37"/>
					<rect x="525.25" y="1334.93" class="st9" width="9.24" height="38.37"/>
					<rect x="544.7" y="1334.93" class="st9" width="9.24" height="38.37"/>
					<rect x="564.14" y="1334.93" class="st9" width="9.24" height="38.37"/>
					<rect x="583.58" y="1334.93" class="st9" width="9.24" height="38.37"/>
				</g>
				<g>
					<path class="st8" d="M614.95,1336.72H378.52c-4.52,0-8.19-3.67-8.19-8.19v-21.99c0-4.52,3.67-8.19,8.19-8.19h236.44
						c4.52,0,8.19,3.67,8.19,8.19v21.99C623.14,1333.05,619.48,1336.72,614.95,1336.72z"/>
					<rect x="385.52" y="1298.34" class="st9" width="9.24" height="38.37"/>
					<rect x="404.96" y="1298.34" class="st9" width="9.24" height="38.37"/>
					<rect x="424.4" y="1298.34" class="st9" width="9.24" height="38.37"/>
					<rect x="443.84" y="1298.34" class="st9" width="9.24" height="38.37"/>
					<rect x="463.29" y="1298.34" class="st9" width="9.24" height="38.37"/>
					<rect x="482.73" y="1298.34" class="st9" width="9.24" height="38.37"/>
					<rect x="502.17" y="1298.34" class="st9" width="9.24" height="38.37"/>
					<rect x="521.61" y="1298.34" class="st9" width="9.24" height="38.37"/>
					<rect x="541.05" y="1298.34" class="st9" width="9.24" height="38.37"/>
					<rect x="560.49" y="1298.34" class="st9" width="9.24" height="38.37"/>
					<rect x="579.93" y="1298.34" class="st9" width="9.24" height="38.37"/>
					<rect x="599.37" y="1298.34" class="st9" width="9.24" height="38.37"/>
				</g>
				<g>
					<path class="st8" d="M603.78,1298.34H367.34c-4.52,0-8.19-3.67-8.19-8.19v-21.99c0-4.52,3.67-8.19,8.19-8.19h236.44
						c4.52,0,8.19,3.67,8.19,8.19v21.99C611.97,1294.68,608.3,1298.34,603.78,1298.34z"/>
					<rect x="374.35" y="1259.97" class="st9" width="9.24" height="38.37"/>
					<rect x="393.79" y="1259.97" class="st9" width="9.24" height="38.37"/>
					<rect x="413.23" y="1259.97" class="st9" width="9.24" height="38.37"/>
					<rect x="432.67" y="1259.97" class="st9" width="9.24" height="38.37"/>
					<rect x="452.11" y="1259.97" class="st9" width="9.24" height="38.37"/>
					<rect x="471.55" y="1259.97" class="st9" width="9.24" height="38.37"/>
					<rect x="490.99" y="1259.97" class="st9" width="9.24" height="38.37"/>
					<rect x="510.43" y="1259.97" class="st9" width="9.24" height="38.37"/>
					<rect x="529.87" y="1259.97" class="st9" width="9.24" height="38.37"/>
					<rect x="549.31" y="1259.97" class="st9" width="9.24" height="38.37"/>
					<rect x="568.75" y="1259.97" class="st9" width="9.24" height="38.37"/>
					<rect x="588.19" y="1259.97" class="st9" width="9.24" height="38.37"/>
				</g>
				<g>
					<path class="st8" d="M593.89,1488.42H357.45c-4.52,0-8.19-3.67-8.19-8.19v-21.99c0-4.52,3.67-8.19,8.19-8.19h236.44
						c4.52,0,8.19,3.67,8.19,8.19v21.99C602.08,1484.75,598.41,1488.42,593.89,1488.42z"/>
					<rect x="364.46" y="1450.05" class="st9" width="9.24" height="38.37"/>
					<rect x="383.9" y="1450.05" class="st9" width="9.24" height="38.37"/>
					<rect x="403.34" y="1450.05" class="st9" width="9.24" height="38.37"/>
					<rect x="422.78" y="1450.05" class="st9" width="9.24" height="38.37"/>
					<rect x="442.22" y="1450.05" class="st9" width="9.24" height="38.37"/>
					<rect x="461.66" y="1450.05" class="st9" width="9.24" height="38.37"/>
					<rect x="481.1" y="1450.05" class="st9" width="9.24" height="38.37"/>
					<rect x="500.54" y="1450.05" class="st9" width="9.24" height="38.37"/>
					<rect x="519.98" y="1450.05" class="st9" width="9.24" height="38.37"/>
					<rect x="539.42" y="1450.05" class="st9" width="9.24" height="38.37"/>
					<rect x="558.86" y="1450.05" class="st9" width="9.24" height="38.37"/>
					<rect x="578.3" y="1450.05" class="st9" width="9.24" height="38.37"/>
				</g>
				<g>
					<path class="st8" d="M590.08,1526.79H353.65c-4.52,0-8.19-3.67-8.19-8.19v-21.99c0-4.52,3.67-8.19,8.19-8.19h236.44
						c4.52,0,8.19,3.67,8.19,8.19v21.99C598.27,1523.13,594.61,1526.79,590.08,1526.79z"/>
					<rect x="360.65" y="1488.42" class="st9" width="9.24" height="38.37"/>
					<rect x="380.09" y="1488.42" class="st9" width="9.24" height="38.37"/>
					<rect x="399.53" y="1488.42" class="st9" width="9.24" height="38.37"/>
					<rect x="418.97" y="1488.42" class="st9" width="9.24" height="38.37"/>
					<rect x="438.41" y="1488.42" class="st9" width="9.24" height="38.37"/>
					<rect x="457.86" y="1488.42" class="st9" width="9.24" height="38.37"/>
					<rect x="477.3" y="1488.42" class="st9" width="9.24" height="38.37"/>
					<rect x="496.74" y="1488.42" class="st9" width="9.24" height="38.37"/>
					<rect x="516.18" y="1488.42" class="st9" width="9.24" height="38.37"/>
					<rect x="535.62" y="1488.42" class="st9" width="9.24" height="38.37"/>
					<rect x="555.06" y="1488.42" class="st9" width="9.24" height="38.37"/>
					<rect x="574.5" y="1488.42" class="st9" width="9.24" height="38.37"/>
				</g>
				<rect x="353.85" y="1486.34" class="st9" width="236.03" height="4.16"/>
				<rect x="357.66" y="1447.97" class="st9" width="221.36" height="4.16"/>
				<rect x="369.23" y="1409.59" class="st9" width="209.79" height="4.16"/>
				<rect x="372.32" y="1371.22" class="st9" width="229.88" height="4.16"/>
				<rect x="374.35" y="1332.85" class="st9" width="224.61" height="4.16"/>
				<rect x="374.35" y="1296.26" class="st9" width="229.23" height="4.16"/>
			</g>
		</g>
		<g>
			<path class="st10" d="M1243.86,1308.94c0,0,9.63,195.86,168.79,217.86h132.29l-186.03-220.88L1243.86,1308.94z"/>
			<g>
				<circle class="st9" cx="1526.4" cy="1294.03" r="232.76"/>
				<circle class="st8" cx="1526.4" cy="1294.03" r="183.25"/>
				<g>
					<g>
						<path class="st9" d="M1447.85,1229.42v-27.83h137.11v27.83H1447.85z M1447.85,1330.49v-27.83h48.93
							c11.62,0,20.68-3.08,27.17-9.23c6.49-6.15,9.74-14.79,9.74-25.93c0-12.21-3.25-21.61-9.74-28.2
							c-6.5-6.59-15.55-9.89-27.17-9.89h-48.93l91.41-5.57v8.5c8.01,1.46,14.21,5.49,18.6,12.08s6.59,15.26,6.59,26
							c0,19.14-5.88,33.94-17.65,44.38c-11.77,10.45-28.44,15.67-50.02,15.67H1447.85z M1447.85,1276.15v-20.21h137.11v20.21
							H1447.85z M1541.31,1409.59l-52.44-97.85h32.23l55.37,97.85H1541.31z"/>
					</g>
				</g>
			</g>
		</g>
	</g>
	<path class="st1" d="M1860.81,1531.92H142.24c-2.83,0-5.12-2.29-5.12-5.12s2.29-5.12,5.12-5.12h1718.56c2.83,0,5.12,2.29,5.12,5.12
		S1863.64,1531.92,1860.81,1531.92z"/>
</g>
<g>
	<g>
		<g>
			
				<linearGradient id="SVGID_00000045593126338520105170000003176988789990614965_" gradientUnits="userSpaceOnUse" x1="-600.1379" y1="351.1214" x2="-590.8992" y2="351.1214">
				<stop  offset="0" style="stop-color:#00ADEE"/>
				<stop  offset="1" style="stop-color:#2E3191"/>
			</linearGradient>
			<path style="fill:url(#SVGID_00000045593126338520105170000003176988789990614965_);" d="M-597.52,353.17l-1.15,3.47h-1.47
				l3.75-11.04h1.72l3.77,11.04h-1.52l-1.18-3.47H-597.52z M-593.9,352.06l-1.08-3.18c-0.25-0.72-0.41-1.38-0.57-2.01h-0.03
				c-0.16,0.66-0.34,1.33-0.56,2l-1.08,3.19H-593.9z"/>
			
				<linearGradient id="SVGID_00000042721284109777704050000009927862123248191913_" gradientUnits="userSpaceOnUse" x1="-587.9697" y1="351.0808" x2="-581.1708" y2="351.0808">
				<stop  offset="0" style="stop-color:#00ADEE"/>
				<stop  offset="1" style="stop-color:#2E3191"/>
			</linearGradient>
			<path style="fill:url(#SVGID_00000042721284109777704050000009927862123248191913_);" d="M-587.97,345.73
				c0.69-0.12,1.59-0.21,2.74-0.21c1.41,0,2.44,0.33,3.1,0.92c0.61,0.52,0.97,1.33,0.97,2.31c0,1-0.29,1.79-0.85,2.36
				c-0.75,0.8-1.98,1.21-3.37,1.21c-0.43,0-0.82-0.02-1.15-0.1v4.42h-1.43V345.73z M-586.54,351.06c0.31,0.08,0.7,0.11,1.18,0.11
				c1.72,0,2.77-0.84,2.77-2.36c0-1.46-1.03-2.16-2.61-2.16c-0.62,0-1.1,0.05-1.34,0.12V351.06z"/>
			
				<linearGradient id="SVGID_00000103952746311132577280000016402596624709129372_" gradientUnits="userSpaceOnUse" x1="-577.9466" y1="351.1214" x2="-569.6571" y2="351.1214">
				<stop  offset="0" style="stop-color:#00ADEE"/>
				<stop  offset="1" style="stop-color:#2E3191"/>
			</linearGradient>
			<path style="fill:url(#SVGID_00000103952746311132577280000016402596624709129372_);" d="M-577.95,356.64V345.6h1.56l3.54,5.59
				c0.82,1.29,1.46,2.46,1.98,3.59l0.03-0.02c-0.13-1.47-0.16-2.82-0.16-4.54v-4.62h1.34v11.04h-1.44l-3.51-5.6
				c-0.77-1.23-1.51-2.49-2.06-3.69l-0.05,0.02c0.08,1.39,0.11,2.72,0.11,4.55v4.72H-577.95z"/>
			
				<linearGradient id="SVGID_00000012444327240174440310000008164380269785653122_" gradientUnits="userSpaceOnUse" x1="-566.5154" y1="351.1217" x2="-556.4246" y2="351.1217">
				<stop  offset="0" style="stop-color:#00ADEE"/>
				<stop  offset="1" style="stop-color:#2E3191"/>
			</linearGradient>
			<path style="fill:url(#SVGID_00000012444327240174440310000008164380269785653122_);" d="M-556.42,351.01
				c0,3.8-2.31,5.82-5.13,5.82c-2.92,0-4.96-2.26-4.96-5.6c0-3.51,2.18-5.8,5.13-5.8C-558.37,345.42-556.42,347.73-556.42,351.01z
				 M-564.99,351.19c0,2.36,1.28,4.47,3.52,4.47c2.26,0,3.54-2.08,3.54-4.59c0-2.19-1.15-4.49-3.52-4.49
				C-563.81,346.58-564.99,348.76-564.99,351.19z"/>
			
				<linearGradient id="SVGID_00000070831362576753210620000017924263868739458952_" gradientUnits="userSpaceOnUse" x1="-548.4839" y1="351.1214" x2="-540.6862" y2="351.1214">
				<stop  offset="0" style="stop-color:#00ADEE"/>
				<stop  offset="1" style="stop-color:#2E3191"/>
			</linearGradient>
			<path style="fill:url(#SVGID_00000070831362576753210620000017924263868739458952_);" d="M-548.48,345.6h1.43v5.32h0.05
				c0.29-0.43,0.59-0.82,0.87-1.18l3.37-4.14h1.77l-4,4.69l4.31,6.36h-1.69l-3.64-5.42l-1.05,1.21v4.21h-1.43V345.6z"/>
			
				<linearGradient id="SVGID_00000021086676761336271070000008345582477686799753_" gradientUnits="userSpaceOnUse" x1="-538.9684" y1="351.1214" x2="-529.7296" y2="351.1214">
				<stop  offset="0" style="stop-color:#00ADEE"/>
				<stop  offset="1" style="stop-color:#2E3191"/>
			</linearGradient>
			<path style="fill:url(#SVGID_00000021086676761336271070000008345582477686799753_);" d="M-536.35,353.17l-1.15,3.47h-1.47
				l3.75-11.04h1.72l3.77,11.04h-1.52l-1.18-3.47H-536.35z M-532.73,352.06l-1.08-3.18c-0.25-0.72-0.41-1.38-0.57-2.01h-0.03
				c-0.16,0.66-0.34,1.33-0.56,2l-1.08,3.19H-532.73z"/>
			
				<linearGradient id="SVGID_00000160894449889634684340000004043700585043926662_" gradientUnits="userSpaceOnUse" x1="-522.0183" y1="351.1214" x2="-520.5931" y2="351.1214">
				<stop  offset="0" style="stop-color:#00ADEE"/>
				<stop  offset="1" style="stop-color:#2E3191"/>
			</linearGradient>
			<path style="fill:url(#SVGID_00000160894449889634684340000004043700585043926662_);" d="M-520.59,345.6v11.04h-1.43V345.6
				H-520.59z"/>
			
				<linearGradient id="SVGID_00000054266107518273536580000006444060558552910220_" gradientUnits="userSpaceOnUse" x1="-516.7936" y1="351.1214" x2="-508.5041" y2="351.1214">
				<stop  offset="0" style="stop-color:#00ADEE"/>
				<stop  offset="1" style="stop-color:#2E3191"/>
			</linearGradient>
			<path style="fill:url(#SVGID_00000054266107518273536580000006444060558552910220_);" d="M-516.79,356.64V345.6h1.56l3.54,5.59
				c0.82,1.29,1.46,2.46,1.98,3.59l0.03-0.02c-0.13-1.47-0.16-2.82-0.16-4.54v-4.62h1.34v11.04h-1.44l-3.51-5.6
				c-0.77-1.23-1.51-2.49-2.06-3.69l-0.05,0.02c0.08,1.39,0.11,2.72,0.11,4.55v4.72H-516.79z"/>
			
				<linearGradient id="SVGID_00000115491623020421919660000008528388108210357907_" gradientUnits="userSpaceOnUse" x1="-505.2639" y1="351.1135" x2="-498.5801" y2="351.1135">
				<stop  offset="0" style="stop-color:#00ADEE"/>
				<stop  offset="1" style="stop-color:#2E3191"/>
			</linearGradient>
			<path style="fill:url(#SVGID_00000115491623020421919660000008528388108210357907_);" d="M-504.9,354.91
				c0.64,0.39,1.57,0.72,2.56,0.72c1.46,0,2.31-0.77,2.31-1.88c0-1.03-0.59-1.62-2.08-2.2c-1.8-0.64-2.92-1.57-2.92-3.13
				c0-1.72,1.43-3,3.57-3c1.13,0,1.95,0.26,2.44,0.54l-0.39,1.16c-0.36-0.2-1.1-0.52-2.1-0.52c-1.51,0-2.08,0.9-2.08,1.65
				c0,1.03,0.67,1.54,2.19,2.13c1.87,0.72,2.82,1.62,2.82,3.24c0,1.7-1.26,3.18-3.87,3.18c-1.06,0-2.23-0.31-2.82-0.7L-504.9,354.91
				z"/>
			
				<linearGradient id="SVGID_00000160164450625844245890000017059374266531275157_" gradientUnits="userSpaceOnUse" x1="-495.3385" y1="351.2116" x2="-487.1971" y2="351.2116">
				<stop  offset="0" style="stop-color:#00ADEE"/>
				<stop  offset="1" style="stop-color:#2E3191"/>
			</linearGradient>
			<path style="fill:url(#SVGID_00000160164450625844245890000017059374266531275157_);" d="M-493.9,345.6v6.54
				c0,2.47,1.1,3.52,2.57,3.52c1.64,0,2.69-1.08,2.69-3.52v-6.54h1.44v6.44c0,3.39-1.78,4.78-4.18,4.78c-2.26,0-3.96-1.29-3.96-4.72
				v-6.5H-493.9z"/>
			
				<linearGradient id="SVGID_00000151527244611687249580000016386264265752043944_" gradientUnits="userSpaceOnUse" x1="-483.4148" y1="351.0808" x2="-476.224" y2="351.0808">
				<stop  offset="0" style="stop-color:#00ADEE"/>
				<stop  offset="1" style="stop-color:#2E3191"/>
			</linearGradient>
			<path style="fill:url(#SVGID_00000151527244611687249580000016386264265752043944_);" d="M-483.41,345.75
				c0.72-0.15,1.75-0.23,2.74-0.23c1.52,0,2.51,0.28,3.19,0.9c0.56,0.49,0.87,1.25,0.87,2.1c0,1.46-0.92,2.42-2.08,2.82v0.05
				c0.85,0.29,1.36,1.08,1.62,2.23c0.36,1.54,0.62,2.61,0.85,3.03h-1.47c-0.18-0.31-0.43-1.26-0.74-2.64
				c-0.33-1.52-0.92-2.1-2.21-2.15h-1.34v4.78h-1.43V345.75z M-481.99,350.78h1.46c1.52,0,2.49-0.84,2.49-2.1
				c0-1.43-1.03-2.05-2.54-2.06c-0.69,0-1.18,0.07-1.41,0.13V350.78z"/>
			
				<linearGradient id="SVGID_00000039092971140963589170000008681793365628725384_" gradientUnits="userSpaceOnUse" x1="-474.0482" y1="351.1214" x2="-464.8095" y2="351.1214">
				<stop  offset="0" style="stop-color:#00ADEE"/>
				<stop  offset="1" style="stop-color:#2E3191"/>
			</linearGradient>
			<path style="fill:url(#SVGID_00000039092971140963589170000008681793365628725384_);" d="M-471.43,353.17l-1.15,3.47h-1.47
				l3.75-11.04h1.72l3.77,11.04h-1.52l-1.18-3.47H-471.43z M-467.81,352.06l-1.08-3.18c-0.25-0.72-0.41-1.38-0.57-2.01h-0.03
				c-0.16,0.66-0.34,1.33-0.56,2l-1.08,3.19H-467.81z"/>
			
				<linearGradient id="SVGID_00000047038295554374986920000014714338878562478507_" gradientUnits="userSpaceOnUse" x1="-461.8785" y1="351.1214" x2="-453.5905" y2="351.1214">
				<stop  offset="0" style="stop-color:#00ADEE"/>
				<stop  offset="1" style="stop-color:#2E3191"/>
			</linearGradient>
			<path style="fill:url(#SVGID_00000047038295554374986920000014714338878562478507_);" d="M-461.88,356.64V345.6h1.56l3.54,5.59
				c0.82,1.29,1.46,2.46,1.98,3.59l0.03-0.02c-0.13-1.47-0.16-2.82-0.16-4.54v-4.62h1.34v11.04h-1.44l-3.51-5.6
				c-0.77-1.23-1.51-2.49-2.06-3.69l-0.05,0.02c0.08,1.39,0.12,2.72,0.12,4.55v4.72H-461.88z"/>
			
				<linearGradient id="SVGID_00000005985533558579293660000017496093858444987070_" gradientUnits="userSpaceOnUse" x1="-450.4481" y1="351.1135" x2="-442.0609" y2="351.1135">
				<stop  offset="0" style="stop-color:#00ADEE"/>
				<stop  offset="1" style="stop-color:#2E3191"/>
			</linearGradient>
			<path style="fill:url(#SVGID_00000005985533558579293660000017496093858444987070_);" d="M-442.08,356.28
				c-0.53,0.26-1.57,0.52-2.92,0.52c-3.11,0-5.45-1.97-5.45-5.59c0-3.46,2.34-5.8,5.77-5.8c1.37,0,2.24,0.29,2.62,0.49l-0.34,1.16
				c-0.54-0.26-1.31-0.46-2.23-0.46c-2.59,0-4.31,1.65-4.31,4.55c0,2.7,1.56,4.44,4.24,4.44c0.87,0,1.75-0.18,2.33-0.46
				L-442.08,356.28z"/>
			
				<linearGradient id="SVGID_00000125592362083340849360000014198209784315249833_" gradientUnits="userSpaceOnUse" x1="-438.9831" y1="351.1214" x2="-432.7747" y2="351.1214">
				<stop  offset="0" style="stop-color:#00ADEE"/>
				<stop  offset="1" style="stop-color:#2E3191"/>
			</linearGradient>
			<path style="fill:url(#SVGID_00000125592362083340849360000014198209784315249833_);" d="M-433.27,351.47h-4.29v3.98h4.78v1.2
				h-6.21V345.6h5.96v1.2h-4.54v3.49h4.29V351.47z"/>
			
				<linearGradient id="SVGID_00000144310027854417440030000014108497195348401295_" gradientUnits="userSpaceOnUse" x1="-424.8332" y1="351.0808" x2="-418.0351" y2="351.0808">
				<stop  offset="0" style="stop-color:#00ADEE"/>
				<stop  offset="1" style="stop-color:#2E3191"/>
			</linearGradient>
			<path style="fill:url(#SVGID_00000144310027854417440030000014108497195348401295_);" d="M-424.83,345.73
				c0.69-0.12,1.59-0.21,2.74-0.21c1.41,0,2.44,0.33,3.1,0.92c0.61,0.52,0.97,1.33,0.97,2.31c0,1-0.29,1.79-0.85,2.36
				c-0.75,0.8-1.98,1.21-3.37,1.21c-0.43,0-0.82-0.02-1.15-0.1v4.42h-1.43V345.73z M-423.41,351.06c0.31,0.08,0.7,0.11,1.18,0.11
				c1.72,0,2.77-0.84,2.77-2.36c0-1.46-1.03-2.16-2.6-2.16c-0.62,0-1.1,0.05-1.34,0.12V351.06z"/>
			
				<linearGradient id="SVGID_00000067929189861418222320000014439481983904531335_" gradientUnits="userSpaceOnUse" x1="-417.0213" y1="351.1214" x2="-407.7825" y2="351.1214">
				<stop  offset="0" style="stop-color:#00ADEE"/>
				<stop  offset="1" style="stop-color:#2E3191"/>
			</linearGradient>
			<path style="fill:url(#SVGID_00000067929189861418222320000014439481983904531335_);" d="M-414.4,353.17l-1.15,3.47h-1.47
				l3.75-11.04h1.72l3.77,11.04h-1.52l-1.18-3.47H-414.4z M-410.78,352.06l-1.08-3.18c-0.25-0.72-0.41-1.38-0.57-2.01h-0.03
				c-0.16,0.66-0.34,1.33-0.56,2l-1.08,3.19H-410.78z"/>
			
				<linearGradient id="SVGID_00000111882852199675847150000000188871812222773156_" gradientUnits="userSpaceOnUse" x1="-404.8531" y1="351.0808" x2="-397.6622" y2="351.0808">
				<stop  offset="0" style="stop-color:#00ADEE"/>
				<stop  offset="1" style="stop-color:#2E3191"/>
			</linearGradient>
			<path style="fill:url(#SVGID_00000111882852199675847150000000188871812222773156_);" d="M-404.85,345.75
				c0.72-0.15,1.75-0.23,2.74-0.23c1.52,0,2.51,0.28,3.19,0.9c0.56,0.49,0.87,1.25,0.87,2.1c0,1.46-0.92,2.42-2.08,2.82v0.05
				c0.85,0.29,1.36,1.08,1.62,2.23c0.36,1.54,0.62,2.61,0.85,3.03h-1.47c-0.18-0.31-0.43-1.26-0.74-2.64
				c-0.33-1.52-0.92-2.1-2.21-2.15h-1.34v4.78h-1.43V345.75z M-403.43,350.78h1.46c1.52,0,2.49-0.84,2.49-2.1
				c0-1.43-1.03-2.05-2.54-2.06c-0.69,0-1.18,0.07-1.41,0.13V350.78z"/>
			
				<linearGradient id="SVGID_00000173136568554806948390000014976556104381609905_" gradientUnits="userSpaceOnUse" x1="-395.8458" y1="351.1214" x2="-387.6715" y2="351.1214">
				<stop  offset="0" style="stop-color:#00ADEE"/>
				<stop  offset="1" style="stop-color:#2E3191"/>
			</linearGradient>
			<path style="fill:url(#SVGID_00000173136568554806948390000014976556104381609905_);" d="M-392.49,346.81h-3.36v-1.21h8.17v1.21
				h-3.38v9.83h-1.44V346.81z"/>
			
				<linearGradient id="SVGID_00000129911768944355487560000016916997332165007270_" gradientUnits="userSpaceOnUse" x1="-385.1346" y1="351.1214" x2="-376.8466" y2="351.1214">
				<stop  offset="0" style="stop-color:#00ADEE"/>
				<stop  offset="1" style="stop-color:#2E3191"/>
			</linearGradient>
			<path style="fill:url(#SVGID_00000129911768944355487560000016916997332165007270_);" d="M-385.13,356.64V345.6h1.56l3.54,5.59
				c0.82,1.29,1.46,2.46,1.98,3.59l0.03-0.02c-0.13-1.47-0.16-2.82-0.16-4.54v-4.62h1.34v11.04h-1.44l-3.51-5.6
				c-0.77-1.23-1.51-2.49-2.06-3.69l-0.05,0.02c0.08,1.39,0.11,2.72,0.11,4.55v4.72H-385.13z"/>
			
				<linearGradient id="SVGID_00000102539974148035922710000010170405301999271830_" gradientUnits="userSpaceOnUse" x1="-373.0484" y1="351.1214" x2="-366.8399" y2="351.1214">
				<stop  offset="0" style="stop-color:#00ADEE"/>
				<stop  offset="1" style="stop-color:#2E3191"/>
			</linearGradient>
			<path style="fill:url(#SVGID_00000102539974148035922710000010170405301999271830_);" d="M-367.33,351.47h-4.29v3.98h4.78v1.2
				h-6.21V345.6h5.96v1.2h-4.54v3.49h4.29V351.47z"/>
			
				<linearGradient id="SVGID_00000026161156189423380590000004305772944375977601_" gradientUnits="userSpaceOnUse" x1="-363.6803" y1="351.0808" x2="-356.4895" y2="351.0808">
				<stop  offset="0" style="stop-color:#00ADEE"/>
				<stop  offset="1" style="stop-color:#2E3191"/>
			</linearGradient>
			<path style="fill:url(#SVGID_00000026161156189423380590000004305772944375977601_);" d="M-363.68,345.75
				c0.72-0.15,1.75-0.23,2.74-0.23c1.52,0,2.51,0.28,3.19,0.9c0.56,0.49,0.87,1.25,0.87,2.1c0,1.46-0.92,2.42-2.08,2.82v0.05
				c0.85,0.29,1.36,1.08,1.62,2.23c0.36,1.54,0.62,2.61,0.85,3.03h-1.47c-0.18-0.31-0.43-1.26-0.74-2.64
				c-0.33-1.52-0.92-2.1-2.21-2.15h-1.34v4.78h-1.43V345.75z M-362.26,350.78h1.46c1.52,0,2.49-0.84,2.49-2.1
				c0-1.43-1.03-2.05-2.54-2.06c-0.69,0-1.18,0.07-1.41,0.13V350.78z"/>
		</g>
	</g>
	<g>
		<g>
			<g>
				
					<linearGradient id="SVGID_00000062872761840539802880000008621832338574759860_" gradientUnits="userSpaceOnUse" x1="-624.6647" y1="312.3047" x2="-577.2176" y2="312.3047">
					<stop  offset="0" style="stop-color:#00ADEE"/>
					<stop  offset="1" style="stop-color:#2E3191"/>
				</linearGradient>
				<path style="fill:url(#SVGID_00000062872761840539802880000008621832338574759860_);" d="M-594.7,293.88
					c0,0.04,0.24,0.61,0.73,1.72c0.49,1.1,1.13,2.53,1.94,4.29c0.8,1.76,1.73,3.77,2.76,6.04c1.04,2.27,2.1,4.58,3.18,6.93
					c1.08,2.35,2.14,4.66,3.18,6.93c1.04,2.27,1.96,4.29,2.76,6.07c0.8,1.78,1.45,3.23,1.94,4.35c0.49,1.12,0.73,1.73,0.73,1.81
					c0.34,0.59,0.35,1.18,0.03,1.75c-0.32,0.57-0.77,0.86-1.37,0.86c-1.48,0-2.63,0-3.43,0c-0.81,0-1.42-0.03-1.84-0.1
					c-0.42-0.06-0.73-0.16-0.92-0.29c-0.19-0.13-0.39-0.3-0.6-0.51c-1.91-2.29-4.23-3.95-6.96-4.99c-2.73-1.04-5.54-1.53-8.42-1.46
					c-2.88,0.06-5.69,0.65-8.42,1.75c-2.73,1.1-5.05,2.67-6.96,4.7c-0.13,0.21-0.28,0.38-0.45,0.51c-0.17,0.13-0.47,0.22-0.89,0.29
					c-0.42,0.06-1.04,0.1-1.84,0.1c-0.81,0-1.91,0-3.3,0c-0.72,0-1.23-0.29-1.53-0.86c-0.3-0.57-0.36-1.15-0.19-1.75
					c3.18-6.82,5.83-12.54,7.94-17.16c2.12-4.62,3.85-8.41,5.21-11.38c1.36-2.96,2.41-5.23,3.18-6.8c0.76-1.57,1.37-2.73,1.81-3.5
					c0.44-0.76,0.8-1.26,1.08-1.49c0.28-0.23,0.6-0.48,0.99-0.73c0.8-0.51,1.68-0.81,2.64-0.92c0.95-0.11,1.87-0.03,2.76,0.22
					c0.89,0.25,1.71,0.69,2.45,1.3C-595.77,292.18-595.17,292.95-594.7,293.88z M-611.48,322.35c1.61-0.59,3.32-1.05,5.12-1.37
					c1.8-0.32,3.62-0.49,5.47-0.51c1.84-0.02,3.66,0.11,5.47,0.38c1.8,0.28,3.5,0.67,5.12,1.18c-0.3-0.64-0.52-1.11-0.67-1.43
					c-0.15-0.32-0.32-0.68-0.51-1.08c-0.19-0.4-0.46-0.96-0.79-1.68c-0.34-0.72-0.86-1.82-1.56-3.3c-0.7-1.48-1.61-3.45-2.73-5.91
					c-1.12-2.46-2.57-5.63-4.35-9.53c-1.78,3.77-3.22,6.87-4.32,9.31c-1.1,2.44-1.99,4.4-2.67,5.88c-0.68,1.48-1.19,2.61-1.53,3.37
					c-0.34,0.76-0.6,1.38-0.79,1.84c-0.19,0.47-0.37,0.89-0.54,1.27C-610.95,321.15-611.18,321.68-611.48,322.35z"/>
				
					<linearGradient id="SVGID_00000013170874271844043630000006704099287893957275_" gradientUnits="userSpaceOnUse" x1="-577.9249" y1="312.3439" x2="-543.6901" y2="312.3439">
					<stop  offset="0" style="stop-color:#00ADEE"/>
					<stop  offset="1" style="stop-color:#2E3191"/>
				</linearGradient>
				<path style="fill:url(#SVGID_00000013170874271844043630000006704099287893957275_);" d="M-576.72,290.51
					c0.8-0.55,1.69-0.83,2.67-0.83c0.97,0,1.86,0.28,2.67,0.83c0.8,0.55,1.21,1.38,1.21,2.48v25.23c0,1.65,0.26,3.1,0.79,4.35
					c0.53,1.25,1.22,2.29,2.07,3.11c0.85,0.83,1.83,1.44,2.96,1.84c1.12,0.4,2.26,0.6,3.4,0.6c1.19,0,2.34-0.21,3.46-0.64
					c1.12-0.42,2.13-1.05,3.02-1.87c0.89-0.83,1.61-1.85,2.16-3.08c0.55-1.23,0.83-2.67,0.83-4.32c0-1.27-0.27-2.53-0.79-3.78
					c-0.53-1.25-1.26-2.35-2.19-3.3c-0.93-0.95-2.06-1.67-3.37-2.16c-1.31-0.49-2.75-0.65-4.32-0.48c-1.06,0.13-1.92-0.13-2.57-0.76
					c-0.66-0.64-1.06-1.38-1.21-2.22c-0.15-0.85-0.01-1.66,0.41-2.45c0.42-0.78,1.19-1.24,2.29-1.37c2.8-0.38,5.44-0.15,7.94,0.7
					c2.5,0.85,4.65,2.13,6.45,3.84c1.8,1.72,3.17,3.78,4.1,6.2c0.93,2.42,1.25,4.98,0.95,7.69c-0.21,2.08-0.79,4.03-1.75,5.85
					c-0.95,1.82-2.19,3.4-3.72,4.74c-1.53,1.33-3.27,2.38-5.24,3.15c-1.97,0.76-4.08,1.14-6.32,1.14c-2.37,0-4.6-0.43-6.67-1.3
					c-2.08-0.87-3.89-2.07-5.43-3.59c-1.55-1.53-2.76-3.3-3.65-5.34c-0.89-2.03-1.33-4.22-1.33-6.55v-25.23
					C-577.92,291.89-577.52,291.06-576.72,290.51z"/>
				
					<linearGradient id="SVGID_00000104708648889364137500000010098659492369114505_" gradientUnits="userSpaceOnUse" x1="-539.8564" y1="311.9307" x2="-532.1027" y2="311.9307">
					<stop  offset="0" style="stop-color:#00ADEE"/>
					<stop  offset="1" style="stop-color:#2E3191"/>
				</linearGradient>
				<path style="fill:url(#SVGID_00000104708648889364137500000010098659492369114505_);" d="M-539.86,306.34
					c0-1.31,0.4-2.29,1.21-2.92c0.8-0.64,1.69-0.95,2.67-0.95c0.97,0,1.86,0.32,2.67,0.95c0.8,0.64,1.21,1.61,1.21,2.92v23.96
					c0,1.27-0.4,2.24-1.21,2.89c-0.8,0.66-1.69,0.99-2.67,0.99c-0.98,0-1.86-0.33-2.67-0.99c-0.8-0.66-1.21-1.62-1.21-2.89V306.34z
					 M-536.04,297.31c-1.27,0-2.21-0.39-2.83-1.18c-0.61-0.78-0.92-1.65-0.92-2.61c0-0.95,0.32-1.83,0.95-2.64
					c0.64-0.8,1.61-1.21,2.92-1.21c1.27,0,2.22,0.4,2.86,1.21c0.64,0.81,0.95,1.68,0.95,2.64c0,0.95-0.33,1.82-0.99,2.61
					C-533.74,296.92-534.73,297.31-536.04,297.31z"/>
				
					<linearGradient id="SVGID_00000111181502188470912310000013656780051596258982_" gradientUnits="userSpaceOnUse" x1="-527.0195" y1="318.5401" x2="-511.3854" y2="318.5401">
					<stop  offset="0" style="stop-color:#00ADEE"/>
					<stop  offset="1" style="stop-color:#2E3191"/>
				</linearGradient>
				<path style="fill:url(#SVGID_00000111181502188470912310000013656780051596258982_);" d="M-519.27,330.42
					c0,1.23-0.41,2.16-1.24,2.8c-0.83,0.63-1.73,0.95-2.7,0.95c-0.98,0-1.85-0.31-2.64-0.92c-0.78-0.61-1.18-1.56-1.18-2.83V317.4
					c0.04-2.2,0.49-4.2,1.33-6.01c0.85-1.8,1.87-3.33,3.08-4.58c1.21-1.25,2.5-2.21,3.88-2.89c1.38-0.68,2.64-1.02,3.78-1.02
					c1.06,0,1.92,0.3,2.57,0.89c0.66,0.59,0.99,1.5,0.99,2.73c0-0.13,0-0.04,0,0.25c0,0.3-0.06,0.66-0.19,1.08
					c-0.13,0.42-0.37,0.87-0.73,1.33c-0.36,0.47-0.92,0.83-1.68,1.08c-1.65,0.59-2.86,1.39-3.62,2.38c-0.76,1-1.26,2.3-1.49,3.91
					c-0.23,1.61-0.32,3.55-0.25,5.82C-519.3,324.65-519.27,327.33-519.27,330.42z"/>
				
					<linearGradient id="SVGID_00000027588151798843918500000012245162225002742463_" gradientUnits="userSpaceOnUse" x1="-510.0501" y1="318.318" x2="-475.8588" y2="318.318">
					<stop  offset="0" style="stop-color:#00ADEE"/>
					<stop  offset="1" style="stop-color:#2E3191"/>
				</linearGradient>
				<path style="fill:url(#SVGID_00000027588151798843918500000012245162225002742463_);" d="M-510.05,318.29
					c0-2.29,0.44-4.45,1.33-6.48c0.89-2.03,2.09-3.81,3.62-5.34c1.52-1.53,3.32-2.73,5.39-3.62c2.07-0.89,4.31-1.33,6.73-1.33
					c2.41,0,4.65,0.44,6.72,1.31c2.07,0.88,3.88,2.08,5.42,3.62c1.54,1.54,2.76,3.32,3.65,5.36c0.89,2.03,1.33,4.22,1.33,6.55v12.52
					c0,1.14-0.4,2-1.2,2.57c-0.8,0.57-1.68,0.86-2.65,0.86c-0.97,0-1.86-0.29-2.68-0.86c-0.82-0.57-1.23-1.43-1.23-2.57v-12.52
					c0-1.65-0.27-3.09-0.8-4.32c-0.53-1.23-1.22-2.26-2.07-3.08c-0.85-0.83-1.84-1.44-2.97-1.84c-1.13-0.4-2.26-0.6-3.41-0.6
					c-1.19,0-2.35,0.2-3.48,0.6c-1.13,0.4-2.14,1.01-3.03,1.84c-0.89,0.82-1.61,1.85-2.14,3.07c-0.53,1.23-0.8,2.66-0.8,4.31
					c0,1.23,0.22,2.42,0.67,3.58c0.44,1.16,1.08,2.21,1.91,3.14c0.83,0.93,1.81,1.68,2.96,2.25c1.14,0.57,2.39,0.85,3.75,0.85
					c0.25,0,0.59-0.02,1.02-0.06c0.42-0.04,0.88-0.02,1.37,0.06c0.49,0.09,0.95,0.28,1.4,0.57c0.45,0.3,0.82,0.78,1.11,1.46
					c0.34,0.81,0.44,1.52,0.32,2.13c-0.13,0.61-0.42,1.13-0.89,1.56c-0.47,0.42-1.09,0.74-1.88,0.95c-0.78,0.21-1.64,0.32-2.57,0.32
					c-1.65,0-3.46-0.34-5.43-1.02c-1.97-0.68-3.81-1.71-5.51-3.08c-1.7-1.38-3.12-3.12-4.26-5.24
					C-509.48,323.67-510.05,321.17-510.05,318.29z"/>
				
					<linearGradient id="SVGID_00000072960321008561722440000011044980696917725057_" gradientUnits="userSpaceOnUse" x1="-470.7102" y1="311.9809" x2="-438.1088" y2="311.9809">
					<stop  offset="0" style="stop-color:#00ADEE"/>
					<stop  offset="1" style="stop-color:#2E3191"/>
				</linearGradient>
				<path style="fill:url(#SVGID_00000072960321008561722440000011044980696917725057_);" d="M-469.5,290.7
					c0.81-0.64,1.69-0.95,2.67-0.95c0.98,0,1.86,0.32,2.67,0.95c0.81,0.64,1.21,1.61,1.21,2.92v19.51c1.52,0,2.97-0.23,4.32-0.7
					c1.35-0.47,2.63-1.1,3.81-1.91c1.19-0.8,2.29-1.76,3.3-2.86c1.02-1.1,1.93-2.29,2.73-3.56c0.38-0.59,0.84-1.03,1.37-1.3
					c0.53-0.27,1.09-0.41,1.68-0.41c0.64,0,1.25,0.15,1.84,0.45c0.59,0.3,1.06,0.7,1.4,1.21c0.34,0.51,0.53,1.1,0.57,1.78
					c0.04,0.68-0.17,1.42-0.64,2.22c-1.57,2.63-3.57,4.91-6.01,6.86c-2.44,1.95-5.05,3.35-7.85,4.19c1.19,2.25,2.98,4.09,5.37,5.53
					c2.39,1.44,5.47,2.16,9.25,2.16c1.19,0,2.1,0.38,2.73,1.14c0.64,0.76,0.95,1.61,0.95,2.54c0,0.93-0.31,1.78-0.92,2.54
					c-0.62,0.76-1.54,1.14-2.77,1.14c0.08,0-0.19,0.01-0.83,0.03c-0.64,0.02-1.52-0.03-2.64-0.16c-1.12-0.13-2.43-0.37-3.91-0.73
					c-1.48-0.36-3.03-0.92-4.64-1.68c-1.61-0.76-3.21-1.77-4.8-3.02c-1.59-1.25-3.04-2.83-4.35-4.73v6.42
					c0,1.27-0.41,2.24-1.24,2.89c-0.83,0.66-1.73,0.99-2.7,0.99c-0.98,0-1.85-0.32-2.64-0.95c-0.78-0.64-1.18-1.61-1.18-2.92v-36.67
					C-470.71,292.32-470.31,291.34-469.5,290.7z"/>
				
					<linearGradient id="SVGID_00000127046443814934172920000016133362237060807050_" gradientUnits="userSpaceOnUse" x1="-435.0992" y1="318.4656" x2="-413.6889" y2="318.4656">
					<stop  offset="0" style="stop-color:#00ADEE"/>
					<stop  offset="1" style="stop-color:#2E3191"/>
				</linearGradient>
				<path style="fill:url(#SVGID_00000127046443814934172920000016133362237060807050_);" d="M-421.01,308.94
					c-0.51-0.25-1.13-0.47-1.87-0.64c-0.74-0.17-1.48-0.24-2.22-0.22c-0.74,0.02-1.4,0.19-1.97,0.51c-0.57,0.32-0.94,0.82-1.11,1.49
					c-0.17,0.64-0.06,1.15,0.32,1.56c0.38,0.4,0.93,0.77,1.65,1.11c0.72,0.34,1.57,0.68,2.54,1.02c0.98,0.34,1.97,0.74,2.99,1.21
					c1.02,0.47,2,1.05,2.96,1.75c0.95,0.7,1.77,1.58,2.45,2.64c0.98,1.44,1.5,2.94,1.59,4.51c0.08,1.57-0.17,3.04-0.76,4.42
					c-0.59,1.38-1.46,2.63-2.61,3.75c-1.14,1.12-2.47,1.96-3.97,2.51c-1.5,0.55-3.12,0.77-4.86,0.67c-1.74-0.11-3.5-0.69-5.28-1.75
					c-0.59-0.34-1.11-0.7-1.56-1.08c-0.44-0.38-0.86-0.8-1.24-1.27c-0.47-0.42-0.77-0.91-0.92-1.46c-0.15-0.55-0.18-1.09-0.1-1.62
					c0.08-0.53,0.28-1.04,0.57-1.53c0.3-0.49,0.7-0.88,1.21-1.18c0.89-0.42,1.68-0.44,2.38-0.06c0.7,0.38,1.37,0.87,2,1.46
					c0.55,0.55,1.24,0.96,2.07,1.24c0.83,0.28,1.64,0.38,2.45,0.32c0.81-0.06,1.55-0.3,2.22-0.7c0.68-0.4,1.14-1.01,1.4-1.81
					c0.25-1.02,0.19-1.84-0.19-2.48c-0.38-0.64-0.95-1.19-1.72-1.65c-0.76-0.47-1.66-0.88-2.7-1.24c-1.04-0.36-2.09-0.76-3.15-1.21
					c-1.06-0.45-2.08-1-3.05-1.65c-0.98-0.66-1.8-1.49-2.48-2.51c-0.59-0.89-0.95-2-1.08-3.34c-0.13-1.33,0.04-2.66,0.51-3.97
					c0.47-1.31,1.26-2.5,2.38-3.56c1.12-1.06,2.62-1.76,4.48-2.1c1.44-0.42,3.07-0.51,4.89-0.25c1.82,0.25,3.52,0.81,5.08,1.65
					c1.06,0.59,1.68,1.31,1.88,2.16c0.19,0.85,0.06,1.6-0.38,2.26c-0.45,0.66-1.1,1.13-1.97,1.43
					C-419.05,309.62-420,309.5-421.01,308.94z"/>
				
					<linearGradient id="SVGID_00000090976575794554169260000015465645887681557662_" gradientUnits="userSpaceOnUse" x1="-409.5111" y1="311.9624" x2="-378.8153" y2="311.9624">
					<stop  offset="0" style="stop-color:#00ADEE"/>
					<stop  offset="1" style="stop-color:#2E3191"/>
				</linearGradient>
				<path style="fill:url(#SVGID_00000090976575794554169260000015465645887681557662_);" d="M-402.99,333.19
					c-0.82,0.66-1.71,0.99-2.68,0.99c-0.97,0-1.85-0.32-2.65-0.95c-0.8-0.64-1.2-1.61-1.2-2.92v-36.67c0-1.27,0.41-2.23,1.23-2.89
					c0.82-0.66,1.71-0.99,2.68-0.99c0.97,0,1.85,0.32,2.65,0.95c0.8,0.63,1.2,1.61,1.2,2.92l0.05,11.29
					c1.35-1.18,2.8-2.04,4.34-2.58c1.54-0.55,3.1-0.82,4.66-0.82c1.77,0,3.5,0.34,5.17,1.02c1.67,0.68,3.15,1.67,4.44,2.99
					c1.29,1.31,2.32,2.9,3.11,4.77c0.78,1.87,1.17,3.96,1.17,6.29v13.73c0,1.27-0.4,2.24-1.2,2.89c-0.8,0.66-1.68,0.99-2.65,0.99
					c-0.97,0-1.86-0.33-2.68-0.99c-0.82-0.66-1.23-1.63-1.23-2.9v-13.76c0-1.23-0.22-2.3-0.67-3.22c-0.45-0.91-1.02-1.68-1.72-2.29
					c-0.7-0.62-1.51-1.08-2.43-1.4c-0.91-0.32-1.84-0.48-2.77-0.48c-0.98,0-1.92,0.16-2.81,0.48c-0.89,0.32-1.7,0.79-2.42,1.4
					c-0.72,0.62-1.3,1.38-1.72,2.29c-0.42,0.91-0.64,1.99-0.64,3.22v13.76C-401.76,331.56-402.17,332.53-402.99,333.19z"/>
				
					<linearGradient id="SVGID_00000016782196885010851850000015689736424166937783_" gradientUnits="userSpaceOnUse" x1="-374.9381" y1="318.318" x2="-340.7476" y2="318.318">
					<stop  offset="0" style="stop-color:#00ADEE"/>
					<stop  offset="1" style="stop-color:#2E3191"/>
				</linearGradient>
				<path style="fill:url(#SVGID_00000016782196885010851850000015689736424166937783_);" d="M-374.94,318.29
					c0-2.29,0.44-4.45,1.33-6.48c0.89-2.03,2.09-3.81,3.62-5.34c1.52-1.53,3.32-2.73,5.39-3.62c2.07-0.89,4.31-1.33,6.72-1.33
					c2.41,0,4.65,0.44,6.72,1.31c2.07,0.88,3.88,2.08,5.42,3.62c1.54,1.54,2.76,3.32,3.65,5.36c0.89,2.03,1.33,4.22,1.33,6.55v12.52
					c0,1.14-0.4,2-1.2,2.57c-0.8,0.57-1.68,0.86-2.65,0.86c-0.97,0-1.86-0.29-2.68-0.86c-0.82-0.57-1.23-1.43-1.23-2.57v-12.52
					c0-1.65-0.27-3.09-0.8-4.32c-0.53-1.23-1.22-2.26-2.07-3.08c-0.85-0.83-1.84-1.44-2.97-1.84c-1.13-0.4-2.26-0.6-3.41-0.6
					c-1.19,0-2.35,0.2-3.47,0.6c-1.13,0.4-2.14,1.01-3.03,1.84c-0.89,0.82-1.61,1.85-2.14,3.07c-0.53,1.23-0.8,2.66-0.8,4.31
					c0,1.23,0.22,2.42,0.67,3.58c0.44,1.16,1.08,2.21,1.91,3.14c0.83,0.93,1.81,1.68,2.96,2.25c1.14,0.57,2.39,0.85,3.75,0.85
					c0.25,0,0.59-0.02,1.02-0.06c0.42-0.04,0.88-0.02,1.37,0.06c0.49,0.09,0.95,0.28,1.4,0.57c0.45,0.3,0.82,0.78,1.11,1.46
					c0.34,0.81,0.44,1.52,0.32,2.13c-0.13,0.61-0.42,1.13-0.89,1.56c-0.47,0.42-1.09,0.74-1.88,0.95c-0.78,0.21-1.64,0.32-2.57,0.32
					c-1.65,0-3.46-0.34-5.43-1.02c-1.97-0.68-3.81-1.71-5.51-3.08c-1.7-1.38-3.12-3.12-4.26-5.24
					C-374.37,323.67-374.94,321.17-374.94,318.29z"/>
			</g>
		</g>
	</g>
	<g>
		<g>
			<g>
				
					<linearGradient id="SVGID_00000003791098753057106770000001297396144342771893_" gradientUnits="userSpaceOnUse" x1="-542.8484" y1="174.1964" x2="-407.1088" y2="174.1964">
					<stop  offset="0" style="stop-color:#00ADEE"/>
					<stop  offset="1" style="stop-color:#2E3191"/>
				</linearGradient>
				<path style="fill:url(#SVGID_00000003791098753057106770000001297396144342771893_);" d="M-542.85,200.35v-89.79h135.74
					c0,0,0,24.97,0,43.8s-11.64,39.57-34.07,52.26c-22.43,12.7-47.19,20.1-60.52,25.18c-13.33,5.08-19.64,6.03-19.64,6.03
					s15.19-12.17,44.18-25.29c28.99-13.12,59.04-33.64,59.04-68.35c0-14.18-3.17-20.74-3.17-20.74s-0.11,28.59-18.83,46.97
					c-23.7,23.28-80.16,38.19-96.45,47.29c0,0,10.96-11.11,52.01-29.94s45.71-41.47,47.4-54.38c1.69-12.91-2.12-19.04-2.12-19.04
					s-2.54,27.72-31.74,45.49c-29.2,17.77-41.99,20.55-55.69,29.62C-537.74,196.8-542.85,200.35-542.85,200.35z"/>
				
					<linearGradient id="SVGID_00000117653346561470516370000005708096321378533266_" gradientUnits="userSpaceOnUse" x1="-496.8416" y1="227.7835" x2="-408.1332" y2="227.7835">
					<stop  offset="0" style="stop-color:#00ADEE"/>
					<stop  offset="1" style="stop-color:#2E3191"/>
				</linearGradient>
				<path style="fill:url(#SVGID_00000117653346561470516370000005708096321378533266_);" d="M-470.18,260.23
					c-4.87,2.96-8.46,5.85-8.46,5.85l-18.2-11.64c0,0,6.58-7.62,30.27-18.41c23.7-10.79,27.93-10.79,41.05-22.22
					c13.12-11.43,17.35-24.33,17.35-24.33s1.48,31.53-15.24,45.71"/>
			</g>
			
				<linearGradient id="SVGID_00000173137224523934637090000005652392588317140614_" gradientUnits="userSpaceOnUse" x1="-527.9146" y1="152.7656" x2="-474.3228" y2="152.7656">
				<stop  offset="0" style="stop-color:#00ADEE"/>
				<stop  offset="1" style="stop-color:#2E3191"/>
			</linearGradient>
			<path style="fill:url(#SVGID_00000173137224523934637090000005652392588317140614_);" d="M-526.44,140.16
				c0,0-1.55-4.47,1.83-7.76c3.38-3.29,5.11-2.83,5.11-2.83s-0.46-6.3,12.87-8.03c13.33-1.73,16.61,0.55,16.61,0.55
				s-4.93,0.37-6.75,2.28c0,0,8.17,3.13,14.84,11.27c4.09,5,9.33,12.63,7.07,15.66c-8.08,10.86-33.34,13.89-53.05,33.34
				c0,0,17.36-21.39,19.73-29.61c2.37-8.21,1.19-15.06-2.01-17.62c-3.19-2.56-8.3-3.47-11.23-2.37
				C-524.34,136.14-526.44,140.16-526.44,140.16z"/>
		</g>
	</g>
</g>
<rect x="-486.77" y="520.36" class="st45" width="108" height="78"/>
<rect x="-657.35" y="-177.88" class="st3" width="276.36" height="104.47"/>
</svg>
