<?xml version="1.0" encoding="utf-8"?>
<!-- Generator: Adobe Illustrator 26.0.1, SVG Export Plug-In . SVG Version: 6.00 Build 0)  -->
<svg version="1.1" id="Layer_1" xmlns="http://www.w3.org/2000/svg" xmlns:xlink="http://www.w3.org/1999/xlink" x="0px" y="0px"
	 viewBox="0 0 739 564" style="enable-background:new 0 0 739 564;" xml:space="preserve">
<style type="text/css">
	.st0{opacity:0.08;}
	.st1{fill:#2256AA;}
	.st2{fill:#5A322C;}
	.st3{fill:url(#SVGID_1_);}
	.st4{fill:#453028;}
	.st5{fill:#5B322C;}
	.st6{opacity:0.36;}
	.st7{fill:#45272A;}
	.st8{fill:#FFFFFF;}
	.st9{fill:#F7EFE2;}
	.st10{font-family:'Montserrat-Bold';}
	.st11{font-size:21px;}
	.st12{opacity:0.32;}
	.st13{fill:#D1B397;}
	.st14{fill:#0E3885;}
</style>
<g>
	<g class="st0">
		<g>
			<g>
				<path class="st1" d="M640.81,517.75H133.54c0,0-89.82-67.58-62.67-157.03c14.57-48,55.92-55.17,68.33-90.96
					c17.53-50.53-12.46-90.07,33.38-141.69c61.6-69.35,219.27-61.72,306.25-36.97C654.72,141.15,726.54,326,640.81,517.75z"/>
			</g>
		</g>
	</g>
	<g>
		<g>
			<rect x="63.86" y="515.75" class="st2" width="614.98" height="2"/>
		</g>
	</g>
	<g>
		<g>
			<g>
				<g>
					<g>
						<path d="M610.2,516.89l-285.1-0.36c-8.21-0.01-14.86-6.68-14.86-14.89l0.48-402.92c0.01-8.22,6.68-14.87,14.89-14.86
							l285.1,0.36c8.21,0.01,14.86,6.68,14.86,14.89l-0.48,402.92C625.09,510.24,618.42,516.9,610.2,516.89z"/>
					</g>
				</g>
			</g>
		</g>
		<g>
			<g>
				<g>
					<linearGradient id="SVGID_1_" gradientUnits="userSpaceOnUse" x1="300.1561" y1="300.3719" x2="615.4835" y2="300.3719">
						<stop  offset="0" style="stop-color:#00ADEE"/>
						<stop  offset="1" style="stop-color:#2E3191"/>
					</linearGradient>
					<path class="st3" d="M600.11,516.89l-285.1-0.36c-8.21-0.01-14.86-6.68-14.86-14.89l0.48-402.92
						c0.01-8.22,6.68-14.87,14.89-14.86l285.1,0.36c8.21,0.01,14.86,6.68,14.86,14.89l-0.48,402.92
						C615,510.24,608.33,516.9,600.11,516.89z"/>
				</g>
			</g>
		</g>
		<g>
			<g>
				<g>
					<g>
						<path d="M603.51,517.27c-1.81,0-3.5,0-4.51-0.02l0.03-2c3,0.05,12.05,0,12.14,0c0.01,0,0.01,0,0.02,0
							c3.65,0,7.08-1.46,9.66-4.1c2.59-2.66,4.02-6.2,4.03-9.96l0.48-401.23c0.01-7.76-6.12-14.09-13.67-14.1L324.89,85.5l0-2
							l286.79,0.36c8.65,0.01,15.68,7.23,15.67,16.1l-0.48,401.23c0,4.29-1.64,8.32-4.6,11.36c-2.96,3.03-6.9,4.71-11.09,4.71
							c-0.01,0-0.01,0-0.02,0C611.11,517.25,607.09,517.27,603.51,517.27z"/>
					</g>
				</g>
			</g>
		</g>
		<g>
			<g>
				<path class="st4" d="M600.96,517.25l-286.79-0.36c-8.65-0.01-15.68-7.23-15.67-16.1l0.48-401.23c0-4.29,1.64-8.32,4.6-11.36
					c2.96-3.03,6.9-4.71,11.09-4.71c0.01,0,0.01,0,0.02,0l286.79,0.36c8.65,0.01,15.68,7.23,15.67,16.1l-0.08,70.07l-2,0l0.08-70.07
					c0.01-7.76-6.12-14.09-13.67-14.1L314.68,85.5c-3.66-0.03-7.09,1.45-9.67,4.1c-2.59,2.66-4.03,6.2-4.03,9.96l-0.48,401.23
					c-0.01,7.76,6.12,14.09,13.67,14.1l286.79,0.36L600.96,517.25z"/>
			</g>
		</g>
		<g>
			<g>
				<rect x="614.94" y="194.54" class="st5" width="2" height="139.92"/>
			</g>
		</g>
		<g class="st6">
			<g>
				<g>
					<g>
						
							<rect x="332.28" y="119.82" transform="matrix(1 1.257397e-03 -1.257397e-03 1 0.3881 -0.5852)" class="st7" width="266.58" height="377.11"/>
					</g>
				</g>
			</g>
		</g>
		<g>
			<g>
				<g>
					<g>
						
							<rect x="324.53" y="111.82" transform="matrix(1 1.257397e-03 -1.257397e-03 1 0.378 -0.5754)" class="st8" width="266.58" height="377.11"/>
					</g>
				</g>
			</g>
		</g>
		<g>
			<g>
				<g>
					<rect x="374.09" y="207.47" class="st9" width="48.44" height="48.44"/>
				</g>
			</g>
			<g>
				<g>
					<rect x="374.09" y="282.73" class="st9" width="48.44" height="48.44"/>
				</g>
			</g>
			<g>
				<g>
					<rect x="374.09" y="357.98" class="st9" width="48.44" height="48.44"/>
				</g>
			</g>
			<g>
				<g>
					<polygon class="st5" points="423.38,256.76 408.75,256.76 408.75,255.07 421.69,255.07 421.69,207.47 423.38,207.47 					"/>
				</g>
			</g>
			<g>
				<g>
					<polygon class="st5" points="423.38,332.02 396.42,332.02 396.42,330.32 421.69,330.32 421.69,282.73 423.38,282.73 					"/>
				</g>
			</g>
			<g>
				<g>
					<polygon class="st5" points="423.38,407.27 374.09,407.27 374.09,405.58 421.69,405.58 421.69,357.98 423.38,357.98 					"/>
				</g>
			</g>
			<g>
				<g>
					<g>
						<rect x="432.91" y="222.38" class="st5" width="55.8" height="1.69"/>
					</g>
				</g>
				<g>
					<g>
						<rect x="432.91" y="239.32" class="st5" width="83.48" height="1.69"/>
					</g>
				</g>
			</g>
			<g>
				<g>
					<g>
						<rect x="432.91" y="297.63" class="st5" width="68.55" height="1.69"/>
					</g>
				</g>
				<g>
					<g>
						<rect x="432.91" y="314.57" class="st5" width="120.63" height="1.69"/>
					</g>
				</g>
			</g>
			<g>
				<g>
					<g>
						<rect x="432.91" y="372.89" class="st5" width="68.55" height="1.69"/>
					</g>
				</g>
				<g>
					<g>
						<rect x="432.91" y="389.83" class="st5" width="120.63" height="1.69"/>
					</g>
				</g>
			</g>
		</g>
		<g>
			<g>
				<g>
					<g>
						<g>
							<g>
								<g>
									<path d="M482.64,76.83l0-0.25c0.02-15.14-13.92-27.09-29.89-23.97c-11.54,2.26-19.69,12.51-19.7,24.1v0.06l-32.53-0.04
										c-4.06-0.01-7.36,3.24-7.37,7.24l-0.04,32.19c-0.01,4,3.29,7.25,7.35,7.26l114.64,0.14c4.06,0.01,7.36-3.24,7.37-7.24
										l0.04-32.19c0.01-4-3.29-7.25-7.35-7.26L482.64,76.83z M459.5,79.48c-5.2,1.14-9.74-3.31-8.59-8.43
										c0.58-2.58,2.69-4.67,5.31-5.25c5.2-1.14,9.75,3.33,8.59,8.45C464.23,76.83,462.11,78.91,459.5,79.48z"/>
								</g>
							</g>
						</g>
					</g>
				</g>
				<g>
					<g>
						<g>
							<g>
								<g>
									<path class="st4" d="M420.32,124.44l-19.85-0.02c-2.23,0-4.33-0.86-5.9-2.42c-1.58-1.56-2.45-3.64-2.45-5.84l0.04-32.19
										l2,0l-0.04,32.19c0,1.67,0.66,3.23,1.85,4.42c1.2,1.19,2.8,1.84,4.5,1.84l19.86,0.02L420.32,124.44z M457.87,80.66
										c-2.18,0-4.27-0.84-5.82-2.4c-1.93-1.94-2.73-4.72-2.12-7.43c0.67-2.98,3.05-5.34,6.07-6.01c2.81-0.62,5.67,0.21,7.66,2.2
										c1.94,1.95,2.74,4.74,2.12,7.45c-0.67,2.97-3.05,5.32-6.07,5.98l0,0C459.09,80.59,458.48,80.66,457.87,80.66z
										 M457.84,66.63c-0.47,0-0.94,0.05-1.41,0.15c-2.23,0.49-4.06,2.3-4.55,4.49c-0.46,2.07,0.12,4.1,1.59,5.58
										c1.5,1.51,3.67,2.13,5.82,1.66l0,0c2.23-0.49,4.06-2.28,4.55-4.47c0.47-2.07-0.11-4.11-1.59-5.6
										C461.07,67.26,459.49,66.63,457.84,66.63z M515.17,77.87l-33.53-0.04v-1.25c0.01-6.97-3.1-13.54-8.53-18.01
										c-5.55-4.58-12.91-6.4-20.17-4.97c-10.93,2.14-18.88,11.86-18.89,23.12l0,1l-1,0.06l-32.53-0.04l0-2l31.55,0.04
										c0.47-11.83,8.94-21.88,20.49-24.13c7.85-1.53,15.81,0.43,21.82,5.39c5.7,4.7,9.04,11.52,9.25,18.8l31.54,0.04
										L515.17,77.87z"/>
								</g>
							</g>
						</g>
					</g>
				</g>
			</g>
			<g>
				<g>
					<rect x="435.44" y="122.56" class="st4" width="50.81" height="2"/>
				</g>
			</g>
		</g>
		<g>
			<rect x="348.22" y="145.77" class="st9" width="219.2" height="42.96"/>
		</g>
		<text transform="matrix(1 0 0 1 373.4116 173.9414)" class="st10 st11">Micro Insurance</text>
	</g>
	<g>
		<g class="st12">
			<g>
				<g>
					<path class="st13" d="M350.24,330.76c-0.04,0.14-0.07,0.28-0.11,0.42c-14.74,60.2-47.35,128.38-104.33,171.36
						c-6.17,4.66-12.68,9.02-19.53,13.05h-17.58C67.34,432.58,73.65,205.59,73.65,205.59c24.79-2.5,52.49-13.06,81.39-26.96
						c20.88-10.04,43.4-14.95,65.89-14.7c21.34,0.22,42.64,5.08,62.47,14.59c29.11,13.96,57.03,24.56,81.89,27.07
						C365.29,205.59,366.77,263.07,350.24,330.76z"/>
				</g>
			</g>
		</g>
		<g>
			<g>
				<g>
					<g>
						<path class="st1" d="M343.02,324.5c-0.03,0.15-0.07,0.28-0.11,0.42c-14.93,60.19-44.33,128.38-102.04,171.37
							c-9.39,7-19.55,13.33-30.51,18.86c-1.32-0.67-2.63-1.34-3.93-2.04C56.34,433.42,62.92,199.32,62.92,199.32
							c25.11-2.5,53.15-13.06,82.42-26.96c21.15-10.04,43.95-14.95,66.72-14.7c21.61,0.22,43.18,5.08,63.26,14.59
							c29.48,13.96,57.76,24.56,82.93,27.07C358.26,199.32,359.76,256.81,343.02,324.5z"/>
					</g>
				</g>
			</g>
			<g>
				<g>
					<g>
						<path class="st14" d="M343.02,324.5c-0.03,0.15-0.07,0.28-0.11,0.42c-15.29,60.01-44.88,127.56-102.04,171.37
							c-9.39,7-19.55,13.33-30.51,18.86c-1.32-0.67-2.63-1.34-3.93-2.04c16.68-34.09,117.37-252.98,5.63-355.44
							c21.61,0.22,43.18,5.08,63.26,14.59c29.48,13.96,57.76,24.56,82.93,27.07C358.26,199.32,359.76,256.81,343.02,324.5z"/>
					</g>
				</g>
			</g>
			<g>
				<g>
					<g>
						<g>
							<path class="st8" d="M210.4,484.63l-1.01-0.51c-29.03-14.63-53.49-37.42-72.68-67.74C121.4,392.2,109.39,363.2,101,330.2
								c-14.26-56.11-13.06-105.13-13.05-105.62l0.06-1.97l1.96-0.2c17.81-1.78,38.93-8.7,66.46-21.78
								c34.29-16.29,73.62-16.32,107.9-0.09c27.74,13.13,48.99,20.08,66.88,21.87l1.96,0.2l0.05,1.97
								c0.01,0.49,1.11,49.5-13.23,105.61c-8.44,33.01-20.5,62.01-35.84,86.19c-19.24,30.32-43.71,53.11-72.74,67.74L210.4,484.63z
								 M92.4,226.65c-0.06,9.59,0.44,53.3,12.97,102.55c12.91,50.75,41.61,117.91,105.04,150.42
								c63.43-32.51,92.23-99.67,105.22-150.42c12.61-49.24,13.18-92.95,13.14-102.55c-17.99-2.14-39.15-9.18-66.36-22.06
								c-33.06-15.65-70.99-15.62-104.07,0.09C131.34,217.5,110.3,224.52,92.4,226.65z"/>
						</g>
					</g>
				</g>
			</g>
		</g>
		<g>
			<g>
				<g>
					<path class="st5" d="M209.96,515.94c-1.46-0.73-2.75-1.41-3.95-2.05c-54.17-28.76-94.11-80.52-118.73-153.84
						c-19.7-58.68-24.18-115.61-25.09-144.31l1.79-0.06c1.68,52.69,16.95,229.78,142.87,296.63c1.19,0.64,2.47,1.31,3.91,2.03
						L209.96,515.94z"/>
				</g>
			</g>
			<g>
				<g>
					<path class="st5" d="M241.4,497l-1.07-1.43c48.28-35.97,82.5-93.45,101.7-170.87c0.05-0.17,0.08-0.28,0.11-0.41
						c11.12-44.95,14.13-85.7,14.93-105.98l1.79,0.07c-0.8,20.36-3.82,61.24-14.98,106.33c-0.04,0.16-0.08,0.31-0.13,0.47
						c-8.53,34.4-20.33,65.47-35.05,92.3C290.62,450.45,267.98,477.21,241.4,497z"/>
				</g>
			</g>
			<g>
				<g>
					<path class="st5" d="M345.96,198.43c-19.83-3.76-42.4-11.82-71.02-25.37c-19.84-9.4-41-14.28-62.89-14.51
						c-22.73-0.24-45.68,4.81-66.33,14.62c-27.94,13.27-50.02,21.23-69.48,25.06l-0.35-1.76c19.31-3.8,41.25-11.72,69.05-24.92
						c20.9-9.93,44.12-15.04,67.12-14.79c22.15,0.23,43.56,5.17,63.64,14.68c28.48,13.48,50.91,21.5,70.59,25.23L345.96,198.43z"/>
				</g>
			</g>
		</g>
		<g>
			<g>
				<polygon class="st8" points="211.44,382.5 150.08,304.98 169.51,289.6 211.19,342.25 274.73,259.89 294.35,275.03 				"/>
			</g>
		</g>
	</g>
	<g>
		<g>
			<circle class="st9" cx="521.1" cy="442.18" r="25.35"/>
		</g>
		<g>
			<g>
				<polygon class="st14" points="519.56,456.14 505.59,438.49 510.01,434.99 519.5,446.98 533.96,428.23 538.43,431.67 				"/>
			</g>
		</g>
		<g>
			<path class="st5" d="M521.1,476.11c-18.71,0-33.92-15.22-33.92-33.92c0-18.71,15.22-33.92,33.92-33.92
				c4.33,0,8.54,0.8,12.53,2.39l-0.74,1.86c-3.75-1.49-7.72-2.25-11.79-2.25c-17.6,0-31.92,14.32-31.92,31.92
				c0,17.6,14.32,31.92,31.92,31.92c16.64,0,30.31-12.48,31.79-29.03l1.99,0.18C553.31,462.84,538.78,476.11,521.1,476.11z"/>
		</g>
		<g>
			<path class="st5" d="M550.94,430.81c-1.34-3.5-3.27-6.72-5.74-9.57l1.51-1.31c2.63,3.02,4.68,6.44,6.1,10.17L550.94,430.81z"/>
		</g>
	</g>
</g>
</svg>
