<?xml version="1.0" encoding="utf-8"?>
<!-- Generator: Adobe Illustrator 26.0.1, SVG Export Plug-In . SVG Version: 6.00 Build 0)  -->
<svg version="1.1" id="Layer_1" xmlns="http://www.w3.org/2000/svg" xmlns:xlink="http://www.w3.org/1999/xlink" x="0px" y="0px"
	 viewBox="0 0 568 556" style="enable-background:new 0 0 568 556;" xml:space="preserve">
<style type="text/css">
	.st0{font-family:'Montserrat-Regular';}
	.st1{font-size:36px;}
	.st2{fill:url(#SVGID_1_);}
</style>
<text transform="matrix(1 0 0 1 138.6154 493.1136)" class="st0 st1">perspective whiz</text>
<g>
	<linearGradient id="SVGID_1_" gradientUnits="userSpaceOnUse" x1="80.2253" y1="228.2872" x2="489" y2="228.2872">
		<stop  offset="0" style="stop-color:#00ADEE"/>
		<stop  offset="1" style="stop-color:#2E3191"/>
	</linearGradient>
	<path class="st2" d="M280.61,24c2.66,0,5.32,0,7.98,0c0.35,0.18,0.69,0.45,1.06,0.52c18.12,3.41,29.49,15.86,30.7,34.03
		c0.2,2.97,1.19,4.31,3.86,5.45c32.72,14.02,65.4,28.12,98.02,42.37c3.25,1.42,5.24,1.3,7.99-1.14
		c14.44-12.8,37.62-10.72,50.03,4.02c4.79,5.69,7.14,12.31,8.74,19.35c0,2.93,0,5.86,0,8.78c-0.23,0.6-0.55,1.19-0.68,1.81
		c-2.66,12.43-9.76,21.22-21.35,26.52c-0.99,0.46-1.84,2.42-1.84,3.69c-0.1,39.6-0.06,79.2-0.12,118.8c0,2.15,0.63,3.19,2.61,4.19
		c3.28,1.66,6.47,3.67,9.32,5.99c6.89,5.62,10.03,13.46,12.07,21.84c0,2.93,0,5.86,0,8.78c-0.2,0.49-0.48,0.97-0.57,1.48
		c-5.43,28.79-37.18,39.99-59.42,20.85c-2.03-1.75-3.55-1.55-5.67-0.64c-33.22,14.19-66.46,28.36-99.73,42.44
		c-2.26,0.96-3.06,2.13-3.21,4.64c-0.89,15.41-10.21,28.29-23.35,32.67c-24,8.01-46.67-7.31-48.25-32.74
		c-0.16-2.55-1.06-3.65-3.27-4.59c-33.27-14.09-66.51-28.24-99.72-42.47c-2.43-1.04-4-0.8-5.96,1.01
		c-6.61,6.1-14.57,9.27-23.55,9.23c-17.06-0.08-31.6-11.81-35.21-28.1c-3.68-16.59,4.62-33.14,20.43-40.41
		c2-0.92,2.69-1.93,2.68-4.13c-0.07-39.65-0.07-79.3,0.01-118.95c0-2.24-0.8-3.17-2.74-4.09c-13.63-6.51-21.1-17.49-21.1-32.51
		c0-15.17,7.37-26.62,21.3-32.78c13.75-6.09,26.77-3.81,38.23,6.06c1.82,1.57,3.22,2.06,5.59,1.03
		c33.37-14.52,66.79-28.94,100.22-43.32c2.06-0.89,2.98-1.87,3.07-4.33c0.43-11.7,4.97-21.67,14.8-28.16
		C268.65,27.85,274.9,26.34,280.61,24z M296.58,300.68c0,19.55,0.04,39.1-0.04,58.65c-0.01,2.5,0.44,3.93,3.06,5.1
		c3.33,1.49,6.38,3.78,9.24,6.12c1.67,1.36,2.84,1.76,4.89,0.88c33.57-14.37,67.16-28.67,100.78-42.92c1.78-0.76,2.64-1.56,2.73-3.7
		c0.64-15.17,7.77-26.13,21.56-32.74c1.07-0.52,2.21-2.27,2.21-3.45c0.11-39.9,0.11-79.8,0-119.7c0-1.17-1.21-2.66-2.27-3.43
		c-3.1-2.24-6.7-3.87-9.55-6.36c-2.11-1.84-3.63-1.83-5.96-0.83c-33.08,14.16-66.19,28.25-99.32,42.28
		c-2.34,0.99-3.36,2.07-3.51,4.84c-0.77,14.67-7.83,25.39-21.2,31.63c-2.3,1.07-2.64,2.4-2.64,4.56
		C296.6,261.31,296.58,281,296.58,300.68z M128.1,228.82c0,19.55,0.04,39.1-0.04,58.65c-0.01,2.49,0.47,3.88,3.04,5.1
		c12.55,5.95,19.6,16.08,20.68,29.9c0.3,3.9,1.35,6.17,5.16,6.99c0.64,0.14,1.23,0.5,1.84,0.76c32,13.63,64.02,27.25,95.99,40.94
		c2.35,1.01,3.86,0.95,5.96-0.87c2.86-2.49,6.46-4.11,9.56-6.35c1.06-0.76,2.24-2.28,2.24-3.45c0.12-39.9,0.12-79.8,0-119.7
		c0-1.17-1.16-2.91-2.24-3.43c-13.63-6.54-20.76-17.36-21.51-32.36c-0.11-2.21-0.79-3.22-2.78-4.07
		c-33.62-14.25-67.21-28.55-100.77-42.93c-2.08-0.89-3.24-0.42-4.88,0.93c-2.75,2.26-5.7,4.42-8.88,5.96
		c-2.49,1.2-3.43,2.45-3.41,5.27C128.17,189.72,128.1,209.27,128.1,228.82z M272.65,101.35c1.54-4.94-0.62-8.82-6.68-10.91
		c-2.03-0.7-3.85-2.4-5.41-3.99c-1.65-1.68-3.01-1.92-5.21-0.97c-33.49,14.57-67.04,29.01-100.52,43.61
		c-1.21,0.53-2.59,2.36-2.56,3.55c0.03,1.2,1.48,2.9,2.72,3.44c11.91,5.24,23.91,10.29,35.89,15.39
		c21.26,9.05,42.55,18.06,63.77,27.21c2.54,1.1,4.44,1.29,6.21-1.09c0.54-0.72,1.39-1.24,2.15-1.76c3.19-2.17,7.79-3.63,9.23-6.62
		c1.62-3.35,0.32-8.07,0.42-12.19c0.16-7.17,5.18-12.39,11.87-12.44c6.69-0.05,11.85,5.15,12.04,12.26
		c0.1,3.72-0.16,7.46,0.13,11.17c0.1,1.23,1.15,2.71,2.2,3.48c3.3,2.41,6.75,4.65,10.28,6.72c1.15,0.67,2.99,1.27,4.06,0.82
		c33.9-14.3,67.75-28.71,101.55-43.23c1.08-0.46,2.12-2.2,2.2-3.41c0.07-1.01-1.07-2.65-2.08-3.09
		c-33.85-14.74-67.75-29.39-101.69-43.92c-1.07-0.46-2.92,0.09-4.06,0.76c-3.53,2.07-6.98,4.31-10.28,6.72
		c-1.05,0.77-2.1,2.26-2.19,3.49c-0.28,4.11,0,8.25-0.15,12.37c-0.26,6.83-5.5,11.91-12.04,11.84c-6.38-0.06-11.47-5.04-11.82-11.67
		C272.55,106.79,272.65,104.66,272.65,101.35z M284.62,47.98c-6.51-0.01-11.95,5.42-11.96,11.93c-0.01,6.51,5.42,11.95,11.93,11.96
		c6.51,0.01,11.95-5.42,11.96-11.93C296.55,53.44,291.13,47.99,284.62,47.98z M128.07,132.69c0.06-6.51-5.33-11.99-11.84-12.05
		c-6.51-0.06-11.99,5.33-12.05,11.84c-0.06,6.51,5.33,11.99,11.84,12.05C122.54,144.59,128.02,139.21,128.07,132.69z M453.17,120.64
		c-6.51-0.06-11.99,5.33-12.05,11.85c-0.06,6.51,5.33,11.99,11.85,12.05c6.51,0.06,11.99-5.33,12.05-11.85
		C465.07,126.18,459.69,120.7,453.17,120.64z M284.61,216.39c6.51-0.01,11.94-5.45,11.93-11.96c-0.01-6.51-5.45-11.94-11.96-11.93
		c-6.51,0.01-11.94,5.45-11.93,11.96C272.66,210.97,278.1,216.4,284.61,216.39z M104.18,324.68c-0.18,6.5,5.11,12.09,11.62,12.27
		c6.5,0.18,12.09-5.11,12.27-11.62c0.18-6.5-5.11-12.09-11.62-12.27C109.96,312.88,104.37,318.18,104.18,324.68z M453.65,313.08
		c-6.49-0.33-12.19,4.84-12.51,11.35c-0.33,6.49,4.84,12.19,11.35,12.51c6.49,0.33,12.19-4.84,12.51-11.35
		C465.33,319.1,460.16,313.41,453.65,313.08z M296.55,396.86c-0.01-6.51-5.45-11.94-11.96-11.93c-6.51,0.01-11.94,5.45-11.93,11.96
		c0.01,6.51,5.45,11.94,11.96,11.93C291.13,408.81,296.55,403.37,296.55,396.86z"/>
</g>
</svg>
