<?xml version="1.0" encoding="utf-8"?>
<!-- Generator: Adobe Illustrator 26.0.1, SVG Export Plug-In . SVG Version: 6.00 Build 0)  -->
<svg version="1.1" id="Layer_1" xmlns="http://www.w3.org/2000/svg" xmlns:xlink="http://www.w3.org/1999/xlink" x="0px" y="0px"
	 viewBox="0 0 568 556" style="enable-background:new 0 0 568 556;" xml:space="preserve">
<style type="text/css">
	.st0{font-family:'Montserrat-Regular';}
	.st1{font-size:36px;}
	.st2{letter-spacing:22;}
	.st3{fill:url(#SVGID_1_);}
	.st4{fill:url(#SVGID_00000058582124824405170640000005880388503087536777_);}
</style>
<text transform="matrix(1 0 0 1 138.6154 493.1136)"><tspan x="0" y="0" class="st0 st1">perspective </tspan><tspan x="219.59" y="0" class="st0 st1 st2">	</tspan><tspan x="252" y="0" class="st0 st1">go</tspan></text>
<g>
	<linearGradient id="SVGID_1_" gradientUnits="userSpaceOnUse" x1="104.9475" y1="251.0358" x2="488.0256" y2="251.0358">
		<stop  offset="0" style="stop-color:#00ADEE"/>
		<stop  offset="1" style="stop-color:#2E3191"/>
	</linearGradient>
	<path class="st3" d="M286.62,59.4c3.05,2.12,3.88,5.02,3.81,8.68c-0.2,10.22-0.02,20.45-0.1,30.68c-0.02,2.6-0.24,5.24-0.73,7.79
		c-1.85,9.6-8.03,14.94-17.83,15.51c-1.86,0.11-3.74-0.11-2.76,3.21c6.89,0,13.98,0.26,21.03-0.08c5.48-0.27,10.2,0.97,14.74,4.04
		c4.81,3.26,9.94,6.04,15.32,9.26c0-10.56,0-20.6,0-30.93c-6.72-1.29-5.86-6.72-5.77-12.08c-5.92,0-11.71,0-17.73,0
		c0-4.18,0-7.96,0-12.03c5.79,0,11.49,0,17.73,0c0-1.71-0.01-3.14,0-4.57c0.06-5.39,2.1-7.48,7.46-7.5
		c13.97-0.03,27.94-0.01,41.91-0.01c1.37,0,2.73,0,4.28,0c0.95-4.99,4.29-6.23,8.82-6.04c4.86,0.21,9.73-0.01,14.59,0.07
		c4.44,0.07,6.73,2.28,6.76,6.68c0.07,11.47,0.07,22.95,0,34.42c-0.03,4.57-2.33,6.72-7.05,6.78c-4.86,0.05-9.73,0.02-14.6,0.01
		c-5.49-0.01-6.55-0.73-8.67-5.86c-5.68,0-11.39,0-17.59,0c0,1.44,0,2.76,0,4.08c0,16.21,0.02,32.43-0.01,48.64
		c-0.02,15-11.87,23.17-25.94,17.93c-7.2-2.68-14.39-5.38-21.97-8.21c0,1.91,0,3.27,0,4.63c0,51.14,0.03,102.27-0.07,153.41
		c-0.01,2.96,0.88,4.79,3.28,6.42c4.02,2.73,7.98,5.6,11.64,8.78c3.42,2.97,7.11,3.79,11.56,3.9c5,0.12,8.51-1.32,12-4.97
		c10.96-11.44,22.36-22.44,33.48-33.72c2.36-2.39,4.86-3.48,8.25-3.46c15.72,0.13,31.44,0.06,47.15,0.06c1.35,0,2.7,0,4.46,0
		c0-8.86,0.02-17.42-0.01-25.98c-0.01-3.88-0.58-8.11,4.31-9.63c4.68-1.46,6.64,2.3,8.91,5.21c13.58,17.36,27.13,34.74,40.69,52.12
		c0,1.5,0,2.99,0,4.49c-13.34,17.08-26.67,34.16-40.01,51.24c-0.84,1.08-1.72,2.14-2.53,3.24c-1.78,2.41-4.04,3.82-7.09,2.84
		c-3.16-1.02-4.32-3.44-4.3-6.67c0.06-8.11,0.02-16.22,0.02-24.33c0-1.36,0-2.72,0-4.62c-2,0-3.81,0-5.62,0
		c-10.11,0-20.21,0.07-30.32-0.05c-2.41-0.03-4.15,0.62-5.89,2.37c-13.78,13.92-27.72,27.69-41.47,41.63
		c-2.74,2.78-5.57,4.04-9.53,4.02c-34.81-0.13-69.63-0.05-104.44-0.13c-2.61-0.01-4.3,0.73-6,2.75
		c-10.13,12.02-20.33,23.98-30.74,35.75c-1.54,1.74-4.35,3.31-6.59,3.32c-28.95,0.22-57.9,0.14-86.84,0.14
		c-0.49,0-0.97-0.08-1.72-0.14c0-3.83,0-7.61,0-11.83c1.36,0,2.69,0,4.02,0c26.45,0,52.91-0.03,79.36,0.05
		c2.45,0.01,4.09-0.66,5.71-2.58c10.05-11.92,20.31-23.66,30.36-35.59c2.3-2.73,4.81-3.87,8.38-3.86
		c35.19,0.09,70.37,0.03,105.56,0.1c2.42,0,4.15-0.65,5.88-2.4c13.96-14.09,28.05-28.05,42.01-42.15c2.36-2.39,4.85-3.5,8.25-3.47
		c14.6,0.13,29.2,0.05,43.8,0.06c5.85,0.01,7.81,1.99,7.83,7.88c0.02,4.87,0.01,9.73,0.03,14.6c0,0.24,0.1,0.47,0.26,1.13
		c0.78-0.81,1.45-1.41,2-2.11c8.14-10.42,16.23-20.87,24.4-31.27c1.15-1.46,1.52-2.52,0.2-4.19c-8.58-10.87-17.04-21.82-25.55-32.74
		c-0.21-0.26-0.53-0.43-1.33-1.07c0,5.64,0.02,10.81,0,15.97c-0.02,5.85-2.01,7.84-7.88,7.84c-17.34,0.01-34.69,0.05-52.03-0.04
		c-2.41-0.01-4.15,0.63-5.88,2.38c-11.92,12.07-24,23.99-35.92,36.07c-2.46,2.49-5.06,3.58-8.59,3.58
		c-36.93-0.1-73.87-0.03-110.8-0.13c-2.79-0.01-4.52,0.86-6.29,2.96c-10.05,11.92-20.18,23.78-30.49,35.48
		c-1.49,1.69-4.08,3.38-6.18,3.4c-25.57,0.23-51.15,0.15-77.04,0.15c0-3.88,0-7.66,0-11.97c1.21,0,2.53,0,3.84,0
		c22.58,0,45.17-0.04,67.75,0.05c2.36,0.01,3.85-0.71,5.37-2.5c9.99-11.81,20.19-23.44,30.12-35.3c2.57-3.07,5.35-4.56,9.34-4.22
		c2.83,0.24,5.7,0.05,8.8,0.05c0-21.98,0-43.72,0-65.87c-1.4,0-2.74,0-4.07,0c-13.98,0-27.95,0.01-41.93-0.01
		c-5.62-0.01-7.65-2.05-7.66-7.68c-0.02-14.85-0.02-29.69,0-44.54c0.01-5.63,2.04-7.63,7.68-7.66c5.59-0.02,11.18-0.01,16.96-0.01
		c1.79-14.28,3.55-28.24,5.3-42.2c2-15.96,3.97-31.91,6.01-47.86c0.48-3.79,2.66-5.68,6.58-5.73c5.6-0.08,11.21-0.02,17.37-0.02
		c0-1.49,0-2.8,0-4.11c0-13.85,0.32-27.71-0.11-41.54c-0.31-9.98,3.27-16.84,12.84-20.23C261.66,59.4,274.14,59.4,286.62,59.4z
		 M242.72,281.17c0,21.96,0,43.73,0,65.34c8.13,0,15.99,0,24.17,0c-0.92-1.43-1.48-2.57-2.28-3.51c-3.44-4.01-4.33-8.57-4.29-13.82
		c0.21-28.57,0.1-57.14,0.1-85.71c0-1.43,0-2.86,0-4.21c4.29,0,7.99,0,11.98,0c0,1.55,0,2.9,0,4.25c0,25.45,0.39,50.91-0.2,76.35
		c-0.22,9.5,1.61,17.6,7.85,24.68c0.33,0.37,0.47,0.93,0.84,1.23c0.54,0.44,1.2,1.01,1.82,1.02c6.15,0.08,12.31,0.05,18.46,0.05
		c-1.61-2.07-3.27-3.57-5.17-4.68c-4.33-2.55-5.77-6.08-5.74-11.16c0.2-37.05,0.11-74.11,0.11-111.16c0-1.46,0-2.92,0-4.73
		c-1.71,0-3.05,0-4.39,0c-15.6,0-31.2,0-46.79,0c-7.07,0-8.71-1.68-8.72-8.88c0-11.6,0-23.2,0-34.81c0-1.32,0-2.65,0-3.94
		c4.26,0,8.05,0,12.1,0c0,11.96,0,23.64,0,35.4c16.04,0,31.8,0,47.5,0c0-22,0-43.74,0-65.34c-7.58,0-14.85,0-22.41,0
		c3.56,19.64,7.06,38.96,10.61,58.56c-4.13,0.71-7.86,1.35-11.76,2.02c-3.75-20.57-7.42-40.64-11.06-60.6c-10.8,0-21.21,0-31.7,0
		c-3.49,27.91-6.94,55.57-10.44,83.57c9.32,0,18.29-0.01,27.26,0c5.88,0.01,7.87,1.99,7.87,7.84c0.02,14.47-0.09,28.94,0.06,43.41
		C248.54,276.88,247.44,280.22,242.72,281.17z M236.25,268.83c0-12.11,0-23.77,0-35.53c-15.95,0-31.7,0-47.45,0
		c0,11.99,0,23.75,0,35.53C204.74,268.83,220.4,268.83,236.25,268.83z M302.34,141.81c0,4.6,0.12,8.44-0.05,12.27
		c-0.09,2.19,0.57,3.28,2.73,4.05c7.85,2.78,15.61,5.81,23.42,8.71c6.37,2.36,9.82-0.07,9.83-6.94c0.02-16.44,0.01-32.88,0-49.32
		c0-1.06-0.14-2.13-0.2-3.08c-2.08,0-3.77,0-5.78,0c0,1.41,0,2.63,0,3.86c0,11.96-0.03,23.91,0.02,35.87
		c0.01,2.88-0.32,5.5-3.06,7.12c-2.79,1.66-5.23,0.53-7.67-0.96C315.43,149.65,309.25,145.96,302.34,141.81z M277.95,88.82
		c-3.79,0.59-8.01,0.21-11.01,1.95c-5.88,3.4-11.11,7.95-16.54,12.1c-0.81,0.62-1.84,1.66-1.86,2.52
		c-0.16,6.54-0.09,13.09-0.09,19.6c3,0,5.54,0,8.25,0c0-1.5,0-2.74,0-3.97c0-1.37-0.03-2.74,0.01-4.11c0.14-4.5,2.18-6.63,6.62-6.79
		c2.36-0.08,4.73,0,7.09-0.03c4.68-0.07,6.86-1.46,7.4-6.1C278.37,99.36,277.95,94.61,277.95,88.82z M326.61,83.48
		c0,4.18,0,7.96,0,11.65c13.97,0,27.63,0,41.38,0c0-3.98,0-7.75,0-11.65C354.09,83.48,340.43,83.48,326.61,83.48z M278.2,71.39
		c-8.66,0-17.09-0.04-25.52,0.03c-2.45,0.02-4.07,1.47-4.16,3.91c-0.17,4.41-0.05,8.82-0.05,14.12c9.19-7.1,17.04-15.66,29.73-11.47
		C278.2,75.32,278.2,73.62,278.2,71.39z M380.39,77.51c0,8.11,0,15.79,0,23.58c1.97,0,3.75,0,5.56,0c0-7.99,0-15.76,0-23.58
		C384.01,77.51,382.31,77.51,380.39,77.51z"/>
	
		<linearGradient id="SVGID_00000013899501971269209780000012653145395912947133_" gradientUnits="userSpaceOnUse" x1="308.5445" y1="218.3727" x2="446.1926" y2="218.3727">
		<stop  offset="0" style="stop-color:#00ADEE"/>
		<stop  offset="1" style="stop-color:#2E3191"/>
	</linearGradient>
	<path style="fill:url(#SVGID_00000013899501971269209780000012653145395912947133_);" d="M308.55,227.08c1.4,0,2.62,0,3.83,0
		c27.81,0,55.63,0,83.44,0c6.56,0,8.34,1.82,8.35,8.49c0,2.48,0,4.96,0,8.4c9.3-7.95,18.02-15.42,26.43-22.61
		c-8.86-8.83-17.62-17.57-26.43-26.36c0,3.64,0.01,7.79,0,11.94c-0.02,6.18-1.92,8.15-7.94,8.16c-28.06,0.01-56.13,0-84.19,0
		c-1.09,0-2.19,0-3.49,0c0-3.99,0-7.69,0-11.78c27.65,0,55.39,0,83.46,0c0.08-1.57,0.18-2.77,0.18-3.97
		c0.02-6.61-0.28-13.24,0.19-19.82c0.15-2.04,1.96-4.8,3.75-5.63c1.61-0.75,4.96-0.05,6.31,1.26
		c14.03,13.66,27.84,27.54,41.62,41.45c3.05,3.08,2.8,6.53-0.57,9.44c-13.59,11.74-27.25,23.4-40.89,35.07
		c-2.03,1.74-4.62,2.92-6.79,1.14c-1.69-1.38-3.27-3.85-3.45-5.96c-0.48-5.55-0.16-11.17-0.16-17.17c-27.97,0-55.7,0-83.65,0
		C308.55,235.06,308.55,231.37,308.55,227.08z"/>
</g>
</svg>
