<?xml version="1.0" encoding="utf-8"?>
<!-- Generator: Adobe Illustrator 26.0.1, SVG Export Plug-In . SVG Version: 6.00 Build 0)  -->
<svg version="1.1" id="Layer_1" xmlns="http://www.w3.org/2000/svg" xmlns:xlink="http://www.w3.org/1999/xlink" x="0px" y="0px"
	 viewBox="0 0 568 556" style="enable-background:new 0 0 568 556;" xml:space="preserve">
<style type="text/css">
	.st0{fill:url(#SVGID_1_);}
	.st1{fill:url(#SVGID_00000107554925365296849930000017449278392324546952_);}
	.st2{fill:url(#SVGID_00000068674487233422590220000008846093344991994002_);}
	.st3{fill:url(#SVGID_00000174581062397196732480000008731918034464653452_);}
	.st4{fill:url(#SVGID_00000169522081648979549580000012361393270197603712_);}
	.st5{font-family:'Montserrat-Regular';}
	.st6{font-size:36px;}
</style>
<g>
	<linearGradient id="SVGID_1_" gradientUnits="userSpaceOnUse" x1="168.9896" y1="402.9301" x2="418.2937" y2="402.9301">
		<stop  offset="0" style="stop-color:#00ADEE"/>
		<stop  offset="1" style="stop-color:#2E3191"/>
	</linearGradient>
	<path class="st0" d="M278.69,465.24c-5.16-1.78-7.94-5.51-9.44-10.68c-2.11-7.29-4.62-14.47-7-21.68
		c-1.19-3.61-8.26-6.52-11.67-4.81c-7.23,3.64-14.42,7.35-21.67,10.97c-6.24,3.12-10.61,2.41-15.57-2.49
		c-5.23-5.17-10.45-10.36-15.62-15.59c-5.03-5.09-5.67-9.39-2.4-15.88c3.54-7,7.13-13.98,10.68-20.98
		c2.01-3.97-0.99-10.97-5.25-12.36c-7.58-2.46-15.16-4.89-22.72-7.41c-6.28-2.09-8.91-5.56-9-12.17
		c-0.18-12.36-0.66-11.54,11.16-11.52c17.96,0.04,35.92,0.01,53.87,0.01c1.48,0,2.96,0,4.78,0c0.84,18.26,7.96,33.2,22.66,44.03
		c10.86,8.01,23.14,11.17,36.61,10.32c21.39-1.36,48.43-18.5,50.42-54.13c1.15-0.07,2.34-0.21,3.53-0.21
		c19.95-0.01,39.91-0.02,59.86-0.01c5.53,0,6.29,0.78,6.33,6.25c0.01,1.75,0.04,3.49-0.01,5.24c-0.2,6.64-2.67,10.06-8.99,12.18
		c-7.67,2.58-15.38,5.02-23.06,7.57c-4.05,1.34-6.87,8.36-4.93,12.19c3.54,7,7.13,13.98,10.66,20.99
		c3.29,6.55,2.68,10.76-2.38,15.88c-5.25,5.33-10.54,10.63-15.88,15.87c-4.65,4.56-9.17,5.28-14.97,2.38
		c-7.24-3.61-14.43-7.33-21.65-10.99c-3.76-1.91-10.81,0.99-12.14,5.01c-2.34,7.09-4.84,14.14-6.9,21.31
		c-1.49,5.18-4.24,8.91-9.39,10.71C298.65,465.24,288.67,465.24,278.69,465.24z"/>
	
		<linearGradient id="SVGID_00000160192524491093160440000008937714355650840990_" gradientUnits="userSpaceOnUse" x1="223.9113" y1="172.6619" x2="349.2734" y2="172.6619">
		<stop  offset="0" style="stop-color:#00ADEE"/>
		<stop  offset="1" style="stop-color:#2E3191"/>
	</linearGradient>
	<path style="fill:url(#SVGID_00000160192524491093160440000008937714355650840990_);" d="M286.22,262.94
		c-13.21,0-26.43-0.08-39.64,0.05c-4.34,0.04-7.2-1.54-9.35-5.4c-6.97-12.52-10.64-26.04-12.21-40.12
		c-3.47-31.08,1.04-60.88,15.5-88.85c9.41-18.19,22.71-32.91,39.9-44.16c4.2-2.75,7.69-2.9,11.96-0.12
		c25.27,16.46,41.3,39.73,49.83,68.24c9.18,30.72,9.88,61.59-0.71,92.23c-1.53,4.44-3.93,8.58-5.89,12.88
		c-1.77,3.89-4.81,5.32-9,5.28C313.15,262.88,299.69,262.94,286.22,262.94z M286.64,133.61c-15.51-0.05-28.13,12.48-28.15,27.94
		c-0.02,15.41,12.69,28.15,28.06,28.12c15.21-0.03,27.87-12.61,28.01-27.83C314.69,146.43,302.06,133.66,286.64,133.61z"/>
	
		<linearGradient id="SVGID_00000091000894348739858400000005093791222268047551_" gradientUnits="userSpaceOnUse" x1="215.8333" y1="301.7638" x2="357.5321" y2="301.7638">
		<stop  offset="0" style="stop-color:#00ADEE"/>
		<stop  offset="1" style="stop-color:#2E3191"/>
	</linearGradient>
	<path style="fill:url(#SVGID_00000091000894348739858400000005093791222268047551_);" d="M357.53,328.05c-47.36,0-94.55,0-141.7,0
		c1.88-3.41,7.55-6.38,13.61-6.27c3.2,0.06,4.38-1.18,5.62-3.81c4.27-9.07,14.19-13.8,23.95-11.75c0.97,0.2,1.94,0.38,3.15,0.61
		c0-8.31,0-16.46,0-24.99c-3.14,0-6.1,0.05-9.06-0.01c-4.04-0.09-5.58-1.78-5.67-6.35c25.98,0,51.95,0,77.92,0
		c0.45,4.09-1.19,6.2-5.1,6.34c-3.09,0.11-6.18,0.02-9.47,0.02c0,8.43,0,16.47,0,24.85c0.92-0.11,1.74-0.13,2.53-0.3
		c10.85-2.29,20.74,2.58,25.14,12.64c0.88,2.01,1.79,2.72,4.05,2.68C348.77,321.59,354.08,323.96,357.53,328.05z"/>
	
		<linearGradient id="SVGID_00000166665874364169776320000006947770481148620215_" gradientUnits="userSpaceOnUse" x1="353.2027" y1="246.3554" x2="392.3078" y2="246.3554">
		<stop  offset="0" style="stop-color:#00ADEE"/>
		<stop  offset="1" style="stop-color:#2E3191"/>
	</linearGradient>
	<path style="fill:url(#SVGID_00000166665874364169776320000006947770481148620215_);" d="M353.2,252.09
		c2.89-13.04,5.65-25.49,8.44-38.07c7.53,4.3,13.61,10.56,18.37,18.14c8.03,12.76,11.28,26.98,12.29,41.8
		c0.1,1.52-1.02,3.92-2.25,4.51c-1.22,0.59-3.9-0.01-4.9-1.07C375.61,267.25,365.08,258.42,353.2,252.09z"/>
	
		<linearGradient id="SVGID_00000127748392053026837430000002305416933530732217_" gradientUnits="userSpaceOnUse" x1="180.741" y1="246.4855" x2="219.7638" y2="246.4855">
		<stop  offset="0" style="stop-color:#00ADEE"/>
		<stop  offset="1" style="stop-color:#2E3191"/>
	</linearGradient>
	<path style="fill:url(#SVGID_00000127748392053026837430000002305416933530732217_);" d="M211.29,213.85
		c2.83,12.75,5.6,25.2,8.48,38.16c-2.14,1.3-5.24,2.72-7.79,4.81c-7.87,6.47-15.58,13.13-23.23,19.86
		c-1.79,1.57-3.69,3.41-5.78,1.86c-1.35-1-2.35-3.56-2.21-5.31c1.64-20.36,6.99-39.22,22.83-53.53
		C206.04,217.47,208.87,215.67,211.29,213.85z"/>
</g>
<text transform="matrix(1 0 0 1 199.8178 541.9418)" class="st5 st6">posp origin</text>
</svg>
