<?xml version="1.0" encoding="utf-8"?>
<!-- Generator: Adobe Illustrator 26.0.1, SVG Export Plug-In . SVG Version: 6.00 Build 0)  -->
<svg version="1.1" id="Layer_1" xmlns="http://www.w3.org/2000/svg" xmlns:xlink="http://www.w3.org/1999/xlink" x="0px" y="0px"
	 viewBox="0 0 568 556" style="enable-background:new 0 0 568 556;" xml:space="preserve">
<style type="text/css">
	.st0{fill:url(#SVGID_1_);}
	.st1{fill:url(#SVGID_00000067917707493281274880000016795321243325904050_);}
	.st2{fill:url(#SVGID_00000080913508923580999590000017972957877681813388_);}
	.st3{fill:url(#SVGID_00000168828566889384442720000014697652948665776520_);}
	.st4{fill:url(#SVGID_00000078756040982629467980000006745582241680264881_);}
	.st5{font-family:'Montserrat-Regular';}
	.st6{font-size:36px;}
</style>
<g>
	<linearGradient id="SVGID_1_" gradientUnits="userSpaceOnUse" x1="164.5833" y1="167.8247" x2="396.362" y2="167.8247">
		<stop  offset="0" style="stop-color:#00ADEE"/>
		<stop  offset="1" style="stop-color:#2E3191"/>
	</linearGradient>
	<path class="st0" d="M309.36,280.74c-2.62,17.78-13.28,28.49-28.39,28.9c-15.07,0.4-25.6-9.85-29.32-28.02
		c-4.02-1.69-8.11-2.63-11.25-4.88c-10.53-7.56-10.17-26.97,0.35-34.68c3.66-2.69,3.03-8.06-1.12-10.07
		c-3.24-1.58-6.73-2.9-9.53-5.08c-3.37-2.62-5.52-1.79-8.46,0.66c-9.91,8.26-10.01,8.15-19.21-1.05c-3.64-3.64-7.3-7.25-10.91-10.92
		c-3.64-3.71-4.35-6.69-0.83-10.16c6.28-6.18,6.06-11.54,1.49-18.93c-4.07-6.58-6-14.55-8.47-22.03c-0.88-2.66-1.95-3.89-4.76-4.05
		c-2.9-0.16-5.78-0.79-8.65-1.3c-3.7-0.66-5.58-3.07-5.63-6.69c-0.12-7.64-0.09-15.29-0.02-22.94c0.04-3.83,1.99-6.29,5.86-6.96
		c3.15-0.54,6.38-0.71,9.45-1.51c1.27-0.33,2.93-1.69,3.21-2.87c2.78-11.59,7.14-22.47,13.98-32.62c-2.23-2.83-4.51-5.6-6.66-8.47
		c-2.74-3.67-2.61-6.32,0.61-9.62c5.24-5.37,10.55-10.68,15.91-15.94c3.21-3.14,6.59-3.76,9.53-0.52
		c5.91,6.53,10.94,5.48,17.96,1.21c6.72-4.09,14.82-6.02,22.45-8.46c2.49-0.79,3.76-1.69,3.99-4.27c0.23-2.48,0.74-4.94,1.14-7.41
		c0.61-3.83,2.76-6.01,6.72-6.03c7.79-0.05,15.57-0.05,23.36,0c3.97,0.03,6.66,2.25,6.58,6.06c-0.2,8.68,4.1,12.08,12.21,14.18
		c7.65,1.98,14.74,6.27,21.93,9.84c2.18,1.08,3.62,1.36,5.45-0.44c1.78-1.74,3.84-3.2,5.85-4.69c3.65-2.72,6.48-2.65,9.65,0.44
		c5.47,5.34,10.85,10.78,16.23,16.21c2.74,2.76,3.04,5.79,0.74,9c-0.08,0.11-0.13,0.26-0.23,0.34c-7.13,6.01-6.17,11.99-1.56,19.52
		c3.91,6.38,5.79,14.04,8.17,21.27c0.89,2.69,1.78,4.31,4.89,4.41c2.76,0.09,5.5,0.72,8.24,1.18c3.85,0.64,5.93,3,5.98,6.85
		c0.1,7.64,0.09,15.29,0.01,22.94c-0.04,3.84-2.06,6.25-5.91,6.91c-3.01,0.51-6.03,1.05-9.07,1.29c-2.33,0.19-3.37,1.25-3.87,3.46
		c-2.44,10.65-6.77,20.52-12.31,29.91c-0.67,1.13-0.43,3.38,0.27,4.6c1.58,2.75,3.77,5.14,5.6,7.77c2.02,2.9,1.85,5.84-0.61,8.35
		c-5.63,5.77-11.32,11.49-17.12,17.09c-2.69,2.6-5.78,2.42-8.72,0.25c-3.45-2.55-6.85-5.19-10.19-7.73
		c-4.73,2.51-9.28,4.89-13.79,7.34c-3.38,1.84-3.66,6.72-0.58,9.12c9.28,7.24,11.01,23.78,3.47,32.67
		C319.81,278.51,314.92,280.16,309.36,280.74z M286.95,237.93c5.7,0,10.69,0.15,15.66-0.13c0.97-0.05,2.42-1.61,2.67-2.7
		c0.89-3.91,1.55-7.9,1.94-11.9c1.57-16.1,7.05-30.07,18.7-42.03c9.67-9.93,13.68-22.96,14.11-36.95
		c1.22-39.82-36.54-70.18-74.42-59.88c-40.73,11.07-61.18,62.61-27.89,99.36c8.04,8.88,12.99,18.8,14.46,30.68
		c0.97,7.82,2.63,15.55,3.98,23.34c6,0,11.65,0,17.51,0c0.13-0.97,0.32-1.77,0.32-2.57c0.02-18.35-0.04-36.69,0.08-55.04
		c0.02-2.5-1.17-3.2-3.15-4.04c-11.3-4.8-17.56-16.52-15.18-28.09c2.44-11.88,12.59-20.22,24.65-20.26
		c12.12-0.04,22.19,8.1,24.79,20.06c2.51,11.51-3.69,23.53-14.95,28.15c-2.79,1.15-3.33,2.57-3.31,5.22
		c0.1,13.76,0.05,27.52,0.05,41.28C286.95,227.42,286.95,232.4,286.95,237.93z M357.38,210.25c-1.89-2.53-3.54-4.77-5.2-6.99
		c-3.76-5.03-3.8-6.58-0.25-11.89c6.8-10.16,11.54-21.17,13.9-33.2c1.36-6.93,2.18-7.63,9.09-8.67c1.79-0.27,3.56-0.62,5.36-0.79
		c2.1-0.2,3.09-0.97,3.18-3.36c0.41-10.13,0.5-10.13-9.62-11.53c-0.41-0.06-0.83-0.07-1.24-0.13c-3.36-0.55-5.56-2.33-6.19-5.82
		c-2.44-13.6-7.59-26.08-15.55-37.39c-2.09-2.97-2.01-5.92,0.23-8.84c2.11-2.74,4.13-5.54,6.22-8.35c-3.04-3.07-5.94-6.01-9.03-9.14
		c-2.61,2.06-5.11,4.02-7.58,6.01c-2.84,2.29-5.73,2.56-8.78,0.43c-11.32-7.91-23.74-13.2-37.38-15.57
		c-3.36-0.58-5.41-2.55-5.9-6.08c-0.46-3.28-1.11-6.53-1.7-9.92c-4.4,0-8.62,0-12.88,0c-0.59,3.42-1.23,6.55-1.64,9.72
		c-0.51,3.94-2.85,5.93-6.57,6.37c-13.46,1.61-25.4,6.82-36.09,15.01c-3.38,2.59-6.55,2.53-9.79-0.23
		c-2.31-1.96-4.76-3.77-6.99-5.52c-3.19,3.06-6.16,5.9-9.17,8.78c1.96,2.46,3.73,4.79,5.62,7.01c2.86,3.37,2.89,6.64,0.19,10.16
		c-6.97,9.08-11.38,19.38-13.71,30.53c-2.47,11.83-1.69,11.22-14.48,12.89c-2.95,0.39-3.92,1.41-3.9,4.44
		c0.08,9.2-0.05,9.2,8.92,10.5c0.69,0.1,1.39,0.11,2.07,0.23c3.37,0.58,5.48,2.43,6.1,5.91c2.42,13.61,7.63,26.06,15.58,37.37
		c2.11,3,1.88,5.94-0.35,8.83c-2.1,2.72-4.11,5.53-5.89,7.94c3.04,3.26,5.84,6.26,8.79,9.43c2.56-2.07,4.91-4.01,7.29-5.91
		c4.8-3.83,6.53-3.8,11.39-0.19c2.43,1.81,5.04,3.4,7.94,5.33c-0.33-11.03-5.34-18.82-11.87-26.26
		c-16.9-19.24-22.99-41.59-16.92-66.66c8.93-36.91,46.83-61.38,83.19-54.06c38.88,7.83,64.75,44.84,58.33,83.45
		c-2.66,16.01-9.99,29.62-21.18,41.23c-5.83,6.04-8.94,13.21-9.23,22.11c2.41-1.49,4.56-2.73,6.61-4.11
		c5.84-3.95,6.79-3.94,12.51,0.41c2.49,1.9,5.02,3.75,7.42,5.53C351.41,216.09,354.27,213.29,357.38,210.25z M280.87,251.46
		c-9.17,0-18.33-0.02-27.5,0.01c-5.97,0.02-7.44,1.59-7.49,7.81c-0.05,6.8,1.3,8.45,7.25,8.46c18.18,0.04,36.37,0.03,54.55,0
		c5.84-0.01,7.3-1.54,7.37-7.5c0.01-1.25,0.02-2.51-0.12-3.74c-0.37-3.4-2.04-5.14-5.74-5.08
		C299.76,251.56,290.31,251.46,280.87,251.46z M280.64,165c6.79-0.06,12.17-5.36,12.25-12.05c0.08-6.79-5.55-12.46-12.38-12.48
		c-6.85-0.02-12.48,5.59-12.45,12.4C268.08,159.73,273.61,165.06,280.64,165z M264.77,280.82c0.62,9.53,7.56,16.12,16.25,15.85
		c8.29-0.25,14.94-7.18,15.05-15.85C285.71,280.82,275.35,280.82,264.77,280.82z"/>
	
		<linearGradient id="SVGID_00000058566561503884023060000008083812383429137825_" gradientUnits="userSpaceOnUse" x1="325.3762" y1="292.8963" x2="485.0925" y2="292.8963">
		<stop  offset="0" style="stop-color:#00ADEE"/>
		<stop  offset="1" style="stop-color:#2E3191"/>
	</linearGradient>
	<path style="fill:url(#SVGID_00000058566561503884023060000008083812383429137825_);" d="M338.96,372.49
		c0-8.61-0.18-17.35,0.05-26.08c0.27-10.39,0.16-20.88,1.56-31.14c1.5-10.96,7.08-20.44,14.8-28.39
		c16.37-16.85,32.85-33.61,49.4-50.28c7.27-7.32,15.92-9.15,25.64-5.42c0.75,0.29,1.53,0.5,2.67,0.87c0-10.18,0-20.01,0-29.85
		c0-8.9-0.1-17.8,0.04-26.69c0.24-14.53,11.38-25.57,25.74-25.71c14.48-0.14,26.05,10.98,26.13,25.71c0.17,31,0.07,62,0.04,93
		c-0.01,8.53-2.96,16.03-8.31,22.61c-16.74,20.61-33.35,41.32-50.33,61.73c-4.72,5.67-4.73,11.9-4.37,18.44
		c0.04,0.72,1.54,1.67,2.52,1.99c6.86,2.22,10.82,6.83,10.96,14.04c0.23,11.39,0.3,22.8-0.02,34.19
		c-0.23,8.39-6.46,14.35-14.83,14.39c-26.97,0.12-53.95,0.13-80.92-0.02c-8.39-0.05-14.1-5.87-14.26-14.26
		c-0.2-10.28-0.08-20.57-0.08-30.86C325.41,379.68,328.22,375.83,338.96,372.49z M409.04,372.28c0-1.22,0.08-2.18-0.01-3.11
		c-1.11-10.69,3.05-19.25,9.82-27.33c15.98-19.06,31.45-38.55,47.21-57.8c4.33-5.3,6.37-11.19,6.34-18.04
		c-0.11-19.46-0.04-38.92-0.04-58.38c0-10.43,0.09-20.85-0.03-31.28c-0.1-8.65-6.04-14.13-14.43-13.56
		c-7.38,0.5-12.09,5.94-12.11,14.23c-0.04,23.63,0.09,47.26-0.07,70.89c-0.06,8.85-2.69,16.75-9.43,23.19
		c-10.35,9.89-20.31,20.19-30.44,30.31c-0.79,0.79-1.54,1.62-2.41,2.3c-2.84,2.22-6.34,2.08-8.7-0.29c-2.3-2.31-2.43-5.99-0.23-8.71
		c0.78-0.97,1.73-1.81,2.61-2.69c10.42-10.42,20.89-20.79,31.24-31.28c5.76-5.83,4.65-13.8-2.25-17.43
		c-4.38-2.31-8.73-1.34-13.09,3.09c-15.9,16.14-31.83,32.26-47.64,48.49c-8.91,9.16-13.52,20.2-13.55,33.06
		c-0.02,10.7-0.01,21.41-0.01,32.11c0,4,0,7.99,0,12.23C370.99,372.28,389.7,372.28,409.04,372.28z M380.62,385.71
		c-12.78,0-25.55,0.11-38.33-0.07c-3.37-0.05-4.3,1.09-4.24,4.32c0.17,9.72,0.18,19.44,0,29.15c-0.06,3.39,1.24,4.23,4.4,4.22
		c25.27-0.09,50.55-0.11,75.82,0.01c3.57,0.02,4.57-1.37,4.52-4.67c-0.13-9.58-0.13-19.16,0-28.74c0.04-3.17-0.89-4.35-4.27-4.3
		C405.89,385.83,393.25,385.71,380.62,385.71z"/>
	
		<linearGradient id="SVGID_00000011741114972235037300000003724960778681577606_" gradientUnits="userSpaceOnUse" x1="75.8042" y1="292.9079" x2="235.5596" y2="292.9079">
		<stop  offset="0" style="stop-color:#00ADEE"/>
		<stop  offset="1" style="stop-color:#2E3191"/>
	</linearGradient>
	<path style="fill:url(#SVGID_00000011741114972235037300000003724960778681577606_);" d="M127.87,232.23
		c12.75-5.77,22.43-2.07,31.29,7.1c14.58,15.1,29.54,29.82,44.48,44.57c12.94,12.78,19.44,28.09,19.23,46.32
		c-0.16,14.16-0.03,28.32-0.03,42.36c10.24,3.79,12.7,7.35,12.7,18.13c0.01,9.73,0.05,19.46-0.01,29.19
		c-0.07,10.44-5.56,16.03-15.94,16.05c-26,0.06-52,0.06-77.99,0c-10.09-0.02-16.16-6.04-16.25-16.02c-0.09-10.42-0.09-20.85,0-31.27
		c0.07-8.24,3.59-12.81,11.36-15.45c0.92-0.31,2.18-1.42,2.24-2.24c0.48-6.74-0.05-12.96-4.85-18.7
		c-16.41-19.61-32.31-39.64-48.56-59.38c-6.56-7.96-9.79-16.79-9.72-27.17c0.2-29.88,0-59.77,0.11-89.65
		c0.05-13.8,8.8-23.77,22.3-25.92c15.13-2.41,29.26,9.03,29.53,24.41c0.31,17.37,0.1,34.75,0.12,52.12
		C127.87,228.32,127.87,229.99,127.87,232.23z M152.31,372.33c19.19,0,38.19,0,57.32,0c0.14-0.85,0.33-1.52,0.33-2.19
		c0.01-14.6,0.16-29.2-0.07-43.8c-0.19-12.05-4.76-22.55-13.17-31.11c-16.28-16.56-32.77-32.91-49.24-49.28
		c-4.99-4.96-11.01-5.05-15.48-0.51c-4.55,4.62-4.33,10.33,0.74,15.46c7.33,7.42,14.74,14.76,22.11,22.14
		c3.74,3.74,7.55,7.4,11.18,11.24c2.63,2.77,2.63,6.53,0.31,9.01c-2.51,2.67-6.21,2.68-9.32-0.01c-0.84-0.73-1.6-1.55-2.38-2.34
		c-9.64-9.64-19.03-19.53-28.99-28.82c-7.49-7-10.44-15.46-10.45-25.3c-0.04-23.36,0.03-46.72-0.04-70.08
		c-0.03-9.3-6.38-14.93-15.31-13.86c-6.89,0.82-11.23,6.21-11.24,14.18c-0.03,29.76,0.03,59.51-0.04,89.27
		c-0.02,6.7,2.04,12.46,6.28,17.64c14.89,18.18,29.41,36.67,44.63,54.55c8.19,9.62,14.12,19.57,12.5,32.69
		C151.94,371.45,152.12,371.71,152.31,372.33z M180.3,423.28c12.78,0,25.55-0.06,38.33,0.04c2.91,0.02,4.31-0.69,4.26-3.94
		c-0.16-9.99-0.14-19.99-0.01-29.99c0.04-3-1.16-3.74-3.96-3.73c-25.55,0.08-51.1,0.09-76.65-0.02c-3.08-0.01-4.16,0.93-4.12,4.01
		c0.13,9.72,0.14,19.44,0,29.15c-0.05,3.47,1.26,4.57,4.67,4.53C155.31,423.19,167.81,423.28,180.3,423.28z"/>
	
		<linearGradient id="SVGID_00000013175868485502335710000011139674170231803324_" gradientUnits="userSpaceOnUse" x1="393.8338" y1="404.0118" x2="415.7993" y2="404.0118">
		<stop  offset="0" style="stop-color:#00ADEE"/>
		<stop  offset="1" style="stop-color:#2E3191"/>
	</linearGradient>
	<path style="fill:url(#SVGID_00000013175868485502335710000011139674170231803324_);" d="M404.89,397.61c1.67,0,3.35-0.15,5,0.03
		c3.62,0.41,5.89,2.94,5.91,6.35c0.01,3.47-2.16,6.02-5.87,6.31c-3.31,0.26-6.67,0.25-9.99,0.03c-3.65-0.24-5.91-2.27-6.1-6.09
		c-0.18-3.58,2.24-6.24,6.05-6.62c1.65-0.17,3.33-0.03,5-0.03C404.89,397.59,404.89,397.6,404.89,397.61z"/>
	
		<linearGradient id="SVGID_00000065050775881991934970000008012860254236834442_" gradientUnits="userSpaceOnUse" x1="144.2933" y1="404.0126" x2="167.1131" y2="404.0126">
		<stop  offset="0" style="stop-color:#00ADEE"/>
		<stop  offset="1" style="stop-color:#2E3191"/>
	</linearGradient>
	<path style="fill:url(#SVGID_00000065050775881991934970000008012860254236834442_);" d="M155.67,397.64c1.94,0,3.92-0.2,5.83,0.04
		c3.57,0.46,5.79,3.17,5.61,6.6c-0.19,3.6-2.26,5.71-5.74,5.99c-3.59,0.29-7.23,0.27-10.83,0.07c-3.97-0.22-6.28-2.78-6.24-6.4
		c0.04-3.57,2.46-6.04,6.37-6.34c1.66-0.13,3.33-0.02,5-0.02C155.67,397.6,155.67,397.62,155.67,397.64z"/>
</g>
<text transform="matrix(1 0 0 1 150.8488 526.5151)" class="st5 st6">provider whiz</text>
</svg>
