<?xml version="1.0" encoding="utf-8"?>
<!-- Generator: Adobe Illustrator 26.0.1, SVG Export Plug-In . SVG Version: 6.00 Build 0)  -->
<svg version="1.1" id="Layer_1" xmlns="http://www.w3.org/2000/svg" xmlns:xlink="http://www.w3.org/1999/xlink" x="0px" y="0px"
	 viewBox="0 0 568 556" style="enable-background:new 0 0 568 556;" xml:space="preserve">
<style type="text/css">
	.st0{fill:url(#SVGID_1_);}
	.st1{fill:url(#SVGID_00000106854871740825128080000001620734237338677938_);}
	.st2{fill:url(#SVGID_00000057856496911795128530000004288820396860950148_);}
	.st3{fill:url(#SVGID_00000110456994705297441750000006421438717456226194_);}
	.st4{fill:url(#SVGID_00000081617585915404950650000018423676390390399397_);}
	.st5{fill:url(#SVGID_00000018924848849593465380000004942776824742301076_);}
	.st6{fill:url(#SVGID_00000121258472962183784360000007129846449973673346_);}
	.st7{fill:url(#SVGID_00000002354053526203582650000003806395226099962243_);}
	.st8{font-family:'Montserrat-Regular';}
	.st9{font-size:36px;}
</style>
<g>
	<linearGradient id="SVGID_1_" gradientUnits="userSpaceOnUse" x1="325.0036" y1="295.9484" x2="471.109" y2="295.9484">
		<stop  offset="0" style="stop-color:#00ADEE"/>
		<stop  offset="1" style="stop-color:#2E3191"/>
	</linearGradient>
	<path class="st0" d="M395.17,403.51c-10.04,0-19.6,0-29.73,0c0-1.44,0-2.75,0-4.07c0.04-31.93,0.07-63.87,0.11-95.8
		c0.01-6.41,0.98-7.66,7.31-9.23c13.9-3.44,27.8-6.92,41.73-10.23c2.8-0.66,3.74-1.84,3.7-4.78c-0.18-11.85-0.07-23.7-0.08-35.55
		c0-1.22-0.11-2.44-0.18-4.1c-31.09,0-61.95,0-93.02,0c0-6.5,0-12.53,0-18.77c14.34-2.09,28.5-4.17,42.65-6.22
		c14.06-2.04,28.13-4.03,42.18-6.12c1.43-0.21,2.84-0.89,4.15-1.57c11.27-5.87,22.48-11.85,33.8-17.62c1.64-0.84,3.82-1.23,5.64-1
		c9.82,1.26,17.47,9.4,17.53,19.31c0.18,30.18,0.22,60.37-0.03,90.56c-0.1,11.59-9.38,21.25-20.93,22.82
		c-2.22,0.3-4.47,0.43-6.71,0.44c-12.97,0.04-25.95,0.02-38.92,0.02c-8.24,0-9.41,1.2-9.38,9.61c0.06,22.45,0.13,44.91,0.19,67.36
		C395.17,400.05,395.17,401.53,395.17,403.51z"/>
	
		<linearGradient id="SVGID_00000011745167032824669800000002537705162852705965_" gradientUnits="userSpaceOnUse" x1="176.2605" y1="360.1754" x2="321.1632" y2="360.1754">
		<stop  offset="0" style="stop-color:#00ADEE"/>
		<stop  offset="1" style="stop-color:#2E3191"/>
	</linearGradient>
	<path style="fill:url(#SVGID_00000011745167032824669800000002537705162852705965_);" d="M321.16,316.92c0,28.9,0,57.54,0,86.5
		c-48.28,0-96.47,0-144.9,0c0-28.8,0-57.53,0-86.5C224.5,316.92,272.59,316.92,321.16,316.92z"/>
	
		<linearGradient id="SVGID_00000029031042170986967730000015226670419278666667_" gradientUnits="userSpaceOnUse" x1="189.2029" y1="209.6035" x2="308.2953" y2="209.6035">
		<stop  offset="0" style="stop-color:#00ADEE"/>
		<stop  offset="1" style="stop-color:#2E3191"/>
	</linearGradient>
	<path style="fill:url(#SVGID_00000029031042170986967730000015226670419278666667_);" d="M227.36,239.38
		c0-5.65,0.06-11.11-0.02-16.56c-0.06-4.16-2.07-6.59-5.41-6.82c-3.57-0.25-6.19,2.24-6.28,6.3c-0.12,5.59-0.03,11.19-0.03,17.09
		c-8.75,0-17.27,0-26.31,0c0-1.17,0-2.37,0-3.56c0-7.86,0.32-15.73-0.06-23.56c-0.89-18.39,13.72-32.2,31.34-32.48
		c18.83-0.3,37.67-0.39,56.49,0.03c18.5,0.41,31.12,13.81,31.2,32.22c0.04,7.85,0.01,15.71,0.01,23.57c0,1.21,0,2.42,0,4.09
		c-7.38,0-14.33,0-21.28,0c-1.59,0-3.17,0-5.18,0c0-6.04,0.02-11.62-0.01-17.21c-0.01-3.01-1.08-5.4-4.23-6.28
		c-3.96-1.1-7.26,1.59-7.33,6.09c-0.09,5.59-0.02,11.19-0.02,17.09C256.01,239.38,242,239.38,227.36,239.38z"/>
	
		<linearGradient id="SVGID_00000046314476100619712270000009299569319225527705_" gradientUnits="userSpaceOnUse" x1="275.8781" y1="83.7436" x2="384.1262" y2="83.7436">
		<stop  offset="0" style="stop-color:#00ADEE"/>
		<stop  offset="1" style="stop-color:#2E3191"/>
	</linearGradient>
	<path style="fill:url(#SVGID_00000046314476100619712270000009299569319225527705_);" d="M384.01,123.87
		c-5.61-3.85-10.59-7.11-15.38-10.63c-2.53-1.86-5.1-2.63-8.26-2.61c-17.08,0.12-34.17,0.29-51.25-0.04
		c-13.64-0.27-23.92-6.78-29.75-19.13c-5.75-12.18-4.34-24.11,3.82-34.86c5.86-7.71,13.87-12.38,23.62-12.63
		c15.2-0.39,30.43-0.55,45.62-0.04c17.07,0.58,30.66,14.06,31.37,31.2c0.61,14.81,0.18,29.67,0.21,44.5
		C384.01,120.75,384.01,121.85,384.01,123.87z M329.31,72.45c7.47,0,14.94,0.03,22.41-0.01c4.53-0.02,7.11-2.19,7.1-5.85
		c-0.01-3.66-2.52-5.81-7.13-5.82c-15.06-0.05-30.12-0.04-45.18,0c-4.81,0.01-7.41,2.26-7.29,6.04c0.11,3.58,2.71,5.61,7.32,5.63
		C314.12,72.48,321.72,72.45,329.31,72.45z M317.23,93.5c4.1,0,8.21,0.07,12.31-0.02c3.69-0.08,6.06-2.34,6.12-5.62
		c0.05-3.34-2.22-5.73-5.92-5.78c-8.2-0.1-16.41-0.1-24.62,0c-3.7,0.04-5.97,2.42-5.92,5.77c0.05,3.31,2.39,5.55,6.1,5.63
		C309.27,93.57,313.26,93.5,317.23,93.5z"/>
	
		<linearGradient id="SVGID_00000002378054749397101660000002350426955777313694_" gradientUnits="userSpaceOnUse" x1="128.1184" y1="262.2063" x2="369.7202" y2="262.2063">
		<stop  offset="0" style="stop-color:#00ADEE"/>
		<stop  offset="1" style="stop-color:#2E3191"/>
	</linearGradient>
	<path style="fill:url(#SVGID_00000002378054749397101660000002350426955777313694_);" d="M369.72,251.62c0,7.19,0,14.03,0,21.18
		c-80.47,0-160.88,0-241.6,0c0-6.91,0-13.93,0-21.18C208.53,251.62,288.95,251.62,369.72,251.62z"/>
	
		<linearGradient id="SVGID_00000011726737131960281510000005731004226830579088_" gradientUnits="userSpaceOnUse" x1="139.7411" y1="295.0538" x2="357.6369" y2="295.0538">
		<stop  offset="0" style="stop-color:#00ADEE"/>
		<stop  offset="1" style="stop-color:#2E3191"/>
	</linearGradient>
	<path style="fill:url(#SVGID_00000011726737131960281510000005731004226830579088_);" d="M357.64,285.5
		c-11.69,6.35-23.36,12.73-35.1,19c-1.12,0.6-2.64,0.66-3.97,0.66c-46.54,0.03-93.07,0.03-139.61-0.01c-1.44,0-3.05-0.2-4.29-0.86
		c-11.32-6.04-22.58-12.21-33.84-18.35c-0.28-0.15-0.49-0.45-1.08-1c72.82,0,145.21,0,217.61,0
		C357.44,285.12,357.54,285.31,357.64,285.5z"/>
	
		<linearGradient id="SVGID_00000018923566193040471210000014893886320477810318_" gradientUnits="userSpaceOnUse" x1="388.5045" y1="154.7364" x2="450.9893" y2="154.7364">
		<stop  offset="0" style="stop-color:#00ADEE"/>
		<stop  offset="1" style="stop-color:#2E3191"/>
	</linearGradient>
	<path style="fill:url(#SVGID_00000018923566193040471210000014893886320477810318_);" d="M450.99,154.57
		c0.11,17.34-13.98,31.52-31.28,31.48c-17.15-0.04-31.15-14.04-31.2-31.2c-0.05-17.25,13.76-31.3,30.91-31.43
		C436.83,123.29,450.88,137.15,450.99,154.57z"/>
	
		<linearGradient id="SVGID_00000115474501762047105130000013104273752886282938_" gradientUnits="userSpaceOnUse" x1="217.459" y1="136.4746" x2="280.0024" y2="136.4746">
		<stop  offset="0" style="stop-color:#00ADEE"/>
		<stop  offset="1" style="stop-color:#2E3191"/>
	</linearGradient>
	<path style="fill:url(#SVGID_00000115474501762047105130000013104273752886282938_);" d="M248.71,167.69
		c-17.37-0.02-31.42-14.16-31.25-31.46c0.18-17.3,14.03-31,31.32-30.97c17.44,0.02,31.29,13.98,31.22,31.44
		C279.93,153.9,265.98,167.7,248.71,167.69z"/>
</g>
<text transform="matrix(1 0 0 1 103.2043 487.5898)" class="st8 st9">resourceful counsel</text>
</svg>
